<?xml version="1.0" encoding="UTF-8" standalone="no"?>
<!-- Created with Inkscape (http://www.inkscape.org/) -->

<svg
   xmlns:dc="http://purl.org/dc/elements/1.1/"
   xmlns:cc="http://creativecommons.org/ns#"
   xmlns:rdf="http://www.w3.org/1999/02/22-rdf-syntax-ns#"
   xmlns:svg="http://www.w3.org/2000/svg"
   xmlns="http://www.w3.org/2000/svg"
   xmlns:xlink="http://www.w3.org/1999/xlink"
   xmlns:sodipodi="http://sodipodi.sourceforge.net/DTD/sodipodi-0.dtd"
   xmlns:inkscape="http://www.inkscape.org/namespaces/inkscape"
   width="121.4689mm"
   height="122.5068mm"
   viewBox="0 0 121.4689 122.5068"
   version="1.1"
   id="svg8"
   inkscape:version="0.92.1 r15371"
   sodipodi:docname="earth.svg">
  <defs
     id="defs2">
    <linearGradient
       inkscape:collect="always"
       id="linearGradient5993">
      <stop
         style="stop-color:#ffb600;stop-opacity:1"
         offset="0"
         id="stop5989" />
      <stop
         style="stop-color:#ffe45c;stop-opacity:1"
         offset="1"
         id="stop5991" />
    </linearGradient>
    <marker
       inkscape:stockid="Arrow1Lstart"
       orient="auto"
       refY="0"
       refX="0"
       id="Arrow1Lstart"
       style="overflow:visible"
       inkscape:isstock="true">
      <path
         id="path4653"
         d="M 0,0 5,-5 -12.5,0 5,5 Z"
         style="fill-rule:evenodd;stroke:#000000;stroke-width:1.00000003pt"
         transform="matrix(0.8,0,0,0.8,10,0)"
         inkscape:connector-curvature="0" />
    </marker>
    <inkscape:perspective
       sodipodi:type="inkscape:persp3d"
       inkscape:vp_x="634.53518 : 612.4287 : 1"
       inkscape:vp_y="843.39236 : -0.95352924 : 0"
       inkscape:vp_z="43.375754 : -1044.3916 : 1"
       inkscape:persp3d-origin="-37.53537 : 254.32772 : 1"
       id="perspective4572" />
    <inkscape:perspective
       sodipodi:type="inkscape:persp3d"
       inkscape:vp_x="746.89743 : 632.27769 : 1"
       inkscape:vp_y="1023.4291 : -0.90571825 : 0"
       inkscape:vp_z="29.544728 : -941.46775 : 1"
       inkscape:persp3d-origin="-68.638301 : 292.13229 : 1"
       id="perspective4556" />
    <inkscape:perspective
       sodipodi:type="inkscape:persp3d"
       inkscape:vp_x="627.38446 : 608.48187 : 1"
       inkscape:vp_y="833.22226 : -1.0052377 : 0"
       inkscape:vp_z="43.353591 : -1138.1853 : 1"
       inkscape:persp3d-origin="-36.581865 : 230.96162 : 1"
       id="perspective4498" />
    <radialGradient
       inkscape:collect="always"
       xlink:href="#linearGradient5993"
       id="radialGradient6007"
       cx="-19.990854"
       cy="31.130581"
       fx="-19.990854"
       fy="31.130581"
       r="31.129486"
       gradientTransform="matrix(-0.06711823,1.651132,-1.5592608,-0.06338368,168.57119,-8.88122)"
       gradientUnits="userSpaceOnUse" />
    <linearGradient
       inkscape:collect="always"
       xlink:href="#linearGradient5993"
       id="linearGradient6017"
       x1="-37.940022"
       y1="-39.786804"
       x2="-10.739474"
       y2="-15.036676"
       gradientUnits="userSpaceOnUse"
       gradientTransform="matrix(0.78758669,0,0,1.0028468,88.07535,206.03128)" />
    <linearGradient
       inkscape:collect="always"
       xlink:href="#linearGradient5993"
       id="linearGradient6027"
       x1="21.975822"
       y1="53.796452"
       x2="45.181381"
       y2="82.973267"
       gradientUnits="userSpaceOnUse" />
    <linearGradient
       inkscape:collect="always"
       xlink:href="#linearGradient5993"
       id="linearGradient6034"
       gradientUnits="userSpaceOnUse"
       x1="21.975822"
       y1="53.796452"
       x2="45.181381"
       y2="82.973267"
       gradientTransform="matrix(0.80539104,0,0,1.0449704,-156.26577,-194.61491)" />
    <linearGradient
       inkscape:collect="always"
       xlink:href="#linearGradient5993"
       id="linearGradient6047"
       gradientUnits="userSpaceOnUse"
       gradientTransform="matrix(0.80539104,0,0,1.0449704,-156.26577,-194.61491)"
       x1="21.975822"
       y1="53.796452"
       x2="45.181381"
       y2="82.973267" />
  </defs>
  <sodipodi:namedview
     id="base"
     pagecolor="#ffffff"
     bordercolor="#666666"
     borderopacity="1.0"
     inkscape:pageopacity="0.0"
     inkscape:pageshadow="2"
     inkscape:zoom="0.24748737"
     inkscape:cx="-451.26948"
     inkscape:cy="-1035.1647"
     inkscape:document-units="mm"
     inkscape:current-layer="g5566"
     showgrid="false"
     inkscape:snap-grids="false"
     inkscape:snap-global="false"
     fit-margin-top="0"
     fit-margin-left="0"
     fit-margin-right="0"
     fit-margin-bottom="0"
     inkscape:window-width="1632"
     inkscape:window-height="998"
     inkscape:window-x="48"
     inkscape:window-y="30"
     inkscape:window-maximized="1" />
  <metadata
     id="metadata5">
    <rdf:RDF>
      <cc:Work
         rdf:about="">
        <dc:format>image/svg+xml</dc:format>
        <dc:type
           rdf:resource="http://purl.org/dc/dcmitype/StillImage" />
        <dc:title></dc:title>
      </cc:Work>
    </rdf:RDF>
  </metadata>
  <g
     inkscape:label="Ebene 1"
     inkscape:groupmode="layer"
     id="layer1"
     transform="translate(105.27994,184.08981)">
    <g
       id="g5566">
      <g
         id="g6045">
        <g
           id="g5943">
          <circle
             r="56.318451"
             cy="-122.31747"
             cx="-44.545494"
             id="circle5924"
             style="opacity:1;fill:#a0d4e0;fill-opacity:1;fill-rule:nonzero;stroke:#000000;stroke-width:8.83199978;stroke-linecap:round;stroke-linejoin:miter;stroke-miterlimit:4;stroke-dasharray:none;stroke-opacity:0.99667777;paint-order:markers stroke fill" />
          <path
             style="fill:#205910;fill-opacity:1;fill-rule:evenodd;stroke:#000000;stroke-width:0.99999994px;stroke-linecap:butt;stroke-linejoin:miter;stroke-opacity:1"
             d="m 944.46289,-472.68945 a 212.85714,212.85714 0 0 0 -115.89062,189.46289 212.85714,212.85714 0 0 0 4.11328,40.71094 h 15.03906 c 1.8769,0 10.75584,-0.33601 11.42773,0 1.7036,0.85186 -0.85189,4.01118 0,5.71484 0.60231,1.20469 2.25513,1.65078 2.85743,2.85547 0.8518,1.7037 -0.8518,4.01114 0,5.71484 0.6024,1.20465 2.25502,1.65274 2.85742,2.85742 0.8518,1.70366 -0.8519,4.01119 0,5.71485 0.6023,1.20468 2.25512,1.65273 2.85742,2.85742 0.4259,0.85183 -0.4259,2.00364 0,2.85547 0.6023,1.20465 2.25317,1.65273 2.85547,2.85742 0.8519,1.70366 -0.8518,4.01115 0,5.71484 0.6024,1.20465 2.25502,1.65274 2.85742,2.85743 0.4259,0.85182 -0.6734,2.18398 0,2.85742 0.6734,0.67347 2.18402,-0.67344 2.85742,0 1.3469,1.34685 -0.8518,4.00923 0,5.71289 0.6024,1.20468 2.25502,1.65273 2.85742,2.85742 0.4259,0.85183 -0.4259,2.00559 0,2.85742 0.6023,1.20469 2.25512,1.65274 2.85743,2.85742 0.8518,1.70366 -1.34691,4.36797 0,5.71485 0.67339,0.67343 2.00552,-0.42592 2.85742,0 11.8907,5.94523 -3.05408,-0.19867 2.85742,5.71289 0.6734,0.67343 2.00367,-0.42592 2.85547,0 1.2047,0.60234 1.90502,1.90502 2.85742,2.85742 2.2317,2.23166 6.10687,6.92862 8.57227,8.57227 4.204,2.80267 9.63885,4.16606 14.28515,5.71484 8.57151,2.85713 17.14344,5.71318 25.71485,8.57031 2.85719,0.95237 5.77411,1.73891 8.57031,2.85742 1.9773,0.79091 3.81014,1.90506 5.71484,2.85743 1.9048,0.9524 3.94295,1.67616 5.71485,2.85742 1.1207,0.74713 1.65272,2.25508 2.85742,2.85742 0.8518,0.42591 1.90502,0 2.85742,0 0.9524,0 2.18207,0.67343 2.85547,0 0.092,-0.0919 0,-7.87933 0,-8.57227 0,-6.70049 -0.67318,1.3463 2.85742,-5.71484 0.4259,-0.85187 0,-1.90502 0,-2.85742 0,-5.44403 -0.60208,-9.09595 2.85742,-14.28516 0.5283,-0.79241 2.18392,0.67344 2.85742,0 0.6734,-0.67343 0,-1.90506 0,-2.85742 v -20 c 0,-1.28674 0.4347,-7.70077 0,-8.57031 -0.6024,-1.20469 -2.25502,-1.65274 -2.85742,-2.85742 -0.8518,-1.70366 0.8519,-4.01115 0,-5.71485 -0.6023,-1.20465 -1.90502,-1.90506 -2.85742,-2.85742 -0.9524,-0.95237 -1.65272,-2.25508 -2.85742,-2.85742 -3.941,-1.9705 -2.55429,3.46182 -5.71289,-2.85547 -0.426,-0.85183 0.6734,-2.18399 0,-2.85742 -1.4286,-1.42855 -7.14367,1.42858 -8.57227,0 -0.6734,-0.6734 0.6735,-2.18399 0,-2.85742 -0.6734,-0.67344 -2.00562,0.42591 -2.85742,0 -1.2047,-0.60235 -1.65272,-2.25508 -2.85742,-2.85743 -0.8518,-0.42591 -2.18207,0.67344 -2.85547,0 -0.6734,-0.67343 0.6734,-2.18398 0,-2.85742 -0.6734,-0.67343 -2.18402,0.67344 -2.85742,0 -1.3469,-1.34687 0.8518,-4.01114 0,-5.71484 -0.6024,-1.20469 -2.25502,-1.65078 -2.85742,-2.85547 -0.4259,-0.85183 0.4259,-2.00559 0,-2.85742 -0.60231,-1.20469 -2.25513,-1.65274 -2.85743,-2.85742 -0.4259,-0.85187 0.4259,-2.0056 0,-2.85743 -0.6024,-1.20465 -2.25502,-1.65273 -2.85742,-2.85742 -0.37561,-0.75126 0,-9.93369 0,-11.42773 0,-5.22029 0.68584,-2.85742 5.71485,-2.85742 6.18519,0 5.86423,-0.85155 11.42773,2.85742 2.2413,1.49423 3.30544,4.5082 5.71484,5.71289 0.8518,0.42587 2.18403,-0.67344 2.85743,0 1.5059,1.50584 1.67612,3.94292 2.85742,5.71484 3.9023,5.85354 5.03441,1.08951 8.57031,2.85742 1.2047,0.60235 1.65282,2.25508 2.85742,2.85743 0.8696,0.43475 7.28547,0 8.57227,0 h 20.00001 c 1.9872,0 13.2518,0.51658 14.2851,0 2.4093,-1.20469 3.3055,-4.51016 5.7149,-5.71485 0.8518,-0.42591 2.184,0.67344 2.8574,0 0.092,-0.0919 0,-7.87933 0,-8.57226 0,-1.98724 0.5166,-13.25191 0,-14.28516 -3.1586,-6.31729 -1.7738,-0.88693 -5.7148,-2.85742 -6.3173,-3.15867 -0.887,-1.77187 -2.8575,-5.71289 -0.6024,-1.20465 -2.255,-1.65274 -2.8574,-2.85742 -0.4259,-0.85183 0,-1.90506 0,-2.85743 v -2.85742 -14.28515 c 0,-0.95241 0.6735,-2.18399 0,-2.85743 -1.3468,-1.34687 -4.0111,0.85183 -5.7148,0 -2.4093,-1.20465 -3.3036,-4.51015 -5.7129,-5.71484 -0.8519,-0.42592 -2.184,0.67344 -2.8574,0 -0.6734,-0.67344 0.6734,-2.18402 0,-2.85742 -0.6734,-0.67344 -2.18405,0.6734 -2.85746,0 -0.6735,-0.67344 0.4259,-2.00559 0,-2.85742 -1.4058,-2.81152 -10.02193,-8.61622 -11.42773,-11.42774 -0.4259,-0.85183 0,-1.90502 0,-2.85742 0,-1.20189 -0.425,-16.29268 0,-17.14258 0.6023,-1.20469 2.25317,-1.65273 2.85547,-2.85742 0.426,-0.85183 -0.4259,-2.00559 0,-2.85742 0.6024,-1.20469 2.25502,-1.65078 2.85742,-2.85547 0.4259,-0.85183 -0.6734,-2.18399 0,-2.85742 0.6734,-0.67344 2.18402,0.67343 2.85742,0 0.6735,-0.67344 -0.4259,-2.0056 0,-2.85742 1.2047,-2.40938 4.51018,-3.30548 5.71488,-5.71485 0.8518,-1.70366 -1.3469,-4.36797 0,-5.71484 0.6734,-0.67344 2.1839,0.6734 2.8574,0 0.6734,-0.67344 0,-1.90502 0,-2.85742 v -2.85547 -14.28711 c 0,-1.90477 0.4619,-3.86501 0,-5.71289 -0.5165,-2.06601 -2.3409,-3.64884 -2.8574,-5.71485 -0.462,-1.84788 0.6024,-3.90781 0,-5.71484 -0.4259,-1.27775 -2.43156,-1.57968 -2.85746,-2.85742 -0.6024,-1.80699 0.60231,-3.9059 0,-5.71289 -0.4259,-1.27775 -2.25502,-1.65278 -2.85742,-2.85742 -1.94551,-3.89104 -0.67724,-3.37294 0.3125,-2.63477 -0.60012,-0.55376 -1.48596,-1.39611 -3.16992,-3.08008 -0.4259,-0.85183 0.4259,-2.00559 0,-2.85742 -2.35,-4.70007 -15.31674,-9.77934 -11.42773,-17.14258 13.37549,6.68772 8.3512,5.71485 20.00003,5.71485 h 2.8574 c 0.9523,0 2.0056,0.42591 2.8574,0 1.2047,-0.60235 1.9032,-1.90506 2.8555,-2.85743 0.9524,-0.9524 1.905,-1.90502 2.8574,-2.85742 3.5306,-3.53057 2.8574,-1.51084 2.8574,-5.71484 0,-0.95237 0.4259,-2.00364 0,-2.85547 -2.8043,-5.60871 -5.4286,-1.28654 -8.5703,-2.85742 -1.2047,-0.60231 -1.5797,-2.43151 -2.8574,-2.85742 -1.8071,-0.60235 -3.867,0.46197 -5.71486,0 -2.066,-0.51648 -3.62664,-2.43979 -5.71484,-2.85743 -2.8017,-0.56035 -5.75211,0.46972 -8.57031,0 -2.9708,-0.49511 -5.60157,-2.3623 -8.57227,-2.85742 -5.6365,-0.93944 -11.53928,1.12067 -17.14258,0 -2.08829,-0.41764 -3.64884,-2.34095 -5.71484,-2.85742 -1.8479,-0.46197 -3.86499,0.46193 -5.71289,0 -1.17734,-0.29434 -2.2152,-0.95671 -3.26172,-1.60156 z m 52.14453,47.53906 c 1.21407,1.12029 0.7689,0.57346 0,0 z"
             transform="matrix(0.26458333,0,0,0.26458333,-320.09014,-47.380413)"
             id="path5926"
             inkscape:connector-curvature="0" />
        </g>
        <path
           inkscape:transform-center-y="-12.851193"
           inkscape:transform-center-x="-14.363096"
           transform="rotate(-90)"
           d="m 179.71602,-44.80687 a 56.318451,56.318451 0 0 1 -18.6541,41.8708066 56.318451,56.318451 0 0 1 -43.60487,14.1334624 l 5.94052,-56.004269 z"
           sodipodi:end="1.6764738"
           sodipodi:start="0"
           sodipodi:ry="56.318451"
           sodipodi:rx="56.318451"
           sodipodi:cy="-44.80687"
           sodipodi:cx="123.39757"
           sodipodi:type="arc"
           style="opacity:1;fill:url(#radialGradient6007);fill-opacity:1;fill-rule:evenodd;stroke:#000000;stroke-width:4.57729149;stroke-linecap:round;stroke-linejoin:miter;stroke-miterlimit:4;stroke-dasharray:none;stroke-opacity:0.99667777;paint-order:markers stroke fill"
           id="circle5955" />
        <path
           id="path5957"
           style="opacity:1;fill:url(#linearGradient6047);fill-opacity:1;fill-rule:nonzero;stroke:#000000;stroke-width:5.05625772;stroke-linecap:round;stroke-linejoin:miter;stroke-miterlimit:4;stroke-dasharray:none;stroke-opacity:0.99667777;paint-order:markers stroke fill"
           sodipodi:type="arc"
           sodipodi:cx="-140.20265"
           sodipodi:cy="-142.24924"
           sodipodi:rx="27.142889"
           sodipodi:ry="54.360344"
           sodipodi:start="0"
           sodipodi:end="1.6764738"
           d="m -113.05976,-142.24924 a 27.142889,54.360344 0 0 1 -8.99042,40.41502 27.142889,54.360344 0 0 1 -21.01553,13.642068 l 2.86306,-54.057088 z"
           transform="matrix(-0.68578353,0.72780557,0.98944024,0.14494141,0,0)" />
        <path
           transform="matrix(-0.68011628,0.73310425,-0.03132683,-0.99950919,0,0)"
           d="m 84.913721,166.0854 a 26.616095,54.84103 0 0 1 -8.815925,40.7724 26.616095,54.84103 0 0 1 -20.607659,13.76269 l 2.807489,-54.53509 z"
           sodipodi:end="1.6764738"
           sodipodi:start="0"
           sodipodi:ry="54.84103"
           sodipodi:rx="26.616095"
           sodipodi:cy="166.0854"
           sodipodi:cx="58.297626"
           sodipodi:type="arc"
           style="opacity:1;fill:url(#linearGradient6017);fill-opacity:1;fill-rule:nonzero;stroke:#000000;stroke-width:5.46020174;stroke-linecap:round;stroke-linejoin:miter;stroke-miterlimit:4;stroke-dasharray:none;stroke-opacity:0.99667777;paint-order:markers stroke fill"
           id="path5959" />
      </g>
    </g>
  </g>
</svg>
