<?xml version="1.0" encoding="UTF-8" standalone="no"?>
<!-- Created with Inkscape (http://www.inkscape.org/) -->

<svg
   xmlns:dc="http://purl.org/dc/elements/1.1/"
   xmlns:cc="http://creativecommons.org/ns#"
   xmlns:rdf="http://www.w3.org/1999/02/22-rdf-syntax-ns#"
   xmlns:svg="http://www.w3.org/2000/svg"
   xmlns="http://www.w3.org/2000/svg"
   xmlns:sodipodi="http://sodipodi.sourceforge.net/DTD/sodipodi-0.dtd"
   xmlns:inkscape="http://www.inkscape.org/namespaces/inkscape"
   width="37.141567mm"
   height="38.775417mm"
   viewBox="0 0 37.141567 38.775417"
   version="1.1"
   id="svg8"
   inkscape:version="0.92.1 r15371"
   sodipodi:docname="unknown.svg">
  <defs
     id="defs2">
    <marker
       inkscape:stockid="Arrow1Lstart"
       orient="auto"
       refY="0"
       refX="0"
       id="Arrow1Lstart"
       style="overflow:visible"
       inkscape:isstock="true">
      <path
         id="path4653"
         d="M 0,0 5,-5 -12.5,0 5,5 Z"
         style="fill-rule:evenodd;stroke:#000000;stroke-width:1.00000003pt"
         transform="matrix(0.8,0,0,0.8,10,0)"
         inkscape:connector-curvature="0" />
    </marker>
    <inkscape:perspective
       sodipodi:type="inkscape:persp3d"
       inkscape:vp_x="634.53517 : 612.42866 : 1"
       inkscape:vp_y="843.39235 : -0.95352919 : 0"
       inkscape:vp_z="43.375754 : -1044.3915 : 1"
       inkscape:persp3d-origin="-37.53537 : 254.3277 : 1"
       id="perspective4572" />
    <inkscape:perspective
       sodipodi:type="inkscape:persp3d"
       inkscape:vp_x="746.89743 : 632.27765 : 1"
       inkscape:vp_y="1023.4292 : -0.90571819 : 0"
       inkscape:vp_z="29.544729 : -941.4677 : 1"
       inkscape:persp3d-origin="-68.638301 : 292.13227 : 1"
       id="perspective4556" />
    <inkscape:perspective
       sodipodi:type="inkscape:persp3d"
       inkscape:vp_x="627.38445 : 608.48184 : 1"
       inkscape:vp_y="833.22225 : -1.0052376 : 0"
       inkscape:vp_z="43.353591 : -1138.1852 : 1"
       inkscape:persp3d-origin="-36.581865 : 230.9616 : 1"
       id="perspective4498" />
  </defs>
  <sodipodi:namedview
     id="base"
     pagecolor="#ffffff"
     bordercolor="#666666"
     borderopacity="1.0"
     inkscape:pageopacity="0.0"
     inkscape:pageshadow="2"
     inkscape:zoom="1.4"
     inkscape:cx="-123.47331"
     inkscape:cy="60.937776"
     inkscape:document-units="mm"
     inkscape:current-layer="layer1"
     showgrid="false"
     inkscape:snap-grids="false"
     inkscape:snap-global="false"
     fit-margin-top="0"
     fit-margin-left="0"
     fit-margin-right="0"
     fit-margin-bottom="0"
     inkscape:window-width="1632"
     inkscape:window-height="998"
     inkscape:window-x="48"
     inkscape:window-y="30"
     inkscape:window-maximized="1" />
  <metadata
     id="metadata5">
    <rdf:RDF>
      <cc:Work
         rdf:about="">
        <dc:format>image/svg+xml</dc:format>
        <dc:type
           rdf:resource="http://purl.org/dc/dcmitype/StillImage" />
        <dc:title />
      </cc:Work>
    </rdf:RDF>
  </metadata>
  <g
     inkscape:label="Ebene 1"
     inkscape:groupmode="layer"
     id="layer1"
     transform="translate(-106.44893,-64.724413)">
    <rect
       style="opacity:1;fill:#ffffff;fill-opacity:1;fill-rule:nonzero;stroke:#000000;stroke-width:1.10000002;stroke-linecap:round;stroke-miterlimit:4;stroke-dasharray:none;stroke-opacity:1"
       id="rect4496"
       width="16.303446"
       height="10.958061"
       x="108.35254"
       y="87.43512"
       ry="1.4174107" />
    <rect
       y="164.0202"
       x="146.30238"
       height="10.958051"
       width="19.13452"
       id="rect4574"
       style="opacity:1;fill:#ffffff;fill-opacity:1;fill-rule:nonzero;stroke:#000000;stroke-width:1.19168603;stroke-linecap:round;stroke-miterlimit:4;stroke-dasharray:none;stroke-opacity:1"
       transform="matrix(0.85204338,-0.52347118,0,1,0,0)"
       ry="0.51971728" />
    <rect
       transform="matrix(0.85471907,-0.51909085,0,1,0,0)"
       style="opacity:1;fill:#bdbce5;fill-opacity:1;fill-rule:nonzero;stroke:#000000;stroke-width:2.60898757;stroke-linecap:round;stroke-miterlimit:4;stroke-dasharray:none;stroke-opacity:1;paint-order:markers stroke fill"
       id="rect4578"
       width="20.201271"
       height="3.7398252"
       x="146.49153"
       y="161.98999"
       ry="1.0086967" />
    <rect
       style="opacity:1;fill:#bdbce5;fill-opacity:1;fill-rule:nonzero;stroke:#000000;stroke-width:3.13352442;stroke-linecap:round;stroke-miterlimit:4;stroke-dasharray:none;stroke-opacity:1;paint-order:markers stroke fill"
       id="rect4580"
       width="16.504152"
       height="19.144583"
       x="253.25908"
       y="148.43019"
       transform="matrix(1,0,-0.86207911,0.50677373,0,0)"
       ry="0.55469829" />
    <rect
       y="86.073723"
       x="107.60847"
       height="3.6440821"
       width="16.496777"
       id="rect4576"
       style="opacity:1;fill:#bdbce5;fill-opacity:1;fill-rule:nonzero;stroke:#000000;stroke-width:2.31908298;stroke-linecap:round;stroke-linejoin:miter;stroke-miterlimit:4;stroke-dasharray:none;stroke-opacity:1;paint-order:markers stroke fill"
       ry="0.57387948" />
    <rect
       ry="0.38756177"
       transform="matrix(1,0,-0.86207911,0.50677373,0,0)"
       y="151.31442"
       x="255.74551"
       height="13.376115"
       width="11.531275"
       id="rect5080"
       style="opacity:1;fill:#625ec1;fill-opacity:1;fill-rule:nonzero;stroke:#000000;stroke-width:2.1893599;stroke-linecap:round;stroke-miterlimit:4;stroke-dasharray:none;stroke-opacity:0;paint-order:markers stroke fill" />
    <g
       transform="matrix(1.7579286,0,0,1.7296222,-96.014308,2.0442439)"
       id="g5321"
       style="font-style:normal;font-weight:normal;font-size:29.24151039px;line-height:125%;font-family:Sans;letter-spacing:0px;word-spacing:0px;fill:#0b00e5;fill-opacity:1;stroke:#fcfcfc;stroke-width:1.68024361;stroke-linecap:butt;stroke-linejoin:miter;stroke-miterlimit:4;stroke-dasharray:none;stroke-opacity:1"
       aria-label="?">
      <path
         inkscape:connector-curvature="0"
         id="path5319"
         style="font-style:normal;font-variant:normal;font-weight:bold;font-stretch:normal;font-size:29.24151039px;font-family:'Alte Haas Grotesk';-inkscape-font-specification:'Alte Haas Grotesk, Bold';font-variant-ligatures:normal;font-variant-caps:normal;font-variant-numeric:normal;font-feature-settings:normal;text-align:start;writing-mode:lr-tb;text-anchor:start;fill:#0b00e5;fill-opacity:1;stroke:#fcfcfc;stroke-width:1.68024361;stroke-miterlimit:4;stroke-dasharray:none;stroke-opacity:1"
         d="m 132.58823,42.116064 q 0.0585,0.146207 0.0585,0.409381 0,0.263173 -0.0585,0.438622 -0.0293,0.146208 -0.0293,0.292416 0.0293,0.116966 0,0.263173 -0.0877,0.38014 -0.17544,0.731038 -0.0585,0.321657 -0.2047,0.643313 -0.23393,0.497106 -0.55558,0.994212 -0.32166,0.497105 -0.73104,0.818762 l -0.14621,0.146207 q -0.23393,0.175449 -0.46786,0.38014 -0.20469,0.175449 -0.43863,0.350898 -0.40938,0.292415 -0.81876,0.58483 -0.38014,0.292415 -0.73104,0.643314 -0.58483,0.58483 -0.848,1.403592 -0.11697,0.321657 -0.11697,0.760279 0,0.409381 -0.17544,0.643314 -0.11697,0.116966 -0.26318,0.146207 -0.14621,0.02924 -0.32166,0.08772 h -0.73103 q -0.26318,0 -0.61407,0.02924 -0.3509,0 -0.7018,0 -0.32166,-0.02924 -0.58483,-0.08772 -0.26317,-0.05848 -0.38014,-0.204691 -0.11697,-0.146208 -0.14621,-0.350898 0,-0.233932 0,-0.467864 v -0.233932 q 0.0292,-0.146208 0.0292,-0.292415 0.0292,-0.146208 0.0292,-0.292416 0.11697,-0.380139 0.17545,-0.731037 0.0877,-0.38014 0.23394,-0.701797 0.23393,-0.555588 0.61407,-1.111177 0.38014,-0.555589 0.78952,-0.877245 l 0.26317,-0.263174 q 0.20469,-0.146207 0.3509,-0.263173 0.17545,-0.146208 0.3509,-0.292416 0.46786,-0.321656 0.848,-0.701796 0.38014,-0.380139 0.67256,-0.877245 0.11696,-0.204691 0.20469,-0.526347 0.0877,-0.321657 0.0877,-0.672555 0.0292,-0.350898 -0.0292,-0.701796 -0.0292,-0.350898 -0.14621,-0.614072 -0.0585,-0.175449 -0.17545,-0.350898 -0.0877,-0.175449 -0.20469,-0.321657 -0.17545,-0.233932 -0.46786,-0.380139 -0.29242,-0.175449 -0.61407,-0.292415 -0.11697,-0.02924 -0.20469,-0.02924 -0.0877,0 -0.23394,-0.02924 -0.1462,-0.02924 -0.35089,-0.02924 -0.17545,-0.02924 -0.32166,0 -0.14621,0.05848 -0.29242,0.05848 -0.1462,-0.02924 -0.29241,0.02924 -1.25739,0.438622 -1.78373,1.608283 -0.0877,0.233932 -0.17545,0.497105 -0.0585,0.233932 -0.11697,0.497106 -0.0877,0.321657 -0.1462,0.58483 -0.0293,0.233932 -0.26318,0.38014 -0.17545,0.116966 -0.43862,0.116966 -0.26317,0 -0.52635,0 h -1.72525 q -0.29241,0 -0.55559,0 -0.26317,-0.02924 -0.40938,-0.146208 -0.1462,-0.116966 -0.20469,-0.380139 -0.0585,-0.263174 0,-0.526348 0.0292,-0.175449 0.0585,-0.321656 0.0292,-0.175449 0.0585,-0.350898 0.0877,-0.321657 0.17545,-0.614072 0.0877,-0.321657 0.20469,-0.614072 0.0585,-0.146207 0.11696,-0.292415 0.0585,-0.146207 0.14621,-0.292415 0.29242,-0.497106 0.55559,-0.906487 0.40938,-0.58483 0.96497,-1.023453 0.55559,-0.467864 1.1989,-0.877245 0.20469,-0.146207 0.43862,-0.233932 0.23394,-0.08773 0.46787,-0.175449 0.38014,-0.146208 0.76028,-0.204691 0.40938,-0.05848 0.848,-0.146207 0.17545,-0.02924 0.3509,-0.02924 0.20469,-0.02924 0.40938,-0.02924 1.63753,-0.05848 2.89491,0.292415 1.28663,0.350898 2.22236,1.023453 0.26317,0.20469 0.55558,0.438622 0.29242,0.233932 0.49711,0.497106 0.11697,0.146208 0.23393,0.321657 0.14621,0.146207 0.23393,0.292415 0.0585,0.116966 0.11697,0.20469 0.0585,0.08772 0.11697,0.204691 0.20469,0.321657 0.29241,0.701796 0.11697,0.38014 0.23393,0.789521 0.0585,0.146208 0.0292,0.292415 0,0.116966 0.0293,0.263174 z m -5.05879,14.211374 q 0,0.20469 0.0293,0.409381 0.0292,0.20469 -0.0293,0.38014 v 0.292415 q -0.0585,0.175449 -0.0877,0.321656 -0.0292,0.146208 -0.17545,0.233932 -0.17545,0.116966 -0.43862,0.146208 -0.26318,0 -0.58483,0 h -2.04691 q -0.32165,0 -0.61407,-0.02924 -0.29241,-0.02924 -0.43862,-0.233932 -0.11697,-0.175449 -0.14621,-0.438622 0,-0.292415 0,-0.584831 v -1.900698 q 0,-0.263173 0,-0.526347 0.0292,-0.292415 0.14621,-0.467864 0.14621,-0.175449 0.40938,-0.233932 0.0585,-0.02924 0.11697,0 0.0585,0 0.11696,-0.02924 h 2.33932 q 0.32166,0 0.64332,0 0.32165,0 0.4971,0.146208 0.14621,0.08772 0.17545,0.233932 0.0292,0.146207 0.0877,0.321657 v 0.233932 q 0.0293,0.146207 0,0.292415 0,0.146207 0,0.292415 z" />
    </g>
    <g
       aria-label="?"
       style="font-style:normal;font-weight:normal;font-size:29.24151039px;line-height:125%;font-family:Sans;letter-spacing:0px;word-spacing:0px;fill:#0b00e5;fill-opacity:1;stroke:#000000;stroke-width:0.7310378px;stroke-linecap:butt;stroke-linejoin:miter;stroke-opacity:1"
       id="text5304"
       transform="matrix(1.6854699,0,0,1.6854699,-86.920925,4.1392023)">
      <path
         d="m 132.58823,42.116064 q 0.0585,0.146207 0.0585,0.409381 0,0.263173 -0.0585,0.438622 -0.0293,0.146208 -0.0293,0.292416 0.0293,0.116966 0,0.263173 -0.0877,0.38014 -0.17544,0.731038 -0.0585,0.321657 -0.2047,0.643313 -0.23393,0.497106 -0.55558,0.994212 -0.32166,0.497105 -0.73104,0.818762 l -0.14621,0.146207 q -0.23393,0.175449 -0.46786,0.38014 -0.20469,0.175449 -0.43863,0.350898 -0.40938,0.292415 -0.81876,0.58483 -0.38014,0.292415 -0.73104,0.643314 -0.58483,0.58483 -0.848,1.403592 -0.11697,0.321657 -0.11697,0.760279 0,0.409381 -0.17544,0.643314 -0.11697,0.116966 -0.26318,0.146207 -0.14621,0.02924 -0.32166,0.08772 h -0.73103 q -0.26318,0 -0.61407,0.02924 -0.3509,0 -0.7018,0 -0.32166,-0.02924 -0.58483,-0.08772 -0.26317,-0.05848 -0.38014,-0.204691 -0.11697,-0.146208 -0.14621,-0.350898 0,-0.233932 0,-0.467864 v -0.233932 q 0.0292,-0.146208 0.0292,-0.292415 0.0292,-0.146208 0.0292,-0.292416 0.11697,-0.380139 0.17545,-0.731037 0.0877,-0.38014 0.23394,-0.701797 0.23393,-0.555588 0.61407,-1.111177 0.38014,-0.555589 0.78952,-0.877245 l 0.26317,-0.263174 q 0.20469,-0.146207 0.3509,-0.263173 0.17545,-0.146208 0.3509,-0.292416 0.46786,-0.321656 0.848,-0.701796 0.38014,-0.380139 0.67256,-0.877245 0.11696,-0.204691 0.20469,-0.526347 0.0877,-0.321657 0.0877,-0.672555 0.0292,-0.350898 -0.0292,-0.701796 -0.0292,-0.350898 -0.14621,-0.614072 -0.0585,-0.175449 -0.17545,-0.350898 -0.0877,-0.175449 -0.20469,-0.321657 -0.17545,-0.233932 -0.46786,-0.380139 -0.29242,-0.175449 -0.61407,-0.292415 -0.11697,-0.02924 -0.20469,-0.02924 -0.0877,0 -0.23394,-0.02924 -0.1462,-0.02924 -0.35089,-0.02924 -0.17545,-0.02924 -0.32166,0 -0.14621,0.05848 -0.29242,0.05848 -0.1462,-0.02924 -0.29241,0.02924 -1.25739,0.438622 -1.78373,1.608283 -0.0877,0.233932 -0.17545,0.497105 -0.0585,0.233932 -0.11697,0.497106 -0.0877,0.321657 -0.1462,0.58483 -0.0293,0.233932 -0.26318,0.38014 -0.17545,0.116966 -0.43862,0.116966 -0.26317,0 -0.52635,0 h -1.72525 q -0.29241,0 -0.55559,0 -0.26317,-0.02924 -0.40938,-0.146208 -0.1462,-0.116966 -0.20469,-0.380139 -0.0585,-0.263174 0,-0.526348 0.0292,-0.175449 0.0585,-0.321656 0.0292,-0.175449 0.0585,-0.350898 0.0877,-0.321657 0.17545,-0.614072 0.0877,-0.321657 0.20469,-0.614072 0.0585,-0.146207 0.11696,-0.292415 0.0585,-0.146207 0.14621,-0.292415 0.29242,-0.497106 0.55559,-0.906487 0.40938,-0.58483 0.96497,-1.023453 0.55559,-0.467864 1.1989,-0.877245 0.20469,-0.146207 0.43862,-0.233932 0.23394,-0.08773 0.46787,-0.175449 0.38014,-0.146208 0.76028,-0.204691 0.40938,-0.05848 0.848,-0.146207 0.17545,-0.02924 0.3509,-0.02924 0.20469,-0.02924 0.40938,-0.02924 1.63753,-0.05848 2.89491,0.292415 1.28663,0.350898 2.22236,1.023453 0.26317,0.20469 0.55558,0.438622 0.29242,0.233932 0.49711,0.497106 0.11697,0.146208 0.23393,0.321657 0.14621,0.146207 0.23393,0.292415 0.0585,0.116966 0.11697,0.20469 0.0585,0.08772 0.11697,0.204691 0.20469,0.321657 0.29241,0.701796 0.11697,0.38014 0.23393,0.789521 0.0585,0.146208 0.0292,0.292415 0,0.116966 0.0293,0.263174 z m -5.05879,14.211374 q 0,0.20469 0.0293,0.409381 0.0292,0.20469 -0.0293,0.38014 v 0.292415 q -0.0585,0.175449 -0.0877,0.321656 -0.0292,0.146208 -0.17545,0.233932 -0.17545,0.116966 -0.43862,0.146208 -0.26318,0 -0.58483,0 h -2.04691 q -0.32165,0 -0.61407,-0.02924 -0.29241,-0.02924 -0.43862,-0.233932 -0.11697,-0.175449 -0.14621,-0.438622 0,-0.292415 0,-0.584831 v -1.900698 q 0,-0.263173 0,-0.526347 0.0292,-0.292415 0.14621,-0.467864 0.14621,-0.175449 0.40938,-0.233932 0.0585,-0.02924 0.11697,0 0.0585,0 0.11696,-0.02924 h 2.33932 q 0.32166,0 0.64332,0 0.32165,0 0.4971,0.146208 0.14621,0.08772 0.17545,0.233932 0.0292,0.146207 0.0877,0.321657 v 0.233932 q 0.0293,0.146207 0,0.292415 0,0.146207 0,0.292415 z"
         style="font-style:normal;font-variant:normal;font-weight:bold;font-stretch:normal;font-size:29.24151039px;font-family:'Alte Haas Grotesk';-inkscape-font-specification:'Alte Haas Grotesk, Bold';font-variant-ligatures:normal;font-variant-caps:normal;font-variant-numeric:normal;font-feature-settings:normal;text-align:start;writing-mode:lr-tb;text-anchor:start;fill:#0b00e5;fill-opacity:1;stroke:#000000;stroke-width:0.7310378px;stroke-opacity:1"
         id="path5306"
         inkscape:connector-curvature="0" />
    </g>
  </g>
</svg>
