<?xml version="1.0" encoding="UTF-8" standalone="no"?>
<!-- Created with Inkscape (http://www.inkscape.org/) -->

<svg
   xmlns:dc="http://purl.org/dc/elements/1.1/"
   xmlns:cc="http://creativecommons.org/ns#"
   xmlns:rdf="http://www.w3.org/1999/02/22-rdf-syntax-ns#"
   xmlns:svg="http://www.w3.org/2000/svg"
   xmlns="http://www.w3.org/2000/svg"
   xmlns:sodipodi="http://sodipodi.sourceforge.net/DTD/sodipodi-0.dtd"
   xmlns:inkscape="http://www.inkscape.org/namespaces/inkscape"
   width="40.343929mm"
   height="40.343929mm"
   viewBox="0 0 40.343929 40.343929"
   version="1.1"
   id="svg8"
   sodipodi:docname="dis_Needs_maintenance.svg"
   inkscape:version="0.92.1 r15371">
  <defs
     id="defs2">
    <path
       d="M 0,0 H 48 V 48 H 0 Z"
       id="a"
       inkscape:connector-curvature="0" />
    <path
       d="M 0,0 H 48 V 48 H 0 Z"
       id="a-8"
       inkscape:connector-curvature="0" />
  </defs>
  <sodipodi:namedview
     id="base"
     pagecolor="#ffffff"
     bordercolor="#666666"
     borderopacity="1.0"
     inkscape:pageopacity="0.0"
     inkscape:pageshadow="2"
     inkscape:zoom="0.98994949"
     inkscape:cx="460.28807"
     inkscape:cy="-48.640284"
     inkscape:document-units="mm"
     inkscape:current-layer="layer1"
     showgrid="false"
     inkscape:window-width="1632"
     inkscape:window-height="998"
     inkscape:window-x="48"
     inkscape:window-y="30"
     inkscape:window-maximized="1"
     fit-margin-top="0"
     fit-margin-left="0"
     fit-margin-right="0"
     fit-margin-bottom="0" />
  <metadata
     id="metadata5">
    <rdf:RDF>
      <cc:Work
         rdf:about="">
        <dc:format>image/svg+xml</dc:format>
        <dc:type
           rdf:resource="http://purl.org/dc/dcmitype/StillImage" />
        <dc:title />
      </cc:Work>
    </rdf:RDF>
  </metadata>
  <g
     inkscape:label="Ebene 1"
     inkscape:groupmode="layer"
     id="layer1"
     transform="translate(-71.868973,-308.06516)">
    <rect
       ry="5.0684252"
       y="308.06516"
       x="71.868973"
       height="40.343929"
       width="40.343929"
       id="rect9533"
       style="opacity:1;fill:#969696;fill-opacity:1;fill-rule:nonzero;stroke:none;stroke-width:0.40000001;stroke-linecap:round;stroke-miterlimit:4;stroke-dasharray:none;stroke-opacity:1" />
    <path
       inkscape:connector-curvature="0"
       d="m 99.836336,328.2354 5.395814,-5.39577 c 0.52872,-0.52875 0.52872,-1.38963 0,-1.91835 l -5.877083,-5.87707 c -0.528719,-0.52872 -1.389627,-0.52872 -1.918347,0 l -5.395774,5.39577 -5.3958,-5.38898 c -0.264346,-0.26437 -0.610062,-0.39995 -0.955778,-0.39995 -0.345716,0 -0.691407,0.13553 -0.95578,0.39995 l -5.883859,5.87704 c -0.52872,0.52875 -0.52872,1.38963 0,1.91838 l 5.395799,5.39577 -5.395799,5.38902 c -0.52872,0.52872 -0.52872,1.3896 0,1.91834 l 5.87707,5.87705 c 0.528745,0.52875 1.389628,0.52875 1.918347,0 l 5.3958,-5.39578 5.395774,5.39578 c 0.264369,0.26437 0.610061,0.39996 0.955779,0.39996 0.34572,0 0.691429,-0.13554 0.955778,-0.39996 l 5.877083,-5.87705 c 0.52873,-0.52874 0.52873,-1.38962 0,-1.91834 z m -7.768284,-4.09428 c 0.745644,0 1.355731,0.61007 1.355731,1.35574 0,0.74564 -0.610087,1.35571 -1.355731,1.35571 -0.745644,0 -1.355732,-0.61007 -1.355732,-1.35571 0,-0.74567 0.610088,-1.35574 1.355732,-1.35574 z m -6.385474,2.65723 -4.914477,-4.9145 4.921267,-4.92129 4.914502,4.9145 z m 3.674035,2.76568 c -0.74567,0 -1.355733,-0.61009 -1.355733,-1.35574 0,-0.74564 0.610063,-1.35572 1.355733,-1.35572 0.745643,0 1.355707,0.61008 1.355707,1.35572 0,0.74565 -0.610064,1.35574 -1.355707,1.35574 z m 2.711439,2.71145 c -0.745644,0 -1.355732,-0.6101 -1.355732,-1.35575 0,-0.74564 0.610088,-1.3557 1.355732,-1.3557 0.745644,0 1.355731,0.61006 1.355731,1.3557 0,0.74565 -0.610087,1.35575 -1.355731,1.35575 z m 2.711441,-5.42291 c 0.74564,0 1.355728,0.61008 1.355728,1.35572 0,0.74565 -0.610088,1.35574 -1.355728,1.35574 -0.745649,0 -1.35571,-0.61009 -1.35571,-1.35574 0,-0.74564 0.610061,-1.35572 1.35571,-1.35572 z m 3.613006,12.65568 -4.914505,-4.9145 4.921294,-4.92128 4.914512,4.91452 z"
       id="path14542"
       style="fill:#ffffff;fill-opacity:1;stroke-width:0.67786205" />
  </g>
</svg>
