<?xml version="1.0" encoding="UTF-8" standalone="no"?>
<!-- Created with Inkscape (http://www.inkscape.org/) -->

<svg
   xmlns:dc="http://purl.org/dc/elements/1.1/"
   xmlns:cc="http://creativecommons.org/ns#"
   xmlns:rdf="http://www.w3.org/1999/02/22-rdf-syntax-ns#"
   xmlns:svg="http://www.w3.org/2000/svg"
   xmlns="http://www.w3.org/2000/svg"
   xmlns:sodipodi="http://sodipodi.sourceforge.net/DTD/sodipodi-0.dtd"
   xmlns:inkscape="http://www.inkscape.org/namespaces/inkscape"
   width="40.343929mm"
   height="40.343929mm"
   viewBox="0 0 40.343929 40.343929"
   version="1.1"
   id="svg8"
   sodipodi:docname="dis_Watch_for_livestock.svg"
   inkscape:version="0.92.1 r15371">
  <defs
     id="defs2">
    <path
       d="M 0,0 H 48 V 48 H 0 Z"
       id="a"
       inkscape:connector-curvature="0" />
    <path
       d="M 0,0 H 48 V 48 H 0 Z"
       id="a-8"
       inkscape:connector-curvature="0" />
  </defs>
  <sodipodi:namedview
     id="base"
     pagecolor="#ffffff"
     bordercolor="#666666"
     borderopacity="1.0"
     inkscape:pageopacity="0.0"
     inkscape:pageshadow="2"
     inkscape:zoom="0.7"
     inkscape:cx="114.17763"
     inkscape:cy="-189.24122"
     inkscape:document-units="mm"
     inkscape:current-layer="layer1"
     showgrid="false"
     inkscape:window-width="1632"
     inkscape:window-height="998"
     inkscape:window-x="48"
     inkscape:window-y="30"
     inkscape:window-maximized="1"
     fit-margin-top="0"
     fit-margin-left="0"
     fit-margin-right="0"
     fit-margin-bottom="0"
     showguides="true"
     inkscape:guide-bbox="true" />
  <metadata
     id="metadata5">
    <rdf:RDF>
      <cc:Work
         rdf:about="">
        <dc:format>image/svg+xml</dc:format>
        <dc:type
           rdf:resource="http://purl.org/dc/dcmitype/StillImage" />
        <dc:title />
      </cc:Work>
    </rdf:RDF>
  </metadata>
  <g
     inkscape:label="Ebene 1"
     inkscape:groupmode="layer"
     id="layer1"
     transform="translate(-71.868973,-308.06516)">
    <rect
       ry="5.0684252"
       y="308.06516"
       x="71.868973"
       height="40.343929"
       width="40.343929"
       id="rect9533"
       style="opacity:1;fill:#969696;fill-opacity:1;fill-rule:nonzero;stroke:none;stroke-width:0.40000001;stroke-linecap:round;stroke-miterlimit:4;stroke-dasharray:none;stroke-opacity:1" />
    <path
       d="m 108.2255,329.69929 c -0.0229,-0.11415 -0.0229,-0.23969 -0.0119,-0.35382 0,-0.0799 0,-0.14838 0,-0.21686 0,-0.0685 0,-0.14838 0,-0.21687 -0.0119,-0.13697 0,-0.27393 0.0229,-0.4109 0.0685,-0.36523 0.11414,-0.70764 0.13696,-1.06148 0.0229,-0.2511 0.0343,-0.5022 0.0456,-0.7533 l 0.0229,-0.38806 0.0685,-0.53645 0.0685,-0.68483 c 0.0119,-0.0456 0.0119,-0.0913 0.0119,-0.12552 0,-0.0456 0,-0.0913 -0.0119,-0.12553 l -0.0685,-0.66199 c 0.0685,0.30816 0.13697,0.61633 0.17121,0.92451 l 0.17121,1.11855 0.0119,0.14837 0.0343,0.31959 0.0229,0.23969 v 0.36523 l -0.0119,0.31959 0.0343,0.54786 0.0343,0.68483 0.0343,0.51362 -0.0119,0.86744 -0.0229,0.30817 -0.0229,0.27393 -0.057,0.34241 c 0,0.0685 0.0119,0.14838 0.0119,0.21687 0,0.0913 -0.0119,0.19403 -0.0119,0.29676 0,0.0119 0,0.0227 0,0.0343 0,0.0685 0.0119,0.13696 0.0229,0.19404 0.0456,0.12552 0.0685,0.2511 0.0799,0.38807 0.0229,0.13696 0.0343,0.27393 0.0685,0.41089 0.0343,0.13697 0.057,0.27393 0.057,0.42231 l 0.0119,0.28535 c 0,0.057 0.0343,0.11415 0.0799,0.13696 0.0685,0.0456 0.15978,0.0799 0.2511,0.0799 0.0119,0 0.0229,0.0119 0.0343,0.0119 0.0685,0 0.12552,-0.0229 0.18263,-0.0456 0.11414,-0.0343 0.17119,-0.13697 0.17119,-0.2511 v -0.5707 c 0,-0.2511 -0.0229,-0.5022 -0.0685,-0.7533 -0.0343,-0.20544 -0.0343,-0.42231 -0.0119,-0.63917 0.0119,-0.057 0.0229,-0.12552 0.0456,-0.19404 0.0119,-0.0685 0.0119,-0.13696 0.0119,-0.21685 v 0 c 0,-0.057 -0.0119,-0.11415 -0.0456,-0.14838 -0.0685,-0.0913 -0.11415,-0.17121 -0.14837,-0.27393 -0.057,-0.12553 -0.10277,-0.25111 -0.13698,-0.38807 -0.0343,-0.10277 -0.057,-0.21686 -0.0456,-0.33099 0.0119,-0.18263 0.0119,-0.36525 0.0119,-0.54786 v -0.0119 c 0,-0.23969 0.0229,-0.47938 0.057,-0.71907 0.0343,-0.20544 0.0571,-0.42231 0.0571,-0.63917 v -1.43813 l 0.0229,-1.82621 -0.0229,-0.81036 c -0.0119,-0.13697 -0.0119,-0.27395 -0.0229,-0.4109 -0.0119,-0.44514 -0.0913,-0.86745 -0.23969,-1.27835 -0.14838,-0.39948 -0.35382,-0.7533 -0.63917,-1.07289 -0.26251,-0.28535 -0.54786,-0.54786 -0.86744,-0.77613 -0.20545,-0.14839 -0.42231,-0.27394 -0.65058,-0.36524 -0.331,-0.13697 -0.68483,-0.26252 -1.03866,-0.35384 -0.23968,-0.0685 -0.47937,-0.10277 -0.73048,-0.11415 -0.1712,-0.0119 -0.38806,-0.0119 -0.59351,-0.0229 -0.13696,0 -0.19403,0 -0.23969,0 -0.34241,0 -0.67341,0.0229 -1.00441,0.0799 -0.15979,0.0343 -0.30817,0.057 -0.46796,0.0799 -0.22828,0.0343 -0.44514,0.057 -0.662,0.0799 -0.53645,0.057 -1.08431,0.10278 -1.63217,0.13697 -0.958753,0.0456 -2.008823,0.13697 -3.070303,0.23969 -0.445134,0.057 -0.810376,0.0913 -1.175617,0.11415 -0.09131,0.0119 -0.2511,0.0229 -0.399481,0.0343 -0.171206,0.0119 -0.296756,0.0119 -0.422309,-0.0119 -0.102721,-0.0119 -0.205448,-0.0229 -0.319584,-0.0343 -0.388067,-0.0571 -0.764722,-0.0799 -1.141375,-0.0799 -1.004411,0 -2.020235,-0.0685 -3.024646,-0.21687 -1.107136,-0.15979 -2.19144,-0.2511 -3.298576,-0.2511 -0.04566,0 -0.07989,0 -0.102721,0 -0.285346,0 -0.570687,0 -0.844618,0.0229 -0.29676,0.0229 -0.616343,0.057 -0.935928,0.0913 -0.285345,0.0343 -0.593515,0.0571 -0.913102,0.0799 -0.399481,0.0343 -0.764722,0.0456 -1.129961,0.0343 -0.262517,-0.0119 -0.525035,-0.0343 -0.798963,-0.057 -0.296759,-0.0229 -0.593516,-0.0799 -0.890275,-0.1598 -0.353826,-0.0913 -0.707652,-0.20544 -1.050063,-0.35382 -0.136967,-0.0456 -0.262517,-0.11415 -0.38807,-0.18262 l -0.205446,-0.12553 0.09131,-0.21685 c 0.03424,-0.0343 0.04566,-0.0799 0.04566,-0.13697 0,-0.0119 0,-0.0229 0,-0.0343 -0.02283,-0.0913 -0.06848,-0.15979 -0.159792,-0.19404 -0.10272,-0.0343 -0.216861,-0.0799 -0.342415,-0.11415 -0.07989,-0.0342 -0.171206,-0.0685 -0.251101,-0.10277 -0.114135,-0.0571 -0.239688,-0.10277 -0.365242,-0.12552 -0.12555,-0.0229 -0.239686,-0.0913 -0.319583,-0.19404 l -0.456551,-0.55927 c -0.02283,-0.0229 -0.04566,-0.0343 -0.06848,-0.0456 -0.01138,0 -0.02283,0 -0.03424,0 -0.03424,0 -0.05707,0.0229 -0.0799,0.057 -0.01138,0.0343 -0.01138,0.0685 -0.01138,0.10277 0,0.0343 0,0.0685 0.01138,0.0913 l 0.05707,0.13696 0.114136,0.30818 0.136967,0.36524 h -0.01138 c -0.194034,0.0119 -0.365242,0.0571 -0.525035,0.13696 -0.07989,0.0456 -0.205447,0.11415 -0.319584,0.18263 -0.159791,0.0799 -0.251102,0.15978 -0.331,0.26251 -0.03424,0.0343 -0.06848,0.0685 -0.114135,0.0913 -0.05707,0.0343 -0.125551,0.0456 -0.194034,0.0229 -0.10272,-0.0229 -0.205448,-0.0913 -0.273931,-0.18262 l -0.502203,-0.65059 c -0.03424,-0.0342 -0.06849,-0.0571 -0.114136,-0.0571 -0.01138,-0.0119 -0.02283,-0.0119 -0.02283,-0.0119 -0.04566,0 -0.07991,0.0229 -0.102721,0.057 -0.02283,0.0456 -0.03424,0.0913 -0.03424,0.13696 0,0.0229 0,0.057 0.01138,0.0913 l 0.0799,0.18262 0.148377,0.36524 0.114136,0.22828 0.12555,0.1712 0.09131,0.13697 0.194034,0.331 c 0.01138,0.0229 0.02283,0.0456 0.02283,0.0685 0,0.0343 -0.01138,0.0571 -0.03424,0.0799 -0.07989,0.10277 -0.171209,0.20544 -0.273931,0.30816 -0.07989,0.0799 -0.18262,0.13697 -0.285345,0.1598 -0.12555,0.0342 -0.228275,0.13696 -0.262514,0.26251 -0.03424,0.11415 -0.06849,0.23969 -0.0799,0.35384 -0.02283,0.19402 -0.114135,0.36523 -0.239688,0.5022 -0.102721,0.0913 -0.18262,0.19403 -0.251101,0.30818 -0.114136,0.17119 -0.228276,0.3424 -0.365242,0.5022 -0.102721,0.12552 -0.18262,0.27393 -0.251102,0.41089 -0.06849,0.1712 -0.159793,0.331 -0.285344,0.45655 l -0.719065,0.77613 c -0.01138,0.0571 -0.02283,0.11415 -0.02283,0.17121 0,0.0456 0,0.0799 0.01138,0.11415 0.02283,0.15979 0.06848,0.31959 0.114136,0.46797 0.04566,0.12552 0.114136,0.22827 0.194033,0.33099 0.0799,0.0913 0.159793,0.18263 0.262517,0.26252 0.102721,0.0799 0.228276,0.14838 0.353826,0.19404 0.05707,0.0119 0.114136,0.0229 0.171206,0.0229 0.09131,0 0.18262,-0.0229 0.262518,-0.0685 0.07989,-0.0456 0.159792,-0.0685 0.251103,-0.0913 0.125551,-0.0343 0.262515,-0.0343 0.399482,-0.0119 0.194033,0.0343 0.365239,0.0685 0.525032,0.10278 -0.05707,-0.0119 0.03424,-0.0119 0.12555,-0.0119 0.09131,0 0.194034,-0.0119 0.29676,-0.0229 0.171206,-0.0456 0.342411,-0.0799 0.502203,-0.10277 0.09131,-0.0229 0.239689,-0.0685 0.376654,-0.12553 0.102721,-0.0456 0.216861,-0.0456 0.331,-0.0119 0.125551,0.0456 0.251104,0.10277 0.376655,0.17121 0.285344,0.15979 0.593514,0.26251 0.913098,0.31959 0.114136,0.0227 0.228275,0.0456 0.331002,0.0685 0.148377,0.0229 0.330997,0.0456 0.502203,0.0456 0.125551,0.0119 0.251104,0.0343 0.376654,0.0913 0.228276,0.11415 0.433722,0.28535 0.582101,0.50221 0.194036,0.28534 0.365242,0.5821 0.51362,0.90168 0.114136,0.2397 0.251104,0.4908 0.388068,0.73049 0.102721,0.17121 0.194033,0.37665 0.273931,0.5821 0.114135,0.28534 0.228272,0.53645 0.353826,0.79897 0.0799,0.18261 0.159792,0.36523 0.228275,0.55926 0.02283,0.0571 0.05707,0.11415 0.09131,0.15979 0.319588,0.43373 0.753308,0.75331 1.255514,0.9131 l 0.308173,0.10278 -0.319586,0.28534 -0.650585,0.5821 -0.342412,0.331 -0.273931,0.29675 c -0.07989,0.12552 -0.159793,0.26251 -0.262515,0.38808 -0.0799,0.12552 -0.148378,0.22827 -0.194033,0.3424 -0.04566,0.10278 -0.06849,0.20545 -0.06849,0.3196 0,0.0456 0.01138,0.0913 0.01138,0.13696 0.03424,0.1712 0.10272,0.33099 0.182621,0.47937 l 0.171204,0.28535 0.205449,0.27393 0.616344,0.58209 0.273931,0.27393 0.2511,0.26252 0.136968,0.17121 0.410895,0.51362 0.719065,0.76471 0.376654,0.35384 0.296758,0.22827 0.23969,0.1598 0.171206,0.0799 0.09131,0.0119 c 0.102721,0.26252 0.273931,0.5022 0.479378,0.68483 0.07989,0.0799 0.182621,0.13696 0.296757,0.15979 0.102721,0.0229 0.194034,0.0456 0.296759,0.0685 0.02283,0 0.04566,0 0.06849,0 0.04565,0 0.07989,0 0.125551,-0.0119 l 0.06849,-0.0228 -0.536448,-1.83763 c -0.02283,-0.0685 -0.06848,-0.12552 -0.148379,-0.13697 l -0.490792,-0.11414 c -0.04565,-0.0229 -0.06848,-0.0685 -0.05708,-0.10278 0.03425,-0.10277 0.06849,-0.20545 0.102721,-0.30817 0.01138,-0.0227 0.02283,-0.0685 0.02283,-0.10278 0,-0.10277 -0.05707,-0.19404 -0.148379,-0.23968 -0.07989,-0.0456 -0.171205,-0.0799 -0.262516,-0.11415 -0.125551,-0.0229 -0.239691,-0.0913 -0.342413,-0.1598 -0.136964,-0.10277 -0.27393,-0.20544 -0.410895,-0.31959 -0.182621,-0.14838 -0.342412,-0.3424 -0.456551,-0.54786 -0.102721,-0.19403 -0.205447,-0.38807 -0.319584,-0.57068 -0.102721,-0.18262 -0.148381,-0.34242 -0.171206,-0.51363 -0.02283,-0.18261 0.02283,-0.36523 0.136964,-0.52503 0.114135,-0.15978 0.273931,-0.29675 0.445137,-0.37665 0.216861,-0.10278 0.433723,-0.20544 0.650582,-0.30816 0.194036,-0.0913 0.388071,-0.18263 0.593515,-0.26252 0.194034,-0.0685 0.365243,-0.17121 0.536448,-0.28535 0.114136,-0.0913 0.228277,-0.15979 0.353826,-0.22828 0.251104,-0.15978 0.445138,-0.36524 0.593516,-0.62775 l 0.06848,-0.12553 0.285343,0.58211 0.114136,0.2511 0.09131,0.19403 0.182619,0.26251 0.228276,0.33101 0.342414,0.49079 0.285342,0.45655 0.308173,0.5022 0.148378,0.23969 0.433723,0.76473 0.171206,0.33099 0.216862,0.43373 0.114136,0.26252 0.07989,0.23968 c 0.05707,0.12553 0.09131,0.2511 0.114135,0.38807 0.01138,0.10277 0.03424,0.20545 0.05707,0.31959 0,0.0456 0.01138,0.0913 0.01138,0.13696 0,0.15979 -0.05707,0.30817 -0.171206,0.42232 l -0.365242,0.41088 -0.05706,0.0913 c -0.353826,0.0913 -0.616343,0.38807 -0.673413,0.75331 l -0.01137,0.0799 h 1.951752 c 0.159795,-0.17121 0.251103,-0.38808 0.251103,-0.61635 0,-0.13697 -0.03424,-0.27393 -0.09131,-0.39948 l -0.05707,-0.10278 c -0.01138,-0.0456 0.01138,-0.0799 0.04566,-0.0799 v 0 h 0.228272 c 0.148381,-0.0227 0.239692,-0.14837 0.239692,-0.28533 0,-0.0229 0,-0.0343 -0.01138,-0.057 l -0.09131,-0.45656 -0.159793,-0.55926 -0.18262,-0.67341 -0.182619,-0.62777 -0.114136,-0.45654 -0.102721,-0.42231 -0.06849,-0.27393 -0.06849,-0.27393 -0.04565,-0.2511 -0.05707,-0.26252 -0.04566,-0.19404 -0.12555,-0.47937 c -0.06849,-0.21686 -0.148381,-0.44514 -0.205448,-0.662 -0.09131,-0.33099 -0.216861,-0.662 -0.376653,-0.95876 l -0.102721,-0.19402 0.890274,-0.0229 c 0.06848,0 0.12555,0 0.194033,0 0.251101,0 0.525032,0 0.787549,-0.0229 0.422309,-0.0229 0.867443,0.0119 1.301167,0.11415 0.616343,0.12552 1.232686,0.19404 1.860443,0.20545 0.06849,0.0119 0.12555,0.0119 0.194034,0.0119 0.684826,0 1.358236,-0.0685 2.020234,-0.20544 0.467966,-0.0913 0.810378,-0.1598 1.152789,-0.22829 l 0.06849,-0.0119 c 0.251103,0.20544 0.525193,0.38805 0.821796,0.52503 l 0.0343,0.0228 -0.1598,0.9017 c 0.0114,0.18261 0.1598,0.33099 0.34242,0.33099 0.14838,0 0.28534,-0.0799 0.331,-0.21686 l 0.28534,-0.75331 0.42231,0.0913 -0.10272,0.74189 c 0,0.0229 0,0.0456 0,0.0685 0,0.0685 0.0114,0.13696 0.0457,0.19402 0.0571,0.0913 0.13696,0.13697 0.23969,0.14838 0.0228,0 0.0342,0 0.0456,0 0.0685,0 0.13697,-0.0119 0.20545,-0.0229 0.0913,-0.0229 0.17121,-0.0913 0.18262,-0.19403 l 0.15979,-0.8332 0.38807,0.0229 c 0.0228,0.14838 0.0343,0.30816 0.0343,0.46796 0,0.0229 0,0.0456 0,0.0685 0,0.22827 -0.0228,0.44513 -0.0457,0.67342 -0.0228,0.19402 -0.0685,0.37665 -0.13697,0.54786 -0.15979,0.36523 -0.34241,0.74189 -0.54786,1.09571 l -0.13696,0.2397 -0.2511,0.44512 c -0.10272,0.23969 -0.25111,0.45656 -0.42231,0.65059 l -0.13697,0.15979 -0.15979,0.1598 -0.4109,0.3424 -0.31958,0.27394 -0.399483,0.331 c -0.0457,0.0343 -0.0913,0.0799 -0.136971,0.11415 -0.262518,0.23969 -0.467966,0.53645 -0.60493,0.85602 l -0.03424,0.10278 c -0.171207,0.0685 -0.330998,0.15979 -0.467962,0.26251 -0.171209,0.14838 -0.308173,0.31958 -0.399484,0.52504 l -0.04565,0.10277 h 1.780547 0.15979 l 0.0457,-0.0119 0.55928,-1.03864 c 0.0114,-0.0343 0.0457,-0.057 0.0799,-0.057 0.0228,0 0.0457,0.0119 0.0571,0.0227 l 0.14838,0.12552 c 0.0228,0.0229 0.0571,0.0456 0.0799,0.0456 0.0228,0 0.0343,-0.0119 0.0457,-0.0119 0.0571,-0.0343 0.11414,-0.0685 0.1598,-0.11415 l 0.0571,-0.0685 0.21686,-0.25112 0.17121,-0.22827 0.61634,-1.03865 c 0.0913,-0.13696 0.17121,-0.2511 0.2511,-0.36524 0.0799,-0.11414 0.20545,-0.2511 0.35383,-0.36525 l 0.31959,-0.23968 1.20985,-0.90168 c 0.0457,-0.057 0.0913,-0.12553 0.10272,-0.20545 l 0.34242,-1.48379 0.0685,-0.26251 0.1598,-0.38807 0.1712,-0.29676 0.13697,-0.13697 c 0.18262,0.35383 0.42231,0.68483 0.68482,0.97018 0.1598,0.17119 0.30817,0.31958 0.45655,0.46796 0.18262,0.19404 0.34242,0.39948 0.46797,0.63916 0.2511,0.47939 0.43372,1.01584 0.53644,1.55228 0.0571,0.29675 0.10272,0.59351 0.1598,0.89027 0.0114,0.11415 0.0228,0.2511 0.0228,0.38807 0,0.13696 -0.0114,0.27393 -0.0343,0.41089 -0.0114,0.0913 -0.0457,0.17121 -0.10272,0.23969 -0.0571,0.0685 -0.11413,0.14838 -0.15979,0.22827 -0.0343,0.057 -0.0457,0.12553 -0.0571,0.20546 l -0.0114,0.21685 -0.21686,0.22829 -0.22827,0.20544 c -0.0799,0.11415 -0.12555,0.22827 -0.14838,0.35382 l -0.0457,0.26252 h 1.94034 l 0.18261,-0.30817 c 0.0456,-0.0685 0.057,-0.14838 0.057,-0.22828 0,-0.0343 0,-0.0799 -0.0119,-0.11415 -0.0119,-0.0685 -0.0456,-0.14838 -0.0913,-0.21686 -0.0229,-0.0456 -0.0456,-0.10277 -0.0685,-0.15979 -0.0229,-0.0685 -0.0343,-0.13697 -0.0456,-0.20544 0,-0.0456 0.0119,-0.0913 0.0343,-0.12553 0.0343,-0.0456 0.0799,-0.0685 0.12552,-0.0799 l 0.21687,-0.0456 c 0.0343,0 0.057,-0.0229 0.0799,-0.0456 0.0456,-0.0571 0.0685,-0.12553 0.0685,-0.19404 0,-0.0456 -0.0119,-0.0913 -0.0229,-0.12553 -0.0229,-0.0456 -0.0343,-0.0913 -0.0456,-0.13696 -0.057,-0.4223 -0.13696,-0.87886 -0.22827,-1.324 l -0.0685,-0.37665 -0.12552,-0.93593 c -0.0229,-0.12552 -0.057,-0.27393 -0.0685,-0.42231 -0.0229,-0.15978 -0.0229,-0.30816 0.0119,-0.45654 0.057,-0.27393 0.10277,-0.55928 0.13695,-0.84462 0.0343,-0.26252 0.0685,-0.51362 0.10277,-0.76472 0.0119,-0.0685 0.0119,-0.13697 0.0119,-0.21687 0,-0.057 0,-0.12553 0,-0.18261 -0.0229,-0.19404 -0.0913,-0.37666 -0.19403,-0.52504 -0.0456,-0.0799 -0.0913,-0.15979 -0.12552,-0.2511 l -0.12553,-0.36525 c -0.0119,-0.0456 -0.0343,-0.0799 -0.0456,-0.11415 -0.0799,-0.26251 -0.13696,-0.52503 -0.14838,-0.78754 z"
       id="path12"
       inkscape:connector-curvature="0"
       style="fill:#ffffff;fill-opacity:1;stroke-width:0.07080726" />
  </g>
</svg>
