<?xml version="1.0" encoding="UTF-8" standalone="no"?>
<!-- Created with Inkscape (http://www.inkscape.org/) -->

<svg
   xmlns:dc="http://purl.org/dc/elements/1.1/"
   xmlns:cc="http://creativecommons.org/ns#"
   xmlns:rdf="http://www.w3.org/1999/02/22-rdf-syntax-ns#"
   xmlns:svg="http://www.w3.org/2000/svg"
   xmlns="http://www.w3.org/2000/svg"
   xmlns:sodipodi="http://sodipodi.sourceforge.net/DTD/sodipodi-0.dtd"
   xmlns:inkscape="http://www.inkscape.org/namespaces/inkscape"
   width="40.343929mm"
   height="40.343929mm"
   viewBox="0 0 40.343929 40.343929"
   version="1.1"
   id="svg8"
   sodipodi:docname="dis_Dogs.svg"
   inkscape:version="0.92.1 r15371">
  <defs
     id="defs2">
    <path
       d="M 0,0 H 48 V 48 H 0 Z"
       id="a"
       inkscape:connector-curvature="0" />
    <path
       d="M 0,0 H 48 V 48 H 0 Z"
       id="a-8"
       inkscape:connector-curvature="0" />
  </defs>
  <sodipodi:namedview
     id="base"
     pagecolor="#ffffff"
     bordercolor="#666666"
     borderopacity="1.0"
     inkscape:pageopacity="0.0"
     inkscape:pageshadow="2"
     inkscape:zoom="1.4"
     inkscape:cx="172.87615"
     inkscape:cy="-34.809893"
     inkscape:document-units="mm"
     inkscape:current-layer="layer1"
     showgrid="false"
     inkscape:window-width="1632"
     inkscape:window-height="998"
     inkscape:window-x="48"
     inkscape:window-y="30"
     inkscape:window-maximized="1"
     fit-margin-top="0"
     fit-margin-left="0"
     fit-margin-right="0"
     fit-margin-bottom="0"
     showguides="true"
     inkscape:guide-bbox="true" />
  <metadata
     id="metadata5">
    <rdf:RDF>
      <cc:Work
         rdf:about="">
        <dc:format>image/svg+xml</dc:format>
        <dc:type
           rdf:resource="http://purl.org/dc/dcmitype/StillImage" />
        <dc:title />
      </cc:Work>
    </rdf:RDF>
  </metadata>
  <g
     inkscape:label="Ebene 1"
     inkscape:groupmode="layer"
     id="layer1"
     transform="translate(-71.868973,-308.06516)">
    <rect
       ry="5.0684252"
       y="308.06516"
       x="71.868973"
       height="40.343929"
       width="40.343929"
       id="rect9533"
       style="opacity:1;fill:#969696;fill-opacity:1;fill-rule:nonzero;stroke:none;stroke-width:0.40000001;stroke-linecap:round;stroke-miterlimit:4;stroke-dasharray:none;stroke-opacity:1" />
    <g
       id="g5317"
       transform="matrix(1.2797704,0,0,1.2797704,-53.672499,-162.26667)">
      <polygon
         transform="matrix(0.26458333,0,0,0.26458333,96.723174,366.2608)"
         id="polygon5288"
         points="20.086,23.059 73.414,48.621 71.703,52.48 20.086,27.941 "
         style="fill:#ffffff" />
      <path
         id="path5290"
         d="m 111.02919,387.27771 h 5.978 v 5.33506 c 0,0.87233 0.70273,1.57507 1.57506,1.57507 v 0 c 0.87234,0 1.58327,-0.70274 1.58327,-1.57507 v -5.33506 c 0.47122,0 0.51673,-0.31009 0.51673,-0.67389 v -3.97722 l -4.99374,-2.44316 h -10.61456 l -1.37054,-0.77523 c -0.43815,-0.25215 -0.99642,-0.0971 -1.24645,0.34316 v 0 c -0.24818,0.43815 -0.0971,0.99431 0.34316,1.24646 l 2.1643,1.24036 v 10.37458 c 0,0.87233 0.70696,1.57507 1.57929,1.57507 v 0 c 0.87233,0 1.5793,-0.70274 1.5793,-1.57507 l -0.004,-4.064 2.86279,4.83288 c 0.4445,0.74824 1.41182,0.9943 2.16826,0.54769 v 0 c 0.74216,-0.4445 0.98795,-1.42002 0.5416,-2.17038 z"
         style="fill:#ffffff;stroke-width:0.26458332"
         inkscape:connector-curvature="0" />
      <polygon
         transform="matrix(0.26458333,0,0,0.26458333,96.723174,366.2608)"
         id="polygon5292"
         points="109.445,42.488 73.539,25.379 73.539,48.52 90.531,56.605 90.531,53.426 104.367,53.402 "
         style="fill:#ffffff" />
    </g>
  </g>
</svg>
