<?xml version="1.0" encoding="UTF-8" standalone="no"?>
<!-- Created with Inkscape (http://www.inkscape.org/) -->

<svg
   xmlns:dc="http://purl.org/dc/elements/1.1/"
   xmlns:cc="http://creativecommons.org/ns#"
   xmlns:rdf="http://www.w3.org/1999/02/22-rdf-syntax-ns#"
   xmlns:svg="http://www.w3.org/2000/svg"
   xmlns="http://www.w3.org/2000/svg"
   xmlns:sodipodi="http://sodipodi.sourceforge.net/DTD/sodipodi-0.dtd"
   xmlns:inkscape="http://www.inkscape.org/namespaces/inkscape"
   width="40.343929mm"
   height="40.343929mm"
   viewBox="0 0 40.343929 40.343929"
   version="1.1"
   id="svg8"
   sodipodi:docname="dis_Food_Nearby.svg"
   inkscape:version="0.92.1 r15371">
  <defs
     id="defs2">
    <path
       d="M 0,0 H 48 V 48 H 0 Z"
       id="a"
       inkscape:connector-curvature="0" />
    <path
       d="M 0,0 H 48 V 48 H 0 Z"
       id="a-8"
       inkscape:connector-curvature="0" />
  </defs>
  <sodipodi:namedview
     id="base"
     pagecolor="#ffffff"
     bordercolor="#666666"
     borderopacity="1.0"
     inkscape:pageopacity="0.0"
     inkscape:pageshadow="2"
     inkscape:zoom="0.98994949"
     inkscape:cx="239.91121"
     inkscape:cy="4.6267678"
     inkscape:document-units="mm"
     inkscape:current-layer="layer1"
     showgrid="false"
     inkscape:window-width="1632"
     inkscape:window-height="998"
     inkscape:window-x="48"
     inkscape:window-y="30"
     inkscape:window-maximized="1"
     fit-margin-top="0"
     fit-margin-left="0"
     fit-margin-right="0"
     fit-margin-bottom="0" />
  <metadata
     id="metadata5">
    <rdf:RDF>
      <cc:Work
         rdf:about="">
        <dc:format>image/svg+xml</dc:format>
        <dc:type
           rdf:resource="http://purl.org/dc/dcmitype/StillImage" />
        <dc:title />
      </cc:Work>
    </rdf:RDF>
  </metadata>
  <g
     inkscape:label="Ebene 1"
     inkscape:groupmode="layer"
     id="layer1"
     transform="translate(-71.868973,-308.06516)">
    <rect
       ry="5.0684252"
       y="308.06516"
       x="71.868973"
       height="40.343929"
       width="40.343929"
       id="rect9533"
       style="opacity:1;fill:#969696;fill-opacity:1;fill-rule:nonzero;stroke:none;stroke-width:0.40000001;stroke-linecap:round;stroke-miterlimit:4;stroke-dasharray:none;stroke-opacity:1" />
    <path
       style="fill:none;stroke-width:0.26458332"
       inkscape:connector-curvature="0"
       d="m 102.28901,374.18013 h 6.35 v 6.35 h -6.35 z"
       id="path10017" />
    <path
       inkscape:connector-curvature="0"
       d="m 85.821472,329.90778 4.19031,-4.19026 -10.394239,-10.37941 c -2.309825,2.30983 -2.309825,6.05591 0,8.38051 z m 10.038882,-2.67996 c 2.265391,1.05124 5.448836,0.31115 7.803036,-2.04334 2.82809,-2.82803 3.3759,-6.88504 1.19938,-9.06162 -2.16181,-2.16175 -6.218763,-1.62871 -9.061624,1.19932 -2.354258,2.35426 -3.094577,5.53765 -2.043334,7.8031 l -14.451193,14.45119 2.087712,2.08771 10.201731,-10.17207 10.186898,10.1869 2.08777,-2.08771 -10.186956,-10.18696 z"
       id="path10019"
       style="fill:#ffffff;fill-opacity:1;stroke-width:1.48065686" />
    <path
       style="fill:#ffffff;fill-opacity:1;stroke-width:1.48065686"
       id="path10035"
       d="m 85.821472,329.90778 4.19031,-4.19026 -10.394239,-10.37941 c -2.309825,2.30983 -2.309825,6.05591 0,8.38051 z m 10.038882,-2.67996 c 2.265391,1.05124 5.448836,0.31115 7.803036,-2.04334 2.82809,-2.82803 3.3759,-6.88504 1.19938,-9.06162 -2.16181,-2.16175 -6.218763,-1.62871 -9.061624,1.19932 -2.354258,2.35426 -3.094577,5.53765 -2.043334,7.8031 l -14.451193,14.45119 2.087712,2.08771 10.201731,-10.17207 10.186898,10.1869 2.08777,-2.08771 -10.186956,-10.18696 z"
       inkscape:connector-curvature="0" />
  </g>
</svg>
