<?xml version="1.0" encoding="UTF-8" standalone="no"?>
<!-- Created with Inkscape (http://www.inkscape.org/) -->

<svg
   xmlns:dc="http://purl.org/dc/elements/1.1/"
   xmlns:cc="http://creativecommons.org/ns#"
   xmlns:rdf="http://www.w3.org/1999/02/22-rdf-syntax-ns#"
   xmlns:svg="http://www.w3.org/2000/svg"
   xmlns="http://www.w3.org/2000/svg"
   xmlns:sodipodi="http://sodipodi.sourceforge.net/DTD/sodipodi-0.dtd"
   xmlns:inkscape="http://www.inkscape.org/namespaces/inkscape"
   width="40.343929mm"
   height="40.343929mm"
   viewBox="0 0 40.343929 40.343929"
   version="1.1"
   id="svg8"
   sodipodi:docname="dis_Wireless_Beacon.svg"
   inkscape:version="0.92.1 r15371">
  <defs
     id="defs2">
    <path
       d="M 0,0 H 48 V 48 H 0 Z"
       id="a"
       inkscape:connector-curvature="0" />
    <path
       d="M 0,0 H 48 V 48 H 0 Z"
       id="a-8"
       inkscape:connector-curvature="0" />
    <path
       d="M 0,0 H 48 V 48 H 0 Z"
       id="a-6"
       inkscape:connector-curvature="0" />
    <path
       d="M 0,0 H 48 V 48 H 0 Z"
       id="a-89"
       inkscape:connector-curvature="0" />
    <path
       d="M 0,0 H 48 V 48 H 0 Z"
       id="a-0"
       inkscape:connector-curvature="0" />
  </defs>
  <sodipodi:namedview
     id="base"
     pagecolor="#ffffff"
     bordercolor="#666666"
     borderopacity="1.0"
     inkscape:pageopacity="0.0"
     inkscape:pageshadow="2"
     inkscape:zoom="0.98994949"
     inkscape:cx="443.35302"
     inkscape:cy="65.64627"
     inkscape:document-units="mm"
     inkscape:current-layer="layer1"
     showgrid="false"
     inkscape:window-width="1632"
     inkscape:window-height="998"
     inkscape:window-x="48"
     inkscape:window-y="30"
     inkscape:window-maximized="1"
     fit-margin-top="0"
     fit-margin-left="0"
     fit-margin-right="0"
     fit-margin-bottom="0" />
  <metadata
     id="metadata5">
    <rdf:RDF>
      <cc:Work
         rdf:about="">
        <dc:format>image/svg+xml</dc:format>
        <dc:type
           rdf:resource="http://purl.org/dc/dcmitype/StillImage" />
        <dc:title />
      </cc:Work>
    </rdf:RDF>
  </metadata>
  <g
     inkscape:label="Ebene 1"
     inkscape:groupmode="layer"
     id="layer1"
     transform="translate(-72.670784,-309.66876)">
    <rect
       ry="5.0684252"
       y="309.66876"
       x="72.670784"
       height="40.343929"
       width="40.343929"
       id="rect9533"
       style="opacity:1;fill:#969696;fill-opacity:1;fill-rule:nonzero;stroke:none;stroke-width:0.40000001;stroke-linecap:round;stroke-miterlimit:4;stroke-dasharray:none;stroke-opacity:1" />
    <path
       inkscape:connector-curvature="0"
       d="m 92.842744,319.98338 c -5.679998,0 -10.28719,4.60721 -10.28719,10.2872 h 2.939198 c 0,-4.05608 3.291899,-7.34798 7.347992,-7.34798 4.056092,0 7.347996,3.2919 7.347996,7.34798 h 2.9392 c 0,-5.67999 -4.607194,-10.2872 -10.287196,-10.2872 z m 1.4696,13.65258 c 1.293244,-0.5658 2.204396,-1.85903 2.204396,-3.36538 0,-2.02804 -1.64595,-3.674 -3.673996,-3.674 -2.028047,0 -3.673997,1.64596 -3.673997,3.674 0,1.50635 0.911153,2.79958 2.204397,3.36538 v 4.84235 l -5.018678,5.01866 2.079482,2.07948 4.408796,-4.4088 4.408795,4.4088 2.079487,-2.07948 -5.018682,-5.01866 z m -1.4696,-19.53095 c -8.927813,0 -16.165583,7.23775 -16.165583,16.16557 h 2.939196 c 0,-7.30391 5.922483,-13.22638 13.226387,-13.22638 7.303906,0 13.226406,5.92247 13.226406,13.22638 h 2.93919 c 0,-8.92782 -7.23778,-16.16557 -16.165596,-16.16557 z"
       id="path16355"
       style="fill:#ffffff;fill-opacity:1;stroke-width:0.73479921" />
  </g>
</svg>
