<?xml version="1.0" encoding="UTF-8" standalone="no"?>
<!-- Created with Inkscape (http://www.inkscape.org/) -->

<svg
   xmlns:dc="http://purl.org/dc/elements/1.1/"
   xmlns:cc="http://creativecommons.org/ns#"
   xmlns:rdf="http://www.w3.org/1999/02/22-rdf-syntax-ns#"
   xmlns:svg="http://www.w3.org/2000/svg"
   xmlns="http://www.w3.org/2000/svg"
   xmlns:sodipodi="http://sodipodi.sourceforge.net/DTD/sodipodi-0.dtd"
   xmlns:inkscape="http://www.inkscape.org/namespaces/inkscape"
   width="40.343929mm"
   height="40.343929mm"
   viewBox="0 0 40.343929 40.343929"
   version="1.1"
   id="svg8"
   sodipodi:docname="dis_Public_restrooms_nearby.svg"
   inkscape:version="0.92.1 r15371">
  <defs
     id="defs2">
    <path
       d="M 0,0 H 48 V 48 H 0 Z"
       id="a"
       inkscape:connector-curvature="0" />
    <path
       d="M 0,0 H 48 V 48 H 0 Z"
       id="a-8"
       inkscape:connector-curvature="0" />
  </defs>
  <sodipodi:namedview
     id="base"
     pagecolor="#ffffff"
     bordercolor="#666666"
     borderopacity="1.0"
     inkscape:pageopacity="0.0"
     inkscape:pageshadow="2"
     inkscape:zoom="0.98994949"
     inkscape:cx="81.317287"
     inkscape:cy="4.6266192"
     inkscape:document-units="mm"
     inkscape:current-layer="layer1"
     showgrid="false"
     inkscape:window-width="1632"
     inkscape:window-height="998"
     inkscape:window-x="48"
     inkscape:window-y="30"
     inkscape:window-maximized="1"
     fit-margin-top="0"
     fit-margin-left="0"
     fit-margin-right="0"
     fit-margin-bottom="0" />
  <metadata
     id="metadata5">
    <rdf:RDF>
      <cc:Work
         rdf:about="">
        <dc:format>image/svg+xml</dc:format>
        <dc:type
           rdf:resource="http://purl.org/dc/dcmitype/StillImage" />
        <dc:title />
      </cc:Work>
    </rdf:RDF>
  </metadata>
  <g
     inkscape:label="Ebene 1"
     inkscape:groupmode="layer"
     id="layer1"
     transform="translate(-71.868973,-308.06516)">
    <rect
       ry="5.0684252"
       y="308.06516"
       x="71.868973"
       height="40.343929"
       width="40.343929"
       id="rect9533"
       style="opacity:1;fill:#969696;fill-opacity:1;fill-rule:nonzero;stroke:none;stroke-width:0.40000001;stroke-linecap:round;stroke-miterlimit:4;stroke-dasharray:none;stroke-opacity:1" />
    <path
       style="fill:none;stroke-width:0.26458332"
       inkscape:connector-curvature="0"
       d="m 123.16827,373.67783 h 12.7 v 12.7 h -12.7 z"
       id="path11176" />
    <path
       inkscape:connector-curvature="0"
       d="m 81.040325,343.9523 v -11.78638 h -2.357276 v -8.64336 c 0,-1.72866 1.414365,-3.14303 3.143025,-3.14303 h 4.71455 c 1.72866,0 3.143025,1.41437 3.143025,3.14303 v 8.64336 h -2.357275 v 11.78638 z m 19.643955,0 v -9.42911 h 4.71455 l -3.99951,-11.9907 c -0.42429,-1.28863 -1.62653,-2.15296 -2.978025,-2.15296 h -0.180861 c -1.351524,0 -2.553727,0.86433 -2.978052,2.15296 l -4.007354,11.9907 h 4.714551 v 9.42911 z M 84.18335,318.80801 c 1.736528,0 3.143024,-1.4065 3.143024,-3.14303 0,-1.73653 -1.406496,-3.14305 -3.143024,-3.14305 -1.73653,0 -3.143025,1.40652 -3.143025,3.14305 0,1.73653 1.406495,3.14303 3.143025,3.14303 z m 14.143654,0 c 1.736526,0 3.143026,-1.4065 3.143026,-3.14303 0,-1.73653 -1.4065,-3.14305 -3.143026,-3.14305 -1.736529,0 -3.143025,1.40652 -3.143025,3.14305 0,1.73653 1.406496,3.14303 3.143025,3.14303 z"
       id="path11178"
       style="fill:#ffffff;fill-opacity:1;stroke-width:0.78575855" />
  </g>
</svg>
