<?xml version="1.0" encoding="UTF-8" standalone="no"?>
<!-- Created with Inkscape (http://www.inkscape.org/) -->

<svg
   xmlns:dc="http://purl.org/dc/elements/1.1/"
   xmlns:cc="http://creativecommons.org/ns#"
   xmlns:rdf="http://www.w3.org/1999/02/22-rdf-syntax-ns#"
   xmlns:svg="http://www.w3.org/2000/svg"
   xmlns="http://www.w3.org/2000/svg"
   xmlns:sodipodi="http://sodipodi.sourceforge.net/DTD/sodipodi-0.dtd"
   xmlns:inkscape="http://www.inkscape.org/namespaces/inkscape"
   width="40.343929mm"
   height="40.343929mm"
   viewBox="0 0 40.343929 40.343929"
   version="1.1"
   id="svg8"
   sodipodi:docname="dis_Climbing_gear.svg"
   inkscape:version="0.92.1 r15371">
  <defs
     id="defs2">
    <path
       d="M 0,0 H 48 V 48 H 0 Z"
       id="a"
       inkscape:connector-curvature="0" />
    <path
       d="M 0,0 H 48 V 48 H 0 Z"
       id="a-8"
       inkscape:connector-curvature="0" />
    <path
       d="M 0,0 H 48 V 48 H 0 Z"
       id="a-6"
       inkscape:connector-curvature="0" />
  </defs>
  <sodipodi:namedview
     id="base"
     pagecolor="#ffffff"
     bordercolor="#666666"
     borderopacity="1.0"
     inkscape:pageopacity="0.0"
     inkscape:pageshadow="2"
     inkscape:zoom="0.98994949"
     inkscape:cx="289.06711"
     inkscape:cy="-48.640363"
     inkscape:document-units="mm"
     inkscape:current-layer="layer1"
     showgrid="false"
     inkscape:window-width="1632"
     inkscape:window-height="998"
     inkscape:window-x="48"
     inkscape:window-y="30"
     inkscape:window-maximized="1"
     fit-margin-top="0"
     fit-margin-left="0"
     fit-margin-right="0"
     fit-margin-bottom="0" />
  <metadata
     id="metadata5">
    <rdf:RDF>
      <cc:Work
         rdf:about="">
        <dc:format>image/svg+xml</dc:format>
        <dc:type
           rdf:resource="http://purl.org/dc/dcmitype/StillImage" />
        <dc:title />
      </cc:Work>
    </rdf:RDF>
  </metadata>
  <g
     inkscape:label="Ebene 1"
     inkscape:groupmode="layer"
     id="layer1"
     transform="translate(-71.868973,-308.06516)">
    <rect
       ry="5.0684252"
       y="308.06516"
       x="71.868973"
       height="40.343929"
       width="40.343929"
       id="rect9533"
       style="opacity:1;fill:#969696;fill-opacity:1;fill-rule:nonzero;stroke:none;stroke-width:0.40000001;stroke-linecap:round;stroke-miterlimit:4;stroke-dasharray:none;stroke-opacity:1" />
    <g
       id="g4720"
       transform="matrix(1.2337671,0,0,1.2337671,-69.949448,-149.91692)">
      <path
         id="path4681"
         d="m 131.6408,392.40849 c -0.27913,0.10345 -0.58923,0.16113 -0.9054,0.16113 -0.34105,0 -0.67787,-0.0392 -0.98796,-0.13018 l -3.51393,8.07615 c -0.32041,0.74215 -1.20518,0.9943 -1.97405,0.56012 -0.76888,-0.43207 -1.13057,-1.38086 -0.79984,-2.12487 l 4.30556,-9.87637 h 5.49011 v -0.92392 l 2.77601,-1.29196 c 0.72972,-0.3556 1.67216,0.25215 1.86663,1.02103 l 1.36208,5.46523 c 0.1942,0.77523 -0.27702,1.55654 -1.05225,1.75075 -0.77523,0.19235 -1.56263,-0.27914 -1.7571,-1.0541 l -0.86598,-3.48086 z"
         style="fill:#ffffff;stroke-width:0.26458332"
         inkscape:connector-curvature="0" />
      <path
         id="path4683"
         d="m 134.17101,386.74905 c 6.01292,-2.98476 8.3447,-13.20244 8.3447,-14.05599 h -0.82683 c -0.31009,2.13096 -2.89401,10.65768 -7.51787,13.13207 z"
         style="fill:#ffffff;stroke-width:0.26458332"
         inkscape:connector-curvature="0" />
      <path
         id="path4685"
         d="m 123.07095,384.51438 c 0.31617,0.49001 0.95091,0.7112 1.51315,0.47757 l 3.18108,-1.24645 v 4.41113 h 5.49011 v -5.10778 l 4.91966,-7.87558 c 0.36169,-0.57468 0.19421,-1.33747 -0.38656,-1.70524 -0.57467,-0.36169 -1.33746,-0.19421 -1.65973,0.36803 l -4.17777,6.69317 -2.51962,0.006 c -0.16114,0 -0.32253,0.0249 -0.48366,0.091 l -4.35108,1.70524 -2.24287,-3.39831 c -0.36803,-0.56833 -1.12871,-0.73581 -1.70524,-0.36804 -0.57467,0.36804 -0.74215,1.13692 -0.37412,1.71159 z"
         style="fill:#ffffff;stroke-width:0.26458332"
         inkscape:connector-curvature="0" />
      <path
         id="path4687"
         d="m 130.13612,380.08261 c 1.20702,0 2.18889,-0.97578 2.18889,-2.18281 0,-1.20703 -0.98187,-2.1889 -2.18889,-2.1889 -1.20915,0 -2.19102,0.98187 -2.19102,2.1889 0,1.20703 0.98161,2.18281 2.19102,2.18281 z"
         style="fill:#ffffff;stroke-width:0.26458332"
         inkscape:connector-curvature="0" />
      <polygon
         transform="matrix(0.26458333,0,0,0.26458333,115.33797,371.45587)"
         id="polygon4689"
         points="67.719,117.027 67.719,79.801 64.227,81.434 64.227,117.027 "
         style="fill:#ffffff" />
    </g>
  </g>
</svg>
