<?xml version="1.0" encoding="UTF-8" standalone="no"?>
<!-- Created with Inkscape (http://www.inkscape.org/) -->

<svg
   xmlns:dc="http://purl.org/dc/elements/1.1/"
   xmlns:cc="http://creativecommons.org/ns#"
   xmlns:rdf="http://www.w3.org/1999/02/22-rdf-syntax-ns#"
   xmlns:svg="http://www.w3.org/2000/svg"
   xmlns="http://www.w3.org/2000/svg"
   xmlns:sodipodi="http://sodipodi.sourceforge.net/DTD/sodipodi-0.dtd"
   xmlns:inkscape="http://www.inkscape.org/namespaces/inkscape"
   width="40.343929mm"
   height="40.343929mm"
   viewBox="0 0 40.343929 40.343929"
   version="1.1"
   id="svg8"
   sodipodi:docname="dis_Stealth_required.svg"
   inkscape:version="0.92.1 r15371">
  <defs
     id="defs2">
    <path
       d="M 0,0 H 48 V 48 H 0 Z"
       id="a"
       inkscape:connector-curvature="0" />
    <path
       d="M 0,0 H 48 V 48 H 0 Z"
       id="a-8"
       inkscape:connector-curvature="0" />
    <inkscape:perspective
       id="perspective17900"
       inkscape:persp3d-origin="61.773502 : 41.179669 : 1"
       inkscape:vp_z="123.54701 : 61.769504 : 1"
       inkscape:vp_y="0 : 1000 : 0"
       inkscape:vp_x="0 : 61.769504 : 1"
       sodipodi:type="inkscape:persp3d" />
    <inkscape:perspective
       id="perspective17900-7"
       inkscape:persp3d-origin="61.773502 : 41.179669 : 1"
       inkscape:vp_z="123.54701 : 61.769504 : 1"
       inkscape:vp_y="0 : 1000 : 0"
       inkscape:vp_x="0 : 61.769504 : 1"
       sodipodi:type="inkscape:persp3d" />
    <inkscape:perspective
       id="perspective5302"
       inkscape:persp3d-origin="372.04726 : 350.78741 : 1"
       inkscape:vp_z="744.09451 : 526.18111 : 1"
       inkscape:vp_y="0 : 1000 : 0"
       inkscape:vp_x="0 : 526.18111 : 1"
       sodipodi:type="inkscape:persp3d" />
    <inkscape:perspective
       id="perspective5302-6"
       inkscape:persp3d-origin="372.04726 : 350.78741 : 1"
       inkscape:vp_z="744.09451 : 526.18111 : 1"
       inkscape:vp_y="0 : 1000 : 0"
       inkscape:vp_x="0 : 526.18111 : 1"
       sodipodi:type="inkscape:persp3d" />
    <inkscape:perspective
       id="perspective5302-1"
       inkscape:persp3d-origin="372.04726 : 350.78741 : 1"
       inkscape:vp_z="744.09451 : 526.18111 : 1"
       inkscape:vp_y="0 : 1000 : 0"
       inkscape:vp_x="0 : 526.18111 : 1"
       sodipodi:type="inkscape:persp3d" />
  </defs>
  <sodipodi:namedview
     id="base"
     pagecolor="#ffffff"
     bordercolor="#666666"
     borderopacity="1.0"
     inkscape:pageopacity="0.0"
     inkscape:pageshadow="2"
     inkscape:zoom="0.98994949"
     inkscape:cx="139.37702"
     inkscape:cy="282.26662"
     inkscape:document-units="mm"
     inkscape:current-layer="layer1"
     showgrid="false"
     inkscape:window-width="1632"
     inkscape:window-height="998"
     inkscape:window-x="48"
     inkscape:window-y="30"
     inkscape:window-maximized="1"
     fit-margin-top="0"
     fit-margin-left="0"
     fit-margin-right="0"
     fit-margin-bottom="0"
     showguides="true"
     inkscape:guide-bbox="true" />
  <metadata
     id="metadata5">
    <rdf:RDF>
      <cc:Work
         rdf:about="">
        <dc:format>image/svg+xml</dc:format>
        <dc:type
           rdf:resource="http://purl.org/dc/dcmitype/StillImage" />
        <dc:title />
      </cc:Work>
    </rdf:RDF>
  </metadata>
  <g
     inkscape:label="Ebene 1"
     inkscape:groupmode="layer"
     id="layer1"
     transform="translate(-75.648735,-308.63211)">
    <rect
       ry="5.0684252"
       y="308.63211"
       x="75.648735"
       height="40.343929"
       width="40.343929"
       id="rect9533"
       style="opacity:1;fill:#969696;fill-opacity:1;fill-rule:nonzero;stroke:none;stroke-width:0.40000001;stroke-linecap:round;stroke-miterlimit:4;stroke-dasharray:none;stroke-opacity:1" />
    <g
       id="g4394"
       transform="matrix(5.0938006,0,0,-5.0938006,105.00737,308.73575)" />
    <path
       inkscape:connector-curvature="0"
       d="m 95.817404,321.56109 c 3.634666,0 6.584566,2.94987 6.584566,6.58453 0,0.8494 -0.17122,1.65931 -0.46752,2.40336 l 3.85195,3.85195 c 1.98854,-1.6593 3.55564,-3.80586 4.52358,-6.25531 -2.28483,-5.78122 -7.90144,-9.87681 -14.492576,-9.87681 -1.843664,0 -3.608312,0.32922 -5.247882,0.92185 l 2.844522,2.83792 c 0.744055,-0.28973 1.55396,-0.46749 2.40336,-0.46749 z m -13.169066,-3.58858 3.002551,3.00255 0.599191,0.5992 c -2.172911,1.69879 -3.89147,3.95729 -4.918658,6.57136 2.278255,5.78123 7.901449,9.87681 14.485982,9.87681 2.041211,0 3.99024,-0.39507 5.774656,-1.11279 l 0.55967,0.55969 3.83881,3.84538 1.67904,-1.67249 -23.342202,-23.34877 z m 7.282499,7.27591 2.034616,2.03464 c -0.05923,0.28313 -0.0988,0.56626 -0.0988,0.86256 0,2.17948 1.771244,3.95073 3.950725,3.95073 0.296323,0 0.579456,-0.0396 0.855994,-0.0988 l 2.034617,2.03462 c -0.875729,0.43459 -1.850258,0.69796 -2.890611,0.69796 -3.634667,0 -6.584533,-2.94987 -6.584533,-6.58453 0,-1.04036 0.263373,-2.01488 0.697966,-2.89721 z m 5.669283,-1.03376 4.148274,4.14825 0.0199,-0.21726 c 0,-2.17948 -1.771245,-3.95073 -3.950726,-3.95073 z"
       id="path4"
       style="fill:#ffffff;stroke-width:0.65845406" />
  </g>
</svg>
