<?xml version="1.0" encoding="UTF-8" standalone="no"?>
<!-- Created with Inkscape (http://www.inkscape.org/) -->

<svg
   xmlns:dc="http://purl.org/dc/elements/1.1/"
   xmlns:cc="http://creativecommons.org/ns#"
   xmlns:rdf="http://www.w3.org/1999/02/22-rdf-syntax-ns#"
   xmlns:svg="http://www.w3.org/2000/svg"
   xmlns="http://www.w3.org/2000/svg"
   xmlns:sodipodi="http://sodipodi.sourceforge.net/DTD/sodipodi-0.dtd"
   xmlns:inkscape="http://www.inkscape.org/namespaces/inkscape"
   width="40.343929mm"
   height="40.343929mm"
   viewBox="0 0 40.343929 40.343929"
   version="1.1"
   id="svg8"
   sodipodi:docname="dis_Seasonal_access.svg"
   inkscape:version="0.92.1 r15371">
  <defs
     id="defs2">
    <path
       d="M 0,0 H 48 V 48 H 0 Z"
       id="a"
       inkscape:connector-curvature="0" />
    <path
       d="M 0,0 H 48 V 48 H 0 Z"
       id="a-8"
       inkscape:connector-curvature="0" />
    <path
       d="M 0,0 H 48 V 48 H 0 Z"
       id="a-6"
       inkscape:connector-curvature="0" />
    <path
       d="M 0,0 H 48 V 48 H 0 Z"
       id="a-89"
       inkscape:connector-curvature="0" />
    <path
       d="M 0,0 H 48 V 48 H 0 Z"
       id="a-0"
       inkscape:connector-curvature="0" />
  </defs>
  <sodipodi:namedview
     id="base"
     pagecolor="#ffffff"
     bordercolor="#666666"
     borderopacity="1.0"
     inkscape:pageopacity="0.0"
     inkscape:pageshadow="2"
     inkscape:zoom="0.24748737"
     inkscape:cx="-1243.7264"
     inkscape:cy="334.27388"
     inkscape:document-units="mm"
     inkscape:current-layer="layer1"
     showgrid="false"
     inkscape:window-width="1632"
     inkscape:window-height="998"
     inkscape:window-x="48"
     inkscape:window-y="30"
     inkscape:window-maximized="1"
     fit-margin-top="0"
     fit-margin-left="0"
     fit-margin-right="0"
     fit-margin-bottom="0" />
  <metadata
     id="metadata5">
    <rdf:RDF>
      <cc:Work
         rdf:about="">
        <dc:format>image/svg+xml</dc:format>
        <dc:type
           rdf:resource="http://purl.org/dc/dcmitype/StillImage" />
        <dc:title />
      </cc:Work>
    </rdf:RDF>
  </metadata>
  <g
     inkscape:label="Ebene 1"
     inkscape:groupmode="layer"
     id="layer1"
     transform="translate(-72.670784,-309.66876)">
    <rect
       ry="5.0684252"
       y="309.66876"
       x="72.670784"
       height="40.343929"
       width="40.343929"
       id="rect9533"
       style="opacity:1;fill:#969696;fill-opacity:1;fill-rule:nonzero;stroke:none;stroke-width:0.40000001;stroke-linecap:round;stroke-miterlimit:4;stroke-dasharray:none;stroke-opacity:1" />
    <g
       id="g16800"
       style="fill:#ffffff;fill-opacity:1"
       transform="matrix(1.5959152,0,0,1.5959152,-10.236542,-283.31895)">
      <path
         style="fill:#ffffff;fill-opacity:1;stroke-width:0.26458332"
         id="path16484"
         d="m 57.143923,376.01285 -0.94721,-0.94985 -0.74877,0.74877 0.94986,0.94985 z m -1.45785,2.99244 h -1.5875 v 1.05833 h 1.5875 z m 4.7625,-5.26521 h -1.05834 v 1.56104 h 1.05834 z m 3.94229,2.07169 -0.74877,-0.74877 -0.94986,0.94985 0.74877,0.74877 z m -1.69598,7.24429 0.94985,0.94985 0.74877,-0.74877 -0.94985,-0.94985 z m 1.45785,-4.05077 v 1.05833 h 1.5875 v -1.05833 z m -4.23333,-2.64583 c -1.75419,0 -3.175,1.42081 -3.175,3.175 0,1.75418 1.42081,3.175 3.175,3.175 1.75419,0 3.175,-1.42082 3.175,-3.175 0,-1.75419 -1.42081,-3.175 -3.175,-3.175 z m -0.52917,8.96937 h 1.05834 v -1.56104 h -1.05834 z m -3.94229,-2.07169 0.74877,0.74877 0.94986,-0.94985 -0.74877,-0.74877 z"
         inkscape:connector-curvature="0" />
      <path
         style="fill:#ffffff;fill-opacity:1;stroke-width:0.26458332"
         id="path16778"
         d="m 75.080334,388.85043 h -2.20663 l 1.7145,-1.71714 -0.74877,-0.74613 -2.46327,2.46327 h -1.05833 v -1.05833 l 2.46327,-2.46327 -0.74613,-0.74877 -1.71714,1.7145 v -2.20663 h -1.05834 v 2.20663 l -1.71714,-1.7145 -0.74613,0.74877 2.46327,2.46327 v 1.05833 h -1.05833 l -2.46327,-2.46327 -0.74877,0.74613 1.7145,1.71714 h -2.20663 v 1.05834 h 2.20663 l -1.7145,1.71714 0.74877,0.74613 2.46327,-2.46327 h 1.05833 v 1.05833 l -2.46327,2.46327 0.74613,0.74877 1.71714,-1.7145 v 2.20663 h 1.05834 v -2.20663 l 1.71714,1.7145 0.74613,-0.74877 -2.46327,-2.46327 v -1.05833 h 1.05833 l 2.46327,2.46327 0.74877,-0.74613 -1.7145,-1.71714 h 2.20663 z"
         inkscape:connector-curvature="0" />
    </g>
  </g>
</svg>
