<?xml version="1.0" encoding="UTF-8" standalone="no"?>
<!-- Created with Inkscape (http://www.inkscape.org/) -->

<svg
   xmlns:dc="http://purl.org/dc/elements/1.1/"
   xmlns:cc="http://creativecommons.org/ns#"
   xmlns:rdf="http://www.w3.org/1999/02/22-rdf-syntax-ns#"
   xmlns:svg="http://www.w3.org/2000/svg"
   xmlns="http://www.w3.org/2000/svg"
   xmlns:sodipodi="http://sodipodi.sourceforge.net/DTD/sodipodi-0.dtd"
   xmlns:inkscape="http://www.inkscape.org/namespaces/inkscape"
   width="40.343929mm"
   height="40.343929mm"
   viewBox="0 0 40.343929 40.343929"
   version="1.1"
   id="svg8"
   sodipodi:docname="dis_Stroller_accessible.svg"
   inkscape:version="0.92.1 r15371">
  <defs
     id="defs2">
    <path
       d="M 0,0 H 48 V 48 H 0 Z"
       id="a"
       inkscape:connector-curvature="0" />
    <path
       d="M 0,0 H 48 V 48 H 0 Z"
       id="a-8"
       inkscape:connector-curvature="0" />
  </defs>
  <sodipodi:namedview
     id="base"
     pagecolor="#ffffff"
     bordercolor="#666666"
     borderopacity="1.0"
     inkscape:pageopacity="0.0"
     inkscape:pageshadow="2"
     inkscape:zoom="0.98994949"
     inkscape:cx="460.1245"
     inkscape:cy="4.6265836"
     inkscape:document-units="mm"
     inkscape:current-layer="layer1"
     showgrid="false"
     inkscape:window-width="1632"
     inkscape:window-height="998"
     inkscape:window-x="48"
     inkscape:window-y="30"
     inkscape:window-maximized="1"
     fit-margin-top="0"
     fit-margin-left="0"
     fit-margin-right="0"
     fit-margin-bottom="0" />
  <metadata
     id="metadata5">
    <rdf:RDF>
      <cc:Work
         rdf:about="">
        <dc:format>image/svg+xml</dc:format>
        <dc:type
           rdf:resource="http://purl.org/dc/dcmitype/StillImage" />
        <dc:title />
      </cc:Work>
    </rdf:RDF>
  </metadata>
  <g
     inkscape:label="Ebene 1"
     inkscape:groupmode="layer"
     id="layer1"
     transform="translate(-71.868973,-308.06516)">
    <rect
       ry="5.0684252"
       y="308.06516"
       x="71.868973"
       height="40.343929"
       width="40.343929"
       id="rect9533"
       style="opacity:1;fill:#969696;fill-opacity:1;fill-rule:nonzero;stroke:none;stroke-width:0.40000001;stroke-linecap:round;stroke-miterlimit:4;stroke-dasharray:none;stroke-opacity:1" />
    <path
       inkscape:connector-curvature="0"
       d="m 94.104705,314.47851 v 11.00686 h 11.006915 c 0,-6.08132 -4.92559,-11.00686 -11.006915,-11.00686 z m 8.695465,19.11072 c 1.44464,-1.85743 2.31145,-4.19639 2.31145,-6.72796 H 85.079081 l -1.3071,-2.75174 h -4.80173 v 2.75174 h 3.054389 c 0,0 2.600367,5.59974 2.916846,6.08127 -1.51344,0.81179 -2.531622,2.40781 -2.531622,4.23768 0,2.65543 2.160126,4.81551 4.815563,4.81551 2.421483,0 4.430234,-1.78863 4.760441,-4.12759 h 2.861829 c 0.330207,2.33896 2.338958,4.12759 4.760493,4.12759 2.65538,0 4.81551,-2.16008 4.81551,-4.81551 0,-1.43092 -0.63291,-2.71046 -1.62353,-3.59099 z m -15.574743,5.65481 c -1.141997,0 -2.06382,-0.92183 -2.06382,-2.06382 0,-1.14195 0.921823,-2.06377 2.06382,-2.06377 1.141944,0 2.063768,0.92182 2.063768,2.06377 0,1.14199 -0.921824,2.06382 -2.063768,2.06382 z m 12.382763,0 c -1.141996,0 -2.063819,-0.92183 -2.063819,-2.06382 0,-1.14195 0.921823,-2.06377 2.063819,-2.06377 1.14194,0 2.06377,0.92182 2.06377,2.06377 0,1.14199 -0.92183,2.06382 -2.06377,2.06382 z"
       id="path12430"
       style="fill:#ffffff;fill-opacity:1;stroke-width:1.3758626" />
  </g>
</svg>
