<?xml version="1.0" encoding="UTF-8" standalone="no"?>
<!-- Created with Inkscape (http://www.inkscape.org/) -->

<svg
   xmlns:dc="http://purl.org/dc/elements/1.1/"
   xmlns:cc="http://creativecommons.org/ns#"
   xmlns:rdf="http://www.w3.org/1999/02/22-rdf-syntax-ns#"
   xmlns:svg="http://www.w3.org/2000/svg"
   xmlns="http://www.w3.org/2000/svg"
   xmlns:sodipodi="http://sodipodi.sourceforge.net/DTD/sodipodi-0.dtd"
   xmlns:inkscape="http://www.inkscape.org/namespaces/inkscape"
   width="40.343929mm"
   height="40.343929mm"
   viewBox="0 0 40.343929 40.343929"
   version="1.1"
   id="svg8"
   sodipodi:docname="dis_Poison_plants.svg"
   inkscape:version="0.92.1 r15371">
  <defs
     id="defs2">
    <path
       d="M 0,0 H 48 V 48 H 0 Z"
       id="a"
       inkscape:connector-curvature="0" />
    <path
       d="M 0,0 H 48 V 48 H 0 Z"
       id="a-8"
       inkscape:connector-curvature="0" />
    <path
       d="M 0,0 H 48 V 48 H 0 Z"
       id="a-6"
       inkscape:connector-curvature="0" />
    <path
       d="M 0,0 H 48 V 48 H 0 Z"
       id="a-89"
       inkscape:connector-curvature="0" />
    <path
       d="M 0,0 H 48 V 48 H 0 Z"
       id="a-0"
       inkscape:connector-curvature="0" />
    <path
       d="M 0,0 H 48 V 48 H 0 Z"
       id="a-9"
       inkscape:connector-curvature="0" />
  </defs>
  <sodipodi:namedview
     id="base"
     pagecolor="#ffffff"
     bordercolor="#666666"
     borderopacity="1.0"
     inkscape:pageopacity="0.0"
     inkscape:pageshadow="2"
     inkscape:zoom="0.98994949"
     inkscape:cx="251.69148"
     inkscape:cy="-102.37494"
     inkscape:document-units="mm"
     inkscape:current-layer="layer1"
     showgrid="false"
     inkscape:window-width="1632"
     inkscape:window-height="998"
     inkscape:window-x="48"
     inkscape:window-y="30"
     inkscape:window-maximized="1"
     fit-margin-top="0"
     fit-margin-left="0"
     fit-margin-right="0"
     fit-margin-bottom="0" />
  <metadata
     id="metadata5">
    <rdf:RDF>
      <cc:Work
         rdf:about="">
        <dc:format>image/svg+xml</dc:format>
        <dc:type
           rdf:resource="http://purl.org/dc/dcmitype/StillImage" />
        <dc:title />
      </cc:Work>
    </rdf:RDF>
  </metadata>
  <g
     inkscape:label="Ebene 1"
     inkscape:groupmode="layer"
     id="layer1"
     transform="translate(-72.670784,-309.66876)">
    <rect
       ry="5.0684252"
       y="309.66876"
       x="72.670784"
       height="40.343929"
       width="40.343929"
       id="rect9533"
       style="opacity:1;fill:#969696;fill-opacity:1;fill-rule:nonzero;stroke:none;stroke-width:0.40000001;stroke-linecap:round;stroke-miterlimit:4;stroke-dasharray:none;stroke-opacity:1" />
    <path
       inkscape:connector-curvature="0"
       d="m 97.821443,326.47174 c -0.263548,-3.97439 -1.873242,-7.85621 -4.893222,-10.87621 -3.048471,3.04848 -4.729402,6.92316 -5.057043,10.87621 1.823386,0.9758 3.51144,2.22225 4.971572,3.73936 1.460133,-1.51711 3.148186,-2.77069 4.978693,-3.73936 z m -9.259373,3.77497 c -0.199424,-0.14967 -0.427356,-0.27065 -0.633911,-0.40598 0.206558,0.13541 0.427356,0.25655 0.633911,0.40598 z m 9.138289,-0.37036 c -0.185183,0.12814 -0.391743,0.23501 -0.569806,0.36326 0.178076,-0.12814 0.377497,-0.23502 0.569806,-0.36326 z m -4.857609,4.88609 c -3.062715,-4.67954 -8.297824,-7.77074 -14.245191,-7.77074 0,7.57132 4.786384,13.9959 11.44601,16.36061 0.90457,0.32051 1.837629,0.56268 2.799181,0.73362 0.961549,-0.16394 1.894611,-0.40601 2.799179,-0.73362 6.659631,-2.36471 11.446011,-8.78929 11.446011,-16.36061 -5.94737,0 -11.182475,3.0912 -14.24519,7.77074 z"
       id="path18553"
       style="fill:#ffffff;fill-opacity:1;stroke-width:0.71225947" />
  </g>
</svg>
