<?xml version="1.0" encoding="UTF-8" standalone="no"?>
<!-- Created with Inkscape (http://www.inkscape.org/) -->

<svg
   xmlns:dc="http://purl.org/dc/elements/1.1/"
   xmlns:cc="http://creativecommons.org/ns#"
   xmlns:rdf="http://www.w3.org/1999/02/22-rdf-syntax-ns#"
   xmlns:svg="http://www.w3.org/2000/svg"
   xmlns="http://www.w3.org/2000/svg"
   xmlns:sodipodi="http://sodipodi.sourceforge.net/DTD/sodipodi-0.dtd"
   xmlns:inkscape="http://www.inkscape.org/namespaces/inkscape"
   width="40.343929mm"
   height="40.343929mm"
   viewBox="0 0 40.343929 40.343929"
   version="1.1"
   id="svg8"
   sodipodi:docname="dis_Tourist_friendly.svg"
   inkscape:version="0.92.1 r15371">
  <defs
     id="defs2">
    <path
       d="M 0,0 H 48 V 48 H 0 Z"
       id="a"
       inkscape:connector-curvature="0" />
    <path
       d="M 0,0 H 48 V 48 H 0 Z"
       id="a-8"
       inkscape:connector-curvature="0" />
    <path
       d="M 0,0 H 48 V 48 H 0 Z"
       id="a-6"
       inkscape:connector-curvature="0" />
    <path
       d="M0 0h48v48H0z"
       id="a-89" />
  </defs>
  <sodipodi:namedview
     id="base"
     pagecolor="#ffffff"
     bordercolor="#666666"
     borderopacity="1.0"
     inkscape:pageopacity="0.0"
     inkscape:pageshadow="2"
     inkscape:zoom="0.98994949"
     inkscape:cx="460.28811"
     inkscape:cy="-48.640327"
     inkscape:document-units="mm"
     inkscape:current-layer="layer1"
     showgrid="false"
     inkscape:window-width="1632"
     inkscape:window-height="998"
     inkscape:window-x="48"
     inkscape:window-y="30"
     inkscape:window-maximized="1"
     fit-margin-top="0"
     fit-margin-left="0"
     fit-margin-right="0"
     fit-margin-bottom="0" />
  <metadata
     id="metadata5">
    <rdf:RDF>
      <cc:Work
         rdf:about="">
        <dc:format>image/svg+xml</dc:format>
        <dc:type
           rdf:resource="http://purl.org/dc/dcmitype/StillImage" />
        <dc:title />
      </cc:Work>
    </rdf:RDF>
  </metadata>
  <g
     inkscape:label="Ebene 1"
     inkscape:groupmode="layer"
     id="layer1"
     transform="translate(-71.868973,-308.06516)">
    <rect
       ry="5.0684252"
       y="308.06516"
       x="71.868973"
       height="40.343929"
       width="40.343929"
       id="rect9533"
       style="opacity:1;fill:#969696;fill-opacity:1;fill-rule:nonzero;stroke:none;stroke-width:0.40000001;stroke-linecap:round;stroke-miterlimit:4;stroke-dasharray:none;stroke-opacity:1" />
    <path
       id="path15211"
       d="m 102.12607,321.30359 h -5.042572 v -2.52129 c 0,-0.69335 -0.277325,-1.32367 -0.743782,-1.7775 -0.453831,-0.46643 -1.084143,-0.74378 -1.777492,-0.74378 h -5.042572 c -1.386697,0 -2.521273,1.13458 -2.521273,2.52128 v 2.52129 h -5.042572 c -1.386697,0 -2.521274,1.13458 -2.521274,2.52128 v 13.86704 c 0,1.38672 1.134577,2.5213 2.521274,2.5213 h 20.170263 c 1.3867,0 2.52127,-1.13458 2.52127,-2.5213 v -13.86704 c 0,-1.3867 -1.13457,-2.52128 -2.52127,-2.52128 z M 89.519652,318.7823 h 5.042572 v 2.52129 h -5.042572 z m 1.260649,17.01865 -1.260649,-1.26063 3.781923,-3.78192 -3.781923,-3.78192 1.260649,-1.26065 5.042572,5.04257 z"
       clip-path="url(#b)"
       inkscape:connector-curvature="0"
       style="fill:#ffffff;fill-opacity:1;stroke-width:0.63032043" />
  </g>
</svg>
