<?xml version="1.0" encoding="UTF-8" standalone="no"?>
<!-- Created with Inkscape (http://www.inkscape.org/) -->

<svg
   xmlns:dc="http://purl.org/dc/elements/1.1/"
   xmlns:cc="http://creativecommons.org/ns#"
   xmlns:rdf="http://www.w3.org/1999/02/22-rdf-syntax-ns#"
   xmlns:svg="http://www.w3.org/2000/svg"
   xmlns="http://www.w3.org/2000/svg"
   xmlns:sodipodi="http://sodipodi.sourceforge.net/DTD/sodipodi-0.dtd"
   xmlns:inkscape="http://www.inkscape.org/namespaces/inkscape"
   width="40.343929mm"
   height="40.343929mm"
   viewBox="0 0 40.343929 40.343929"
   version="1.1"
   id="svg8"
   sodipodi:docname="dis_Dangerous_Animals.svg"
   inkscape:version="0.92.1 r15371">
  <defs
     id="defs2">
    <path
       d="M 0,0 H 48 V 48 H 0 Z"
       id="a"
       inkscape:connector-curvature="0" />
    <path
       d="M 0,0 H 48 V 48 H 0 Z"
       id="a-8"
       inkscape:connector-curvature="0" />
    <inkscape:perspective
       id="perspective17900"
       inkscape:persp3d-origin="61.773502 : 41.179669 : 1"
       inkscape:vp_z="123.54701 : 61.769504 : 1"
       inkscape:vp_y="0 : 1000 : 0"
       inkscape:vp_x="0 : 61.769504 : 1"
       sodipodi:type="inkscape:persp3d" />
    <inkscape:perspective
       id="perspective17900-7"
       inkscape:persp3d-origin="61.773502 : 41.179669 : 1"
       inkscape:vp_z="123.54701 : 61.769504 : 1"
       inkscape:vp_y="0 : 1000 : 0"
       inkscape:vp_x="0 : 61.769504 : 1"
       sodipodi:type="inkscape:persp3d" />
    <inkscape:perspective
       id="perspective5302"
       inkscape:persp3d-origin="372.04726 : 350.78741 : 1"
       inkscape:vp_z="744.09451 : 526.18111 : 1"
       inkscape:vp_y="0 : 1000 : 0"
       inkscape:vp_x="0 : 526.18111 : 1"
       sodipodi:type="inkscape:persp3d" />
  </defs>
  <sodipodi:namedview
     id="base"
     pagecolor="#ffffff"
     bordercolor="#666666"
     borderopacity="1.0"
     inkscape:pageopacity="0.0"
     inkscape:pageshadow="2"
     inkscape:zoom="0.98994949"
     inkscape:cx="62.142934"
     inkscape:cy="-8.773826"
     inkscape:document-units="mm"
     inkscape:current-layer="layer1"
     showgrid="false"
     inkscape:window-width="1632"
     inkscape:window-height="998"
     inkscape:window-x="48"
     inkscape:window-y="30"
     inkscape:window-maximized="1"
     fit-margin-top="0"
     fit-margin-left="0"
     fit-margin-right="0"
     fit-margin-bottom="0"
     showguides="true"
     inkscape:guide-bbox="true" />
  <metadata
     id="metadata5">
    <rdf:RDF>
      <cc:Work
         rdf:about="">
        <dc:format>image/svg+xml</dc:format>
        <dc:type
           rdf:resource="http://purl.org/dc/dcmitype/StillImage" />
        <dc:title />
      </cc:Work>
    </rdf:RDF>
  </metadata>
  <g
     inkscape:label="Ebene 1"
     inkscape:groupmode="layer"
     id="layer1"
     transform="translate(-75.648735,-308.63211)">
    <rect
       ry="5.0684252"
       y="308.63211"
       x="75.648735"
       height="40.343929"
       width="40.343929"
       id="rect9533"
       style="opacity:1;fill:#969696;fill-opacity:1;fill-rule:nonzero;stroke:none;stroke-width:0.40000001;stroke-linecap:round;stroke-miterlimit:4;stroke-dasharray:none;stroke-opacity:1" />
    <g
       id="g7314"
       transform="matrix(0.57730573,0,0,0.57730573,27.765039,120.83105)">
      <g
         transform="matrix(6.8542129,0,0,-6.8542129,141.91481,336.66814)"
         id="g8254">
        <path
           id="path8256"
           style="fill:#ffffff;fill-opacity:1;fill-rule:nonzero;stroke:none"
           d="M 0,0 H 0.451 V 0.171 L 0.05,0.169 V 0.572 H -0.118 V 0.121 l -0.207,-0.206 0.119,-0.118 z"
           inkscape:connector-curvature="0" />
      </g>
      <g
         transform="matrix(6.8542129,0,0,-6.8542129,97.522766,378.13464)"
         id="g8258">
        <path
           id="path8260"
           style="fill:#ffffff;fill-opacity:1;fill-rule:nonzero;stroke:none"
           d="m 0,0 c -0.055,0.053 -0.141,0.053 -0.193,0 -0.054,-0.055 -0.053,-0.141 0,-0.193 l 0.416,-0.416 c 0.054,-0.053 0.14,-0.053 0.193,0 0.054,0.054 0.053,0.14 0,0.193 z"
           inkscape:connector-curvature="0" />
      </g>
      <g
         transform="matrix(6.8542129,0,0,-6.8542129,95.060066,380.5844)"
         id="g8262">
        <path
           id="path8264"
           style="fill:#ffffff;fill-opacity:1;fill-rule:nonzero;stroke:none"
           d="m 0,0 c -0.053,0.053 -0.14,0.053 -0.193,-0.002 -0.053,-0.053 -0.053,-0.139 0.001,-0.193 l 0.417,-0.416 c 0.052,-0.053 0.138,-0.053 0.193,0.002 0.053,0.052 0.053,0.138 -0.002,0.191 z"
           inkscape:connector-curvature="0" />
      </g>
      <g
         transform="matrix(6.8542129,0,0,-6.8542129,94.524066,387.34473)"
         id="g8266">
        <path
           id="path8268"
           style="fill:#ffffff;fill-opacity:1;fill-rule:nonzero;stroke:none"
           d="m 0,0 c 0.041,-0.006 0.084,0.006 0.115,0.037 0.053,0.055 0.053,0.141 0,0.193 L -0.256,0.6 C -0.31,0.654 -0.396,0.654 -0.449,0.6 -0.484,0.564 -0.496,0.516 -0.484,0.471 l 0.117,-0.36 z"
           inkscape:connector-curvature="0" />
      </g>
      <g
         transform="matrix(6.8542129,0,0,-6.8542129,132.96524,347.99332)"
         id="g8270">
        <path
           id="path8272"
           style="fill:#ffffff;fill-opacity:1;fill-rule:nonzero;stroke:none"
           d="m 0,0 -0.215,-0.218 c -0.067,-0.074 -0.109,-0.174 -0.109,-0.283 0,-0.117 0.048,-0.223 0.124,-0.299 l 1.24,-1.24 c 0.398,-0.398 0.645,-0.949 0.645,-1.557 0,-1.216 -0.986,-2.203 -2.202,-2.203 -1.216,0 -2.203,0.987 -2.203,2.203 l 0.005,3.008 c 0,0.746 -0.604,1.352 -1.352,1.352 -0.746,0 -1.352,-0.606 -1.352,-1.352 0,-0.373 0.15,-0.711 0.397,-0.957 l 1.007,-1.008 c 0.207,-0.205 0.334,-0.49 0.334,-0.804 0,-0.315 -0.127,-0.6 -0.334,-0.805 l -0.517,-0.518 -0.503,0.504 0.528,0.52 c 0.069,0.076 0.11,0.176 0.11,0.285 0,0.115 -0.047,0.223 -0.124,0.299 l -1.082,1.068 c -0.343,0.371 -0.554,0.869 -0.554,1.416 0,1.151 0.933,2.082 2.084,2.082 1.149,0 2.082,-0.931 2.082,-2.082 l -0.002,-3.008 c 0,-0.816 0.66,-1.476 1.476,-1.476 0.815,0 1.477,0.66 1.477,1.476 0,0.407 -0.166,0.776 -0.434,1.043 l -1.232,1.241 c -0.207,0.207 -0.334,0.49 -0.334,0.804 0,0.315 0.127,0.6 0.334,0.807 l 0.312,0.312 c 0.02,0.02 0.032,0.047 0.032,0.077 0,0.025 -0.008,0.048 -0.024,0.068 l -0.166,0.191 c -0.019,0.028 -0.031,0.061 -0.031,0.098 0,0 -0.111,0.28 0.913,0.528 0.147,0.035 0.315,0.026 0.428,-0.087 L 1.023,1.256 C 1.133,1.141 1.14,0.973 1.101,0.827 0.83,-0.192 0.553,-0.075 0.553,-0.075 0.516,-0.074 0.482,-0.063 0.455,-0.042 L 0.268,0.129 C 0.248,0.145 0.226,0.152 0.2,0.153 0.171,0.154 0.143,0.143 0.123,0.124 L 0,0"
           inkscape:connector-curvature="0" />
      </g>
    </g>
  </g>
</svg>
