<?xml version="1.0" encoding="UTF-8" standalone="no"?>
<!-- Created with Inkscape (http://www.inkscape.org/) -->

<svg
   xmlns:dc="http://purl.org/dc/elements/1.1/"
   xmlns:cc="http://creativecommons.org/ns#"
   xmlns:rdf="http://www.w3.org/1999/02/22-rdf-syntax-ns#"
   xmlns:svg="http://www.w3.org/2000/svg"
   xmlns="http://www.w3.org/2000/svg"
   xmlns:sodipodi="http://sodipodi.sourceforge.net/DTD/sodipodi-0.dtd"
   xmlns:inkscape="http://www.inkscape.org/namespaces/inkscape"
   width="40.343929mm"
   height="40.343929mm"
   viewBox="0 0 40.343929 40.343929"
   version="1.1"
   id="svg8"
   sodipodi:docname="dis_May_require_wading.svg"
   inkscape:version="0.92.1 r15371">
  <defs
     id="defs2">
    <path
       d="M 0,0 H 48 V 48 H 0 Z"
       id="a"
       inkscape:connector-curvature="0" />
    <path
       d="M 0,0 H 48 V 48 H 0 Z"
       id="a-8"
       inkscape:connector-curvature="0" />
    <path
       d="M 0,0 H 48 V 48 H 0 Z"
       id="a-6"
       inkscape:connector-curvature="0" />
    <path
       d="M 0,0 H 48 V 48 H 0 Z"
       id="a-89"
       inkscape:connector-curvature="0" />
    <path
       d="M 0,0 H 48 V 48 H 0 Z"
       id="a-0"
       inkscape:connector-curvature="0" />
    <path
       d="M 0,0 H 48 V 48 H 0 Z"
       id="a-9"
       inkscape:connector-curvature="0" />
  </defs>
  <sodipodi:namedview
     id="base"
     pagecolor="#ffffff"
     bordercolor="#666666"
     borderopacity="1.0"
     inkscape:pageopacity="0.0"
     inkscape:pageshadow="2"
     inkscape:zoom="0.7"
     inkscape:cx="-45.617058"
     inkscape:cy="-134.00005"
     inkscape:document-units="mm"
     inkscape:current-layer="layer1"
     showgrid="false"
     inkscape:window-width="1632"
     inkscape:window-height="998"
     inkscape:window-x="48"
     inkscape:window-y="30"
     inkscape:window-maximized="1"
     fit-margin-top="0"
     fit-margin-left="0"
     fit-margin-right="0"
     fit-margin-bottom="0" />
  <metadata
     id="metadata5">
    <rdf:RDF>
      <cc:Work
         rdf:about="">
        <dc:format>image/svg+xml</dc:format>
        <dc:type
           rdf:resource="http://purl.org/dc/dcmitype/StillImage" />
        <dc:title />
      </cc:Work>
    </rdf:RDF>
  </metadata>
  <g
     inkscape:label="Ebene 1"
     inkscape:groupmode="layer"
     id="layer1"
     transform="translate(-72.670784,-309.66876)">
    <rect
       ry="5.0684252"
       y="309.66876"
       x="72.670784"
       height="40.343929"
       width="40.343929"
       id="rect9533"
       style="opacity:1;fill:#969696;fill-opacity:1;fill-rule:nonzero;stroke:none;stroke-width:0.40000001;stroke-linecap:round;stroke-miterlimit:4;stroke-dasharray:none;stroke-opacity:1" />
    <g
       id="g18995"
       transform="matrix(2.3777774,0,0,2.3777774,-138.5781,-717.59478)"
       style="fill:#ffffff;fill-opacity:1">
      <path
         id="path18990"
         d="m 102.61821,446.88868 c -0.58738,0 -0.91546,-0.19579 -1.15359,-0.34131 -0.19579,-0.11642 -0.31485,-0.18786 -0.60854,-0.18786 -0.29368,0 -0.41275,0.0714 -0.60854,0.18786 -0.23812,0.14287 -0.566206,0.34131 -1.153581,0.34131 -0.587375,0 -0.915459,-0.19579 -1.153584,-0.34131 -0.195791,-0.11907 -0.314854,-0.18786 -0.608541,-0.18786 -0.293688,0 -0.41275,0.0714 -0.608542,0.18786 -0.243417,0.14552 -0.5715,0.34131 -1.158875,0.34131 -0.587375,0 -0.915458,-0.19579 -1.153583,-0.33867 -0.195792,-0.11906 -0.314855,-0.1905 -0.611188,-0.1905 -0.296333,0 -0.41275,0.0714 -0.611187,0.1905 -0.238125,0.14288 -0.566209,0.33867 -1.153584,0.33867 v -1.05833 c 0.293688,0 0.41275,-0.0714 0.611188,-0.1905 0.238125,-0.14288 0.566208,-0.33867 1.153583,-0.33867 0.587375,0 0.915458,0.19579 1.153583,0.33867 0.195792,0.11906 0.314855,0.1905 0.611188,0.1905 0.293687,0 0.41275,-0.0714 0.608542,-0.18786 0.238125,-0.14287 0.566208,-0.34131 1.153583,-0.34131 0.587375,0 0.915458,0.19579 1.153583,0.34131 0.195792,0.11906 0.314854,0.18786 0.608542,0.18786 0.293687,0 0.41275,-0.0714 0.608542,-0.18786 0.238125,-0.14287 0.566211,-0.34131 1.153581,-0.34131 0.58738,0 0.91546,0.19579 1.15358,0.34131 0.20109,0.11642 0.32015,0.18786 0.61384,0.18786 z"
         style="fill:#ffffff;fill-opacity:1;stroke-width:0.26458332"
         inkscape:connector-curvature="0" />
      <path
         id="path18988"
         d="m 102.61821,444.50743 c -0.58738,0 -0.91546,-0.19579 -1.15359,-0.34131 -0.19579,-0.11642 -0.31485,-0.18786 -0.60854,-0.18786 -0.29368,0 -0.41275,0.0714 -0.60854,0.18786 -0.23812,0.14287 -0.566206,0.34131 -1.153581,0.34131 -0.587375,0 -0.915459,-0.19579 -1.153584,-0.34131 -0.195791,-0.11907 -0.314854,-0.18786 -0.608541,-0.18786 -0.293688,0 -0.41275,0.0714 -0.608542,0.18786 -0.243417,0.14552 -0.5715,0.34131 -1.158875,0.34131 -0.587375,0 -0.915458,-0.19579 -1.153583,-0.33867 -0.195792,-0.11906 -0.314855,-0.1905 -0.611188,-0.1905 -0.296333,0 -0.41275,0.0714 -0.611187,0.1905 -0.238125,0.14288 -0.566209,0.33867 -1.153584,0.33867 v -1.05833 c 0.293688,0 0.41275,-0.0714 0.611188,-0.1905 0.238125,-0.14288 0.566208,-0.33867 1.153583,-0.33867 0.587375,0 0.915458,0.19579 1.153583,0.33867 0.195792,0.11906 0.314855,0.1905 0.611188,0.1905 0.293687,0 0.41275,-0.0714 0.608542,-0.18786 0.238125,-0.14287 0.566208,-0.34131 1.153583,-0.34131 0.587375,0 0.915458,0.19579 1.153583,0.34131 0.195792,0.11906 0.314854,0.18786 0.608542,0.18786 0.293687,0 0.41275,-0.0714 0.608542,-0.18786 0.238125,-0.14287 0.566211,-0.34131 1.153581,-0.34131 0.58738,0 0.91546,0.19579 1.15358,0.34131 0.20109,0.11642 0.32015,0.18786 0.61384,0.18786 z"
         style="fill:#ffffff;fill-opacity:1;stroke-width:0.26458332"
         inkscape:connector-curvature="0" />
      <path
         style="fill:#ffffff;fill-opacity:1;stroke-width:0.26458332"
         inkscape:connector-curvature="0"
         clip-path="url(#b)"
         d="m 98.687256,436.24865 c 0.58208,0 1.05833,-0.47625 1.05833,-1.05833 0,-0.58209 -0.47625,-1.05834 -1.05833,-1.05834 -0.58208,0 -1.05833,0.47625 -1.05833,1.05834 0,0.58208 0.47625,1.05833 1.05833,1.05833 z m -1.98438,1.79917 -1.4552,7.46125 h 1.11125 l 0.92604,-4.23334 1.13771,1.05834 v 3.175 h 1.05833 v -3.99521 l -1.08479,-1.08479 0.3175,-1.5875 c 0.68791,0.84666 1.719794,1.37583 2.883964,1.37583 v -1.05833 c -0.97896,0 -1.825634,-0.52917 -2.301884,-1.29646 l -0.50271,-0.84667 c -0.18521,-0.3175 -0.52916,-0.50271 -0.89958,-0.50271 -0.13229,0 -0.26458,0.0265 -0.39688,0.0794 l -2.77812,1.13771 v 2.48708 h 1.05833 v -1.77271 l 0.92604,-0.39687"
         id="path18638" />
    </g>
  </g>
</svg>
