<?xml version="1.0" encoding="UTF-8" standalone="no"?>
<!-- Created with Inkscape (http://www.inkscape.org/) -->

<svg
   xmlns:dc="http://purl.org/dc/elements/1.1/"
   xmlns:cc="http://creativecommons.org/ns#"
   xmlns:rdf="http://www.w3.org/1999/02/22-rdf-syntax-ns#"
   xmlns:svg="http://www.w3.org/2000/svg"
   xmlns="http://www.w3.org/2000/svg"
   xmlns:sodipodi="http://sodipodi.sourceforge.net/DTD/sodipodi-0.dtd"
   xmlns:inkscape="http://www.inkscape.org/namespaces/inkscape"
   width="40.343929mm"
   height="40.343929mm"
   viewBox="0 0 40.343929 40.343929"
   version="1.1"
   id="svg8"
   sodipodi:docname="dis_Cross_Country_Skis.svg"
   inkscape:version="0.92.1 r15371">
  <defs
     id="defs2">
    <path
       d="M 0,0 H 48 V 48 H 0 Z"
       id="a"
       inkscape:connector-curvature="0" />
    <path
       d="M 0,0 H 48 V 48 H 0 Z"
       id="a-8"
       inkscape:connector-curvature="0" />
  </defs>
  <sodipodi:namedview
     id="base"
     pagecolor="#ffffff"
     bordercolor="#666666"
     borderopacity="1.0"
     inkscape:pageopacity="0.0"
     inkscape:pageshadow="2"
     inkscape:zoom="0.98994949"
     inkscape:cx="103.68225"
     inkscape:cy="-94.060447"
     inkscape:document-units="mm"
     inkscape:current-layer="layer1"
     showgrid="false"
     inkscape:window-width="1632"
     inkscape:window-height="998"
     inkscape:window-x="48"
     inkscape:window-y="30"
     inkscape:window-maximized="1"
     fit-margin-top="0"
     fit-margin-left="0"
     fit-margin-right="0"
     fit-margin-bottom="0"
     showguides="true"
     inkscape:guide-bbox="true" />
  <metadata
     id="metadata5">
    <rdf:RDF>
      <cc:Work
         rdf:about="">
        <dc:format>image/svg+xml</dc:format>
        <dc:type
           rdf:resource="http://purl.org/dc/dcmitype/StillImage" />
        <dc:title />
      </cc:Work>
    </rdf:RDF>
  </metadata>
  <g
     inkscape:label="Ebene 1"
     inkscape:groupmode="layer"
     id="layer1"
     transform="translate(-71.868973,-308.06516)">
    <rect
       ry="5.0684252"
       y="308.06516"
       x="71.868973"
       height="40.343929"
       width="40.343929"
       id="rect9533"
       style="opacity:1;fill:#969696;fill-opacity:1;fill-rule:nonzero;stroke:none;stroke-width:0.40000001;stroke-linecap:round;stroke-miterlimit:4;stroke-dasharray:none;stroke-opacity:1" />
    <g
       id="g4879"
       transform="matrix(1.2704795,0,0,1.2704795,-65.664852,-171.87966)">
      <path
         id="path10065"
         style="fill:#ffffff;fill-opacity:1;fill-rule:nonzero;stroke:none;stroke-width:0.26458332"
         d="m 137.56262,404.89831 c -0.003,0.7369 -0.61076,1.32774 -1.34433,1.32442 h -21.85784 v 0.90286 h 21.85452 c 1.23147,0.007 2.23723,-0.97921 2.24387,-2.21732 z"
         inkscape:connector-curvature="0" />
      <path
         id="path10067"
         style="fill:#ffffff;fill-opacity:1;fill-rule:nonzero;stroke:none;stroke-width:0.26458332"
         d="m 131.02685,384.55409 c 1.21488,0 2.19408,-0.98584 2.19408,-2.1974 0,-1.21156 -0.9792,-2.19408 -2.19408,-2.19408 -1.21156,0 -2.1974,0.98252 -2.1974,2.19408 0,1.21156 0.98584,2.1974 2.1974,2.1974"
         inkscape:connector-curvature="0" />
      <path
         id="path10069"
         style="fill:#ffffff;fill-opacity:1;fill-rule:nonzero;stroke:none;stroke-width:0.26458332"
         d="m 117.10886,403.45772 -7.30586,-7.3291 0.003,1.28127 6.80132,6.82787 c 0.78005,0.84643 2.11774,-0.13277 2.11774,-0.13277 l -0.64063,-0.6871 c 0,0 -0.63068,0.41491 -0.95929,0.0598 z"
         inkscape:connector-curvature="0" />
      <path
         id="path10071"
         style="fill:#ffffff;fill-opacity:1;fill-rule:nonzero;stroke:none;stroke-width:0.26458332"
         d="m 117.34122,389.63268 h -7.47847 v 0.89622 h 7.47847 z"
         inkscape:connector-curvature="0" />
      <path
         id="path10073"
         style="fill:#ffffff;fill-opacity:1;fill-rule:nonzero;stroke:none;stroke-width:0.26458332"
         d="m 137.55598,387.50166 0.85307,0.35849 -8.49086,17.08795 h -0.93937 z"
         inkscape:connector-curvature="0" />
      <path
         id="path10075"
         style="fill:#ffffff;fill-opacity:1;fill-rule:nonzero;stroke:none;stroke-width:0.26458332"
         d="m 123.46872,386.18389 -3.4156,3.94669 c -0.20248,0.24895 -0.51118,0.40496 -0.85307,0.40496 -0.61408,0 -1.10534,-0.4979 -1.10534,-1.10534 0,-0.33194 0.14273,-0.62736 0.37176,-0.82652 l 3.68447,-4.24543 c 0.20248,-0.24231 0.50786,-0.39832 0.84975,-0.39832 l 5.33418,-0.003 c 0.39168,0 0.74021,0.15933 1.00244,0.40496 l 3.399,3.40232 2.81812,-2.81148 c 0.19583,-0.16928 0.45142,-0.26887 0.73025,-0.26887 0.63399,0 1.14185,0.51118 1.14185,1.14186 0,0.2755 -0.0929,0.52445 -0.25559,0.72361 l -3.39568,3.42224 c -1.03231,1.02899 -1.86215,0.15601 -1.86215,0.15601 l -2.08454,-2.0945 -3.25627,3.76745 2.98408,2.98408 c 0,0 0.62736,0.5842 0.26887,1.74597 l -1.67295,7.45523 c -0.13277,0.65059 -0.70702,1.13522 -1.3908,1.13522 -0.78336,0 -1.42068,-0.634 -1.42068,-1.41736 0,-0.12613 0.0133,-0.24563 0.0465,-0.35849 l 1.37421,-6.12086 -3.38904,-3.29278 -2.9177,3.25295 c 0,0 -0.47467,0.58089 -1.72606,0.53773 l -5.91506,0.01 c -0.66055,0.0133 -1.26135,-0.44147 -1.41072,-1.10866 -0.1726,-0.76676 0.29874,-1.51693 1.06551,-1.68622 0.11949,-0.0266 0.23899,-0.0398 0.35517,-0.0332 l 5.08854,0.0133 7.52494,-8.72322 z"
         inkscape:connector-curvature="0" />
    </g>
  </g>
</svg>
