<?xml version="1.0" encoding="UTF-8" standalone="no"?>
<!-- Created with Inkscape (http://www.inkscape.org/) -->

<svg
   xmlns:dc="http://purl.org/dc/elements/1.1/"
   xmlns:cc="http://creativecommons.org/ns#"
   xmlns:rdf="http://www.w3.org/1999/02/22-rdf-syntax-ns#"
   xmlns:svg="http://www.w3.org/2000/svg"
   xmlns="http://www.w3.org/2000/svg"
   xmlns:sodipodi="http://sodipodi.sourceforge.net/DTD/sodipodi-0.dtd"
   xmlns:inkscape="http://www.inkscape.org/namespaces/inkscape"
   width="40.343929mm"
   height="40.343929mm"
   viewBox="0 0 40.343929 40.343929"
   version="1.1"
   id="svg8"
   sodipodi:docname="dis_Boat.svg"
   inkscape:version="0.92.1 r15371">
  <defs
     id="defs2">
    <path
       d="M 0,0 H 48 V 48 H 0 Z"
       id="a"
       inkscape:connector-curvature="0" />
    <path
       d="M 0,0 H 48 V 48 H 0 Z"
       id="a-8"
       inkscape:connector-curvature="0" />
  </defs>
  <sodipodi:namedview
     id="base"
     pagecolor="#ffffff"
     bordercolor="#666666"
     borderopacity="1.0"
     inkscape:pageopacity="0.0"
     inkscape:pageshadow="2"
     inkscape:zoom="0.98994949"
     inkscape:cx="460.12447"
     inkscape:cy="4.6266981"
     inkscape:document-units="mm"
     inkscape:current-layer="layer1"
     showgrid="false"
     inkscape:window-width="1632"
     inkscape:window-height="998"
     inkscape:window-x="48"
     inkscape:window-y="30"
     inkscape:window-maximized="1"
     fit-margin-top="0"
     fit-margin-left="0"
     fit-margin-right="0"
     fit-margin-bottom="0" />
  <metadata
     id="metadata5">
    <rdf:RDF>
      <cc:Work
         rdf:about="">
        <dc:format>image/svg+xml</dc:format>
        <dc:type
           rdf:resource="http://purl.org/dc/dcmitype/StillImage" />
        <dc:title />
      </cc:Work>
    </rdf:RDF>
  </metadata>
  <g
     inkscape:label="Ebene 1"
     inkscape:groupmode="layer"
     id="layer1"
     transform="translate(-71.868973,-308.06516)">
    <rect
       ry="5.0684252"
       y="308.06516"
       x="71.868973"
       height="40.343929"
       width="40.343929"
       id="rect9533"
       style="opacity:1;fill:#969696;fill-opacity:1;fill-rule:nonzero;stroke:none;stroke-width:0.40000001;stroke-linecap:round;stroke-miterlimit:4;stroke-dasharray:none;stroke-opacity:1" />
    <path
       inkscape:connector-curvature="0"
       d="m 102.49424,339.99722 c -1.81629,0 -3.632564,-0.61414 -5.226703,-1.73136 -3.188304,2.23444 -7.265141,2.23444 -10.453444,0 -1.59414,1.11722 -3.410419,1.73136 -5.226698,1.73136 h -2.613373 v 2.61335 h 2.613373 c 1.796673,0 3.580283,-0.4508 5.226698,-1.30014 3.29283,1.69215 7.160614,1.69215 10.453444,0 1.646415,0.8428 3.430023,1.30014 5.226703,1.30014 h 2.61337 v -2.61335 z m -20.978726,-2.61335 h 0.07186 c 2.090669,0 3.952704,-1.14988 5.226697,-2.61337 1.274018,1.46349 3.136028,2.61337 5.226722,2.61337 2.090694,0 3.952705,-1.14988 5.226722,-2.61337 1.280537,1.46349 3.129485,2.61337 5.226695,2.61337 h 0.0719 l 2.47615,-8.73514 c 0.11112,-0.33321 0.0785,-0.69909 -0.0785,-1.01269 -0.16322,-0.31361 -0.44428,-0.54881 -0.78401,-0.64679 l -1.68563,-0.55535 v -6.03685 c 0,-1.44389 -1.16946,-2.61335 -2.613344,-2.61335 H 95.96074 v -3.92004 h -7.84007 v 3.92004 h -3.920036 c -1.443882,0 -2.613348,1.16946 -2.613348,2.61335 v 6.03685 l -1.679147,0.54881 c -0.339753,0.10445 -0.620687,0.3332 -0.784007,0.64681 -0.163222,0.3136 -0.189397,0.67945 -0.07828,1.01266 z m 2.68523,-16.98682 h 15.680142 v 5.18099 l -7.840071,-2.56765 -7.840071,2.56765 z"
       id="path10648"
       style="fill:#ffffff;fill-opacity:1;stroke-width:0.65333921" />
  </g>
</svg>
