<?xml version="1.0" encoding="UTF-8" standalone="no"?>
<!-- Created with Inkscape (http://www.inkscape.org/) -->

<svg
   xmlns:dc="http://purl.org/dc/elements/1.1/"
   xmlns:cc="http://creativecommons.org/ns#"
   xmlns:rdf="http://www.w3.org/1999/02/22-rdf-syntax-ns#"
   xmlns:svg="http://www.w3.org/2000/svg"
   xmlns="http://www.w3.org/2000/svg"
   xmlns:sodipodi="http://sodipodi.sourceforge.net/DTD/sodipodi-0.dtd"
   xmlns:inkscape="http://www.inkscape.org/namespaces/inkscape"
   width="40.343929mm"
   height="40.343929mm"
   viewBox="0 0 40.343929 40.343929"
   version="1.1"
   id="svg8"
   sodipodi:docname="dis_Difficult_climbing.svg"
   inkscape:version="0.92.1 r15371">
  <defs
     id="defs2">
    <path
       d="M 0,0 H 48 V 48 H 0 Z"
       id="a"
       inkscape:connector-curvature="0" />
    <path
       d="M 0,0 H 48 V 48 H 0 Z"
       id="a-8"
       inkscape:connector-curvature="0" />
  </defs>
  <sodipodi:namedview
     id="base"
     pagecolor="#ffffff"
     bordercolor="#666666"
     borderopacity="1.0"
     inkscape:pageopacity="0.0"
     inkscape:pageshadow="2"
     inkscape:zoom="0.98994949"
     inkscape:cx="374.51752"
     inkscape:cy="-121.3911"
     inkscape:document-units="mm"
     inkscape:current-layer="layer1"
     showgrid="false"
     inkscape:window-width="1632"
     inkscape:window-height="998"
     inkscape:window-x="48"
     inkscape:window-y="30"
     inkscape:window-maximized="1"
     fit-margin-top="0"
     fit-margin-left="0"
     fit-margin-right="0"
     fit-margin-bottom="0"
     showguides="true"
     inkscape:guide-bbox="true" />
  <metadata
     id="metadata5">
    <rdf:RDF>
      <cc:Work
         rdf:about="">
        <dc:format>image/svg+xml</dc:format>
        <dc:type
           rdf:resource="http://purl.org/dc/dcmitype/StillImage" />
        <dc:title />
      </cc:Work>
    </rdf:RDF>
  </metadata>
  <g
     inkscape:label="Ebene 1"
     inkscape:groupmode="layer"
     id="layer1"
     transform="translate(-71.868973,-308.06516)">
    <rect
       ry="5.0684252"
       y="308.06516"
       x="71.868973"
       height="40.343929"
       width="40.343929"
       id="rect9533"
       style="opacity:1;fill:#969696;fill-opacity:1;fill-rule:nonzero;stroke:none;stroke-width:0.40000001;stroke-linecap:round;stroke-miterlimit:4;stroke-dasharray:none;stroke-opacity:1" />
    <g
       id="g5214"
       style="fill:#ffffff;fill-opacity:1"
       transform="matrix(1.2281695,0,0,1.2281695,-49.355352,-139.05776)">
      <path
         style="fill:#ffffff;fill-opacity:1;stroke-width:0.26458332"
         id="path5180"
         d="m 105.20117,378.62757 c -0.11774,0.23971 -0.20056,0.5043 -0.24606,0.78952 -0.0185,0.14049 -0.0331,0.2831 -0.0331,0.42571 l 0.10345,6.50928 -2.24684,4.84505 c -0.0786,0.14261 -0.13652,0.31009 -0.16113,0.48366 -0.12409,0.80195 0.42572,1.54411 1.22582,1.6682 0.62018,0.095 1.21549,-0.22119 1.4986,-0.74401 l 2.47438,-5.2959 c 0.0516,-0.12409 0.0971,-0.25215 0.11774,-0.39476 0.006,-0.064 0.0124,-0.13652 0.0124,-0.20055 l -0.0206,-4.02246 3.80338,1.65787 0.61172,3.93568 c 0.12409,0.57468 0.59531,1.03346 1.20914,1.12871 0.79984,0.11774 1.542,-0.43206 1.66397,-1.22581 0.0206,-0.13653 0.0206,-0.27279 0.006,-0.40111 l -0.74824,-4.74609 c -0.091,-0.45879 -0.39476,-0.85381 -0.81862,-1.0541 l -3.39831,-1.51104 2.1643,-3.76608 1.07288,1.36419 c 0.10954,0.12198 0.25215,0.22543 0.41143,0.28946 l 4.0886,1.19486 c 0.54161,0.11773 1.0975,-0.16749 1.31049,-0.6903 0.23971,-0.5932 -0.0455,-1.26498 -0.63262,-1.50495 -0.0185,-0.006 -0.0392,-0.0124 -0.058,-0.0185 l -3.55335,-1.04802 -2.67256,-3.21045 c -0.39899,-0.42572 -0.93636,-0.72972 -1.55654,-0.82683 -1.08532,-0.16113 -2.11455,0.3556 -2.65827,1.23402 z"
         inkscape:connector-curvature="0" />
      <path
         style="fill:#ffffff;fill-opacity:1;stroke-width:0.26458332"
         id="path5182"
         d="m 116.93359,387.96022 -0.26035,1.9513 -7.03422,1.71159 0.0661,1.20915 h 17.15664 c 0.60563,0 1.09749,-0.49186 1.09749,-1.09961 l -0.0206,-23.1222 -2.3503,-0.54981 -1.34964,6.07933 -2.25504,0.9488 -2.0029,5.60599 1.89971,4.28916 -0.53525,1.64756 z"
         inkscape:connector-curvature="0" />
      <path
         style="fill:#ffffff;fill-opacity:1;stroke-width:0.26458332"
         id="path5184"
         d="m 112.15468,371.97568 c 1.20703,0 2.18705,-0.98187 2.18705,-2.19101 0,-1.20703 -0.97975,-2.1889 -2.18705,-2.1889 -1.20914,0 -2.19101,0.98187 -2.19101,2.1889 0,1.20914 0.98187,2.19101 2.19101,2.19101 z"
         inkscape:connector-curvature="0" />
      <path
         style="fill:#ffffff;fill-opacity:1;stroke-width:0.26458332"
         id="path5186"
         d="m 107.79726,372.31673 c 0.16748,-0.29554 0.0704,-0.68421 -0.23363,-0.8517 l -1.05833,-0.62018 c -0.30374,-0.16748 -0.68421,-0.0722 -0.8599,0.23151 l -3.26787,5.63907 c -0.16748,0.29765 -0.0704,0.67998 0.23363,0.85381 l 1.06442,0.61383 c 0.29766,0.17357 0.67786,0.0704 0.85381,-0.22728 z"
         inkscape:connector-curvature="0" />
    </g>
  </g>
</svg>
