<?xml version="1.0" encoding="UTF-8" standalone="no"?>
<!-- Created with Inkscape (http://www.inkscape.org/) -->

<svg
   xmlns:dc="http://purl.org/dc/elements/1.1/"
   xmlns:cc="http://creativecommons.org/ns#"
   xmlns:rdf="http://www.w3.org/1999/02/22-rdf-syntax-ns#"
   xmlns:svg="http://www.w3.org/2000/svg"
   xmlns="http://www.w3.org/2000/svg"
   xmlns:sodipodi="http://sodipodi.sourceforge.net/DTD/sodipodi-0.dtd"
   xmlns:inkscape="http://www.inkscape.org/namespaces/inkscape"
   width="40.343929mm"
   height="40.343929mm"
   viewBox="0 0 40.343929 40.343929"
   version="1.1"
   id="svg8"
   sodipodi:docname="dis_Motorcycles.svg"
   inkscape:version="0.92.1 r15371">
  <defs
     id="defs2">
    <path
       d="M 0,0 H 48 V 48 H 0 Z"
       id="a"
       inkscape:connector-curvature="0" />
    <path
       d="M 0,0 H 48 V 48 H 0 Z"
       id="a-8"
       inkscape:connector-curvature="0" />
    <path
       d="M 0,0 H 48 V 48 H 0 Z"
       id="a-6"
       inkscape:connector-curvature="0" />
    <path
       d="M 0,0 H 48 V 48 H 0 Z"
       id="a-89"
       inkscape:connector-curvature="0" />
    <path
       d="M 0,0 H 48 V 48 H 0 Z"
       id="a-0"
       inkscape:connector-curvature="0" />
  </defs>
  <sodipodi:namedview
     id="base"
     pagecolor="#ffffff"
     bordercolor="#666666"
     borderopacity="1.0"
     inkscape:pageopacity="0.0"
     inkscape:pageshadow="2"
     inkscape:zoom="0.98994949"
     inkscape:cx="460.28813"
     inkscape:cy="-48.64037"
     inkscape:document-units="mm"
     inkscape:current-layer="layer1"
     showgrid="false"
     inkscape:window-width="1632"
     inkscape:window-height="998"
     inkscape:window-x="48"
     inkscape:window-y="30"
     inkscape:window-maximized="1"
     fit-margin-top="0"
     fit-margin-left="0"
     fit-margin-right="0"
     fit-margin-bottom="0" />
  <metadata
     id="metadata5">
    <rdf:RDF>
      <cc:Work
         rdf:about="">
        <dc:format>image/svg+xml</dc:format>
        <dc:type
           rdf:resource="http://purl.org/dc/dcmitype/StillImage" />
        <dc:title />
      </cc:Work>
    </rdf:RDF>
  </metadata>
  <g
     inkscape:label="Ebene 1"
     inkscape:groupmode="layer"
     id="layer1"
     transform="translate(-71.868973,-308.06516)">
    <rect
       ry="5.0684252"
       y="308.06516"
       x="71.868973"
       height="40.343929"
       width="40.343929"
       id="rect9533"
       style="opacity:1;fill:#969696;fill-opacity:1;fill-rule:nonzero;stroke:none;stroke-width:0.40000001;stroke-linecap:round;stroke-miterlimit:4;stroke-dasharray:none;stroke-opacity:1" />
    <path
       id="path15307"
       d="m 102.85478,323.92029 -5.857496,-5.8575 h -6.409835 v 2.90697 h 5.217976 l 2.906939,2.90694 H 81.866606 c -4.069708,0 -7.26736,3.19765 -7.26736,7.26736 0,4.06973 3.197652,7.26738 7.26736,7.26738 3.575546,0 6.467954,-2.45639 7.122031,-5.8139 h 2.398219 l 4.026143,-4.02613 c -0.305242,0.78488 -0.465127,1.65696 -0.465127,2.57265 0,4.06973 3.197653,7.26738 7.267388,7.26738 4.06971,0 7.26737,-3.19765 7.26737,-7.26738 0,-3.85171 -2.86336,-6.93306 -6.62785,-7.22377 z m -16.889378,8.67725 c -0.610459,1.67149 -2.238331,2.90694 -4.098796,2.90694 -2.369158,0 -4.360422,-1.99127 -4.360422,-4.36042 0,-2.36917 1.991264,-4.36043 4.360422,-4.36043 1.860465,0 3.488337,1.23545 4.098796,2.90697 h -4.098796 v 2.90694 z m 16.249858,2.90694 c -2.412773,0 -4.360423,-1.94765 -4.360423,-4.36042 0,-2.41275 1.94765,-4.36043 4.360423,-4.36043 2.41275,0 4.36043,1.94768 4.36043,4.36043 0,2.41277 -1.94768,4.36042 -4.36043,4.36042 z"
       clip-path="url(#b)"
       inkscape:connector-curvature="0"
       style="fill:#ffffff;fill-opacity:1;stroke-width:0.72673684" />
  </g>
</svg>
