<?xml version="1.0" encoding="UTF-8" standalone="no"?>
<!-- Created with Inkscape (http://www.inkscape.org/) -->

<svg
   xmlns:dc="http://purl.org/dc/elements/1.1/"
   xmlns:cc="http://creativecommons.org/ns#"
   xmlns:rdf="http://www.w3.org/1999/02/22-rdf-syntax-ns#"
   xmlns:svg="http://www.w3.org/2000/svg"
   xmlns="http://www.w3.org/2000/svg"
   xmlns:sodipodi="http://sodipodi.sourceforge.net/DTD/sodipodi-0.dtd"
   xmlns:inkscape="http://www.inkscape.org/namespaces/inkscape"
   width="40.343929mm"
   height="40.343929mm"
   viewBox="0 0 40.343929 40.343929"
   version="1.1"
   id="svg8"
   sodipodi:docname="dis_Off-road_vehicles.svg"
   inkscape:version="0.92.1 r15371">
  <defs
     id="defs2">
    <path
       d="M 0,0 H 48 V 48 H 0 Z"
       id="a"
       inkscape:connector-curvature="0" />
    <path
       d="M 0,0 H 48 V 48 H 0 Z"
       id="a-8"
       inkscape:connector-curvature="0" />
  </defs>
  <sodipodi:namedview
     id="base"
     pagecolor="#ffffff"
     bordercolor="#666666"
     borderopacity="1.0"
     inkscape:pageopacity="0.0"
     inkscape:pageshadow="2"
     inkscape:zoom="1.4"
     inkscape:cx="172.87615"
     inkscape:cy="-32.667087"
     inkscape:document-units="mm"
     inkscape:current-layer="layer1"
     showgrid="false"
     inkscape:window-width="1632"
     inkscape:window-height="998"
     inkscape:window-x="48"
     inkscape:window-y="30"
     inkscape:window-maximized="1"
     fit-margin-top="0"
     fit-margin-left="0"
     fit-margin-right="0"
     fit-margin-bottom="0"
     showguides="true"
     inkscape:guide-bbox="true" />
  <metadata
     id="metadata5">
    <rdf:RDF>
      <cc:Work
         rdf:about="">
        <dc:format>image/svg+xml</dc:format>
        <dc:type
           rdf:resource="http://purl.org/dc/dcmitype/StillImage" />
        <dc:title />
      </cc:Work>
    </rdf:RDF>
  </metadata>
  <g
     inkscape:label="Ebene 1"
     inkscape:groupmode="layer"
     id="layer1"
     transform="translate(-75.648735,-308.63211)">
    <rect
       ry="5.0684252"
       y="308.63211"
       x="75.648735"
       height="40.343929"
       width="40.343929"
       id="rect9533"
       style="opacity:1;fill:#969696;fill-opacity:1;fill-rule:nonzero;stroke:none;stroke-width:0.40000001;stroke-linecap:round;stroke-miterlimit:4;stroke-dasharray:none;stroke-opacity:1" />
    <g
       id="g5802"
       transform="matrix(3.0892455,0,0,3.0892455,-178.29259,-680.57311)">
      <path
         inkscape:connector-curvature="0"
         d="m 91.938308,329.00446 c 0.30582,0 0.55257,-0.24675 0.55257,-0.55388 0,-0.3045 -0.24675,-0.55256 -0.55257,-0.55256 -0.30581,0 -0.55257,0.24806 -0.55257,0.55256 0,0.30582 0.24544,0.55388 0.55257,0.55388 z m -1.27707,-0.55519 c 0,-0.70351 0.57094,-1.27576 1.27707,-1.27576 0.70351,0 1.27576,0.57225 1.27576,1.27576 0,0.70613 -0.57225,1.27839 -1.27576,1.27839 -0.70613,0 -1.27707,-0.57226 -1.27707,-1.27839 z"
         id="path5891"
         style="fill:#ffffff;stroke-width:1.31251347" />
      <path
         inkscape:connector-curvature="0"
         d="m 93.837518,327.08294 -0.003,-1.28626 c 0,-0.51319 -0.45675,-0.45938 -0.45675,-0.45938 h -2.57909 l -0.94107,-1.58683 h -0.55388 l 0.94107,1.58683 -0.7127,1.2062 -1.62489,-0.003 c -0.56175,-1.15239 -1.70233,-1.0802 -1.70233,-1.0802 h -3.08178 v 2.74053 h 0.44101 c 0.0591,-0.93189 0.95419,-1.67083 1.8992,-1.67083 0.94501,0 1.84277,0.74025 1.89921,1.67083 l 2.67884,0.003 c 0.0564,-0.9332 0.9542,-1.67345 1.89921,-1.67345 0.94501,0 1.84539,0.74025 1.8992,1.67476 l 0.16669,0.001 c 0.18507,0 0.33338,-0.14963 0.33338,-0.33338 v -0.79014 z"
         id="path5893"
         style="fill:#ffffff;stroke-width:1.31251347" />
      <path
         inkscape:connector-curvature="0"
         d="m 85.459738,329.00446 c 0.30582,0 0.5552,-0.24675 0.5552,-0.55388 0,-0.3045 -0.24807,-0.55256 -0.5552,-0.55256 -0.30319,0 -0.55256,0.24806 -0.55256,0.55256 0,0.30582 0.24937,0.55388 0.55256,0.55388 z m -1.27445,-0.55519 c 0,-0.70351 0.57226,-1.27576 1.27577,-1.27576 0.70613,0 1.27576,0.57225 1.27576,1.27576 0,0.70613 -0.56963,1.27839 -1.27576,1.27839 -0.70482,0 -1.27577,-0.57226 -1.27577,-1.27839 z"
         id="path5895"
         style="fill:#ffffff;stroke-width:1.31251347" />
    </g>
  </g>
</svg>
