<?xml version="1.0" encoding="UTF-8" standalone="no"?>
<!-- Created with Inkscape (http://www.inkscape.org/) -->

<svg
   xmlns:dc="http://purl.org/dc/elements/1.1/"
   xmlns:cc="http://creativecommons.org/ns#"
   xmlns:rdf="http://www.w3.org/1999/02/22-rdf-syntax-ns#"
   xmlns:svg="http://www.w3.org/2000/svg"
   xmlns="http://www.w3.org/2000/svg"
   xmlns:sodipodi="http://sodipodi.sourceforge.net/DTD/sodipodi-0.dtd"
   xmlns:inkscape="http://www.inkscape.org/namespaces/inkscape"
   width="42.643929mm"
   height="42.643929mm"
   viewBox="0 0 42.643928 42.643928"
   version="1.1"
   id="svg8"
   sodipodi:docname="no_Dangerous_area.svg"
   inkscape:version="0.92.1 r15371">
  <defs
     id="defs2">
    <path
       d="M 0,0 H 48 V 48 H 0 Z"
       id="a"
       inkscape:connector-curvature="0" />
    <path
       d="M 0,0 H 48 V 48 H 0 Z"
       id="a-8"
       inkscape:connector-curvature="0" />
    <inkscape:perspective
       id="perspective17900"
       inkscape:persp3d-origin="61.773499 : 41.179667 : 1"
       inkscape:vp_z="123.547 : 61.769501 : 1"
       inkscape:vp_y="0 : 1000 : 0"
       inkscape:vp_x="0 : 61.769501 : 1"
       sodipodi:type="inkscape:persp3d" />
    <inkscape:perspective
       id="perspective17900-7"
       inkscape:persp3d-origin="61.773499 : 41.179667 : 1"
       inkscape:vp_z="123.547 : 61.769501 : 1"
       inkscape:vp_y="0 : 1000 : 0"
       inkscape:vp_x="0 : 61.769501 : 1"
       sodipodi:type="inkscape:persp3d" />
    <inkscape:perspective
       id="perspective5302"
       inkscape:persp3d-origin="372.04724 : 350.78739 : 1"
       inkscape:vp_z="744.09448 : 526.18109 : 1"
       inkscape:vp_y="0 : 1000 : 0"
       inkscape:vp_x="0 : 526.18109 : 1"
       sodipodi:type="inkscape:persp3d" />
    <inkscape:perspective
       id="perspective5302-6"
       inkscape:persp3d-origin="372.04724 : 350.78739 : 1"
       inkscape:vp_z="744.09448 : 526.18109 : 1"
       inkscape:vp_y="0 : 1000 : 0"
       inkscape:vp_x="0 : 526.18109 : 1"
       sodipodi:type="inkscape:persp3d" />
    <inkscape:perspective
       id="perspective5302-1"
       inkscape:persp3d-origin="372.04724 : 350.78739 : 1"
       inkscape:vp_z="744.09448 : 526.18109 : 1"
       inkscape:vp_y="0 : 1000 : 0"
       inkscape:vp_x="0 : 526.18109 : 1"
       sodipodi:type="inkscape:persp3d" />
  </defs>
  <sodipodi:namedview
     id="base"
     pagecolor="#ffffff"
     bordercolor="#666666"
     borderopacity="1.0"
     inkscape:pageopacity="0.0"
     inkscape:pageshadow="2"
     inkscape:zoom="0.98994949"
     inkscape:cx="-370.61682"
     inkscape:cy="291.66132"
     inkscape:document-units="mm"
     inkscape:current-layer="layer1"
     showgrid="false"
     inkscape:window-width="1632"
     inkscape:window-height="998"
     inkscape:window-x="48"
     inkscape:window-y="30"
     inkscape:window-maximized="1"
     fit-margin-top="0"
     fit-margin-left="0"
     fit-margin-right="0"
     fit-margin-bottom="0"
     showguides="true"
     inkscape:guide-bbox="true" />
  <metadata
     id="metadata5">
    <rdf:RDF>
      <cc:Work
         rdf:about="">
        <dc:format>image/svg+xml</dc:format>
        <dc:type
           rdf:resource="http://purl.org/dc/dcmitype/StillImage" />
        <dc:title />
      </cc:Work>
    </rdf:RDF>
  </metadata>
  <g
     inkscape:label="Ebene 1"
     inkscape:groupmode="layer"
     id="layer1"
     transform="translate(-190.14976,-308.8178)">
    <rect
       ry="5.0684252"
       y="309.9678"
       x="191.29976"
       height="40.343929"
       width="40.343929"
       id="rect9537"
       style="opacity:1;fill:#000000;fill-opacity:1;fill-rule:nonzero;stroke:#ff0000;stroke-width:2.29999995;stroke-linecap:round;stroke-miterlimit:4;stroke-dasharray:none;stroke-opacity:1" />
    <g
       id="g8325"
       transform="matrix(1.1682674,0,0,1.1682674,101.85046,-55.27588)">
      <path
         sodipodi:nodetypes="scccccsccccccccccccs"
         id="path8293"
         d="m 83.565081,328.7777 c -0.598606,0 -1.368243,0.42757 -1.710303,0.94066 -0.17103,0.34206 -0.427576,0.59861 -0.684121,0.59861 -0.769636,0.17103 -1.624788,1.45376 -1.453758,2.13788 0.171031,0.85515 0.855152,1.19721 2.394424,1.36824 2.394424,0.34206 6.499151,1.96685 10.603878,4.19024 4.104726,2.30891 5.643999,3.07855 5.986059,3.07855 0.256546,0 1.197212,0.68412 2.05236,1.45375 0.42758,0.42758 1.1117,0.94067 1.45376,1.19722 1.28273,0.76963 2.13788,0.5986 2.99303,-0.76964 0.17103,-0.25655 0.34206,-0.42758 0.51309,-0.34206 0.34206,0.0855 1.1117,-0.25655 1.36824,-0.68412 0.17103,-0.42758 0.17103,-1.19721 -0.17103,-1.45376 -0.51309,-0.51309 -0.94066,-0.59861 -3.24957,-0.76964 -2.47994,-0.0855 -3.677152,-0.42757 -5.216425,-1.28272 -0.427576,-0.25655 -1.197212,-0.59861 -1.624788,-0.85515 -0.427575,-0.25655 -1.624787,-0.94067 -2.565454,-1.45376 -2.052363,-1.19721 -4.959878,-2.822 -6.242605,-3.42061 -1.197212,-0.68412 -2.223394,-1.53927 -2.907515,-2.56545 -0.598606,-0.94067 -1.026181,-1.36824 -1.539272,-1.36824 z"
         inkscape:connector-curvature="0"
         style="fill:#ffffff;stroke-width:0.08551514" />
      <path
         sodipodi:nodetypes="ccccccccccccccc"
         id="path8295"
         d="m 90.748352,337.24369 -1.368242,0.68413 c -2.479939,1.11169 -3.506121,1.28272 -7.183272,1.11169 -0.940666,-0.0855 -1.282727,0 -1.795817,0.25655 -0.598606,0.34206 -0.769637,0.68412 -0.684122,1.36824 0.171031,0.51309 0.427576,0.76964 1.197212,1.02618 0.427576,0.17103 0.598606,0.34206 0.684121,0.68412 0.08552,0.25655 0.342061,0.68412 0.598606,0.85515 0.940667,0.76964 2.223394,0.34207 4.361273,-1.28272 0.598606,-0.42758 1.539272,-0.94067 2.052363,-1.1117 0.769636,-0.34206 2.308909,-1.02618 4.275757,-1.88133 l 0.427576,-0.17103 -0.684121,-0.42758 c -0.427576,-0.25654 -1.026182,-0.5986 -1.282728,-0.76963 z"
         inkscape:connector-curvature="0"
         style="fill:#ffffff;stroke-width:0.08551514" />
      <path
         sodipodi:nodetypes="cccccsccccccscc"
         id="path8297"
         d="m 104.31586,329.28544 c -0.17343,-10e-4 -0.33938,0.0267 -0.48369,0.0909 -0.17103,0.0855 -0.51309,0.51309 -0.85515,0.94067 -0.94067,1.36824 -1.96685,2.13788 -4.104729,3.16406 -2.99303,1.36824 -4.617818,2.13788 -4.532303,2.22339 0,0.0855 0.598606,0.42758 1.197212,0.76964 l 1.197212,0.68412 1.539273,-0.59861 c 2.308905,-0.94066 5.301935,-1.79581 7.012245,-1.96684 1.88133,-0.25655 1.96684,-0.25655 2.39442,-0.68413 0.34206,-0.42757 0.42758,-1.19721 0,-1.79581 -0.0855,-0.25655 -0.51309,-0.68412 -0.94067,-0.94067 -0.51309,-0.25655 -0.76963,-0.59861 -0.76963,-0.76964 0,-0.55584 -0.90265,-1.11161 -1.65419,-1.11704 z"
         inkscape:connector-curvature="0"
         style="fill:#ffffff;stroke-width:0.08551514" />
      <g
         transform="matrix(0.08551514,0,0,0.08551514,61.75872,309.87885)"
         id="g8317"
         style="fill:#ffffff">
        <path
           inkscape:connector-curvature="0"
           d="m 373,224 c -1,0 -2,1 -2,4 0,0 -1,6 1,5 2,0 6,2 5,-4 0,-3 -2,-5 -4,-5 z"
           id="path8299" />
        <path
           inkscape:connector-curvature="0"
           d="m 371,253 c -1,-5 -1,-8 3,-8 4,0 5,2 3,7 -2,5 -4,5 -6,1 z"
           id="path8301" />
        <path
           inkscape:connector-curvature="0"
           d="m 365,223 c -1,0 -3,3 -3,6 0,1 0,4 0,5 1,0 3,0 4,0 2,0 1,-6 1,-8 0,-2 -1,-3 -2,-3 0,0 0,0 0,0 z"
           id="path8303" />
        <path
           inkscape:connector-curvature="0"
           d="m 363,253 c -2,-2 -1,-8 1,-8 2,0 3,2 3,5 0,4 -2,5 -4,3 z"
           id="path8305" />
        <path
           inkscape:connector-curvature="0"
           d="m 385,253 c -2,-3 -1,-8 3,-8 2,0 3,1 3,4 -1,4 -4,6 -6,4 z"
           id="path8307" />
        <path
           inkscape:connector-curvature="0"
           d="m 354,251 c -2,-2 -1,-6 2,-6 1,0 2,2 2,4 0,3 -2,4 -4,2 z"
           id="path8309" />
        <path
           inkscape:connector-curvature="0"
           d="m 380,233 c -2,-2 1,-10 3,-10 3,1 4,10 0,11 -1,0 -3,0 -3,-1 z"
           id="path8311" />
        <path
           inkscape:connector-curvature="0"
           d="m 352,231 c -1,-4 0,-8 4,-8 1,0 2,2 2,5 0,6 -4,8 -6,3 z"
           id="path8313" />
        <path
           inkscape:connector-curvature="0"
           d="m 389,228 c 0,-4 1,-5 3,-5 2,1 3,2 3,5 0,3 -1,5 -3,5 -2,0 -3,-1 -3,-5 z"
           id="path8315" />
      </g>
      <g
         transform="matrix(0.08551514,0,0,0.08551514,61.75872,309.87885)"
         id="g8323"
         style="fill:#ffffff">
        <path
           inkscape:connector-curvature="0"
           d="m 358,277 c -9,-3 -10,-4 -21,-17 -8,-12 -9,-13 -11,-37 -1,-14 0,-15 9,-7 5,5 6,7 8,18 2,18 9,24 31,24 17,0 24,-3 28,-12 1,-3 3,-8 3,-10 0,-9 4,-17 9,-20 3,-2 6,-3 7,-3 2,0 0,32 -3,37 -3,7 -17,23 -21,25 -6,2 -31,4 -39,2 z"
           id="path8319" />
        <path
           inkscape:connector-curvature="0"
           d="m 373,67 c -20,1 -22,2 -33,7 -12,6 -26,19 -32,32 -4,8 -4,11 -4,28 0,17 0,20 4,27 2,5 5,8 5,7 1,0 1,-9 1,-19 0,-18 0,-19 6,-32 7,-13 14,-22 12,-14 -2,8 -6,16 -9,24 -4,8 -5,12 -5,27 0,16 0,19 -3,20 -6,2 -8,4 -8,7 -1,7 4,12 18,18 11,4 15,7 18,11 3,5 6,8 14,10 1,1 11,1 22,1 l 20,-1 8,-8 c 5,-6 10,-10 16,-12 19,-7 26,-21 13,-24 l -7,-2 v -12 c 0,-12 1,-17 4,-17 1,0 1,5 1,11 0,13 2,14 8,6 5,-7 6,-38 2,-52 -5,-18 -21,-34 -41,-40 -7,-3 -13,-3 -30,-3 z m -25.59375,71.375 c 4.64935,-0.27661 9.46875,1.5 13.59375,5.625 8,8 3,24 -10,31 -15,8 -23,1 -22,-15 1.3125,-13.125 9.53021,-21.09692 18.40625,-21.625 z m 54.15625,0 C 410.64771,138.18164 418.625,146.25 420,160 c 1,8 1,9 -3,13 -9,9 -21,5 -28,-8 -6,-9 -6,-15 0,-21 4.0625,-3.75 8.43286,-5.53711 12.5625,-5.625 z M 375,168 c 2,0 7,20 7,27 0,4 0,4 -4,1 -4,-2 -5,-2 -9,0 -5,4 -6,3 -5,0 1,-2 1,-6 2,-9 2,-8 7,-19 9,-19 z"
           id="path8321" />
      </g>
    </g>
    <path
       style="fill:none;fill-rule:evenodd;stroke:#ff0000;stroke-width:2.29999995;stroke-linecap:butt;stroke-linejoin:miter;stroke-miterlimit:4;stroke-dasharray:none;stroke-opacity:1"
       d="m 192.8439,348.76758 37.25564,-37.25563"
       id="path9539"
       inkscape:connector-curvature="0" />
    <g
       id="g4394"
       transform="matrix(5.0938006,0,0,-5.0938006,105.00737,308.73575)" />
  </g>
</svg>
