<?xml version="1.0" encoding="UTF-8" standalone="no"?>
<!-- Created with Inkscape (http://www.inkscape.org/) -->

<svg
   xmlns:dc="http://purl.org/dc/elements/1.1/"
   xmlns:cc="http://creativecommons.org/ns#"
   xmlns:rdf="http://www.w3.org/1999/02/22-rdf-syntax-ns#"
   xmlns:svg="http://www.w3.org/2000/svg"
   xmlns="http://www.w3.org/2000/svg"
   xmlns:sodipodi="http://sodipodi.sourceforge.net/DTD/sodipodi-0.dtd"
   xmlns:inkscape="http://www.inkscape.org/namespaces/inkscape"
   width="42.643929mm"
   height="42.643929mm"
   viewBox="0 0 42.643928 42.643928"
   version="1.1"
   id="svg8"
   sodipodi:docname="no_Fuel_Nearby.svg"
   inkscape:version="0.92.1 r15371">
  <defs
     id="defs2">
    <path
       d="M 0,0 H 48 V 48 H 0 Z"
       id="a"
       inkscape:connector-curvature="0" />
    <path
       d="M 0,0 H 48 V 48 H 0 Z"
       id="a-8"
       inkscape:connector-curvature="0" />
  </defs>
  <sodipodi:namedview
     id="base"
     pagecolor="#ffffff"
     bordercolor="#666666"
     borderopacity="1.0"
     inkscape:pageopacity="0.0"
     inkscape:pageshadow="2"
     inkscape:zoom="0.98994949"
     inkscape:cx="13.942897"
     inkscape:cy="13.01386"
     inkscape:document-units="mm"
     inkscape:current-layer="layer1"
     showgrid="false"
     inkscape:window-width="1632"
     inkscape:window-height="998"
     inkscape:window-x="48"
     inkscape:window-y="30"
     inkscape:window-maximized="1"
     fit-margin-top="0"
     fit-margin-left="0"
     fit-margin-right="0"
     fit-margin-bottom="0" />
  <metadata
     id="metadata5">
    <rdf:RDF>
      <cc:Work
         rdf:about="">
        <dc:format>image/svg+xml</dc:format>
        <dc:type
           rdf:resource="http://purl.org/dc/dcmitype/StillImage" />
        <dc:title />
      </cc:Work>
    </rdf:RDF>
  </metadata>
  <g
     inkscape:label="Ebene 1"
     inkscape:groupmode="layer"
     id="layer1"
     transform="translate(-189.92118,-307.98425)">
    <rect
       ry="5.0684252"
       y="309.13425"
       x="191.07118"
       height="40.343929"
       width="40.343929"
       id="rect9537"
       style="opacity:1;fill:#000000;fill-opacity:1;fill-rule:nonzero;stroke:#ff0000;stroke-width:2.29999995;stroke-linecap:round;stroke-miterlimit:4;stroke-dasharray:none;stroke-opacity:1" />
    <path
       style="fill:#ffffff;fill-opacity:1;stroke-width:0.76200157"
       id="path10508"
       d="m 222.70349,322.0369 0.023,-0.023 -5.67689,-5.66169 -1.61546,1.61545 3.21565,3.21565 c -1.43258,0.54864 -2.45365,1.92787 -2.45365,3.55093 0,2.10312 1.70689,3.81002 3.81001,3.81002 0.54101,0 1.05919,-0.11434 1.52402,-0.32006 v 10.98802 c 0,0.8382 -0.68582,1.52401 -1.52402,1.52401 -0.83819,0 -1.52401,-0.68581 -1.52401,-1.52401 v -6.85801 c 0,-1.68403 -1.36397,-3.048 -3.048,-3.048 h -1.52401 v -10.66803 c 0,-1.68403 -1.36397,-3.048 -3.048,-3.048 h -9.14402 c -1.68402,0 -3.04799,1.36397 -3.04799,3.048 v 24.38406 h 15.24001 v -11.43003 h 2.28601 v 7.62001 c 0,2.10312 1.70689,3.81002 3.81001,3.81002 2.10313,0 3.81002,-1.7069 3.81002,-3.81002 V 324.7342 c 0,-1.05158 -0.42673,-2.00405 -1.11254,-2.6975 z m -11.84149,4.22151 h -9.14402 v -7.62003 h 9.14402 z m 9.14402,0 c -0.8382,0 -1.52401,-0.68581 -1.52401,-1.52401 0,-0.8382 0.68581,-1.52401 1.52401,-1.52401 0.8382,0 1.52402,0.68581 1.52402,1.52401 0,0.8382 -0.68582,1.52401 -1.52402,1.52401 z"
       inkscape:connector-curvature="0" />
    <path
       style="fill:none;fill-rule:evenodd;stroke:#ff0000;stroke-width:2.29999995;stroke-linecap:butt;stroke-linejoin:miter;stroke-miterlimit:4;stroke-dasharray:none;stroke-opacity:1"
       d="M 192.61533,347.93403 229.87097,310.6784"
       id="path9539"
       inkscape:connector-curvature="0" />
    <path
       style="fill:none;stroke-width:0.26458332"
       inkscape:connector-curvature="0"
       d="m 102.28901,374.18013 h 6.35 v 6.35 h -6.35 z"
       id="path10017" />
    <path
       style="fill:none;stroke-width:0.26458332"
       inkscape:connector-curvature="0"
       d="m 129.36416,378.10824 h 6.35 v 6.35 h -6.35 z"
       id="path10207" />
    <path
       style="fill:none;stroke-width:0.26458332"
       inkscape:connector-curvature="0"
       d="m 110.33933,367.7979 h 12.7 v 12.7 h -12.7 z"
       id="path10490" />
  </g>
</svg>
