<?xml version="1.0" encoding="UTF-8" standalone="no"?>
<!-- Created with Inkscape (http://www.inkscape.org/) -->

<svg
   xmlns:dc="http://purl.org/dc/elements/1.1/"
   xmlns:cc="http://creativecommons.org/ns#"
   xmlns:rdf="http://www.w3.org/1999/02/22-rdf-syntax-ns#"
   xmlns:svg="http://www.w3.org/2000/svg"
   xmlns="http://www.w3.org/2000/svg"
   xmlns:sodipodi="http://sodipodi.sourceforge.net/DTD/sodipodi-0.dtd"
   xmlns:inkscape="http://www.inkscape.org/namespaces/inkscape"
   width="42.643929mm"
   height="42.643929mm"
   viewBox="0 0 42.643928 42.643928"
   version="1.1"
   id="svg8"
   sodipodi:docname="no_Horses.svg"
   inkscape:version="0.92.1 r15371">
  <defs
     id="defs2">
    <path
       d="M 0,0 H 48 V 48 H 0 Z"
       id="a"
       inkscape:connector-curvature="0" />
    <path
       d="M 0,0 H 48 V 48 H 0 Z"
       id="a-8"
       inkscape:connector-curvature="0" />
    <inkscape:perspective
       id="perspective17900"
       inkscape:persp3d-origin="61.773499 : 41.179667 : 1"
       inkscape:vp_z="123.547 : 61.769501 : 1"
       inkscape:vp_y="0 : 1000 : 0"
       inkscape:vp_x="0 : 61.769501 : 1"
       sodipodi:type="inkscape:persp3d" />
  </defs>
  <sodipodi:namedview
     id="base"
     pagecolor="#ffffff"
     bordercolor="#666666"
     borderopacity="1.0"
     inkscape:pageopacity="0.0"
     inkscape:pageshadow="2"
     inkscape:zoom="0.49497475"
     inkscape:cx="-949.37689"
     inkscape:cy="161.40164"
     inkscape:document-units="mm"
     inkscape:current-layer="layer1"
     showgrid="false"
     inkscape:window-width="1632"
     inkscape:window-height="998"
     inkscape:window-x="48"
     inkscape:window-y="30"
     inkscape:window-maximized="1"
     fit-margin-top="0"
     fit-margin-left="0"
     fit-margin-right="0"
     fit-margin-bottom="0"
     showguides="true"
     inkscape:guide-bbox="true" />
  <metadata
     id="metadata5">
    <rdf:RDF>
      <cc:Work
         rdf:about="">
        <dc:format>image/svg+xml</dc:format>
        <dc:type
           rdf:resource="http://purl.org/dc/dcmitype/StillImage" />
        <dc:title />
      </cc:Work>
    </rdf:RDF>
  </metadata>
  <g
     inkscape:label="Ebene 1"
     inkscape:groupmode="layer"
     id="layer1"
     transform="translate(-190.14976,-308.8178)">
    <rect
       ry="5.0684252"
       y="309.9678"
       x="191.29976"
       height="40.343929"
       width="40.343929"
       id="rect9537"
       style="opacity:1;fill:#000000;fill-opacity:1;fill-rule:nonzero;stroke:#ff0000;stroke-width:2.29999995;stroke-linecap:round;stroke-miterlimit:4;stroke-dasharray:none;stroke-opacity:1" />
    <g
       id="g6264"
       transform="matrix(1.1691647,0,0,1.1691647,67.069079,-119.22968)">
      <path
         id="path6260"
         style="fill:#ffffff;fill-opacity:1;fill-rule:nonzero;stroke:none;stroke-width:0.26458332"
         d="m 120.51087,374.6896 c 1.04248,0 1.88576,-0.84328 1.88576,-1.88244 0,-1.04249 -0.84328,-1.88577 -1.88576,-1.88577 -1.03917,0 -1.88245,0.84328 -1.88245,1.88577 0,1.03916 0.84328,1.88244 1.88245,1.88244"
         inkscape:connector-curvature="0" />
      <path
         id="path6262"
         style="fill:#ffffff;fill-opacity:1;fill-rule:nonzero;stroke:none;stroke-width:0.26458332"
         d="m 109.9798,384.01219 c 0,-1.53052 1.23836,-2.77553 2.76888,-2.77553 h 5.84322 v -4.19317 c 0,-1.0458 0.83996,-1.88909 1.88577,-1.88909 1.04248,0 1.88576,0.84329 1.88576,1.88909 v 0.6474 l 2.78217,0.7138 c 0.48804,0.10956 0.7968,0.59429 0.68724,1.08233 -0.10956,0.49136 -0.5976,0.7968 -1.08896,0.68724 l -2.38045,-0.55776 v 1.62016 h 2.80209 l 7.6659,-7.92818 -0.22908,2.06173 3.77485,2.50992 c 0.62084,0.35524 0.84992,1.15869 0.49136,1.78285 -0.27888,0.498 -0.83664,0.73704 -1.3612,0.64076 l -0.30544,-0.0564 c -0.36188,1.47076 -1.68989,2.55309 -3.26689,2.55309 -0.31208,0 -0.6142,-0.0465 -0.89972,-0.12284 l -2.86185,5.84321 v 8.0145 c 0,0.68725 -0.5644,1.24501 -1.25164,1.24501 -0.68725,0 -1.24501,-0.55776 -1.24501,-1.24501 v -8.1971 h -6.30802 l -1.1288,1.93225 2.36053,5.62741 c 0.34528,0.60424 0.12948,1.36121 -0.46812,1.69985 -0.60093,0.34196 -1.36121,0.12948 -1.70317,-0.47144 l -2.75561,-6.49394 v -2.06837 l -1.23172,1.93889 v 6.03245 c 0,0.68725 -0.55776,1.24501 -1.245,1.24501 -0.68725,0 -1.25165,-0.55776 -1.25165,-1.24501 v -6.96537 l 1.02921,-1.61353 v -5.46473 l -1.02257,1.57036 v 4.54841 h -1.97208 z m 24.52823,-3.89769 -1.99533,-0.3818 -1.162,2.3074 c 0.18924,0.0465 0.38512,0.0664 0.58432,0.0664 1.23836,0 2.27753,-0.84328 2.57301,-1.992"
         inkscape:connector-curvature="0" />
    </g>
    <path
       style="fill:none;fill-rule:evenodd;stroke:#ff0000;stroke-width:2.29999995;stroke-linecap:butt;stroke-linejoin:miter;stroke-miterlimit:4;stroke-dasharray:none;stroke-opacity:1"
       d="m 192.8439,348.76758 37.25564,-37.25563"
       id="path9539"
       inkscape:connector-curvature="0" />
  </g>
</svg>
