<?xml version="1.0" encoding="UTF-8" standalone="no"?>
<!-- Created with Inkscape (http://www.inkscape.org/) -->

<svg
   xmlns:dc="http://purl.org/dc/elements/1.1/"
   xmlns:cc="http://creativecommons.org/ns#"
   xmlns:rdf="http://www.w3.org/1999/02/22-rdf-syntax-ns#"
   xmlns:svg="http://www.w3.org/2000/svg"
   xmlns="http://www.w3.org/2000/svg"
   xmlns:sodipodi="http://sodipodi.sourceforge.net/DTD/sodipodi-0.dtd"
   xmlns:inkscape="http://www.inkscape.org/namespaces/inkscape"
   width="42.643929mm"
   height="42.643929mm"
   viewBox="0 0 42.643928 42.643928"
   version="1.1"
   id="svg8"
   sodipodi:docname="no_Motorcycles.svg"
   inkscape:version="0.92.1 r15371">
  <defs
     id="defs2">
    <path
       d="M 0,0 H 48 V 48 H 0 Z"
       id="a"
       inkscape:connector-curvature="0" />
    <path
       d="M 0,0 H 48 V 48 H 0 Z"
       id="a-8"
       inkscape:connector-curvature="0" />
    <path
       d="M 0,0 H 48 V 48 H 0 Z"
       id="a-6"
       inkscape:connector-curvature="0" />
    <path
       d="M 0,0 H 48 V 48 H 0 Z"
       id="a-89"
       inkscape:connector-curvature="0" />
    <path
       d="M0 0h48v48H0z"
       id="a-0" />
  </defs>
  <sodipodi:namedview
     id="base"
     pagecolor="#ffffff"
     bordercolor="#666666"
     borderopacity="1.0"
     inkscape:pageopacity="0.0"
     inkscape:pageshadow="2"
     inkscape:zoom="0.98994949"
     inkscape:cx="14.346982"
     inkscape:cy="-40.253235"
     inkscape:document-units="mm"
     inkscape:current-layer="layer1"
     showgrid="false"
     inkscape:window-width="1632"
     inkscape:window-height="998"
     inkscape:window-x="48"
     inkscape:window-y="30"
     inkscape:window-maximized="1"
     fit-margin-top="0"
     fit-margin-left="0"
     fit-margin-right="0"
     fit-margin-bottom="0" />
  <metadata
     id="metadata5">
    <rdf:RDF>
      <cc:Work
         rdf:about="">
        <dc:format>image/svg+xml</dc:format>
        <dc:type
           rdf:resource="http://purl.org/dc/dcmitype/StillImage" />
        <dc:title />
      </cc:Work>
    </rdf:RDF>
  </metadata>
  <g
     inkscape:label="Ebene 1"
     inkscape:groupmode="layer"
     id="layer1"
     transform="translate(-189.85757,-307.98425)">
    <rect
       ry="5.0684252"
       y="309.13425"
       x="191.00757"
       height="40.343929"
       width="40.343929"
       id="rect9537"
       style="opacity:1;fill:#000000;fill-opacity:1;fill-rule:nonzero;stroke:#ff0000;stroke-width:2.29999995;stroke-linecap:round;stroke-miterlimit:4;stroke-dasharray:none;stroke-opacity:1" />
    <path
       style="fill:#ffffff;fill-opacity:1;stroke-width:0.72673684"
       inkscape:connector-curvature="0"
       clip-path="url(#b)"
       d="m 221.99337,324.98939 -5.85749,-5.8575 h -6.40984 v 2.90697 h 5.21798 l 2.90694,2.90694 H 201.0052 c -4.06971,0 -7.26736,3.19765 -7.26736,7.26736 0,4.06973 3.19765,7.26738 7.26736,7.26738 3.57554,0 6.46795,-2.45639 7.12203,-5.8139 h 2.39822 l 4.02614,-4.02613 c -0.30524,0.78488 -0.46513,1.65696 -0.46513,2.57265 0,4.06973 3.19766,7.26738 7.26739,7.26738 4.06971,0 7.26737,-3.19765 7.26737,-7.26738 0,-3.85171 -2.86336,-6.93306 -6.62785,-7.22377 z m -16.88938,8.67725 c -0.61045,1.67149 -2.23833,2.90694 -4.09879,2.90694 -2.36916,0 -4.36042,-1.99127 -4.36042,-4.36042 0,-2.36917 1.99126,-4.36043 4.36042,-4.36043 1.86046,0 3.48834,1.23545 4.09879,2.90697 h -4.09879 v 2.90694 z m 16.24986,2.90694 c -2.41277,0 -4.36042,-1.94765 -4.36042,-4.36042 0,-2.41275 1.94765,-4.36043 4.36042,-4.36043 2.41275,0 4.36043,1.94768 4.36043,4.36043 0,2.41277 -1.94768,4.36042 -4.36043,4.36042 z"
       id="path15317" />
    <path
       style="fill:none;fill-rule:evenodd;stroke:#ff0000;stroke-width:2.29999995;stroke-linecap:butt;stroke-linejoin:miter;stroke-miterlimit:4;stroke-dasharray:none;stroke-opacity:1"
       d="M 192.55171,347.93403 229.80735,310.6784"
       id="path9539"
       inkscape:connector-curvature="0" />
  </g>
</svg>
