<?xml version="1.0" encoding="UTF-8" standalone="no"?>
<!-- Created with Inkscape (http://www.inkscape.org/) -->

<svg
   xmlns:dc="http://purl.org/dc/elements/1.1/"
   xmlns:cc="http://creativecommons.org/ns#"
   xmlns:rdf="http://www.w3.org/1999/02/22-rdf-syntax-ns#"
   xmlns:svg="http://www.w3.org/2000/svg"
   xmlns="http://www.w3.org/2000/svg"
   xmlns:sodipodi="http://sodipodi.sourceforge.net/DTD/sodipodi-0.dtd"
   xmlns:inkscape="http://www.inkscape.org/namespaces/inkscape"
   width="42.643929mm"
   height="42.643929mm"
   viewBox="0 0 42.643928 42.643928"
   version="1.1"
   id="svg8"
   sodipodi:docname="no_Night_Cache.svg"
   inkscape:version="0.92.1 r15371">
  <defs
     id="defs2">
    <inkscape:perspective
       sodipodi:type="inkscape:persp3d"
       inkscape:vp_x="122.41289 : -836.42223 : 1"
       inkscape:vp_y="-295.38167 : -437.47866 : 1"
       inkscape:vp_z="-161.79843 : -636.72616 : 1"
       inkscape:persp3d-origin="252.71389 : -689.49975 : 1"
       id="perspective19484" />
    <inkscape:perspective
       sodipodi:type="inkscape:persp3d"
       inkscape:vp_x="-77.344553 : -28.871185 : 1"
       inkscape:vp_y="-278.82173 : -15.57492 : 1"
       inkscape:vp_z="-190.86386 : -22.611175 : 1"
       inkscape:persp3d-origin="21.321964 : 14.214643 : 1"
       id="perspective19328" />
    <path
       d="M 0,0 H 48 V 48 H 0 Z"
       id="a"
       inkscape:connector-curvature="0" />
    <path
       d="M 0,0 H 48 V 48 H 0 Z"
       id="a-8"
       inkscape:connector-curvature="0" />
    <path
       d="M 0,0 H 48 V 48 H 0 Z"
       id="a-6"
       inkscape:connector-curvature="0" />
    <path
       d="M 0,0 H 48 V 48 H 0 Z"
       id="a-89"
       inkscape:connector-curvature="0" />
    <path
       d="M 0,0 H 48 V 48 H 0 Z"
       id="a-0"
       inkscape:connector-curvature="0" />
    <path
       d="M 0,0 H 48 V 48 H 0 Z"
       id="a-9"
       inkscape:connector-curvature="0" />
  </defs>
  <sodipodi:namedview
     id="base"
     pagecolor="#ffffff"
     bordercolor="#666666"
     borderopacity="1.0"
     inkscape:pageopacity="0.0"
     inkscape:pageshadow="2"
     inkscape:zoom="0.98994949"
     inkscape:cx="-65.957233"
     inkscape:cy="-78.078231"
     inkscape:document-units="mm"
     inkscape:current-layer="layer1"
     showgrid="false"
     inkscape:window-width="1632"
     inkscape:window-height="998"
     inkscape:window-x="48"
     inkscape:window-y="30"
     inkscape:window-maximized="1"
     fit-margin-top="0"
     fit-margin-left="0"
     fit-margin-right="0"
     fit-margin-bottom="0"
     showguides="true"
     inkscape:guide-bbox="true" />
  <metadata
     id="metadata5">
    <rdf:RDF>
      <cc:Work
         rdf:about="">
        <dc:format>image/svg+xml</dc:format>
        <dc:type
           rdf:resource="http://purl.org/dc/dcmitype/StillImage" />
        <dc:title />
      </cc:Work>
    </rdf:RDF>
  </metadata>
  <g
     inkscape:label="Ebene 1"
     inkscape:groupmode="layer"
     id="layer1"
     transform="translate(-190.71679,-308.39944)">
    <rect
       ry="5.0684252"
       y="309.54944"
       x="191.86679"
       height="40.343929"
       width="40.343929"
       id="rect9537"
       style="opacity:1;fill:#000000;fill-opacity:1;fill-rule:nonzero;stroke:#ff0000;stroke-width:2.29999995;stroke-linecap:round;stroke-miterlimit:4;stroke-dasharray:none;stroke-opacity:1" />
    <g
       transform="translate(112.53757,-69.148431)"
       id="g20061">
      <g
         id="g20055"
         transform="matrix(0.94603186,0,0,0.94603186,10.422736,86.896661)">
        <path
           id="path20047"
           d="m 93.9326,328.47946 c -0.156393,-0.10451 -0.328865,-0.18636 -0.515221,-0.23532 0.186356,0.049 0.358828,0.13081 0.515221,0.23532 z m 1.525204,-0.23532 c -0.18855,0.0497 -0.363214,0.133 -0.5218,0.23897 0.157856,-0.10597 0.332519,-0.18928 0.5218,-0.23897 z"
           inkscape:connector-curvature="0"
           style="fill:#607d8b;stroke-width:0.07308112" />
        <rect
           y="335.74292"
           x="76.140587"
           height="12.449117"
           width="18.058483"
           id="rect20049"
           style="opacity:1;fill:none;fill-opacity:1;fill-rule:nonzero;stroke:#ffffff;stroke-width:0.69439727;stroke-linecap:round;stroke-linejoin:round;stroke-miterlimit:4;stroke-dasharray:none;stroke-opacity:1" />
        <rect
           transform="matrix(0.92124618,-0.38898005,0,1,0,0)"
           style="opacity:1;fill:none;fill-opacity:1;fill-rule:nonzero;stroke:#ffffff;stroke-width:0.72346944;stroke-linecap:round;stroke-linejoin:round;stroke-miterlimit:4;stroke-dasharray:none;stroke-opacity:1"
           id="rect20051"
           width="19.602234"
           height="12.449117"
           x="102.25179"
           y="375.51685" />
        <rect
           transform="matrix(1,0,-0.91811665,0.39631025,0,0)"
           style="opacity:1;fill:#ffffff;fill-opacity:1;fill-rule:nonzero;stroke:#ffffff;stroke-width:8.70367622;stroke-linecap:round;stroke-linejoin:round;stroke-miterlimit:4;stroke-dasharray:none;stroke-opacity:1;paint-order:normal"
           id="rect20053"
           width="13.24256"
           height="14.108747"
           x="856.87775"
           y="830.89899" />
      </g>
      <path
         inkscape:connector-curvature="0"
         d="m 86.919111,382.89661 c -0.741504,0 -1.458174,0.11358 -2.12872,0.32641 2.877321,0.90471 4.967015,3.59399 4.967015,6.76933 0,3.17534 -2.089694,5.86462 -4.967015,6.76933 0.670546,0.20932 1.387216,0.32641 2.12872,0.32641 3.920394,0 7.095736,-3.17534 7.095736,-7.09574 0,-3.9204 -3.175342,-7.09574 -7.095736,-7.09574 z"
         id="path20057"
         style="fill:#ffffff;fill-opacity:1;stroke-width:0.35478672" />
      <path
         inkscape:connector-curvature="0"
         d="m 99.303115,383.93699 h -1.71717 v 0.57239 h 1.71717 z m 0.62104,-0.9287 -0.60674,-0.60673 -0.40496,0.40496 0.60673,0.60674 z m 1.096125,-1.93324 h -0.57239 v 1.71717 h 0.57239 z m 1.53543,1.73147 -0.40497,-0.40496 -0.60673,0.60673 0.40497,0.40497 z m -0.39066,1.13047 v 0.57239 h 1.71717 v -0.57239 z m -1.43097,-0.57239 c -0.47365,0 -0.858585,0.38493 -0.858585,0.85858 0,0.47366 0.384935,0.85859 0.858585,0.85859 0.47366,0 0.85859,-0.38493 0.85859,-0.85859 0,-0.47365 -0.38493,-0.85858 -0.85859,-0.85858 z m 0.80993,2.07348 0.60673,0.60673 0.40497,-0.40497 -0.60673,-0.60673 z m -2.631555,0.20176 0.40496,0.40497 0.60674,-0.60673 -0.40497,-0.40497 z m 1.535435,1.73148 h 0.57239 v -1.71717 h -0.57239 z"
         id="path20059"
         style="fill:#ffffff;fill-opacity:1;stroke-width:0.1430971" />
    </g>
    <path
       style="fill:none;fill-rule:evenodd;stroke:#ff0000;stroke-width:2.29999995;stroke-linecap:butt;stroke-linejoin:miter;stroke-miterlimit:4;stroke-dasharray:none;stroke-opacity:1"
       d="m 193.41094,348.34922 37.25564,-37.25563"
       id="path9539"
       inkscape:connector-curvature="0" />
  </g>
</svg>
