<?xml version="1.0" encoding="UTF-8" standalone="no"?>
<!-- Created with Inkscape (http://www.inkscape.org/) -->

<svg
   xmlns:dc="http://purl.org/dc/elements/1.1/"
   xmlns:cc="http://creativecommons.org/ns#"
   xmlns:rdf="http://www.w3.org/1999/02/22-rdf-syntax-ns#"
   xmlns:svg="http://www.w3.org/2000/svg"
   xmlns="http://www.w3.org/2000/svg"
   xmlns:sodipodi="http://sodipodi.sourceforge.net/DTD/sodipodi-0.dtd"
   xmlns:inkscape="http://www.inkscape.org/namespaces/inkscape"
   width="42.643929mm"
   height="42.643929mm"
   viewBox="0 0 42.643928 42.643928"
   version="1.1"
   id="svg8"
   sodipodi:docname="no_Needs_maintenance.svg"
   inkscape:version="0.92.1 r15371">
  <defs
     id="defs2">
    <path
       d="M 0,0 H 48 V 48 H 0 Z"
       id="a"
       inkscape:connector-curvature="0" />
    <path
       d="M 0,0 H 48 V 48 H 0 Z"
       id="a-8"
       inkscape:connector-curvature="0" />
  </defs>
  <sodipodi:namedview
     id="base"
     pagecolor="#ffffff"
     bordercolor="#666666"
     borderopacity="1.0"
     inkscape:pageopacity="0.0"
     inkscape:pageshadow="2"
     inkscape:zoom="0.98994949"
     inkscape:cx="14.3469"
     inkscape:cy="-40.253148"
     inkscape:document-units="mm"
     inkscape:current-layer="layer1"
     showgrid="false"
     inkscape:window-width="1632"
     inkscape:window-height="998"
     inkscape:window-x="48"
     inkscape:window-y="30"
     inkscape:window-maximized="1"
     fit-margin-top="0"
     fit-margin-left="0"
     fit-margin-right="0"
     fit-margin-bottom="0" />
  <metadata
     id="metadata5">
    <rdf:RDF>
      <cc:Work
         rdf:about="">
        <dc:format>image/svg+xml</dc:format>
        <dc:type
           rdf:resource="http://purl.org/dc/dcmitype/StillImage" />
        <dc:title />
      </cc:Work>
    </rdf:RDF>
  </metadata>
  <g
     inkscape:label="Ebene 1"
     inkscape:groupmode="layer"
     id="layer1"
     transform="translate(-189.85757,-307.98425)">
    <rect
       ry="5.0684252"
       y="309.13425"
       x="191.00757"
       height="40.343929"
       width="40.343929"
       id="rect9537"
       style="opacity:1;fill:#000000;fill-opacity:1;fill-rule:nonzero;stroke:#ff0000;stroke-width:2.29999995;stroke-linecap:round;stroke-miterlimit:4;stroke-dasharray:none;stroke-opacity:1" />
    <path
       style="fill:#ffffff;fill-opacity:1;stroke-width:0.67786205"
       id="path14558"
       d="m 218.97493,329.3045 5.39581,-5.39577 c 0.52872,-0.52875 0.52872,-1.38963 0,-1.91835 l -5.87708,-5.87707 c -0.52872,-0.52872 -1.38963,-0.52872 -1.91835,0 l -5.39577,5.39577 -5.3958,-5.38898 c -0.26435,-0.26437 -0.61006,-0.39995 -0.95578,-0.39995 -0.34571,0 -0.69141,0.13553 -0.95578,0.39995 l -5.88386,5.87704 c -0.52872,0.52875 -0.52872,1.38963 0,1.91838 l 5.3958,5.39577 -5.3958,5.38902 c -0.52872,0.52872 -0.52872,1.3896 0,1.91834 l 5.87707,5.87705 c 0.52875,0.52875 1.38963,0.52875 1.91835,0 l 5.3958,-5.39578 5.39577,5.39578 c 0.26437,0.26437 0.61006,0.39996 0.95578,0.39996 0.34572,0 0.69143,-0.13554 0.95578,-0.39996 l 5.87708,-5.87705 c 0.52873,-0.52874 0.52873,-1.38962 0,-1.91834 z m -7.76828,-4.09428 c 0.74564,0 1.35573,0.61007 1.35573,1.35574 0,0.74564 -0.61009,1.35571 -1.35573,1.35571 -0.74565,0 -1.35574,-0.61007 -1.35574,-1.35571 0,-0.74567 0.61009,-1.35574 1.35574,-1.35574 z m -6.38548,2.65723 -4.91448,-4.9145 4.92127,-4.92129 4.9145,4.9145 z m 3.67404,2.76568 c -0.74567,0 -1.35574,-0.61009 -1.35574,-1.35574 0,-0.74564 0.61007,-1.35572 1.35574,-1.35572 0.74564,0 1.3557,0.61008 1.3557,1.35572 0,0.74565 -0.61006,1.35574 -1.3557,1.35574 z m 2.71144,2.71145 c -0.74565,0 -1.35574,-0.6101 -1.35574,-1.35575 0,-0.74564 0.61009,-1.3557 1.35574,-1.3557 0.74564,0 1.35573,0.61006 1.35573,1.3557 0,0.74565 -0.61009,1.35575 -1.35573,1.35575 z m 2.71144,-5.42291 c 0.74564,0 1.35572,0.61008 1.35572,1.35572 0,0.74565 -0.61008,1.35574 -1.35572,1.35574 -0.74565,0 -1.35571,-0.61009 -1.35571,-1.35574 0,-0.74564 0.61006,-1.35572 1.35571,-1.35572 z m 3.613,12.65568 -4.9145,-4.9145 4.92129,-4.92128 4.91451,4.91452 z"
       inkscape:connector-curvature="0" />
    <path
       style="fill:none;fill-rule:evenodd;stroke:#ff0000;stroke-width:2.29999995;stroke-linecap:butt;stroke-linejoin:miter;stroke-miterlimit:4;stroke-dasharray:none;stroke-opacity:1"
       d="M 192.55171,347.93403 229.80735,310.6784"
       id="path9539"
       inkscape:connector-curvature="0" />
  </g>
</svg>
