<?xml version="1.0" encoding="UTF-8" standalone="no"?>
<!-- Created with Inkscape (http://www.inkscape.org/) -->

<svg
   xmlns:dc="http://purl.org/dc/elements/1.1/"
   xmlns:cc="http://creativecommons.org/ns#"
   xmlns:rdf="http://www.w3.org/1999/02/22-rdf-syntax-ns#"
   xmlns:svg="http://www.w3.org/2000/svg"
   xmlns="http://www.w3.org/2000/svg"
   xmlns:sodipodi="http://sodipodi.sourceforge.net/DTD/sodipodi-0.dtd"
   xmlns:inkscape="http://www.inkscape.org/namespaces/inkscape"
   width="42.643929mm"
   height="42.643929mm"
   viewBox="0 0 42.643928 42.643928"
   version="1.1"
   id="svg8"
   sodipodi:docname="no_Stealth_required.svg"
   inkscape:version="0.92.1 r15371">
  <defs
     id="defs2">
    <path
       d="M 0,0 H 48 V 48 H 0 Z"
       id="a"
       inkscape:connector-curvature="0" />
    <path
       d="M 0,0 H 48 V 48 H 0 Z"
       id="a-8"
       inkscape:connector-curvature="0" />
    <inkscape:perspective
       id="perspective17900"
       inkscape:persp3d-origin="61.773499 : 41.179667 : 1"
       inkscape:vp_z="123.547 : 61.769501 : 1"
       inkscape:vp_y="0 : 1000 : 0"
       inkscape:vp_x="0 : 61.769501 : 1"
       sodipodi:type="inkscape:persp3d" />
    <inkscape:perspective
       id="perspective17900-7"
       inkscape:persp3d-origin="61.773499 : 41.179667 : 1"
       inkscape:vp_z="123.547 : 61.769501 : 1"
       inkscape:vp_y="0 : 1000 : 0"
       inkscape:vp_x="0 : 61.769501 : 1"
       sodipodi:type="inkscape:persp3d" />
    <inkscape:perspective
       id="perspective5302"
       inkscape:persp3d-origin="372.04724 : 350.78739 : 1"
       inkscape:vp_z="744.09448 : 526.18109 : 1"
       inkscape:vp_y="0 : 1000 : 0"
       inkscape:vp_x="0 : 526.18109 : 1"
       sodipodi:type="inkscape:persp3d" />
    <inkscape:perspective
       id="perspective5302-6"
       inkscape:persp3d-origin="372.04724 : 350.78739 : 1"
       inkscape:vp_z="744.09448 : 526.18109 : 1"
       inkscape:vp_y="0 : 1000 : 0"
       inkscape:vp_x="0 : 526.18109 : 1"
       sodipodi:type="inkscape:persp3d" />
    <inkscape:perspective
       id="perspective5302-1"
       inkscape:persp3d-origin="372.04724 : 350.78739 : 1"
       inkscape:vp_z="744.09448 : 526.18109 : 1"
       inkscape:vp_y="0 : 1000 : 0"
       inkscape:vp_x="0 : 526.18109 : 1"
       sodipodi:type="inkscape:persp3d" />
  </defs>
  <sodipodi:namedview
     id="base"
     pagecolor="#ffffff"
     bordercolor="#666666"
     borderopacity="1.0"
     inkscape:pageopacity="0.0"
     inkscape:pageshadow="2"
     inkscape:zoom="0.7"
     inkscape:cx="-561.59736"
     inkscape:cy="437.96229"
     inkscape:document-units="mm"
     inkscape:current-layer="layer1"
     showgrid="false"
     inkscape:window-width="1632"
     inkscape:window-height="998"
     inkscape:window-x="48"
     inkscape:window-y="30"
     inkscape:window-maximized="1"
     fit-margin-top="0"
     fit-margin-left="0"
     fit-margin-right="0"
     fit-margin-bottom="0"
     showguides="true"
     inkscape:guide-bbox="true" />
  <metadata
     id="metadata5">
    <rdf:RDF>
      <cc:Work
         rdf:about="">
        <dc:format>image/svg+xml</dc:format>
        <dc:type
           rdf:resource="http://purl.org/dc/dcmitype/StillImage" />
        <dc:title />
      </cc:Work>
    </rdf:RDF>
  </metadata>
  <g
     inkscape:label="Ebene 1"
     inkscape:groupmode="layer"
     id="layer1"
     transform="translate(-190.14976,-308.8178)">
    <rect
       ry="5.0684252"
       y="309.9678"
       x="191.29976"
       height="40.343929"
       width="40.343929"
       id="rect9537"
       style="opacity:1;fill:#000000;fill-opacity:1;fill-rule:nonzero;stroke:#ff0000;stroke-width:2.29999995;stroke-linecap:round;stroke-miterlimit:4;stroke-dasharray:none;stroke-opacity:1" />
    <path
       inkscape:connector-curvature="0"
       d="m 211.46843,322.89678 c 3.63467,0 6.58456,2.94987 6.58456,6.58453 0,0.8494 -0.17122,1.65931 -0.46752,2.40336 l 3.85195,3.85195 c 1.98854,-1.6593 3.55564,-3.80586 4.52358,-6.25531 -2.28483,-5.78122 -7.90144,-9.87681 -14.49257,-9.87681 -1.84366,0 -3.60831,0.32922 -5.24788,0.92185 l 2.84452,2.83792 c 0.74405,-0.28973 1.55396,-0.46749 2.40336,-0.46749 z m -13.16907,-3.58858 3.00255,3.00255 0.5992,0.5992 c -2.17292,1.69879 -3.89147,3.95729 -4.91866,6.57136 2.27825,5.78123 7.90145,9.87681 14.48598,9.87681 2.04121,0 3.99024,-0.39507 5.77465,-1.11279 l 0.55967,0.55969 3.83881,3.84538 1.67904,-1.67249 -23.3422,-23.34877 z m 7.2825,7.27591 2.03462,2.03464 c -0.0592,0.28313 -0.0988,0.56626 -0.0988,0.86256 0,2.17948 1.77124,3.95073 3.95072,3.95073 0.29633,0 0.57946,-0.0396 0.856,-0.0988 l 2.03461,2.03462 c -0.87572,0.43459 -1.85025,0.69796 -2.89061,0.69796 -3.63466,0 -6.58453,-2.94987 -6.58453,-6.58453 0,-1.04036 0.26337,-2.01488 0.69797,-2.89721 z m 5.66929,-1.03376 4.14827,4.14825 0.0199,-0.21726 c 0,-2.17948 -1.77125,-3.95073 -3.95073,-3.95073 z"
       id="path8659"
       style="fill:#ffffff;stroke-width:0.65845406" />
    <path
       style="fill:none;fill-rule:evenodd;stroke:#ff0000;stroke-width:2.29999995;stroke-linecap:butt;stroke-linejoin:miter;stroke-miterlimit:4;stroke-dasharray:none;stroke-opacity:1"
       d="m 192.8439,348.76758 37.25564,-37.25563"
       id="path9539"
       inkscape:connector-curvature="0" />
    <g
       id="g4394"
       transform="matrix(5.0938006,0,0,-5.0938006,105.00737,308.73575)" />
  </g>
</svg>
