<?xml version="1.0" encoding="UTF-8" standalone="no"?>
<!-- Created with Inkscape (http://www.inkscape.org/) -->

<svg
   xmlns:dc="http://purl.org/dc/elements/1.1/"
   xmlns:cc="http://creativecommons.org/ns#"
   xmlns:rdf="http://www.w3.org/1999/02/22-rdf-syntax-ns#"
   xmlns:svg="http://www.w3.org/2000/svg"
   xmlns="http://www.w3.org/2000/svg"
   xmlns:sodipodi="http://sodipodi.sourceforge.net/DTD/sodipodi-0.dtd"
   xmlns:inkscape="http://www.inkscape.org/namespaces/inkscape"
   width="42.643929mm"
   height="42.643929mm"
   viewBox="0 0 42.643928 42.643928"
   version="1.1"
   id="svg8"
   sodipodi:docname="no_Teamwork_required.svg"
   inkscape:version="0.92.1 r15371">
  <defs
     id="defs2">
    <path
       d="M 0,0 H 48 V 48 H 0 Z"
       id="a"
       inkscape:connector-curvature="0" />
    <path
       d="M 0,0 H 48 V 48 H 0 Z"
       id="a-8"
       inkscape:connector-curvature="0" />
  </defs>
  <sodipodi:namedview
     id="base"
     pagecolor="#ffffff"
     bordercolor="#666666"
     borderopacity="1.0"
     inkscape:pageopacity="0.0"
     inkscape:pageshadow="2"
     inkscape:zoom="0.98994949"
     inkscape:cx="14.3469"
     inkscape:cy="-40.253148"
     inkscape:document-units="mm"
     inkscape:current-layer="layer1"
     showgrid="false"
     inkscape:window-width="1632"
     inkscape:window-height="998"
     inkscape:window-x="48"
     inkscape:window-y="30"
     inkscape:window-maximized="1"
     fit-margin-top="0"
     fit-margin-left="0"
     fit-margin-right="0"
     fit-margin-bottom="0" />
  <metadata
     id="metadata5">
    <rdf:RDF>
      <cc:Work
         rdf:about="">
        <dc:format>image/svg+xml</dc:format>
        <dc:type
           rdf:resource="http://purl.org/dc/dcmitype/StillImage" />
        <dc:title />
      </cc:Work>
    </rdf:RDF>
  </metadata>
  <g
     inkscape:label="Ebene 1"
     inkscape:groupmode="layer"
     id="layer1"
     transform="translate(-189.85757,-307.98425)">
    <rect
       ry="5.0684252"
       y="309.13425"
       x="191.00757"
       height="40.343929"
       width="40.343929"
       id="rect9537"
       style="opacity:1;fill:#000000;fill-opacity:1;fill-rule:nonzero;stroke:#ff0000;stroke-width:2.29999995;stroke-linecap:round;stroke-miterlimit:4;stroke-dasharray:none;stroke-opacity:1" />
    <path
       style="fill:#ffffff;fill-opacity:1;stroke-width:0.83556849"
       id="path12948"
       d="m 217.86408,327.63507 c 2.76573,0 4.99667,-2.24769 4.99667,-5.01342 0,-2.76573 -2.23094,-5.01341 -4.99667,-5.01341 -2.76573,0 -5.01341,2.24768 -5.01341,5.01341 0,2.76573 2.24768,5.01342 5.01341,5.01342 z m -13.36911,0 c 2.76572,0 4.9967,-2.24769 4.9967,-5.01342 0,-2.76573 -2.23098,-5.01341 -4.9967,-5.01341 -2.76573,0 -5.01342,2.24768 -5.01342,5.01341 0,2.76573 2.24769,5.01342 5.01342,5.01342 z m 0,3.34229 c -3.9021,0 -11.69794,1.95522 -11.69794,5.84896 v 4.17786 h 23.39591 v -4.17786 c 0,-3.89374 -7.79585,-5.84896 -11.69797,-5.84896 z m 13.36911,0 c -0.48463,0 -1.02775,0.0334 -1.61266,0.0918 1.93851,1.39538 3.28377,3.27544 3.28377,5.75707 v 4.17785 h 10.02683 v -4.17779 c 0,-3.89374 -7.79585,-5.84896 -11.69794,-5.84896 z"
       inkscape:connector-curvature="0" />
    <path
       style="fill:none;fill-rule:evenodd;stroke:#ff0000;stroke-width:2.29999995;stroke-linecap:butt;stroke-linejoin:miter;stroke-miterlimit:4;stroke-dasharray:none;stroke-opacity:1"
       d="M 192.55171,347.93403 229.80735,310.6784"
       id="path9539"
       inkscape:connector-curvature="0" />
  </g>
</svg>
