<?xml version="1.0" encoding="UTF-8" standalone="no"?>
<!-- Created with Inkscape (http://www.inkscape.org/) -->

<svg
   xmlns:dc="http://purl.org/dc/elements/1.1/"
   xmlns:cc="http://creativecommons.org/ns#"
   xmlns:rdf="http://www.w3.org/1999/02/22-rdf-syntax-ns#"
   xmlns:svg="http://www.w3.org/2000/svg"
   xmlns="http://www.w3.org/2000/svg"
   xmlns:sodipodi="http://sodipodi.sourceforge.net/DTD/sodipodi-0.dtd"
   xmlns:inkscape="http://www.inkscape.org/namespaces/inkscape"
   width="42.643929mm"
   height="42.643929mm"
   viewBox="0 0 42.643928 42.643928"
   version="1.1"
   id="svg8"
   sodipodi:docname="no_Watch_for_livestock.svg"
   inkscape:version="0.92.1 r15371">
  <defs
     id="defs2">
    <path
       d="M 0,0 H 48 V 48 H 0 Z"
       id="a"
       inkscape:connector-curvature="0" />
    <path
       d="M 0,0 H 48 V 48 H 0 Z"
       id="a-8"
       inkscape:connector-curvature="0" />
  </defs>
  <sodipodi:namedview
     id="base"
     pagecolor="#ffffff"
     bordercolor="#666666"
     borderopacity="1.0"
     inkscape:pageopacity="0.0"
     inkscape:pageshadow="2"
     inkscape:zoom="0.7"
     inkscape:cx="-332.00396"
     inkscape:cy="-180.85408"
     inkscape:document-units="mm"
     inkscape:current-layer="layer1"
     showgrid="false"
     inkscape:window-width="1632"
     inkscape:window-height="998"
     inkscape:window-x="48"
     inkscape:window-y="30"
     inkscape:window-maximized="1"
     fit-margin-top="0"
     fit-margin-left="0"
     fit-margin-right="0"
     fit-margin-bottom="0"
     showguides="true"
     inkscape:guide-bbox="true" />
  <metadata
     id="metadata5">
    <rdf:RDF>
      <cc:Work
         rdf:about="">
        <dc:format>image/svg+xml</dc:format>
        <dc:type
           rdf:resource="http://purl.org/dc/dcmitype/StillImage" />
        <dc:title />
      </cc:Work>
    </rdf:RDF>
  </metadata>
  <g
     inkscape:label="Ebene 1"
     inkscape:groupmode="layer"
     id="layer1"
     transform="translate(-189.92118,-307.98425)">
    <rect
       ry="5.0684252"
       y="309.13425"
       x="191.07118"
       height="40.343929"
       width="40.343929"
       id="rect9537"
       style="opacity:1;fill:#000000;fill-opacity:1;fill-rule:nonzero;stroke:#ff0000;stroke-width:2.29999995;stroke-linecap:round;stroke-miterlimit:4;stroke-dasharray:none;stroke-opacity:1" />
    <path
       d="m 227.42762,330.76838 c -0.0229,-0.11415 -0.0229,-0.23969 -0.0119,-0.35382 0,-0.0799 0,-0.14838 0,-0.21686 0,-0.0685 0,-0.14838 0,-0.21687 -0.0119,-0.13697 0,-0.27393 0.0229,-0.4109 0.0685,-0.36523 0.11414,-0.70764 0.13696,-1.06148 0.0229,-0.2511 0.0343,-0.5022 0.0456,-0.7533 l 0.0229,-0.38806 0.0685,-0.53645 0.0685,-0.68483 c 0.0119,-0.0456 0.0119,-0.0913 0.0119,-0.12552 0,-0.0456 0,-0.0913 -0.0119,-0.12553 l -0.0685,-0.66199 c 0.0685,0.30816 0.13697,0.61633 0.17121,0.92451 l 0.17121,1.11855 0.0119,0.14837 0.0343,0.31959 0.0229,0.23969 v 0.36523 l -0.0119,0.31959 0.0343,0.54786 0.0343,0.68483 0.0343,0.51362 -0.0119,0.86744 -0.0229,0.30817 -0.0229,0.27393 -0.057,0.34241 c 0,0.0685 0.0119,0.14838 0.0119,0.21687 0,0.0913 -0.0119,0.19403 -0.0119,0.29676 0,0.0119 0,0.0227 0,0.0343 0,0.0685 0.0119,0.13696 0.0229,0.19404 0.0456,0.12552 0.0685,0.2511 0.0799,0.38807 0.0229,0.13696 0.0343,0.27393 0.0685,0.41089 0.0343,0.13697 0.057,0.27393 0.057,0.42231 l 0.0119,0.28535 c 0,0.057 0.0343,0.11415 0.0799,0.13696 0.0685,0.0456 0.15978,0.0799 0.2511,0.0799 0.0119,0 0.0229,0.0119 0.0343,0.0119 0.0685,0 0.12552,-0.0229 0.18263,-0.0456 0.11414,-0.0343 0.17119,-0.13697 0.17119,-0.2511 v -0.5707 c 0,-0.2511 -0.0229,-0.5022 -0.0685,-0.7533 -0.0343,-0.20544 -0.0343,-0.42231 -0.0119,-0.63917 0.0119,-0.057 0.0229,-0.12552 0.0456,-0.19404 0.0119,-0.0685 0.0119,-0.13696 0.0119,-0.21685 v 0 c 0,-0.057 -0.0119,-0.11415 -0.0456,-0.14838 -0.0685,-0.0913 -0.11415,-0.17121 -0.14837,-0.27393 -0.057,-0.12553 -0.10277,-0.25111 -0.13698,-0.38807 -0.0343,-0.10277 -0.057,-0.21686 -0.0456,-0.33099 0.0119,-0.18263 0.0119,-0.36525 0.0119,-0.54786 v -0.0119 c 0,-0.23969 0.0229,-0.47938 0.057,-0.71907 0.0343,-0.20544 0.0571,-0.42231 0.0571,-0.63917 v -1.43813 l 0.0229,-1.82621 -0.0229,-0.81036 c -0.0119,-0.13697 -0.0119,-0.27395 -0.0229,-0.4109 -0.0119,-0.44514 -0.0913,-0.86745 -0.23969,-1.27835 -0.14838,-0.39948 -0.35382,-0.7533 -0.63917,-1.07289 -0.26251,-0.28535 -0.54786,-0.54786 -0.86744,-0.77613 -0.20545,-0.14839 -0.42231,-0.27394 -0.65058,-0.36524 -0.331,-0.13697 -0.68483,-0.26252 -1.03866,-0.35384 -0.23968,-0.0685 -0.47937,-0.10277 -0.73048,-0.11415 -0.1712,-0.0119 -0.38806,-0.0119 -0.59351,-0.0229 -0.13696,0 -0.19403,0 -0.23969,0 -0.34241,0 -0.67341,0.0229 -1.00441,0.0799 -0.15979,0.0343 -0.30817,0.057 -0.46796,0.0799 -0.22828,0.0343 -0.44514,0.057 -0.662,0.0799 -0.53645,0.057 -1.08431,0.10278 -1.63217,0.13697 -0.95875,0.0456 -2.00882,0.13697 -3.0703,0.23969 -0.44514,0.057 -0.81038,0.0913 -1.17562,0.11415 -0.0913,0.0119 -0.2511,0.0229 -0.39948,0.0343 -0.17121,0.0119 -0.29676,0.0119 -0.42231,-0.0119 -0.10272,-0.0119 -0.20545,-0.0229 -0.31959,-0.0343 -0.38806,-0.0571 -0.76472,-0.0799 -1.14137,-0.0799 -1.00441,0 -2.02024,-0.0685 -3.02465,-0.21687 -1.10713,-0.15979 -2.19144,-0.2511 -3.29857,-0.2511 -0.0457,0 -0.0799,0 -0.10272,0 -0.28535,0 -0.57069,0 -0.84462,0.0229 -0.29676,0.0229 -0.61634,0.057 -0.93593,0.0913 -0.28534,0.0343 -0.59351,0.0571 -0.9131,0.0799 -0.39948,0.0343 -0.76472,0.0456 -1.12996,0.0343 -0.26252,-0.0119 -0.52504,-0.0343 -0.79897,-0.057 -0.29675,-0.0229 -0.59351,-0.0799 -0.89027,-0.1598 -0.35383,-0.0913 -0.70765,-0.20544 -1.05006,-0.35382 -0.13697,-0.0456 -0.26252,-0.11415 -0.38807,-0.18262 l -0.20545,-0.12553 0.0913,-0.21685 c 0.0342,-0.0343 0.0457,-0.0799 0.0457,-0.13697 0,-0.0119 0,-0.0229 0,-0.0343 -0.0228,-0.0913 -0.0685,-0.15979 -0.15979,-0.19404 -0.10272,-0.0343 -0.21686,-0.0799 -0.34242,-0.11415 -0.0799,-0.0342 -0.1712,-0.0685 -0.2511,-0.10277 -0.11413,-0.0571 -0.23969,-0.10277 -0.36524,-0.12552 -0.12555,-0.0229 -0.23969,-0.0913 -0.31958,-0.19404 l -0.45655,-0.55927 c -0.0228,-0.0229 -0.0457,-0.0343 -0.0685,-0.0456 -0.0114,0 -0.0228,0 -0.0342,0 -0.0342,0 -0.0571,0.0229 -0.0799,0.057 -0.0114,0.0343 -0.0114,0.0685 -0.0114,0.10277 0,0.0343 0,0.0685 0.0114,0.0913 l 0.0571,0.13696 0.11413,0.30818 0.13697,0.36524 h -0.0114 c -0.19403,0.0119 -0.36524,0.0571 -0.52504,0.13696 -0.0799,0.0456 -0.20544,0.11415 -0.31958,0.18263 -0.15979,0.0799 -0.2511,0.15978 -0.331,0.26251 -0.0342,0.0343 -0.0685,0.0685 -0.11413,0.0913 -0.0571,0.0343 -0.12556,0.0456 -0.19404,0.0229 -0.10272,-0.0229 -0.20545,-0.0913 -0.27393,-0.18262 l -0.5022,-0.65059 c -0.0342,-0.0342 -0.0685,-0.0571 -0.11414,-0.0571 -0.0114,-0.0119 -0.0228,-0.0119 -0.0228,-0.0119 -0.0457,0 -0.0799,0.0229 -0.10272,0.057 -0.0228,0.0456 -0.0342,0.0913 -0.0342,0.13696 0,0.0229 0,0.057 0.0114,0.0913 l 0.0799,0.18262 0.14838,0.36524 0.11413,0.22828 0.12555,0.1712 0.0913,0.13697 0.19404,0.331 c 0.0114,0.0229 0.0228,0.0456 0.0228,0.0685 0,0.0343 -0.0114,0.0571 -0.0342,0.0799 -0.0799,0.10277 -0.17121,0.20544 -0.27393,0.30816 -0.0799,0.0799 -0.18262,0.13697 -0.28535,0.1598 -0.12555,0.0342 -0.22827,0.13696 -0.26251,0.26251 -0.0342,0.11415 -0.0685,0.23969 -0.0799,0.35384 -0.0228,0.19402 -0.11414,0.36523 -0.23969,0.5022 -0.10272,0.0913 -0.18262,0.19403 -0.2511,0.30818 -0.11414,0.17119 -0.22828,0.3424 -0.36524,0.5022 -0.10272,0.12552 -0.18262,0.27393 -0.25111,0.41089 -0.0685,0.1712 -0.15979,0.331 -0.28534,0.45655 l -0.71906,0.77613 c -0.0114,0.0571 -0.0228,0.11415 -0.0228,0.17121 0,0.0456 0,0.0799 0.0114,0.11415 0.0228,0.15979 0.0685,0.31959 0.11413,0.46797 0.0457,0.12552 0.11414,0.22827 0.19403,0.33099 0.0799,0.0913 0.1598,0.18263 0.26252,0.26252 0.10272,0.0799 0.22828,0.14838 0.35383,0.19404 0.0571,0.0119 0.11413,0.0229 0.1712,0.0229 0.0913,0 0.18262,-0.0229 0.26252,-0.0685 0.0799,-0.0456 0.15979,-0.0685 0.2511,-0.0913 0.12556,-0.0343 0.26252,-0.0343 0.39949,-0.0119 0.19403,0.0343 0.36524,0.0685 0.52503,0.10278 -0.0571,-0.0119 0.0342,-0.0119 0.12555,-0.0119 0.0913,0 0.19403,-0.0119 0.29676,-0.0229 0.1712,-0.0456 0.34241,-0.0799 0.5022,-0.10277 0.0913,-0.0229 0.23969,-0.0685 0.37666,-0.12553 0.10272,-0.0456 0.21686,-0.0456 0.331,-0.0119 0.12555,0.0456 0.2511,0.10277 0.37665,0.17121 0.28534,0.15979 0.59351,0.26251 0.9131,0.31959 0.11413,0.0227 0.22827,0.0456 0.331,0.0685 0.14838,0.0229 0.331,0.0456 0.5022,0.0456 0.12555,0.0119 0.25111,0.0343 0.37666,0.0913 0.22827,0.11415 0.43372,0.28535 0.5821,0.50221 0.19403,0.28534 0.36524,0.5821 0.51362,0.90168 0.11413,0.2397 0.2511,0.4908 0.38807,0.73049 0.10272,0.17121 0.19403,0.37665 0.27393,0.5821 0.11413,0.28534 0.22827,0.53645 0.35382,0.79897 0.0799,0.18261 0.1598,0.36523 0.22828,0.55926 0.0228,0.0571 0.0571,0.11415 0.0913,0.15979 0.31959,0.43373 0.75331,0.75331 1.25551,0.9131 l 0.30818,0.10278 -0.31959,0.28534 -0.65059,0.5821 -0.34241,0.331 -0.27393,0.29675 c -0.0799,0.12552 -0.15979,0.26251 -0.26251,0.38808 -0.0799,0.12552 -0.14838,0.22827 -0.19404,0.3424 -0.0457,0.10278 -0.0685,0.20545 -0.0685,0.3196 0,0.0456 0.0114,0.0913 0.0114,0.13696 0.0342,0.1712 0.10272,0.33099 0.18262,0.47937 l 0.17121,0.28535 0.20545,0.27393 0.61634,0.58209 0.27393,0.27393 0.2511,0.26252 0.13697,0.17121 0.4109,0.51362 0.71906,0.76471 0.37665,0.35384 0.29676,0.22827 0.23969,0.1598 0.17121,0.0799 0.0913,0.0119 c 0.10272,0.26252 0.27393,0.5022 0.47938,0.68483 0.0799,0.0799 0.18262,0.13696 0.29675,0.15979 0.10272,0.0229 0.19404,0.0456 0.29676,0.0685 0.0228,0 0.0457,0 0.0685,0 0.0457,0 0.0799,0 0.12555,-0.0119 l 0.0685,-0.0228 -0.53644,-1.83763 c -0.0228,-0.0685 -0.0685,-0.12552 -0.14838,-0.13697 l -0.4908,-0.11414 c -0.0456,-0.0229 -0.0685,-0.0685 -0.0571,-0.10278 0.0343,-0.10277 0.0685,-0.20545 0.10273,-0.30817 0.0114,-0.0227 0.0228,-0.0685 0.0228,-0.10278 0,-0.10277 -0.0571,-0.19404 -0.14838,-0.23968 -0.0799,-0.0456 -0.17121,-0.0799 -0.26252,-0.11415 -0.12555,-0.0229 -0.23969,-0.0913 -0.34241,-0.1598 -0.13697,-0.10277 -0.27393,-0.20544 -0.4109,-0.31959 -0.18262,-0.14838 -0.34241,-0.3424 -0.45655,-0.54786 -0.10272,-0.19403 -0.20545,-0.38807 -0.31958,-0.57068 -0.10272,-0.18262 -0.14838,-0.34242 -0.17121,-0.51363 -0.0228,-0.18261 0.0228,-0.36523 0.13697,-0.52503 0.11413,-0.15978 0.27393,-0.29675 0.44513,-0.37665 0.21686,-0.10278 0.43373,-0.20544 0.65058,-0.30816 0.19404,-0.0913 0.38808,-0.18263 0.59352,-0.26252 0.19403,-0.0685 0.36524,-0.17121 0.53645,-0.28535 0.11413,-0.0913 0.22827,-0.15979 0.35382,-0.22828 0.25111,-0.15978 0.44514,-0.36524 0.59352,-0.62775 l 0.0685,-0.12553 0.28534,0.58211 0.11414,0.2511 0.0913,0.19403 0.18262,0.26251 0.22827,0.33101 0.34242,0.49079 0.28534,0.45655 0.30817,0.5022 0.14838,0.23969 0.43372,0.76473 0.17121,0.33099 0.21686,0.43373 0.11414,0.26252 0.0799,0.23968 c 0.0571,0.12553 0.0913,0.2511 0.11413,0.38807 0.0114,0.10277 0.0342,0.20545 0.0571,0.31959 0,0.0456 0.0114,0.0913 0.0114,0.13696 0,0.15979 -0.0571,0.30817 -0.1712,0.42232 l -0.36525,0.41088 -0.0571,0.0913 c -0.35382,0.0913 -0.61634,0.38807 -0.67341,0.75331 l -0.0114,0.0799 h 1.95175 c 0.1598,-0.17121 0.25111,-0.38808 0.25111,-0.61635 0,-0.13697 -0.0342,-0.27393 -0.0913,-0.39948 l -0.0571,-0.10278 c -0.0114,-0.0456 0.0114,-0.0799 0.0457,-0.0799 v 0 h 0.22827 c 0.14838,-0.0227 0.23969,-0.14837 0.23969,-0.28533 0,-0.0229 0,-0.0343 -0.0114,-0.057 l -0.0913,-0.45656 -0.15979,-0.55926 -0.18262,-0.67341 -0.18262,-0.62777 -0.11414,-0.45654 -0.10272,-0.42231 -0.0685,-0.27393 -0.0685,-0.27393 -0.0456,-0.2511 -0.0571,-0.26252 -0.0457,-0.19404 -0.12555,-0.47937 c -0.0685,-0.21686 -0.14838,-0.44514 -0.20545,-0.662 -0.0913,-0.33099 -0.21686,-0.662 -0.37665,-0.95876 l -0.10272,-0.19402 0.89027,-0.0229 c 0.0685,0 0.12555,0 0.19404,0 0.2511,0 0.52503,0 0.78755,-0.0229 0.4223,-0.0229 0.86744,0.0119 1.30116,0.11415 0.61635,0.12552 1.23269,0.19404 1.86045,0.20545 0.0685,0.0119 0.12555,0.0119 0.19403,0.0119 0.68483,0 1.35824,-0.0685 2.02023,-0.20544 0.46797,-0.0913 0.81038,-0.1598 1.15279,-0.22829 l 0.0685,-0.0119 c 0.25111,0.20544 0.5252,0.38805 0.8218,0.52503 l 0.0343,0.0228 -0.1598,0.9017 c 0.0114,0.18261 0.1598,0.33099 0.34242,0.33099 0.14838,0 0.28534,-0.0799 0.331,-0.21686 l 0.28534,-0.75331 0.42231,0.0913 -0.10272,0.74189 c 0,0.0229 0,0.0456 0,0.0685 0,0.0685 0.0114,0.13696 0.0457,0.19402 0.0571,0.0913 0.13696,0.13697 0.23969,0.14838 0.0228,0 0.0342,0 0.0456,0 0.0685,0 0.13697,-0.0119 0.20545,-0.0229 0.0913,-0.0229 0.17121,-0.0913 0.18262,-0.19403 l 0.15979,-0.8332 0.38807,0.0229 c 0.0228,0.14838 0.0343,0.30816 0.0343,0.46796 0,0.0229 0,0.0456 0,0.0685 0,0.22827 -0.0228,0.44513 -0.0457,0.67342 -0.0228,0.19402 -0.0685,0.37665 -0.13697,0.54786 -0.15979,0.36523 -0.34241,0.74189 -0.54786,1.09571 l -0.13696,0.2397 -0.2511,0.44512 c -0.10272,0.23969 -0.25111,0.45656 -0.42231,0.65059 l -0.13697,0.15979 -0.15979,0.1598 -0.4109,0.3424 -0.31958,0.27394 -0.39948,0.331 c -0.0457,0.0343 -0.0913,0.0799 -0.13698,0.11415 -0.26251,0.23969 -0.46796,0.53645 -0.60493,0.85602 l -0.0342,0.10278 c -0.1712,0.0685 -0.33099,0.15979 -0.46796,0.26251 -0.17121,0.14838 -0.30817,0.31958 -0.39948,0.52504 l -0.0457,0.10277 h 1.78055 0.15979 l 0.0457,-0.0119 0.55928,-1.03864 c 0.0114,-0.0343 0.0457,-0.057 0.0799,-0.057 0.0228,0 0.0457,0.0119 0.0571,0.0227 l 0.14838,0.12552 c 0.0228,0.0229 0.0571,0.0456 0.0799,0.0456 0.0228,0 0.0343,-0.0119 0.0457,-0.0119 0.0571,-0.0343 0.11414,-0.0685 0.1598,-0.11415 l 0.0571,-0.0685 0.21686,-0.25112 0.17121,-0.22827 0.61634,-1.03865 c 0.0913,-0.13696 0.17121,-0.2511 0.2511,-0.36524 0.0799,-0.11414 0.20545,-0.2511 0.35383,-0.36525 l 0.31959,-0.23968 1.20985,-0.90168 c 0.0457,-0.057 0.0913,-0.12553 0.10272,-0.20545 l 0.34242,-1.48379 0.0685,-0.26251 0.1598,-0.38807 0.1712,-0.29676 0.13697,-0.13697 c 0.18262,0.35383 0.42231,0.68483 0.68482,0.97018 0.1598,0.17119 0.30817,0.31958 0.45655,0.46796 0.18262,0.19404 0.34242,0.39948 0.46797,0.63916 0.2511,0.47939 0.43372,1.01584 0.53644,1.55228 0.0571,0.29675 0.10272,0.59351 0.1598,0.89027 0.0114,0.11415 0.0228,0.2511 0.0228,0.38807 0,0.13696 -0.0114,0.27393 -0.0343,0.41089 -0.0114,0.0913 -0.0457,0.17121 -0.10272,0.23969 -0.0571,0.0685 -0.11413,0.14838 -0.15979,0.22827 -0.0343,0.057 -0.0457,0.12553 -0.0571,0.20546 l -0.0114,0.21685 -0.21686,0.22829 -0.22827,0.20544 c -0.0799,0.11415 -0.12555,0.22827 -0.14838,0.35382 l -0.0457,0.26252 h 1.94034 l 0.18261,-0.30817 c 0.0456,-0.0685 0.057,-0.14838 0.057,-0.22828 0,-0.0343 0,-0.0799 -0.0119,-0.11415 -0.0119,-0.0685 -0.0456,-0.14838 -0.0913,-0.21686 -0.0229,-0.0456 -0.0456,-0.10277 -0.0685,-0.15979 -0.0229,-0.0685 -0.0343,-0.13697 -0.0456,-0.20544 0,-0.0456 0.0119,-0.0913 0.0343,-0.12553 0.0343,-0.0456 0.0799,-0.0685 0.12552,-0.0799 l 0.21687,-0.0456 c 0.0343,0 0.057,-0.0229 0.0799,-0.0456 0.0456,-0.0571 0.0685,-0.12553 0.0685,-0.19404 0,-0.0456 -0.0119,-0.0913 -0.0229,-0.12553 -0.0229,-0.0456 -0.0343,-0.0913 -0.0456,-0.13696 -0.057,-0.4223 -0.13696,-0.87886 -0.22827,-1.324 l -0.0685,-0.37665 -0.12552,-0.93593 c -0.0229,-0.12552 -0.057,-0.27393 -0.0685,-0.42231 -0.0229,-0.15978 -0.0229,-0.30816 0.0119,-0.45654 0.057,-0.27393 0.10277,-0.55928 0.13695,-0.84462 0.0343,-0.26252 0.0685,-0.51362 0.10277,-0.76472 0.0119,-0.0685 0.0119,-0.13697 0.0119,-0.21687 0,-0.057 0,-0.12553 0,-0.18261 -0.0229,-0.19404 -0.0913,-0.37666 -0.19403,-0.52504 -0.0456,-0.0799 -0.0913,-0.15979 -0.12552,-0.2511 l -0.12553,-0.36525 c -0.0119,-0.0456 -0.0343,-0.0799 -0.0456,-0.11415 -0.0799,-0.26251 -0.13696,-0.52503 -0.14838,-0.78754 z"
       id="path4766"
       inkscape:connector-curvature="0"
       style="fill:#ffffff;fill-opacity:1;stroke-width:0.07080726" />
    <path
       style="fill:none;fill-rule:evenodd;stroke:#ff0000;stroke-width:2.29999995;stroke-linecap:butt;stroke-linejoin:miter;stroke-miterlimit:4;stroke-dasharray:none;stroke-opacity:1"
       d="M 192.61533,347.93403 229.87097,310.6784"
       id="path9539"
       inkscape:connector-curvature="0" />
  </g>
</svg>
