<?xml version="1.0" encoding="UTF-8" standalone="no"?>
<!-- Created with Inkscape (http://www.inkscape.org/) -->

<svg
   xmlns:dc="http://purl.org/dc/elements/1.1/"
   xmlns:cc="http://creativecommons.org/ns#"
   xmlns:rdf="http://www.w3.org/1999/02/22-rdf-syntax-ns#"
   xmlns:svg="http://www.w3.org/2000/svg"
   xmlns="http://www.w3.org/2000/svg"
   xmlns:sodipodi="http://sodipodi.sourceforge.net/DTD/sodipodi-0.dtd"
   xmlns:inkscape="http://www.inkscape.org/namespaces/inkscape"
   width="42.643929mm"
   height="42.643929mm"
   viewBox="0 0 42.643928 42.643928"
   version="1.1"
   id="svg8"
   sodipodi:docname="no_Wheelchair_accessible.svg"
   inkscape:version="0.92.1 r15371">
  <defs
     id="defs2">
    <path
       d="M 0,0 H 48 V 48 H 0 Z"
       id="a"
       inkscape:connector-curvature="0" />
    <path
       d="M 0,0 H 48 V 48 H 0 Z"
       id="a-8"
       inkscape:connector-curvature="0" />
    <path
       d="M 0,0 H 48 V 48 H 0 Z"
       id="a-6"
       inkscape:connector-curvature="0" />
    <path
       d="M 0,0 H 48 V 48 H 0 Z"
       id="a-89"
       inkscape:connector-curvature="0" />
    <path
       d="M 0,0 H 48 V 48 H 0 Z"
       id="a-0"
       inkscape:connector-curvature="0" />
  </defs>
  <sodipodi:namedview
     id="base"
     pagecolor="#ffffff"
     bordercolor="#666666"
     borderopacity="1.0"
     inkscape:pageopacity="0.0"
     inkscape:pageshadow="2"
     inkscape:zoom="0.7"
     inkscape:cx="-0.6444957"
     inkscape:cy="29.318556"
     inkscape:document-units="mm"
     inkscape:current-layer="layer1"
     showgrid="false"
     inkscape:window-width="1632"
     inkscape:window-height="998"
     inkscape:window-x="48"
     inkscape:window-y="30"
     inkscape:window-maximized="1"
     fit-margin-top="0"
     fit-margin-left="0"
     fit-margin-right="0"
     fit-margin-bottom="0" />
  <metadata
     id="metadata5">
    <rdf:RDF>
      <cc:Work
         rdf:about="">
        <dc:format>image/svg+xml</dc:format>
        <dc:type
           rdf:resource="http://purl.org/dc/dcmitype/StillImage" />
        <dc:title />
      </cc:Work>
    </rdf:RDF>
  </metadata>
  <g
     inkscape:label="Ebene 1"
     inkscape:groupmode="layer"
     id="layer1"
     transform="translate(-189.00289,-307.98425)">
    <rect
       ry="5.0684252"
       y="309.13425"
       x="190.15289"
       height="40.343929"
       width="40.343929"
       id="rect9537"
       style="opacity:1;fill:#000000;fill-opacity:1;fill-rule:nonzero;stroke:#ff0000;stroke-width:2.29999995;stroke-linecap:round;stroke-miterlimit:4;stroke-dasharray:none;stroke-opacity:1" />
    <g
       style="fill:#ffffff;fill-opacity:1"
       transform="matrix(2.999999,0,0,2.999999,-93.690898,-846.85828)"
       id="g16211">
      <circle
         cx="101.33849"
         cy="387.82162"
         r="1.0583333"
         id="circle16207"
         style="fill:#ffffff;fill-opacity:1;stroke-width:0.26458332" />
      <path
         inkscape:connector-curvature="0"
         d="m 105.04265,392.58413 v -1.05834 c -0.81227,0.0106 -1.63512,-0.39687 -2.15371,-0.97102 l -0.68527,-0.75671 c -0.0926,-0.10054 -0.20373,-0.17991 -0.32279,-0.24077 -0.005,-0.003 -0.008,-0.005 -0.0106,-0.008 h -0.005 c -0.18257,-0.10584 -0.39953,-0.15875 -0.62971,-0.13494 -0.55034,0.0529 -0.95515,0.54769 -0.95515,1.10066 v 3.12738 c 0,0.58473 0.47361,1.05833 1.05833,1.05833 h 2.64584 v 2.64584 h 1.05833 v -2.91042 c 0,-0.58473 -0.4736,-1.05833 -1.05833,-1.05833 h -1.5875 v -1.82563 c 0.68262,0.56356 1.71714,1.02923 2.64583,1.03188 z m -3.2676,2.64583 c -0.21696,0.61648 -0.80434,1.05833 -1.4949,1.05833 -0.875769,0 -1.587498,-0.71173 -1.587498,-1.5875 0,-0.69056 0.441854,-1.27793 1.058333,-1.49489 v -1.09802 c -1.2065,0.24606 -2.116667,1.31233 -2.116667,2.59291 0,1.4605 1.185334,2.64584 2.645832,2.64584 1.28058,0 2.34686,-0.91017 2.59292,-2.11667 z"
         id="path16209"
         style="fill:#ffffff;fill-opacity:1;stroke-width:0.26458332" />
    </g>
    <path
       style="fill:none;fill-rule:evenodd;stroke:#ff0000;stroke-width:2.29999995;stroke-linecap:butt;stroke-linejoin:miter;stroke-miterlimit:4;stroke-dasharray:none;stroke-opacity:1"
       d="M 191.69704,347.93403 228.95268,310.6784"
       id="path9539"
       inkscape:connector-curvature="0" />
    <text
       id="text15912"
       y="340.12787"
       x="80.990013"
       style="font-style:normal;font-variant:normal;font-weight:bold;font-stretch:normal;font-size:33.57455826px;line-height:125%;font-family:Sans;-inkscape-font-specification:'Sans, Bold';font-variant-ligatures:normal;font-variant-caps:normal;font-variant-numeric:normal;font-feature-settings:normal;text-align:start;letter-spacing:0px;word-spacing:0px;writing-mode:lr-tb;text-anchor:start;fill:#ffffff;fill-opacity:1;stroke:none;stroke-width:0.83936393px;stroke-linecap:butt;stroke-linejoin:miter;stroke-opacity:1"
       xml:space="preserve"><tspan
         style="font-style:normal;font-variant:normal;font-weight:bold;font-stretch:normal;font-size:33.57455826px;font-family:Sans;-inkscape-font-specification:'Sans, Bold';font-variant-ligatures:normal;font-variant-caps:normal;font-variant-numeric:normal;font-feature-settings:normal;text-align:start;writing-mode:lr-tb;text-anchor:start;fill:#ffffff;fill-opacity:1;stroke-width:0.83936393px"
         y="369.8335"
         x="80.990013"
         id="tspan15910"
         sodipodi:role="line" /></text>
  </g>
</svg>
