<?xml version="1.0" encoding="UTF-8" standalone="no"?>
<!-- Created with Inkscape (http://www.inkscape.org/) -->

<svg
   xmlns:dc="http://purl.org/dc/elements/1.1/"
   xmlns:cc="http://creativecommons.org/ns#"
   xmlns:rdf="http://www.w3.org/1999/02/22-rdf-syntax-ns#"
   xmlns:svg="http://www.w3.org/2000/svg"
   xmlns="http://www.w3.org/2000/svg"
   xmlns:sodipodi="http://sodipodi.sourceforge.net/DTD/sodipodi-0.dtd"
   xmlns:inkscape="http://www.inkscape.org/namespaces/inkscape"
   width="40.343929mm"
   height="40.343929mm"
   viewBox="0 0 40.343929 40.343929"
   version="1.1"
   id="svg8"
   sodipodi:docname="yes_Bicycles.svg"
   inkscape:version="0.92.1 r15371">
  <defs
     id="defs2">
    <path
       d="M 0,0 H 48 V 48 H 0 Z"
       id="a"
       inkscape:connector-curvature="0" />
  </defs>
  <sodipodi:namedview
     id="base"
     pagecolor="#ffffff"
     bordercolor="#666666"
     borderopacity="1.0"
     inkscape:pageopacity="0.0"
     inkscape:pageshadow="2"
     inkscape:zoom="0.98994949"
     inkscape:cx="3.4749283"
     inkscape:cy="-0.90962833"
     inkscape:document-units="mm"
     inkscape:current-layer="layer1"
     showgrid="false"
     inkscape:window-width="1632"
     inkscape:window-height="998"
     inkscape:window-x="48"
     inkscape:window-y="30"
     inkscape:window-maximized="1"
     fit-margin-top="0"
     fit-margin-left="0"
     fit-margin-right="0"
     fit-margin-bottom="0" />
  <metadata
     id="metadata5">
    <rdf:RDF>
      <cc:Work
         rdf:about="">
        <dc:format>image/svg+xml</dc:format>
        <dc:type
           rdf:resource="http://purl.org/dc/dcmitype/StillImage" />
        <dc:title />
      </cc:Work>
    </rdf:RDF>
  </metadata>
  <g
     inkscape:label="Ebene 1"
     inkscape:groupmode="layer"
     id="layer1"
     transform="translate(-136.28093,-308.33243)">
    <rect
       style="opacity:1;fill:#000000;fill-opacity:1;fill-rule:nonzero;stroke:none;stroke-width:0.40000001;stroke-linecap:round;stroke-miterlimit:4;stroke-dasharray:none;stroke-opacity:1"
       id="rect4520"
       width="40.343929"
       height="40.343929"
       x="136.28093"
       y="308.33243"
       ry="5.0684252" />
    <path
       id="path9502"
       d="m 161.17973,320.06358 c 1.48562,0 2.7011,-1.21548 2.7011,-2.70108 0,-1.48558 -1.21548,-2.70106 -2.7011,-2.70106 -1.48558,0 -2.70106,1.21548 -2.70106,2.70106 0,1.4856 1.21548,2.70108 2.70106,2.70108 z m -14.18058,8.77844 c -3.71394,0 -6.75265,3.03868 -6.75265,6.75265 0,3.71396 3.03871,6.75267 6.75265,6.75267 3.71396,0 6.75267,-3.03871 6.75267,-6.75267 0,-3.71397 -3.03871,-6.75265 -6.75267,-6.75265 z m 0,11.47953 c -2.63353,0 -4.72685,-2.09333 -4.72685,-4.72688 0,-2.63352 2.09332,-4.72685 4.72685,-4.72685 2.63355,0 4.72687,2.09333 4.72687,4.72685 0,2.63355 -2.09332,4.72688 -4.72687,4.72688 z m 7.83309,-13.4378 3.17374,-3.24127 1.01291,1.01289 c 1.68815,1.75569 4.05162,2.76858 6.82021,2.76858 v -2.70105 c -2.0258,0 -3.71397,-0.74279 -4.92947,-1.95827 l -2.63355,-2.56602 c -0.40516,-0.47269 -1.08042,-0.81032 -1.8232,-0.81032 -0.74279,0 -1.41805,0.27013 -1.89074,0.81032 l -3.71397,3.71397 c -0.47269,0.47269 -0.81031,1.14794 -0.81031,1.89073 0,0.74282 0.33762,1.41807 0.81031,1.95829 l 4.25417,3.78147 v 6.75268 h 2.70108 v -8.44084 z m 11.07439,1.95827 c -3.71397,0 -6.7527,3.03868 -6.7527,6.75265 0,3.71396 3.03873,6.75267 6.7527,6.75267 3.71396,0 6.75265,-3.03871 6.75265,-6.75267 0,-3.71397 -3.03869,-6.75265 -6.75265,-6.75265 z m 0,11.47953 c -2.63355,0 -4.7269,-2.09333 -4.7269,-4.72688 0,-2.63352 2.09335,-4.72685 4.7269,-4.72685 2.63352,0 4.72685,2.09333 4.72685,4.72685 0,2.63355 -2.09333,4.72688 -4.72685,4.72688 z"
       clip-path="url(#b)"
       inkscape:connector-curvature="0"
       style="fill:#ffffff;fill-opacity:1;stroke-width:0.67526561" />
  </g>
</svg>
