<?xml version="1.0" encoding="UTF-8" standalone="no"?>
<!-- Created with Inkscape (http://www.inkscape.org/) -->

<svg
   xmlns:dc="http://purl.org/dc/elements/1.1/"
   xmlns:cc="http://creativecommons.org/ns#"
   xmlns:rdf="http://www.w3.org/1999/02/22-rdf-syntax-ns#"
   xmlns:svg="http://www.w3.org/2000/svg"
   xmlns="http://www.w3.org/2000/svg"
   xmlns:sodipodi="http://sodipodi.sourceforge.net/DTD/sodipodi-0.dtd"
   xmlns:inkscape="http://www.inkscape.org/namespaces/inkscape"
   width="40.343929mm"
   height="40.343929mm"
   viewBox="0 0 40.343929 40.343929"
   version="1.1"
   id="svg8"
   sodipodi:docname="yes_May_require_swimming.svg"
   inkscape:version="0.92.1 r15371">
  <defs
     id="defs2">
    <path
       d="M 0,0 H 48 V 48 H 0 Z"
       id="a"
       inkscape:connector-curvature="0" />
    <path
       d="M 0,0 H 48 V 48 H 0 Z"
       id="a-8"
       inkscape:connector-curvature="0" />
  </defs>
  <sodipodi:namedview
     id="base"
     pagecolor="#ffffff"
     bordercolor="#666666"
     borderopacity="1.0"
     inkscape:pageopacity="0.0"
     inkscape:pageshadow="2"
     inkscape:zoom="0.98994949"
     inkscape:cx="215.10616"
     inkscape:cy="-47.630067"
     inkscape:document-units="mm"
     inkscape:current-layer="layer1"
     showgrid="false"
     inkscape:window-width="1632"
     inkscape:window-height="998"
     inkscape:window-x="48"
     inkscape:window-y="30"
     inkscape:window-maximized="1"
     fit-margin-top="0"
     fit-margin-left="0"
     fit-margin-right="0"
     fit-margin-bottom="0" />
  <metadata
     id="metadata5">
    <rdf:RDF>
      <cc:Work
         rdf:about="">
        <dc:format>image/svg+xml</dc:format>
        <dc:type
           rdf:resource="http://purl.org/dc/dcmitype/StillImage" />
        <dc:title />
      </cc:Work>
    </rdf:RDF>
  </metadata>
  <g
     inkscape:label="Ebene 1"
     inkscape:groupmode="layer"
     id="layer1"
     transform="translate(-136.74001,-308.33243)">
    <rect
       style="opacity:1;fill:#000000;fill-opacity:1;fill-rule:nonzero;stroke:none;stroke-width:0.40000001;stroke-linecap:round;stroke-miterlimit:4;stroke-dasharray:none;stroke-opacity:1"
       id="rect4520"
       width="40.343929"
       height="40.343929"
       x="136.74001"
       y="308.33243"
       ry="5.0684252" />
    <g
       id="g12801"
       style="fill:#ffffff;fill-opacity:1"
       transform="matrix(2.7460162,0,0,2.7460162,-186.09094,-804.54645)">
      <path
         style="fill:#ffffff;fill-opacity:1;stroke-width:0.26458332"
         id="path12797"
         d="m 130.20095,417.37877 c -0.58738,0 -0.91546,-0.19579 -1.15359,-0.34131 -0.19579,-0.11642 -0.31485,-0.18786 -0.60854,-0.18786 -0.29369,0 -0.41275,0.0714 -0.60854,0.18786 -0.23813,0.14287 -0.56621,0.34131 -1.15358,0.34131 -0.58738,0 -0.91546,-0.19579 -1.15359,-0.34131 -0.19579,-0.11907 -0.31485,-0.18786 -0.60854,-0.18786 -0.29369,0 -0.41275,0.0714 -0.60854,0.18786 -0.24342,0.14552 -0.5715,0.34131 -1.15888,0.34131 -0.58737,0 -0.91545,-0.19579 -1.15358,-0.33867 -0.19579,-0.11906 -0.31485,-0.1905 -0.61119,-0.1905 -0.29633,0 -0.41275,0.0714 -0.61118,0.1905 -0.23813,0.14288 -0.56621,0.33867 -1.15359,0.33867 v -1.05833 c 0.29369,0 0.41275,-0.0714 0.61119,-0.1905 0.23813,-0.14288 0.56621,-0.33867 1.15358,-0.33867 0.58738,0 0.91546,0.19579 1.15359,0.33867 0.19579,0.11906 0.31485,0.1905 0.61118,0.1905 0.29369,0 0.41275,-0.0714 0.60855,-0.18786 0.23812,-0.14287 0.5662,-0.34131 1.15358,-0.34131 0.58737,0 0.91546,0.19579 1.15358,0.34131 0.19579,0.11906 0.31486,0.18786 0.60854,0.18786 0.29369,0 0.41275,-0.0714 0.60855,-0.18786 0.23812,-0.14287 0.5662,-0.34131 1.15358,-0.34131 0.58737,0 0.91546,0.19579 1.15358,0.34131 0.20109,0.11642 0.32015,0.18786 0.61384,0.18786 z m 0,-2.38125 c -0.58738,0 -0.91546,-0.19579 -1.15359,-0.34131 -0.19579,-0.11642 -0.31485,-0.18786 -0.60854,-0.18786 -0.29369,0 -0.41275,0.0714 -0.60854,0.18786 -0.23813,0.14287 -0.56621,0.34131 -1.15358,0.34131 -0.58738,0 -0.91546,-0.19579 -1.15359,-0.34131 -0.19579,-0.11907 -0.31485,-0.18786 -0.60854,-0.18786 -0.29369,0 -0.41275,0.0714 -0.60854,0.18786 -0.24342,0.14552 -0.5715,0.34131 -1.15888,0.34131 -0.58737,0 -0.91545,-0.19579 -1.15358,-0.33867 -0.19579,-0.11906 -0.31485,-0.1905 -0.61119,-0.1905 -0.29633,0 -0.41275,0.0714 -0.61118,0.1905 -0.23813,0.14288 -0.56621,0.33867 -1.15359,0.33867 v -1.05833 c 0.29369,0 0.41275,-0.0714 0.61119,-0.1905 0.23813,-0.14288 0.56621,-0.33867 1.15358,-0.33867 0.58738,0 0.91546,0.19579 1.15359,0.33867 0.19579,0.11906 0.31485,0.1905 0.61118,0.1905 0.29369,0 0.41275,-0.0714 0.60855,-0.18786 0.23812,-0.14287 0.5662,-0.34131 1.15358,-0.34131 0.58737,0 0.91546,0.19579 1.15358,0.34131 0.19579,0.11906 0.31486,0.18786 0.60854,0.18786 0.29369,0 0.41275,-0.0714 0.60855,-0.18786 0.23812,-0.14287 0.5662,-0.34131 1.15358,-0.34131 0.58737,0 0.91546,0.19579 1.15358,0.34131 0.20109,0.11642 0.32015,0.18786 0.61384,0.18786 z m -7.0538,-2.38125 c 0.29369,0 0.41275,-0.0714 0.60855,-0.18785 0.23812,-0.14288 0.5662,-0.34132 1.15358,-0.34132 0.58737,0 0.91546,0.19579 1.15358,0.34132 0.19579,0.11906 0.31486,0.18785 0.60854,0.18785 0.29369,0 0.41275,-0.0714 0.60855,-0.18785 0.0635,-0.0397 0.13493,-0.0794 0.21431,-0.12171 l -3.38931,-3.39461 c -0.82286,-0.82285 -1.57692,-1.06362 -2.89984,-1.05833 v 1.32292 c 0.96309,-0.005 1.52665,0.20637 2.11667,0.79375 l 0.52917,0.52916 -1.7198,1.71979 c 0.16405,0.0635 0.29634,0.14023 0.40746,0.20638 0.19579,0.11906 0.31486,0.1905 0.60854,0.1905 z"
         inkscape:connector-curvature="0" />
      <circle
         style="fill:#ffffff;fill-opacity:1;stroke-width:0.26458332"
         id="circle12799"
         r="1.3229166"
         cy="409.1767"
         cx="127.29053" />
    </g>
  </g>
</svg>
