<?xml version="1.0" encoding="UTF-8" standalone="no"?>
<!-- Created with Inkscape (http://www.inkscape.org/) -->

<svg
   xmlns:dc="http://purl.org/dc/elements/1.1/"
   xmlns:cc="http://creativecommons.org/ns#"
   xmlns:rdf="http://www.w3.org/1999/02/22-rdf-syntax-ns#"
   xmlns:svg="http://www.w3.org/2000/svg"
   xmlns="http://www.w3.org/2000/svg"
   xmlns:sodipodi="http://sodipodi.sourceforge.net/DTD/sodipodi-0.dtd"
   xmlns:inkscape="http://www.inkscape.org/namespaces/inkscape"
   width="40.343929mm"
   height="40.343929mm"
   viewBox="0 0 40.343929 40.343929"
   version="1.1"
   id="svg8"
   sodipodi:docname="yes_Fuel_Nearby.svg"
   inkscape:version="0.92.1 r15371">
  <defs
     id="defs2">
    <path
       d="M 0,0 H 48 V 48 H 0 Z"
       id="a"
       inkscape:connector-curvature="0" />
    <path
       d="M 0,0 H 48 V 48 H 0 Z"
       id="a-8"
       inkscape:connector-curvature="0" />
  </defs>
  <sodipodi:namedview
     id="base"
     pagecolor="#ffffff"
     bordercolor="#666666"
     borderopacity="1.0"
     inkscape:pageopacity="0.0"
     inkscape:pageshadow="2"
     inkscape:zoom="0.98994949"
     inkscape:cx="216.6777"
     inkscape:cy="5.6368977"
     inkscape:document-units="mm"
     inkscape:current-layer="layer1"
     showgrid="false"
     inkscape:window-width="1632"
     inkscape:window-height="998"
     inkscape:window-x="48"
     inkscape:window-y="30"
     inkscape:window-maximized="1"
     fit-margin-top="0"
     fit-margin-left="0"
     fit-margin-right="0"
     fit-margin-bottom="0" />
  <metadata
     id="metadata5">
    <rdf:RDF>
      <cc:Work
         rdf:about="">
        <dc:format>image/svg+xml</dc:format>
        <dc:type
           rdf:resource="http://purl.org/dc/dcmitype/StillImage" />
        <dc:title />
      </cc:Work>
    </rdf:RDF>
  </metadata>
  <g
     inkscape:label="Ebene 1"
     inkscape:groupmode="layer"
     id="layer1"
     transform="translate(-136.28093,-308.33243)">
    <rect
       style="opacity:1;fill:#000000;fill-opacity:1;fill-rule:nonzero;stroke:none;stroke-width:0.40000001;stroke-linecap:round;stroke-miterlimit:4;stroke-dasharray:none;stroke-opacity:1"
       id="rect4520"
       width="40.343929"
       height="40.343929"
       x="136.28093"
       y="308.33243"
       ry="5.0684252" />
    <path
       inkscape:connector-curvature="0"
       d="m 167.91324,321.23508 0.023,-0.023 -5.67689,-5.66169 -1.61545,1.61545 3.21564,3.21565 c -1.43257,0.54864 -2.45365,1.92787 -2.45365,3.55093 0,2.10312 1.70689,3.81002 3.81002,3.81002 0.541,0 1.05918,-0.11434 1.52401,-0.32006 v 10.98802 c 0,0.8382 -0.68582,1.52401 -1.52401,1.52401 -0.8382,0 -1.52402,-0.68581 -1.52402,-1.52401 v -6.85801 c 0,-1.68403 -1.36397,-3.048 -3.04799,-3.048 h -1.52402 v -10.66803 c 0,-1.68403 -1.36397,-3.048 -3.04799,-3.048 h -9.14402 c -1.68403,0 -3.048,1.36397 -3.048,3.048 v 24.38406 h 15.24001 v -11.43003 h 2.28601 v 7.62001 c 0,2.10312 1.70689,3.81002 3.81002,3.81002 2.10312,0 3.81001,-1.7069 3.81001,-3.81002 v -14.47802 c 0,-1.05158 -0.42673,-2.00405 -1.11254,-2.6975 z m -11.84149,4.22151 h -9.14402 v -7.62003 h 9.14402 z m 9.14402,0 c -0.83819,0 -1.52401,-0.68581 -1.52401,-1.52401 0,-0.8382 0.68582,-1.52401 1.52401,-1.52401 0.8382,0 1.52402,0.68581 1.52402,1.52401 0,0.8382 -0.68582,1.52401 -1.52402,1.52401 z"
       id="path10510"
       style="fill:#ffffff;fill-opacity:1;stroke-width:0.76200157" />
  </g>
</svg>
