<?xml version="1.0" encoding="UTF-8" standalone="no"?>
<!-- Created with Inkscape (http://www.inkscape.org/) -->

<svg
   xmlns:dc="http://purl.org/dc/elements/1.1/"
   xmlns:cc="http://creativecommons.org/ns#"
   xmlns:rdf="http://www.w3.org/1999/02/22-rdf-syntax-ns#"
   xmlns:svg="http://www.w3.org/2000/svg"
   xmlns="http://www.w3.org/2000/svg"
   xmlns:sodipodi="http://sodipodi.sourceforge.net/DTD/sodipodi-0.dtd"
   xmlns:inkscape="http://www.inkscape.org/namespaces/inkscape"
   width="40.343929mm"
   height="40.343929mm"
   viewBox="0 0 40.343929 40.343929"
   version="1.1"
   id="svg8"
   sodipodi:docname="yes_Snowshoes.svg"
   inkscape:version="0.92.1 r15371">
  <defs
     id="defs2">
    <path
       d="M 0,0 H 48 V 48 H 0 Z"
       id="a"
       inkscape:connector-curvature="0" />
    <path
       d="M 0,0 H 48 V 48 H 0 Z"
       id="a-8"
       inkscape:connector-curvature="0" />
  </defs>
  <sodipodi:namedview
     id="base"
     pagecolor="#ffffff"
     bordercolor="#666666"
     borderopacity="1.0"
     inkscape:pageopacity="0.0"
     inkscape:pageshadow="2"
     inkscape:zoom="0.98994949"
     inkscape:cx="-141.55859"
     inkscape:cy="-93.050287"
     inkscape:document-units="mm"
     inkscape:current-layer="layer1"
     showgrid="false"
     inkscape:window-width="1632"
     inkscape:window-height="998"
     inkscape:window-x="48"
     inkscape:window-y="30"
     inkscape:window-maximized="1"
     fit-margin-top="0"
     fit-margin-left="0"
     fit-margin-right="0"
     fit-margin-bottom="0"
     showguides="true"
     inkscape:guide-bbox="true" />
  <metadata
     id="metadata5">
    <rdf:RDF>
      <cc:Work
         rdf:about="">
        <dc:format>image/svg+xml</dc:format>
        <dc:type
           rdf:resource="http://purl.org/dc/dcmitype/StillImage" />
        <dc:title />
      </cc:Work>
    </rdf:RDF>
  </metadata>
  <g
     inkscape:label="Ebene 1"
     inkscape:groupmode="layer"
     id="layer1"
     transform="translate(-136.75562,-308.33243)">
    <rect
       style="opacity:1;fill:#000000;fill-opacity:1;fill-rule:nonzero;stroke:none;stroke-width:0.40000001;stroke-linecap:round;stroke-miterlimit:4;stroke-dasharray:none;stroke-opacity:1"
       id="rect4520"
       width="40.343929"
       height="40.343929"
       x="136.75562"
       y="308.33243"
       ry="5.0684252" />
    <g
       transform="matrix(0.32089811,0,0,0.32089811,129.20906,307.97464)"
       id="g5038">
      <path
         inkscape:connector-curvature="0"
         id="path5030"
         d="m 72.477,27.762 c 4.398,0 7.984,-3.57 7.984,-7.984 0,-4.422 -3.586,-8.008 -7.984,-8.008 -4.414,0 -8,3.586 -8,8.008 0,4.413 3.585,7.984 8,7.984 z"
         style="fill:#ffffff" />
      <path
         inkscape:connector-curvature="0"
         id="path5032"
         d="M 106.828,98.973 93.844,83.645 c 0,0 -4.055,-23.68 -4.055,-23.734 0,-0.023 -0.609,-2.68 -0.609,-2.68 0.023,0.023 -1.641,-7.477 -2.906,-13.336 2.023,1.172 3.859,2.227 3.953,2.273 0.102,0.219 6.883,13.133 6.883,13.133 0.516,0.953 1.367,1.664 2.398,1.977 1.047,0.32 2.148,0.219 3.102,-0.289 0.945,-0.492 1.656,-1.344 1.977,-2.391 0.336,-1.031 0.242,-2.125 -0.273,-3.078 L 96.869,41.332 c 0,0 -0.289,-0.508 -0.68,-0.898 -0.539,-0.539 -1.711,-1.203 -1.711,-1.203 L 80.025,31.004 c -1.836,-0.922 -3.859,-1.242 -5.883,-0.805 -0.828,0.172 -1.609,0.492 -2.492,0.977 -0.102,0.023 -3.289,1.445 -5.148,5.789 L 59.08,51.903 c 0,0 -11.297,2.203 -11.688,2.273 -1.640184,0.444911 -2.304187,1.311305 -3.055,2.218 -0.219,0.344 -0.609,1.102 -0.586,1.883 0,0.242 0.023,0.484 0.07,0.734 0.414,2.195 2.562,3.656 4.766,3.219 l 14.008,-2.734 c 0,0 1.203,-0.367 1.711,-0.734 0.664,-0.461 1.148,-1.438 1.148,-1.438 l 3.688,-7.422 c 0,0 2.531,11.984 2.578,12.211 -0.289,0.289 -11.492,12.18 -11.492,12.18 l -0.195,0.242 c -1.094,1 -1.703,2.32 -1.703,3.711 v 25.195 c 0,2.688 2.195,4.859 4.883,4.859 2.656,0 4.852,-2.172 4.852,-4.859 V 82.394 c 1.031,-1.07 9.617,-10.125 11.914,-12.523 0.242,1.422 2.461,14.188 2.461,14.188 0.195,1.125 0.734,2.148 1.539,2.977 0,0.023 15.43,18.242 15.43,18.242 0.859,0.977 2.031,1.586 3.32,1.703 1.297,0.102 2.539,-0.312 3.539,-1.148 1.125,-0.945 1.711,-2.344 1.711,-3.711 -0.002,-1.118 -0.37,-2.22 -1.151,-3.149 z"
         style="fill:#ffffff"
         sodipodi:nodetypes="ccsccccccccccccccccccccccccccccssssccccccccc" />
      <path
         sodipodi:nodetypes="cccc"
         inkscape:connector-curvature="0"
         id="path5034"
         d="m 84.156326,106.95449 -28.153332,5.55568 C 41.110301,115.33675 41.38866,91.767594 56.324418,95.313905 l 27.926051,6.603895"
         style="opacity:1;fill:none;fill-opacity:1;fill-rule:nonzero;stroke:#ffffff;stroke-width:3.33699989;stroke-linecap:round;stroke-miterlimit:4;stroke-dasharray:none;stroke-opacity:1" />
      <path
         style="opacity:1;fill:none;fill-opacity:1;fill-rule:nonzero;stroke:#ffffff;stroke-width:3.33699989;stroke-linecap:round;stroke-miterlimit:4;stroke-dasharray:none;stroke-opacity:1"
         d="M 127.76004,94.891581 104.93365,112.28214 C 92.809362,121.38068 82.67575,100.09941 97.646309,96.703007 L 125.62563,90.328536"
         id="path5036"
         inkscape:connector-curvature="0"
         sodipodi:nodetypes="cccc" />
    </g>
  </g>
</svg>
