<?xml version="1.0" encoding="UTF-8" standalone="no"?>
<!-- Created with Inkscape (http://www.inkscape.org/) -->

<svg
   xmlns:dc="http://purl.org/dc/elements/1.1/"
   xmlns:cc="http://creativecommons.org/ns#"
   xmlns:rdf="http://www.w3.org/1999/02/22-rdf-syntax-ns#"
   xmlns:svg="http://www.w3.org/2000/svg"
   xmlns="http://www.w3.org/2000/svg"
   xmlns:sodipodi="http://sodipodi.sourceforge.net/DTD/sodipodi-0.dtd"
   xmlns:inkscape="http://www.inkscape.org/namespaces/inkscape"
   width="40.343929mm"
   height="40.343929mm"
   viewBox="0 0 40.343929 40.343929"
   version="1.1"
   id="svg8"
   sodipodi:docname="yes_Quads.svg"
   inkscape:version="0.92.1 r15371">
  <defs
     id="defs2">
    <path
       d="M 0,0 H 48 V 48 H 0 Z"
       id="a"
       inkscape:connector-curvature="0" />
    <path
       d="M 0,0 H 48 V 48 H 0 Z"
       id="a-8"
       inkscape:connector-curvature="0" />
  </defs>
  <sodipodi:namedview
     id="base"
     pagecolor="#ffffff"
     bordercolor="#666666"
     borderopacity="1.0"
     inkscape:pageopacity="0.0"
     inkscape:pageshadow="2"
     inkscape:zoom="0.35"
     inkscape:cx="643.80485"
     inkscape:cy="325.89859"
     inkscape:document-units="mm"
     inkscape:current-layer="layer1"
     showgrid="false"
     inkscape:window-width="1632"
     inkscape:window-height="998"
     inkscape:window-x="48"
     inkscape:window-y="30"
     inkscape:window-maximized="1"
     fit-margin-top="0"
     fit-margin-left="0"
     fit-margin-right="0"
     fit-margin-bottom="0"
     showguides="true"
     inkscape:guide-bbox="true" />
  <metadata
     id="metadata5">
    <rdf:RDF>
      <cc:Work
         rdf:about="">
        <dc:format>image/svg+xml</dc:format>
        <dc:type
           rdf:resource="http://purl.org/dc/dcmitype/StillImage" />
        <dc:title />
      </cc:Work>
    </rdf:RDF>
  </metadata>
  <g
     inkscape:label="Ebene 1"
     inkscape:groupmode="layer"
     id="layer1"
     transform="translate(-136.75562,-308.33243)">
    <rect
       style="opacity:1;fill:#000000;fill-opacity:1;fill-rule:nonzero;stroke:none;stroke-width:0.40000001;stroke-linecap:round;stroke-miterlimit:4;stroke-dasharray:none;stroke-opacity:1"
       id="rect4520"
       width="40.343929"
       height="40.343929"
       x="136.75562"
       y="308.33243"
       ry="5.0684252" />
    <g
       transform="matrix(0.32724394,0,0,0.32724394,136.96832,308.66392)"
       id="g5561">
      <path
         id="path5551"
         d="M 90.836,42.301 V 29.566 h -1.172 c -3.516,0 -6.375,2.852 -6.375,6.367 0,3.523 2.859,6.367 6.375,6.367 h 1.172 z"
         style="fill:#ffffff"
         inkscape:connector-curvature="0" />
      <path
         id="path5553"
         d="M 81.234,39.402 75.672,28.277 C 74.43,25.996 72.031,24.465 69.242,24.465 H 56.328 c -1.211,0 -2.172,0.969 -2.172,2.18 0,1.211 0.961,2.172 2.172,2.172 l 12.914,-0.008 c 1.055,0 2.203,0.711 2.672,1.695 l 3.539,7.094 z"
         style="fill:#ffffff"
         inkscape:connector-curvature="0" />
      <path
         id="path5555"
         d="m 106.875,51.293 c 1.68,0.484 2.93,2.039 2.93,3.875 l -9.406,0.008 c -12.375,0 -22.43,10.062 -22.43,22.438 h -30.61 c 0,-9.945 -6.469,-18.383 -15.422,-21.328 L 15.07,50.738 17.867,46.465 c 0.984,-1.492 2.711,-2.477 4.633,-2.477 0.445,0 0.844,0.031 1.211,0.109 l 37.586,11.656 c 0.461,0.133 0.938,0.219 1.453,0.219 1.695,0 3.172,-0.859 4.055,-2.18 l 8.547,-12.344 z"
         style="fill:#ffffff"
         inkscape:connector-curvature="0" />
      <path
         id="path5557"
         d="m 81.703,81.512 c 0,-8.461 6.859,-15.289 15.281,-15.289 8.445,0 15.281,6.828 15.281,15.289 0,8.43 -6.836,15.281 -15.281,15.281 -8.422,0 -15.281,-6.852 -15.281,-15.281 z m 15.281,5.711 c 3.172,0 5.734,-2.562 5.734,-5.711 0,-3.172 -2.562,-5.719 -5.734,-5.719 -3.125,0 -5.688,2.547 -5.688,5.719 10e-4,3.148 2.563,5.711 5.688,5.711 z"
         style="fill:#ffffff"
         inkscape:connector-curvature="0" />
      <path
         id="path5559"
         d="m 9.719,79.871 c 0,-9.266 7.523,-16.805 16.812,-16.805 9.305,0 16.797,7.539 16.797,16.805 0,9.289 -7.492,16.82 -16.797,16.82 -9.289,0 -16.812,-7.531 -16.812,-16.82 z m 16.851,6.305 c 3.453,0 6.273,-2.812 6.273,-6.289 0,-3.477 -2.82,-6.289 -6.273,-6.289 -3.492,0 -6.289,2.812 -6.289,6.289 0,3.477 2.797,6.289 6.289,6.289 z"
         style="fill:#ffffff"
         inkscape:connector-curvature="0" />
    </g>
  </g>
</svg>
