<?xml version="1.0" encoding="UTF-8" standalone="no"?>
<!-- Created with Inkscape (http://www.inkscape.org/) -->

<svg
   xmlns:dc="http://purl.org/dc/elements/1.1/"
   xmlns:cc="http://creativecommons.org/ns#"
   xmlns:rdf="http://www.w3.org/1999/02/22-rdf-syntax-ns#"
   xmlns:svg="http://www.w3.org/2000/svg"
   xmlns="http://www.w3.org/2000/svg"
   xmlns:sodipodi="http://sodipodi.sourceforge.net/DTD/sodipodi-0.dtd"
   xmlns:inkscape="http://www.inkscape.org/namespaces/inkscape"
   width="40.343929mm"
   height="40.343929mm"
   viewBox="0 0 40.343929 40.343929"
   version="1.1"
   id="svg8"
   sodipodi:docname="yes_Teamwork_required.svg"
   inkscape:version="0.92.1 r15371">
  <defs
     id="defs2">
    <path
       d="M 0,0 H 48 V 48 H 0 Z"
       id="a"
       inkscape:connector-curvature="0" />
    <path
       d="M 0,0 H 48 V 48 H 0 Z"
       id="a-8"
       inkscape:connector-curvature="0" />
  </defs>
  <sodipodi:namedview
     id="base"
     pagecolor="#ffffff"
     bordercolor="#666666"
     borderopacity="1.0"
     inkscape:pageopacity="0.0"
     inkscape:pageshadow="2"
     inkscape:zoom="0.98994949"
     inkscape:cx="215.10618"
     inkscape:cy="-47.630094"
     inkscape:document-units="mm"
     inkscape:current-layer="layer1"
     showgrid="false"
     inkscape:window-width="1632"
     inkscape:window-height="998"
     inkscape:window-x="48"
     inkscape:window-y="30"
     inkscape:window-maximized="1"
     fit-margin-top="0"
     fit-margin-left="0"
     fit-margin-right="0"
     fit-margin-bottom="0" />
  <metadata
     id="metadata5">
    <rdf:RDF>
      <cc:Work
         rdf:about="">
        <dc:format>image/svg+xml</dc:format>
        <dc:type
           rdf:resource="http://purl.org/dc/dcmitype/StillImage" />
        <dc:title />
      </cc:Work>
    </rdf:RDF>
  </metadata>
  <g
     inkscape:label="Ebene 1"
     inkscape:groupmode="layer"
     id="layer1"
     transform="translate(-136.74001,-308.33243)">
    <rect
       style="opacity:1;fill:#000000;fill-opacity:1;fill-rule:nonzero;stroke:none;stroke-width:0.40000001;stroke-linecap:round;stroke-miterlimit:4;stroke-dasharray:none;stroke-opacity:1"
       id="rect4520"
       width="40.343929"
       height="40.343929"
       x="136.74001"
       y="308.33243"
       ry="5.0684252" />
    <path
       inkscape:connector-curvature="0"
       d="m 163.59653,326.83325 c 2.76573,0 4.99667,-2.24769 4.99667,-5.01342 0,-2.76573 -2.23094,-5.01341 -4.99667,-5.01341 -2.76573,0 -5.01341,2.24768 -5.01341,5.01341 0,2.76573 2.24768,5.01342 5.01341,5.01342 z m -13.36912,0 c 2.76573,0 4.9967,-2.24769 4.9967,-5.01342 0,-2.76573 -2.23097,-5.01341 -4.9967,-5.01341 -2.76573,0 -5.01341,2.24768 -5.01341,5.01341 0,2.76573 2.24768,5.01342 5.01341,5.01342 z m 0,3.34229 c -3.90209,0 -11.69794,1.95522 -11.69794,5.84896 v 4.17786 h 23.39591 v -4.17786 c 0,-3.89374 -7.79585,-5.84896 -11.69797,-5.84896 z m 13.36912,0 c -0.48464,0 -1.02776,0.0334 -1.61266,0.0918 1.9385,1.39538 3.28377,3.27544 3.28377,5.75707 v 4.17785 h 10.02683 v -4.17779 c 0,-3.89374 -7.79585,-5.84896 -11.69794,-5.84896 z"
       id="path12950"
       style="fill:#ffffff;fill-opacity:1;stroke-width:0.83556849" />
  </g>
</svg>
