<?xml version="1.0" encoding="UTF-8" standalone="no"?>
<!-- Created with Inkscape (http://www.inkscape.org/) -->

<svg
   xmlns:dc="http://purl.org/dc/elements/1.1/"
   xmlns:cc="http://creativecommons.org/ns#"
   xmlns:rdf="http://www.w3.org/1999/02/22-rdf-syntax-ns#"
   xmlns:svg="http://www.w3.org/2000/svg"
   xmlns="http://www.w3.org/2000/svg"
   xmlns:sodipodi="http://sodipodi.sourceforge.net/DTD/sodipodi-0.dtd"
   xmlns:inkscape="http://www.inkscape.org/namespaces/inkscape"
   width="40.343929mm"
   height="40.343929mm"
   viewBox="0 0 40.343929 40.343929"
   version="1.1"
   id="svg8"
   sodipodi:docname="yes_Poison_plants.svg"
   inkscape:version="0.92.1 r15371">
  <defs
     id="defs2">
    <path
       d="M 0,0 H 48 V 48 H 0 Z"
       id="a"
       inkscape:connector-curvature="0" />
    <path
       d="M 0,0 H 48 V 48 H 0 Z"
       id="a-8"
       inkscape:connector-curvature="0" />
    <path
       d="M 0,0 H 48 V 48 H 0 Z"
       id="a-6"
       inkscape:connector-curvature="0" />
    <path
       d="M 0,0 H 48 V 48 H 0 Z"
       id="a-89"
       inkscape:connector-curvature="0" />
    <path
       d="M 0,0 H 48 V 48 H 0 Z"
       id="a-0"
       inkscape:connector-curvature="0" />
    <path
       d="M 0,0 H 48 V 48 H 0 Z"
       id="a-9"
       inkscape:connector-curvature="0" />
  </defs>
  <sodipodi:namedview
     id="base"
     pagecolor="#ffffff"
     bordercolor="#666666"
     borderopacity="1.0"
     inkscape:pageopacity="0.0"
     inkscape:pageshadow="2"
     inkscape:zoom="0.35"
     inkscape:cx="-725.51435"
     inkscape:cy="93.554012"
     inkscape:document-units="mm"
     inkscape:current-layer="layer1"
     showgrid="false"
     inkscape:window-width="1632"
     inkscape:window-height="998"
     inkscape:window-x="48"
     inkscape:window-y="30"
     inkscape:window-maximized="1"
     fit-margin-top="0"
     fit-margin-left="0"
     fit-margin-right="0"
     fit-margin-bottom="0" />
  <metadata
     id="metadata5">
    <rdf:RDF>
      <cc:Work
         rdf:about="">
        <dc:format>image/svg+xml</dc:format>
        <dc:type
           rdf:resource="http://purl.org/dc/dcmitype/StillImage" />
        <dc:title />
      </cc:Work>
    </rdf:RDF>
  </metadata>
  <g
     inkscape:label="Ebene 1"
     inkscape:groupmode="layer"
     id="layer1"
     transform="translate(-135.66096,-306.67932)">
    <rect
       style="opacity:1;fill:#000000;fill-opacity:1;fill-rule:nonzero;stroke:none;stroke-width:0.40000001;stroke-linecap:round;stroke-miterlimit:4;stroke-dasharray:none;stroke-opacity:1"
       id="rect4520"
       width="40.343929"
       height="40.343929"
       x="135.66096"
       y="306.67932"
       ry="5.0684252" />
    <path
       inkscape:connector-curvature="0"
       d="m 160.81163,323.4823 c -0.26355,-3.97439 -1.87324,-7.85621 -4.89322,-10.87621 -3.04847,3.04848 -4.72941,6.92316 -5.05705,10.87621 1.82339,0.9758 3.51144,2.22225 4.97158,3.73936 1.46013,-1.51711 3.14818,-2.77069 4.97869,-3.73936 z m -9.25937,3.77497 c -0.19943,-0.14967 -0.42736,-0.27065 -0.63392,-0.40598 0.20656,0.13541 0.42736,0.25655 0.63392,0.40598 z m 9.13828,-0.37036 c -0.18518,0.12814 -0.39174,0.23501 -0.5698,0.36326 0.17807,-0.12814 0.3775,-0.23502 0.5698,-0.36326 z m -4.8576,4.88609 c -3.06272,-4.67954 -8.29783,-7.77074 -14.2452,-7.77074 0,7.57132 4.78639,13.9959 11.44601,16.36061 0.90457,0.32051 1.83763,0.56268 2.79919,0.73362 0.96154,-0.16394 1.89461,-0.40601 2.79917,-0.73362 6.65963,-2.36471 11.44601,-8.78929 11.44601,-16.36061 -5.94737,0 -11.18247,3.0912 -14.24518,7.77074 z"
       id="path18850"
       style="fill:#ffffff;fill-opacity:1;stroke-width:0.71225947" />
  </g>
</svg>
