<?xml version="1.0" encoding="UTF-8" standalone="no"?>
<!-- Created with Inkscape (http://www.inkscape.org/) -->

<svg
   xmlns:dc="http://purl.org/dc/elements/1.1/"
   xmlns:cc="http://creativecommons.org/ns#"
   xmlns:rdf="http://www.w3.org/1999/02/22-rdf-syntax-ns#"
   xmlns:svg="http://www.w3.org/2000/svg"
   xmlns="http://www.w3.org/2000/svg"
   xmlns:sodipodi="http://sodipodi.sourceforge.net/DTD/sodipodi-0.dtd"
   xmlns:inkscape="http://www.inkscape.org/namespaces/inkscape"
   width="40.343929mm"
   height="40.343929mm"
   viewBox="0 0 40.343929 40.343929"
   version="1.1"
   id="svg8"
   sodipodi:docname="yes_Recommended_at_night.svg"
   inkscape:version="0.92.1 r15371">
  <defs
     id="defs2">
    <path
       d="M 0,0 H 48 V 48 H 0 Z"
       id="a"
       inkscape:connector-curvature="0" />
    <path
       d="M 0,0 H 48 V 48 H 0 Z"
       id="a-8"
       inkscape:connector-curvature="0" />
    <path
       d="M 0,0 H 48 V 48 H 0 Z"
       id="a-6"
       inkscape:connector-curvature="0" />
    <path
       d="M 0,0 H 48 V 48 H 0 Z"
       id="a-89"
       inkscape:connector-curvature="0" />
    <path
       d="M 0,0 H 48 V 48 H 0 Z"
       id="a-0"
       inkscape:connector-curvature="0" />
  </defs>
  <sodipodi:namedview
     id="base"
     pagecolor="#ffffff"
     bordercolor="#666666"
     borderopacity="1.0"
     inkscape:pageopacity="0.0"
     inkscape:pageshadow="2"
     inkscape:zoom="0.49497475"
     inkscape:cx="-293.47596"
     inkscape:cy="-151.67962"
     inkscape:document-units="mm"
     inkscape:current-layer="layer1"
     showgrid="false"
     inkscape:window-width="1632"
     inkscape:window-height="998"
     inkscape:window-x="48"
     inkscape:window-y="30"
     inkscape:window-maximized="1"
     fit-margin-top="0"
     fit-margin-left="0"
     fit-margin-right="0"
     fit-margin-bottom="0" />
  <metadata
     id="metadata5">
    <rdf:RDF>
      <cc:Work
         rdf:about="">
        <dc:format>image/svg+xml</dc:format>
        <dc:type
           rdf:resource="http://purl.org/dc/dcmitype/StillImage" />
        <dc:title />
      </cc:Work>
    </rdf:RDF>
  </metadata>
  <g
     inkscape:label="Ebene 1"
     inkscape:groupmode="layer"
     id="layer1"
     transform="translate(-136.7377,-308.33243)">
    <rect
       style="opacity:1;fill:#000000;fill-opacity:1;fill-rule:nonzero;stroke:none;stroke-width:0.40000001;stroke-linecap:round;stroke-miterlimit:4;stroke-dasharray:none;stroke-opacity:1"
       id="rect4520"
       width="40.343929"
       height="40.343929"
       x="136.7377"
       y="308.33243"
       ry="5.0684252" />
    <g
       id="g16585"
       transform="matrix(2.4654321,0,0,2.4654321,-446.89231,-631.18649)"
       style="fill:#ffffff;fill-opacity:1">
      <path
         style="fill:#ffffff;fill-opacity:1;stroke-width:0.26458332"
         inkscape:connector-curvature="0"
         d="m 242.20564,384.49619 c -0.55298,0 -1.08744,0.0847 -1.5875,0.24342 2.14577,0.67469 3.70417,2.68023 3.70417,5.04825 0,2.36802 -1.5584,4.37356 -3.70417,5.04825 0.50006,0.1561 1.03452,0.24342 1.5875,0.24342 2.92365,0 5.29167,-2.36802 5.29167,-5.29167 0,-2.92365 -2.36802,-5.29167 -5.29167,-5.29167 z"
         id="path16579" />
      <path
         style="fill:#ffffff;fill-opacity:1;stroke-width:0.08640364"
         inkscape:connector-curvature="0"
         d="m 238.97994,390.69108 h -1.03684 v 0.34561 h 1.03684 z m 0.37499,-0.56076 -0.36635,-0.36635 -0.24452,0.24452 0.36635,0.36635 z m 0.66185,-1.16731 h -0.34561 v 1.03684 h 0.34561 z m 0.92712,1.04548 -0.24453,-0.24452 -0.36635,0.36635 0.24452,0.24452 z m -0.23589,0.68259 v 0.34561 h 1.03685 v -0.34561 z m -0.86403,-0.34561 c -0.286,0 -0.51842,0.23242 -0.51842,0.51842 0,0.28599 0.23242,0.51842 0.51842,0.51842 0.28599,0 0.51842,-0.23243 0.51842,-0.51842 0,-0.286 -0.23243,-0.51842 -0.51842,-0.51842 z m 0.48904,1.25198 0.36635,0.36636 0.24453,-0.24453 -0.36636,-0.36635 z m -1.58896,0.12183 0.24452,0.24453 0.36635,-0.36636 -0.24452,-0.24452 z m 0.92711,1.04549 h 0.34561 v -1.03685 h -0.34561 z"
         id="path16581" />
      <path
         style="fill:#ffffff;fill-opacity:1;stroke-width:0.08640364"
         id="path16583"
         d="m 249.1063,385.16593 h -1.03684 v 0.34561 h 1.03684 z m 0.37499,-0.56076 -0.36635,-0.36635 -0.24452,0.24452 0.36635,0.36635 z m 0.66185,-1.16731 h -0.34561 v 1.03684 h 0.34561 z m 0.92712,1.04548 -0.24453,-0.24452 -0.36635,0.36635 0.24452,0.24452 z m -0.23589,0.68259 v 0.34561 h 1.03685 v -0.34561 z m -0.86403,-0.34561 c -0.286,0 -0.51842,0.23242 -0.51842,0.51842 0,0.28599 0.23242,0.51842 0.51842,0.51842 0.28599,0 0.51842,-0.23243 0.51842,-0.51842 0,-0.286 -0.23243,-0.51842 -0.51842,-0.51842 z m 0.48904,1.25198 0.36635,0.36636 0.24453,-0.24453 -0.36636,-0.36635 z m -1.58896,0.12183 0.24452,0.24453 0.36635,-0.36636 -0.24452,-0.24452 z m 0.92711,1.04549 h 0.34561 v -1.03685 h -0.34561 z"
         inkscape:connector-curvature="0" />
    </g>
  </g>
</svg>
