<?xml version="1.0" encoding="UTF-8" standalone="no"?>
<!-- Created with Inkscape (http://www.inkscape.org/) -->

<svg
   xmlns:dc="http://purl.org/dc/elements/1.1/"
   xmlns:cc="http://creativecommons.org/ns#"
   xmlns:rdf="http://www.w3.org/1999/02/22-rdf-syntax-ns#"
   xmlns:svg="http://www.w3.org/2000/svg"
   xmlns="http://www.w3.org/2000/svg"
   xmlns:sodipodi="http://sodipodi.sourceforge.net/DTD/sodipodi-0.dtd"
   xmlns:inkscape="http://www.inkscape.org/namespaces/inkscape"
   width="40.343929mm"
   height="40.343929mm"
   viewBox="0 0 40.343929 40.343929"
   version="1.1"
   id="svg8"
   sodipodi:docname="yes_Snowmobiles.svg"
   inkscape:version="0.92.1 r15371">
  <defs
     id="defs2">
    <path
       d="M 0,0 H 48 V 48 H 0 Z"
       id="a"
       inkscape:connector-curvature="0" />
    <path
       d="M 0,0 H 48 V 48 H 0 Z"
       id="a-8"
       inkscape:connector-curvature="0" />
  </defs>
  <sodipodi:namedview
     id="base"
     pagecolor="#ffffff"
     bordercolor="#666666"
     borderopacity="1.0"
     inkscape:pageopacity="0.0"
     inkscape:pageshadow="2"
     inkscape:zoom="0.24748737"
     inkscape:cx="-1715.1277"
     inkscape:cy="601.41329"
     inkscape:document-units="mm"
     inkscape:current-layer="layer1"
     showgrid="false"
     inkscape:window-width="1632"
     inkscape:window-height="998"
     inkscape:window-x="48"
     inkscape:window-y="30"
     inkscape:window-maximized="1"
     fit-margin-top="0"
     fit-margin-left="0"
     fit-margin-right="0"
     fit-margin-bottom="0"
     showguides="true"
     inkscape:guide-bbox="true" />
  <metadata
     id="metadata5">
    <rdf:RDF>
      <cc:Work
         rdf:about="">
        <dc:format>image/svg+xml</dc:format>
        <dc:type
           rdf:resource="http://purl.org/dc/dcmitype/StillImage" />
        <dc:title />
      </cc:Work>
    </rdf:RDF>
  </metadata>
  <g
     inkscape:label="Ebene 1"
     inkscape:groupmode="layer"
     id="layer1"
     transform="translate(-136.75562,-308.33243)">
    <rect
       style="opacity:1;fill:#000000;fill-opacity:1;fill-rule:nonzero;stroke:none;stroke-width:0.40000001;stroke-linecap:round;stroke-miterlimit:4;stroke-dasharray:none;stroke-opacity:1"
       id="rect4520"
       width="40.343929"
       height="40.343929"
       x="136.75562"
       y="308.33243"
       ry="5.0684252" />
    <g
       transform="matrix(1.1552648,0,0,1.1552648,6.6003551,-111.73525)"
       id="g6044">
      <path
         inkscape:connector-curvature="0"
         style="fill:#ffffff;stroke-width:0.26458332"
         d="m 127.49312,373.61561 c 1.20915,0 2.18493,-0.97578 2.18493,-2.19101 0,-1.20095 -0.97578,-2.18281 -2.18493,-2.18281 -1.20703,0 -2.18493,0.98186 -2.18493,2.18281 0,1.21523 0.9779,2.19101 2.18493,2.19101 z"
         id="path6036" />
      <path
         inkscape:connector-curvature="0"
         style="fill:#ffffff;stroke-width:0.26458332"
         d="m 130.06672,391.27443 h 10.39945 c 0,0 0.67178,0.0455 2.00925,-1.02526 l 2.27991,-1.73831 v 1.96374 l -2.32542,1.73831 c 0,0 -0.6903,0.56224 -1.8542,0.6903 h -11.38132 z"
         id="path6038" />
      <polygon
         style="fill:#ffffff"
         points="50.688,97.504 50.359,97.504 11.039,97.504 7.758,103.66 8.086,103.66 47.406,103.66 "
         id="polygon6040"
         transform="matrix(0.26458333,0,0,0.26458333,113.43925,365.4765)" />
      <path
         inkscape:connector-curvature="0"
         style="fill:#ffffff;stroke-width:0.26458332"
         d="m 128.6176,376.27573 c 0,-1.20703 -0.97763,-2.18889 -2.1889,-2.18889 -1.20914,0 -2.19101,0.98186 -2.19101,2.18889 v 5.3557 c 0,0.67786 0.33285,1.31048 0.82074,1.71159 h -4.89929 l -2.64769,4.80589 c -0.0579,0.10954 -0.0847,0.23151 -0.0847,0.36169 0,0.44026 0.35771,0.79983 0.79798,0.79983 h 18.06204 c 0,0 0.77523,0.12409 1.94522,-0.79375 l 4.69027,-3.4499 -1.77139,-3.0943 c 0,0 -0.39899,-0.74824 -1.89759,-0.97367 l -3.54092,-0.59531 -1.90023,-3.1705 -0.0185,-0.0331 c -0.27702,-0.31617 -0.75645,-0.34925 -1.07289,-0.0765 v 0.006 c -0.22542,0.20664 -0.31009,0.54161 -0.186,0.83926 l 1.41393,2.3503 v 0.0206 l -1.76953,3.00355 -3.56156,-1.35599 V 380.656 h 2.8112 c 0.13652,0.006 0.27914,-0.0124 0.41328,-0.0704 0.53737,-0.20056 0.80195,-0.80196 0.59531,-1.33112 -0.15504,-0.41328 -0.54372,-0.65934 -0.95091,-0.66569 l -2.87126,-0.006 0.002,-2.30717"
         id="path6042" />
    </g>
  </g>
</svg>
