<?xml version="1.0" encoding="UTF-8" standalone="no"?>
<!-- Created with Inkscape (http://www.inkscape.org/) -->

<svg
   xmlns:dc="http://purl.org/dc/elements/1.1/"
   xmlns:cc="http://creativecommons.org/ns#"
   xmlns:rdf="http://www.w3.org/1999/02/22-rdf-syntax-ns#"
   xmlns:svg="http://www.w3.org/2000/svg"
   xmlns="http://www.w3.org/2000/svg"
   xmlns:sodipodi="http://sodipodi.sourceforge.net/DTD/sodipodi-0.dtd"
   xmlns:inkscape="http://www.inkscape.org/namespaces/inkscape"
   width="40.343929mm"
   height="40.343929mm"
   viewBox="0 0 40.343929 40.343929"
   version="1.1"
   id="svg8"
   sodipodi:docname="yes_Recommended_for_kids.svg"
   inkscape:version="0.92.1 r15371">
  <defs
     id="defs2">
    <path
       d="M 0,0 H 48 V 48 H 0 Z"
       id="a"
       inkscape:connector-curvature="0" />
    <path
       d="M 0,0 H 48 V 48 H 0 Z"
       id="a-8"
       inkscape:connector-curvature="0" />
  </defs>
  <sodipodi:namedview
     id="base"
     pagecolor="#ffffff"
     bordercolor="#666666"
     borderopacity="1.0"
     inkscape:pageopacity="0.0"
     inkscape:pageshadow="2"
     inkscape:zoom="0.7"
     inkscape:cx="216.57723"
     inkscape:cy="-23.012012"
     inkscape:document-units="mm"
     inkscape:current-layer="layer1"
     showgrid="false"
     inkscape:window-width="1632"
     inkscape:window-height="998"
     inkscape:window-x="48"
     inkscape:window-y="30"
     inkscape:window-maximized="1"
     fit-margin-top="0"
     fit-margin-left="0"
     fit-margin-right="0"
     fit-margin-bottom="0" />
  <metadata
     id="metadata5">
    <rdf:RDF>
      <cc:Work
         rdf:about="">
        <dc:format>image/svg+xml</dc:format>
        <dc:type
           rdf:resource="http://purl.org/dc/dcmitype/StillImage" />
        <dc:title />
      </cc:Work>
    </rdf:RDF>
  </metadata>
  <g
     inkscape:label="Ebene 1"
     inkscape:groupmode="layer"
     id="layer1"
     transform="translate(-136.74001,-308.33243)">
    <rect
       style="opacity:1;fill:#000000;fill-opacity:1;fill-rule:nonzero;stroke:none;stroke-width:0.40000001;stroke-linecap:round;stroke-miterlimit:4;stroke-dasharray:none;stroke-opacity:1"
       id="rect4520"
       width="40.343929"
       height="40.343929"
       x="136.74001"
       y="308.33243"
       ry="5.0684252" />
    <g
       id="g12649"
       transform="matrix(2.9480531,0,0,2.9480531,-210.18276,-795.53885)"
       style="fill:#ffffff;fill-opacity:1">
      <circle
         style="fill:#ffffff;fill-opacity:1;stroke-width:0.26458332"
         id="circle12643"
         r="0.66145831"
         cy="380.4895"
         cx="125.84399" />
      <circle
         style="fill:#ffffff;fill-opacity:1;stroke-width:0.26458332"
         id="circle12645"
         r="0.66145831"
         cy="380.4895"
         cx="123.19815" />
      <path
         style="fill:#ffffff;fill-opacity:1;stroke-width:0.26458332"
         id="path12647"
         d="m 130.3128,381.63514 c 0.0185,-0.11378 0.0291,-0.23284 0.0291,-0.3519 0,-0.11906 -0.0106,-0.23813 -0.0291,-0.3519 -0.13494,-0.79904 -0.71967,-1.44727 -1.48431,-1.67745 -0.27782,-0.59003 -0.67734,-1.1139 -1.16152,-1.53988 -0.83873,-0.74083 -1.9394,-1.19327 -3.1459,-1.19327 -1.2065,0 -2.30717,0.45244 -3.1459,1.19327 -0.48418,0.42863 -0.88106,0.94985 -1.16152,1.53988 -0.76464,0.22754 -1.34937,0.87577 -1.48431,1.67745 -0.0185,0.11377 -0.0291,0.23284 -0.0291,0.3519 0,0.11906 0.0106,0.23812 0.0291,0.3519 0.13494,0.79904 0.71967,1.44727 1.48431,1.67745 0.27517,0.58473 0.6694,1.10332 1.14829,1.5293 0.84138,0.74612 1.94469,1.20385 3.15913,1.20385 1.21444,0 2.31775,-0.45773 3.15912,-1.20385 0.4789,-0.42598 0.87313,-0.94457 1.1483,-1.5293 0.76464,-0.23018 1.34937,-0.87841 1.48431,-1.67745 z m -2.08756,0.70643 c -0.0529,0 -0.10319,-0.008 -0.15082,-0.0159 -0.10318,0.35189 -0.25929,0.68262 -0.45508,0.98425 -0.6641,1.00806 -1.80446,1.67746 -3.09827,1.67746 -1.29381,0 -2.43417,-0.6694 -3.09563,-1.67746 -0.19843,-0.30163 -0.35189,-0.63236 -0.45508,-0.98425 -0.0503,0.008 -0.10054,0.0159 -0.15346,0.0159 -0.58208,0 -1.05833,-0.47625 -1.05833,-1.05833 0,-0.58208 0.47625,-1.05833 1.05833,-1.05833 0.0529,0 0.10319,0.008 0.15082,0.0159 0.10318,-0.35189 0.25929,-0.68262 0.45508,-0.98425 0.6641,-1.00806 1.80446,-1.67746 3.09827,-1.67746 1.29381,0 2.43417,0.6694 3.09562,1.67746 0.19844,0.30163 0.3519,0.63236 0.45509,0.98425 0.0503,-0.008 0.10054,-0.0159 0.15346,-0.0159 0.58208,0 1.05833,0.47625 1.05833,1.05833 0,0.58208 -0.47625,1.05833 -1.05833,1.05833 z m -6.08542,0 c 0.40217,0.93398 1.31498,1.5875 2.38125,1.5875 1.06627,0 1.97908,-0.65352 2.38125,-1.5875 z"
         inkscape:connector-curvature="0" />
    </g>
  </g>
</svg>
