<?xml version="1.0" encoding="UTF-8" standalone="no"?>
<!-- Created with Inkscape (http://www.inkscape.org/) -->

<svg
   xmlns:dc="http://purl.org/dc/elements/1.1/"
   xmlns:cc="http://creativecommons.org/ns#"
   xmlns:rdf="http://www.w3.org/1999/02/22-rdf-syntax-ns#"
   xmlns:svg="http://www.w3.org/2000/svg"
   xmlns="http://www.w3.org/2000/svg"
   xmlns:sodipodi="http://sodipodi.sourceforge.net/DTD/sodipodi-0.dtd"
   xmlns:inkscape="http://www.inkscape.org/namespaces/inkscape"
   width="40.343929mm"
   height="40.343929mm"
   viewBox="0 0 40.343929 40.343929"
   version="1.1"
   id="svg8"
   sodipodi:docname="yes_Cliff___falling_rocks.svg"
   inkscape:version="0.92.1 r15371">
  <defs
     id="defs2">
    <path
       d="M 0,0 H 48 V 48 H 0 Z"
       id="a"
       inkscape:connector-curvature="0" />
    <path
       d="M 0,0 H 48 V 48 H 0 Z"
       id="a-8"
       inkscape:connector-curvature="0" />
    <inkscape:perspective
       id="perspective17900"
       inkscape:persp3d-origin="61.773502 : 41.179669 : 1"
       inkscape:vp_z="123.54701 : 61.769504 : 1"
       inkscape:vp_y="0 : 1000 : 0"
       inkscape:vp_x="0 : 61.769504 : 1"
       sodipodi:type="inkscape:persp3d" />
    <inkscape:perspective
       id="perspective17900-7"
       inkscape:persp3d-origin="61.773502 : 41.179669 : 1"
       inkscape:vp_z="123.54701 : 61.769504 : 1"
       inkscape:vp_y="0 : 1000 : 0"
       inkscape:vp_x="0 : 61.769504 : 1"
       sodipodi:type="inkscape:persp3d" />
    <inkscape:perspective
       id="perspective5302"
       inkscape:persp3d-origin="372.04726 : 350.78741 : 1"
       inkscape:vp_z="744.09451 : 526.18111 : 1"
       inkscape:vp_y="0 : 1000 : 0"
       inkscape:vp_x="0 : 526.18111 : 1"
       sodipodi:type="inkscape:persp3d" />
    <inkscape:perspective
       id="perspective5302-6"
       inkscape:persp3d-origin="372.04726 : 350.78741 : 1"
       inkscape:vp_z="744.09451 : 526.18111 : 1"
       inkscape:vp_y="0 : 1000 : 0"
       inkscape:vp_x="0 : 526.18111 : 1"
       sodipodi:type="inkscape:persp3d" />
  </defs>
  <sodipodi:namedview
     id="base"
     pagecolor="#ffffff"
     bordercolor="#666666"
     borderopacity="1.0"
     inkscape:pageopacity="0.0"
     inkscape:pageshadow="2"
     inkscape:zoom="0.7"
     inkscape:cx="-315.63199"
     inkscape:cy="28.206632"
     inkscape:document-units="mm"
     inkscape:current-layer="layer1"
     showgrid="false"
     inkscape:window-width="1632"
     inkscape:window-height="998"
     inkscape:window-x="48"
     inkscape:window-y="30"
     inkscape:window-maximized="1"
     fit-margin-top="0"
     fit-margin-left="0"
     fit-margin-right="0"
     fit-margin-bottom="0"
     showguides="true"
     inkscape:guide-bbox="true" />
  <metadata
     id="metadata5">
    <rdf:RDF>
      <cc:Work
         rdf:about="">
        <dc:format>image/svg+xml</dc:format>
        <dc:type
           rdf:resource="http://purl.org/dc/dcmitype/StillImage" />
        <dc:title />
      </cc:Work>
    </rdf:RDF>
  </metadata>
  <g
     inkscape:label="Ebene 1"
     inkscape:groupmode="layer"
     id="layer1"
     transform="translate(-136.75562,-308.16345)">
    <rect
       style="opacity:1;fill:#000000;fill-opacity:1;fill-rule:nonzero;stroke:none;stroke-width:0.40000001;stroke-linecap:round;stroke-miterlimit:4;stroke-dasharray:none;stroke-opacity:1"
       id="rect4520"
       width="40.343929"
       height="40.343929"
       x="136.75562"
       y="308.16345"
       ry="5.0684252" />
    <g
       transform="matrix(0.66446624,0,0,0.66446624,76.421124,81.693837)"
       id="g7645">
      <g
         id="g7615"
         transform="matrix(6.8521328,0,0,-6.8521328,117.50698,352.25821)">
        <path
           inkscape:connector-curvature="0"
           d="M 0,0 0.479,0.223 0.256,0.699 -0.221,0.479 Z"
           style="fill:#ffffff;fill-opacity:1;fill-rule:nonzero;stroke:none"
           id="path7613" />
      </g>
      <g
         id="g7619"
         transform="matrix(6.8521328,0,0,-6.8521328,116.06192,355.0285)">
        <path
           inkscape:connector-curvature="0"
           d="m 0,0 -0.789,0.266 -0.268,-0.789 0.791,-0.266 z"
           style="fill:#ffffff;fill-opacity:1;fill-rule:nonzero;stroke:none"
           id="path7617" />
      </g>
      <g
         id="g7623"
         transform="matrix(6.8521328,0,0,-6.8521328,116.10239,357.29036)">
        <path
           inkscape:connector-curvature="0"
           d="M 0,0 1.443,0.135 1.564,-1.24 0.525,-1.363 0.104,-0.803 Z"
           style="fill:#ffffff;fill-opacity:1;fill-rule:nonzero;stroke:none"
           id="path7621" />
      </g>
      <g
         id="g7627"
         transform="matrix(6.8521328,0,0,-6.8521328,128.30733,373.05575)">
        <path
           inkscape:connector-curvature="0"
           d="m 0,0 0.502,-0.305 0.291,0.053 0.344,0.568 V 0.33 L 0.635,0.635 0.344,0.582 0,0.014 Z"
           style="fill:#ffffff;fill-opacity:1;fill-rule:nonzero;stroke:none"
           id="path7625" />
      </g>
      <g
         id="g7631"
         transform="matrix(6.8521328,0,0,-6.8521328,129.76619,377.9132)">
        <path
           inkscape:connector-curvature="0"
           d="M 0,0 0.932,-0.125 0.813,-1.078 0.152,-0.984 -0.094,-0.508 Z"
           style="fill:#ffffff;fill-opacity:1;fill-rule:nonzero;stroke:none"
           id="path7629" />
      </g>
      <g
         id="g7635"
         transform="matrix(6.8521328,0,0,-6.8521328,123.38278,378.48878)">
        <path
           inkscape:connector-curvature="0"
           d="M 0,0 -2.521,3.047 -3.068,4.391 -3.6,4.553 -3.598,-2.078 c 0,-0.184 0.149,-0.332 0.332,-0.332 L 1.268,-2.406 0.896,-1.084 0,0"
           style="fill:#ffffff;fill-opacity:1;fill-rule:nonzero;stroke:none"
           id="path7633" />
      </g>
      <g
         id="g7639"
         transform="matrix(6.8521328,0,0,-6.8521328,120.8399,371.22223)">
        <path
           inkscape:connector-curvature="0"
           d="M 0,0 0.219,0.164 -0.092,0.576 -0.303,0.418 V 0 Z"
           style="fill:#ffffff;fill-opacity:1;fill-rule:nonzero;stroke:none"
           id="path7637" />
      </g>
      <g
         id="g7643"
         transform="matrix(6.8521328,0,0,-6.8521328,143.60408,395.08404)">
        <path
           inkscape:connector-curvature="0"
           d="M 0,0 H -0.822 V 0.584 L -0.486,0.922 0,0.551 Z"
           style="fill:#ffffff;fill-opacity:1;fill-rule:nonzero;stroke:none"
           id="path7641" />
      </g>
    </g>
  </g>
</svg>
