<?xml version="1.0" encoding="UTF-8" standalone="no"?>
<!-- Created with Inkscape (http://www.inkscape.org/) -->

<svg
   xmlns:dc="http://purl.org/dc/elements/1.1/"
   xmlns:cc="http://creativecommons.org/ns#"
   xmlns:rdf="http://www.w3.org/1999/02/22-rdf-syntax-ns#"
   xmlns:svg="http://www.w3.org/2000/svg"
   xmlns="http://www.w3.org/2000/svg"
   xmlns:sodipodi="http://sodipodi.sourceforge.net/DTD/sodipodi-0.dtd"
   xmlns:inkscape="http://www.inkscape.org/namespaces/inkscape"
   width="40.343929mm"
   height="40.343929mm"
   viewBox="0 0 40.343929 40.343929"
   version="1.1"
   id="svg8"
   sodipodi:docname="yes_Takes_less_than_an_hour.svg"
   inkscape:version="0.92.1 r15371">
  <defs
     id="defs2">
    <path
       d="M 0,0 H 48 V 48 H 0 Z"
       id="a"
       inkscape:connector-curvature="0" />
    <path
       d="M 0,0 H 48 V 48 H 0 Z"
       id="a-8"
       inkscape:connector-curvature="0" />
  </defs>
  <sodipodi:namedview
     id="base"
     pagecolor="#ffffff"
     bordercolor="#666666"
     borderopacity="1.0"
     inkscape:pageopacity="0.0"
     inkscape:pageshadow="2"
     inkscape:zoom="0.98994949"
     inkscape:cx="215.10622"
     inkscape:cy="-47.630137"
     inkscape:document-units="mm"
     inkscape:current-layer="layer1"
     showgrid="false"
     inkscape:window-width="1632"
     inkscape:window-height="998"
     inkscape:window-x="48"
     inkscape:window-y="30"
     inkscape:window-maximized="1"
     fit-margin-top="0"
     fit-margin-left="0"
     fit-margin-right="0"
     fit-margin-bottom="0" />
  <metadata
     id="metadata5">
    <rdf:RDF>
      <cc:Work
         rdf:about="">
        <dc:format>image/svg+xml</dc:format>
        <dc:type
           rdf:resource="http://purl.org/dc/dcmitype/StillImage" />
        <dc:title />
      </cc:Work>
    </rdf:RDF>
  </metadata>
  <g
     inkscape:label="Ebene 1"
     inkscape:groupmode="layer"
     id="layer1"
     transform="translate(-136.74001,-308.33243)">
    <rect
       style="opacity:1;fill:#000000;fill-opacity:1;fill-rule:nonzero;stroke:none;stroke-width:0.40000001;stroke-linecap:round;stroke-miterlimit:4;stroke-dasharray:none;stroke-opacity:1"
       id="rect4520"
       width="40.343929"
       height="40.343929"
       x="136.74001"
       y="308.33243"
       ry="5.0684252" />
    <path
       inkscape:connector-curvature="0"
       d="m 163.18996,322.2264 c -1.73236,-1.73241 -3.99775,-2.60598 -6.27799,-2.60598 v 8.88397 l -6.27798,6.27798 c 3.46472,3.46478 9.09125,3.46478 12.5708,0 3.46472,-3.46471 3.46472,-9.09124 -0.0168,-12.55597 z m -6.27799,-8.5286 c -8.17325,0 -14.80659,6.63334 -14.80659,14.80659 0,8.17325 6.63334,14.8066 14.80659,14.8066 8.17325,0 14.8066,-6.63335 14.8066,-14.8066 0,-8.17325 -6.63335,-14.80659 -14.8066,-14.80659 z m 0,26.6519 c -6.54453,0 -11.8453,-5.30078 -11.8453,-11.84531 0,-6.54453 5.30077,-11.84531 11.8453,-11.84531 6.54454,0 11.84531,5.30078 11.84531,11.84531 0,6.54453 -5.30077,11.84531 -11.84531,11.84531 z"
       id="path14707"
       style="fill:#ffffff;fill-opacity:1;stroke-width:1.48066115" />
  </g>
</svg>
