<?xml version="1.0" encoding="UTF-8" standalone="no"?>
<!-- Created with Inkscape (http://www.inkscape.org/) -->

<svg
   xmlns:dc="http://purl.org/dc/elements/1.1/"
   xmlns:cc="http://creativecommons.org/ns#"
   xmlns:rdf="http://www.w3.org/1999/02/22-rdf-syntax-ns#"
   xmlns:svg="http://www.w3.org/2000/svg"
   xmlns="http://www.w3.org/2000/svg"
   xmlns:sodipodi="http://sodipodi.sourceforge.net/DTD/sodipodi-0.dtd"
   xmlns:inkscape="http://www.inkscape.org/namespaces/inkscape"
   width="40.343929mm"
   height="40.343929mm"
   viewBox="0 0 40.343929 40.343929"
   version="1.1"
   id="svg8"
   sodipodi:docname="yes_Ticks.svg"
   inkscape:version="0.92.1 r15371">
  <defs
     id="defs2">
    <path
       d="M 0,0 H 48 V 48 H 0 Z"
       id="a"
       inkscape:connector-curvature="0" />
    <path
       d="M 0,0 H 48 V 48 H 0 Z"
       id="a-8"
       inkscape:connector-curvature="0" />
    <path
       d="M 0,0 H 48 V 48 H 0 Z"
       id="a-6"
       inkscape:connector-curvature="0" />
    <path
       d="M 0,0 H 48 V 48 H 0 Z"
       id="a-89"
       inkscape:connector-curvature="0" />
    <path
       d="M 0,0 H 48 V 48 H 0 Z"
       id="a-0"
       inkscape:connector-curvature="0" />
    <path
       d="M 0,0 H 48 V 48 H 0 Z"
       id="a-9"
       inkscape:connector-curvature="0" />
  </defs>
  <sodipodi:namedview
     id="base"
     pagecolor="#ffffff"
     bordercolor="#666666"
     borderopacity="1.0"
     inkscape:pageopacity="0.0"
     inkscape:pageshadow="2"
     inkscape:zoom="0.24748737"
     inkscape:cx="-1349.0345"
     inkscape:cy="86.925374"
     inkscape:document-units="mm"
     inkscape:current-layer="layer1"
     showgrid="false"
     inkscape:window-width="1632"
     inkscape:window-height="998"
     inkscape:window-x="48"
     inkscape:window-y="30"
     inkscape:window-maximized="1"
     fit-margin-top="0"
     fit-margin-left="0"
     fit-margin-right="0"
     fit-margin-bottom="0" />
  <metadata
     id="metadata5">
    <rdf:RDF>
      <cc:Work
         rdf:about="">
        <dc:format>image/svg+xml</dc:format>
        <dc:type
           rdf:resource="http://purl.org/dc/dcmitype/StillImage" />
        <dc:title />
      </cc:Work>
    </rdf:RDF>
  </metadata>
  <g
     inkscape:label="Ebene 1"
     inkscape:groupmode="layer"
     id="layer1"
     transform="translate(-135.66096,-306.67932)">
    <rect
       style="opacity:1;fill:#000000;fill-opacity:1;fill-rule:nonzero;stroke:none;stroke-width:0.40000001;stroke-linecap:round;stroke-miterlimit:4;stroke-dasharray:none;stroke-opacity:1"
       id="rect4520"
       width="40.343929"
       height="40.343929"
       x="135.66096"
       y="306.67932"
       ry="5.0684252" />
    <path
       inkscape:connector-curvature="0"
       d="m 168.50774,320.51388 h -4.45203 c -0.71294,-1.2358 -1.69527,-2.3052 -2.87561,-3.10531 l 2.57458,-2.57458 -2.24185,-2.24185 -3.44597,3.44597 c -0.71294,-0.17426 -1.46553,-0.27725 -2.23392,-0.27725 -0.76842,0 -1.52097,0.10298 -2.23395,0.27725 l -3.44596,-3.44597 -2.24186,2.24185 2.57458,2.57458 c -1.18034,0.80011 -2.16263,1.86951 -2.8756,3.10531 h -4.45203 v 3.16872 h 3.3113 c -0.0871,0.51492 -0.14252,1.04567 -0.14252,1.58433 v 1.58436 h -3.16872 v 3.16868 h 3.16872 v 1.58437 c 0,0.53869 0.0554,1.06944 0.14252,1.58436 h -3.3113 v 3.16869 h 4.45203 c 1.63981,2.83598 4.70554,4.75304 8.22279,4.75304 3.51726,0 6.58295,-1.91706 8.22277,-4.75304 h 4.45203 v -3.16869 h -3.3113 c 0.0872,-0.51492 0.14251,-1.04567 0.14251,-1.58436 v -1.58437 h 3.16869 v -3.16868 h -3.16869 v -1.58436 c 0,-0.53866 -0.0554,-1.06941 -0.14251,-1.58433 h 3.3113 z m -9.50611,12.67482 h -6.33741 v -3.16873 h 6.33741 z m 0,-6.33741 h -6.33741 v -3.16869 h 6.33741 z"
       id="path18652"
       style="fill:#ffffff;fill-opacity:1;stroke-width:0.79217488" />
  </g>
</svg>
