<?xml version="1.0" encoding="UTF-8" standalone="no"?>
<!-- Created with Inkscape (http://www.inkscape.org/) -->

<svg
   xmlns:dc="http://purl.org/dc/elements/1.1/"
   xmlns:cc="http://creativecommons.org/ns#"
   xmlns:rdf="http://www.w3.org/1999/02/22-rdf-syntax-ns#"
   xmlns:svg="http://www.w3.org/2000/svg"
   xmlns="http://www.w3.org/2000/svg"
   xmlns:sodipodi="http://sodipodi.sourceforge.net/DTD/sodipodi-0.dtd"
   xmlns:inkscape="http://www.inkscape.org/namespaces/inkscape"
   width="40.343929mm"
   height="40.343929mm"
   viewBox="0 0 40.343929 40.343929"
   version="1.1"
   id="svg8"
   sodipodi:docname="yes_Available_during_winter.svg"
   inkscape:version="0.92.1 r15371">
  <defs
     id="defs2">
    <path
       d="M 0,0 H 48 V 48 H 0 Z"
       id="a"
       inkscape:connector-curvature="0" />
    <path
       d="M 0,0 H 48 V 48 H 0 Z"
       id="a-8"
       inkscape:connector-curvature="0" />
  </defs>
  <sodipodi:namedview
     id="base"
     pagecolor="#ffffff"
     bordercolor="#666666"
     borderopacity="1.0"
     inkscape:pageopacity="0.0"
     inkscape:pageshadow="2"
     inkscape:zoom="0.98994949"
     inkscape:cx="214.94262"
     inkscape:cy="5.6367923"
     inkscape:document-units="mm"
     inkscape:current-layer="layer1"
     showgrid="false"
     inkscape:window-width="1632"
     inkscape:window-height="998"
     inkscape:window-x="48"
     inkscape:window-y="30"
     inkscape:window-maximized="1"
     fit-margin-top="0"
     fit-margin-left="0"
     fit-margin-right="0"
     fit-margin-bottom="0" />
  <metadata
     id="metadata5">
    <rdf:RDF>
      <cc:Work
         rdf:about="">
        <dc:format>image/svg+xml</dc:format>
        <dc:type
           rdf:resource="http://purl.org/dc/dcmitype/StillImage" />
        <dc:title />
      </cc:Work>
    </rdf:RDF>
  </metadata>
  <g
     inkscape:label="Ebene 1"
     inkscape:groupmode="layer"
     id="layer1"
     transform="translate(-136.74001,-308.33243)">
    <rect
       style="opacity:1;fill:#000000;fill-opacity:1;fill-rule:nonzero;stroke:none;stroke-width:0.40000001;stroke-linecap:round;stroke-miterlimit:4;stroke-dasharray:none;stroke-opacity:1"
       id="rect4520"
       width="40.343929"
       height="40.343929"
       x="136.74001"
       y="308.33243"
       ry="5.0684252" />
    <path
       style="fill:#ffffff;fill-opacity:1;stroke-width:0.74566811"
       id="path11406"
       d="m 171.82535,327.01305 h -6.21889 l 4.83193,-4.83937 -2.11023,-2.1028 -6.94217,6.94217 h -2.98267 v -2.98266 l 6.94217,-6.94217 -2.1028,-2.11024 -4.83937,4.83193 v -6.21889 h -2.98269 v 6.21889 l -4.83937,-4.83193 -2.1028,2.11024 6.94217,6.94217 v 2.98266 h -2.98266 l -6.94217,-6.94217 -2.11024,2.1028 4.83193,4.83937 h -6.21889 v 2.98269 h 6.21889 l -4.83193,4.83937 2.11024,2.1028 6.94217,-6.94217 h 2.98266 v 2.98266 l -6.94217,6.94217 2.1028,2.11024 4.83937,-4.83193 v 6.21889 h 2.98269 v -6.21889 l 4.83937,4.83193 2.1028,-2.11024 -6.94217,-6.94217 v -2.98266 h 2.98267 l 6.94217,6.94217 2.11023,-2.1028 -4.83193,-4.83937 h 6.21889 z"
       inkscape:connector-curvature="0" />
  </g>
</svg>
