<?xml version="1.0" encoding="UTF-8" standalone="no"?>
<!-- Created with Inkscape (http://www.inkscape.org/) -->

<svg
   xmlns:dc="http://purl.org/dc/elements/1.1/"
   xmlns:cc="http://creativecommons.org/ns#"
   xmlns:rdf="http://www.w3.org/1999/02/22-rdf-syntax-ns#"
   xmlns:svg="http://www.w3.org/2000/svg"
   xmlns="http://www.w3.org/2000/svg"
   xmlns:sodipodi="http://sodipodi.sourceforge.net/DTD/sodipodi-0.dtd"
   xmlns:inkscape="http://www.inkscape.org/namespaces/inkscape"
   width="40.343929mm"
   height="40.343929mm"
   viewBox="0 0 40.343929 40.343929"
   version="1.1"
   id="svg8"
   sodipodi:docname="yes_Truck_Driver_RV.svg"
   inkscape:version="0.92.1 r15371">
  <defs
     id="defs2">
    <path
       d="M 0,0 H 48 V 48 H 0 Z"
       id="a"
       inkscape:connector-curvature="0" />
    <path
       d="M 0,0 H 48 V 48 H 0 Z"
       id="a-8"
       inkscape:connector-curvature="0" />
    <path
       d="M 0,0 H 48 V 48 H 0 Z"
       id="a-6"
       inkscape:connector-curvature="0" />
  </defs>
  <sodipodi:namedview
     id="base"
     pagecolor="#ffffff"
     bordercolor="#666666"
     borderopacity="1.0"
     inkscape:pageopacity="0.0"
     inkscape:pageshadow="2"
     inkscape:zoom="0.98994949"
     inkscape:cx="379.64733"
     inkscape:cy="-47.630287"
     inkscape:document-units="mm"
     inkscape:current-layer="layer1"
     showgrid="false"
     inkscape:window-width="1632"
     inkscape:window-height="998"
     inkscape:window-x="48"
     inkscape:window-y="30"
     inkscape:window-maximized="1"
     fit-margin-top="0"
     fit-margin-left="0"
     fit-margin-right="0"
     fit-margin-bottom="0" />
  <metadata
     id="metadata5">
    <rdf:RDF>
      <cc:Work
         rdf:about="">
        <dc:format>image/svg+xml</dc:format>
        <dc:type
           rdf:resource="http://purl.org/dc/dcmitype/StillImage" />
        <dc:title />
      </cc:Work>
    </rdf:RDF>
  </metadata>
  <g
     inkscape:label="Ebene 1"
     inkscape:groupmode="layer"
     id="layer1"
     transform="translate(-136.74001,-308.33243)">
    <rect
       style="opacity:1;fill:#000000;fill-opacity:1;fill-rule:nonzero;stroke:none;stroke-width:0.40000001;stroke-linecap:round;stroke-miterlimit:4;stroke-dasharray:none;stroke-opacity:1"
       id="rect4520"
       width="40.343929"
       height="40.343929"
       x="136.74001"
       y="308.33243"
       ry="5.0684252" />
    <g
       transform="matrix(1.2421019,0,0,1.2421019,-15.358204,-141.26117)"
       id="g5227">
      <path
         inkscape:connector-curvature="0"
         style="fill:#ffffff;stroke-width:0.26458332"
         d="m 133.51042,383.62514 h -5.29166 c -1.83356,0 -3.31973,-1.48405 -3.31973,-3.32184 l -0.006,-5.8002 c 0,-2.49079 2.01533,-4.50823 4.50215,-4.50823 h 15.32069 c 2.48656,0 4.50824,2.01744 4.50824,4.50823 l 0.006,8.19177 h 2.34395 c 0.50429,0 0.91784,0.41962 0.91784,0.92392 h -11.89567 c -0.11774,-1.86028 -1.65153,-3.33825 -3.54303,-3.33825 -1.89336,0 -3.42715,1.47797 -3.54278,3.3446 z m 12.01156,-7.37738 c 0.51673,0 0.93027,-0.41963 0.93027,-0.93027 v -1.54411 c 0,-0.51065 -0.41328,-0.93027 -0.93027,-0.93027 h -3.2266 c -0.51461,0 -0.93027,0.41962 -0.93027,0.93027 v 1.54411 c 0,0.51064 0.4154,0.93027 0.93027,0.93027 z m -9.23766,0.006 c 0.51276,0 0.93027,-0.41963 0.93027,-0.93028 v -1.55019 c 0,-0.51065 -0.41751,-0.93027 -0.93027,-0.93027 h -6.99903 c -0.51461,0 -0.93027,0.41962 -0.93027,0.93027 v 1.55019 c 0,0.51065 0.41539,0.93028 0.93027,0.93028 z"
         id="path5223" />
      <path
         inkscape:connector-curvature="0"
         style="fill:#ffffff;stroke-width:0.26458332"
         d="m 134.49441,383.85242 c 0,-1.41605 1.143,-2.56117 2.55905,-2.56117 1.41393,0 2.55693,1.14512 2.55693,2.56117 0,1.40758 -1.143,2.55693 -2.55693,2.55693 -1.41605,0 -2.55905,-1.14935 -2.55905,-2.55693 z m 2.55879,1.10384 c 0.61171,0 1.10992,-0.49001 1.10992,-1.10384 0,-0.61384 -0.49821,-1.11205 -1.10992,-1.11205 -0.61172,0 -1.10808,0.49821 -1.10808,1.11205 0,0.61383 0.49636,1.10384 1.10808,1.10384 z"
         id="path5225" />
    </g>
  </g>
</svg>
