<?xml version="1.0" encoding="UTF-8" standalone="no"?>
<!-- Created with Inkscape (http://www.inkscape.org/) -->

<svg
   xmlns:dc="http://purl.org/dc/elements/1.1/"
   xmlns:cc="http://creativecommons.org/ns#"
   xmlns:rdf="http://www.w3.org/1999/02/22-rdf-syntax-ns#"
   xmlns:svg="http://www.w3.org/2000/svg"
   xmlns="http://www.w3.org/2000/svg"
   xmlns:sodipodi="http://sodipodi.sourceforge.net/DTD/sodipodi-0.dtd"
   xmlns:inkscape="http://www.inkscape.org/namespaces/inkscape"
   width="40.343929mm"
   height="40.343929mm"
   viewBox="0 0 40.343929 40.343929"
   version="1.1"
   id="svg8"
   sodipodi:docname="yes_Significant_Hike.svg"
   inkscape:version="0.92.1 r15371">
  <defs
     id="defs2">
    <path
       d="M 0,0 H 48 V 48 H 0 Z"
       id="a"
       inkscape:connector-curvature="0" />
    <path
       d="M 0,0 H 48 V 48 H 0 Z"
       id="a-8"
       inkscape:connector-curvature="0" />
  </defs>
  <sodipodi:namedview
     id="base"
     pagecolor="#ffffff"
     bordercolor="#666666"
     borderopacity="1.0"
     inkscape:pageopacity="0.0"
     inkscape:pageshadow="2"
     inkscape:zoom="0.98994949"
     inkscape:cx="-3.5355455"
     inkscape:cy="5.6369842"
     inkscape:document-units="mm"
     inkscape:current-layer="layer1"
     showgrid="false"
     inkscape:window-width="1632"
     inkscape:window-height="998"
     inkscape:window-x="48"
     inkscape:window-y="30"
     inkscape:window-maximized="1"
     fit-margin-top="0"
     fit-margin-left="0"
     fit-margin-right="0"
     fit-margin-bottom="0" />
  <metadata
     id="metadata5">
    <rdf:RDF>
      <cc:Work
         rdf:about="">
        <dc:format>image/svg+xml</dc:format>
        <dc:type
           rdf:resource="http://purl.org/dc/dcmitype/StillImage" />
        <dc:title />
      </cc:Work>
    </rdf:RDF>
  </metadata>
  <g
     inkscape:label="Ebene 1"
     inkscape:groupmode="layer"
     id="layer1"
     transform="translate(-136.28093,-308.33243)">
    <rect
       style="opacity:1;fill:#000000;fill-opacity:1;fill-rule:nonzero;stroke:none;stroke-width:0.40000001;stroke-linecap:round;stroke-miterlimit:4;stroke-dasharray:none;stroke-opacity:1"
       id="rect4520"
       width="40.343929"
       height="40.343929"
       x="136.28093"
       y="308.33243"
       ry="5.0684252" />
    <path
       style="fill:#ffffff;fill-opacity:1;stroke-width:0.73696637"
       inkscape:connector-curvature="0"
       clip-path="url(#b)"
       d="m 157.92682,318.55535 c 1.62132,0 2.94786,-1.32654 2.94786,-2.94786 0,-1.62134 -1.32654,-2.94788 -2.94786,-2.94788 -1.62131,0 -2.94785,1.32654 -2.94785,2.94788 0,1.62132 1.32654,2.94786 2.94785,2.94786 z m -5.52726,5.01138 -4.05329,20.78245 h 3.09526 l 2.57938,-11.79148 3.16896,2.94789 v 8.84359 h 2.94785 v -11.12819 l -3.02155,-3.02156 0.88436,-4.4218 c 1.91609,2.35827 4.79027,3.83222 8.03293,3.83222 v -2.94786 c -2.72678,0 -5.08508,-1.47394 -6.41162,-3.61114 l -1.40024,-2.3583 c -0.51588,-0.88436 -1.47391,-1.40024 -2.50567,-1.40024 -0.36848,0 -0.73696,0.0738 -1.10547,0.22116 l -7.73813,3.16896 v 6.92747 h 2.94785 v -4.93768 l 2.57938,-1.10543"
       id="path9799" />
  </g>
</svg>
