<?xml version="1.0" encoding="UTF-8" standalone="no"?>
<!-- Created with Inkscape (http://www.inkscape.org/) -->

<svg
   xmlns:dc="http://purl.org/dc/elements/1.1/"
   xmlns:cc="http://creativecommons.org/ns#"
   xmlns:rdf="http://www.w3.org/1999/02/22-rdf-syntax-ns#"
   xmlns:svg="http://www.w3.org/2000/svg"
   xmlns="http://www.w3.org/2000/svg"
   xmlns:sodipodi="http://sodipodi.sourceforge.net/DTD/sodipodi-0.dtd"
   xmlns:inkscape="http://www.inkscape.org/namespaces/inkscape"
   width="40.343929mm"
   height="40.343929mm"
   viewBox="0 0 40.343929 40.343929"
   version="1.1"
   id="svg8"
   sodipodi:docname="yes_Wheelchair_accessible.svg"
   inkscape:version="0.92.1 r15371">
  <defs
     id="defs2">
    <path
       d="M 0,0 H 48 V 48 H 0 Z"
       id="a"
       inkscape:connector-curvature="0" />
    <path
       d="M 0,0 H 48 V 48 H 0 Z"
       id="a-8"
       inkscape:connector-curvature="0" />
    <path
       d="M 0,0 H 48 V 48 H 0 Z"
       id="a-6"
       inkscape:connector-curvature="0" />
    <path
       d="M 0,0 H 48 V 48 H 0 Z"
       id="a-89"
       inkscape:connector-curvature="0" />
    <path
       d="M 0,0 H 48 V 48 H 0 Z"
       id="a-0"
       inkscape:connector-curvature="0" />
  </defs>
  <sodipodi:namedview
     id="base"
     pagecolor="#ffffff"
     bordercolor="#666666"
     borderopacity="1.0"
     inkscape:pageopacity="0.0"
     inkscape:pageshadow="2"
     inkscape:zoom="0.7"
     inkscape:cx="196.89322"
     inkscape:cy="21.941594"
     inkscape:document-units="mm"
     inkscape:current-layer="layer1"
     showgrid="false"
     inkscape:window-width="1632"
     inkscape:window-height="998"
     inkscape:window-x="48"
     inkscape:window-y="30"
     inkscape:window-maximized="1"
     fit-margin-top="0"
     fit-margin-left="0"
     fit-margin-right="0"
     fit-margin-bottom="0" />
  <metadata
     id="metadata5">
    <rdf:RDF>
      <cc:Work
         rdf:about="">
        <dc:format>image/svg+xml</dc:format>
        <dc:type
           rdf:resource="http://purl.org/dc/dcmitype/StillImage" />
        <dc:title />
      </cc:Work>
    </rdf:RDF>
  </metadata>
  <g
     inkscape:label="Ebene 1"
     inkscape:groupmode="layer"
     id="layer1"
     transform="translate(-136.7377,-308.33243)">
    <rect
       style="opacity:1;fill:#000000;fill-opacity:1;fill-rule:nonzero;stroke:none;stroke-width:0.40000001;stroke-linecap:round;stroke-miterlimit:4;stroke-dasharray:none;stroke-opacity:1"
       id="rect4520"
       width="40.343929"
       height="40.343929"
       x="136.7377"
       y="308.33243"
       ry="5.0684252" />
    <g
       id="g16217"
       transform="matrix(2.999999,0,0,2.999999,-147.10609,-847.6601)"
       style="fill:#ffffff;fill-opacity:1">
      <circle
         style="fill:#ffffff;fill-opacity:1;stroke-width:0.26458332"
         id="circle16213"
         r="1.0583333"
         cy="387.82162"
         cx="101.33849" />
      <path
         style="fill:#ffffff;fill-opacity:1;stroke-width:0.26458332"
         id="path16215"
         d="m 105.04265,392.58413 v -1.05834 c -0.81227,0.0106 -1.63512,-0.39687 -2.15371,-0.97102 l -0.68527,-0.75671 c -0.0926,-0.10054 -0.20373,-0.17991 -0.32279,-0.24077 -0.005,-0.003 -0.008,-0.005 -0.0106,-0.008 h -0.005 c -0.18257,-0.10584 -0.39953,-0.15875 -0.62971,-0.13494 -0.55034,0.0529 -0.95515,0.54769 -0.95515,1.10066 v 3.12738 c 0,0.58473 0.47361,1.05833 1.05833,1.05833 h 2.64584 v 2.64584 h 1.05833 v -2.91042 c 0,-0.58473 -0.4736,-1.05833 -1.05833,-1.05833 h -1.5875 v -1.82563 c 0.68262,0.56356 1.71714,1.02923 2.64583,1.03188 z m -3.2676,2.64583 c -0.21696,0.61648 -0.80434,1.05833 -1.4949,1.05833 -0.875769,0 -1.587498,-0.71173 -1.587498,-1.5875 0,-0.69056 0.441854,-1.27793 1.058333,-1.49489 v -1.09802 c -1.2065,0.24606 -2.116667,1.31233 -2.116667,2.59291 0,1.4605 1.185334,2.64584 2.645832,2.64584 1.28058,0 2.34686,-0.91017 2.59292,-2.11667 z"
         inkscape:connector-curvature="0" />
    </g>
  </g>
</svg>
