<?xml version="1.0" encoding="UTF-8" standalone="no"?>
<!-- Created with Inkscape (http://www.inkscape.org/) -->

<svg
   xmlns:dc="http://purl.org/dc/elements/1.1/"
   xmlns:cc="http://creativecommons.org/ns#"
   xmlns:rdf="http://www.w3.org/1999/02/22-rdf-syntax-ns#"
   xmlns:svg="http://www.w3.org/2000/svg"
   xmlns="http://www.w3.org/2000/svg"
   xmlns:sodipodi="http://sodipodi.sourceforge.net/DTD/sodipodi-0.dtd"
   xmlns:inkscape="http://www.inkscape.org/namespaces/inkscape"
   width="40.343929mm"
   height="40.343929mm"
   viewBox="0 0 40.343929 40.343929"
   version="1.1"
   id="svg8"
   sodipodi:docname="yes_Hunting.svg"
   inkscape:version="0.92.1 r15371">
  <defs
     id="defs2">
    <path
       d="M 0,0 H 48 V 48 H 0 Z"
       id="a"
       inkscape:connector-curvature="0" />
    <path
       d="M 0,0 H 48 V 48 H 0 Z"
       id="a-8"
       inkscape:connector-curvature="0" />
    <inkscape:perspective
       id="perspective17900"
       inkscape:persp3d-origin="61.773502 : 41.179669 : 1"
       inkscape:vp_z="123.54701 : 61.769504 : 1"
       inkscape:vp_y="0 : 1000 : 0"
       inkscape:vp_x="0 : 61.769504 : 1"
       sodipodi:type="inkscape:persp3d" />
    <inkscape:perspective
       id="perspective17900-7"
       inkscape:persp3d-origin="61.773502 : 41.179669 : 1"
       inkscape:vp_z="123.54701 : 61.769504 : 1"
       inkscape:vp_y="0 : 1000 : 0"
       inkscape:vp_x="0 : 61.769504 : 1"
       sodipodi:type="inkscape:persp3d" />
    <inkscape:perspective
       id="perspective5302"
       inkscape:persp3d-origin="372.04726 : 350.78741 : 1"
       inkscape:vp_z="744.09451 : 526.18111 : 1"
       inkscape:vp_y="0 : 1000 : 0"
       inkscape:vp_x="0 : 526.18111 : 1"
       sodipodi:type="inkscape:persp3d" />
    <inkscape:perspective
       id="perspective5302-6"
       inkscape:persp3d-origin="372.04726 : 350.78741 : 1"
       inkscape:vp_z="744.09451 : 526.18111 : 1"
       inkscape:vp_y="0 : 1000 : 0"
       inkscape:vp_x="0 : 526.18111 : 1"
       sodipodi:type="inkscape:persp3d" />
    <inkscape:perspective
       id="perspective5302-1"
       inkscape:persp3d-origin="372.04726 : 350.78741 : 1"
       inkscape:vp_z="744.09451 : 526.18111 : 1"
       inkscape:vp_y="0 : 1000 : 0"
       inkscape:vp_x="0 : 526.18111 : 1"
       sodipodi:type="inkscape:persp3d" />
  </defs>
  <sodipodi:namedview
     id="base"
     pagecolor="#ffffff"
     bordercolor="#666666"
     borderopacity="1.0"
     inkscape:pageopacity="0.0"
     inkscape:pageshadow="2"
     inkscape:zoom="0.98994949"
     inkscape:cx="-115.04086"
     inkscape:cy="256.22636"
     inkscape:document-units="mm"
     inkscape:current-layer="layer1"
     showgrid="false"
     inkscape:window-width="1632"
     inkscape:window-height="998"
     inkscape:window-x="48"
     inkscape:window-y="30"
     inkscape:window-maximized="1"
     fit-margin-top="0"
     fit-margin-left="0"
     fit-margin-right="0"
     fit-margin-bottom="0"
     showguides="true"
     inkscape:guide-bbox="true" />
  <metadata
     id="metadata5">
    <rdf:RDF>
      <cc:Work
         rdf:about="">
        <dc:format>image/svg+xml</dc:format>
        <dc:type
           rdf:resource="http://purl.org/dc/dcmitype/StillImage" />
        <dc:title />
      </cc:Work>
    </rdf:RDF>
  </metadata>
  <g
     inkscape:label="Ebene 1"
     inkscape:groupmode="layer"
     id="layer1"
     transform="translate(-136.75562,-308.16345)">
    <rect
       style="opacity:1;fill:#000000;fill-opacity:1;fill-rule:nonzero;stroke:none;stroke-width:0.40000001;stroke-linecap:round;stroke-miterlimit:4;stroke-dasharray:none;stroke-opacity:1"
       id="rect4520"
       width="40.343929"
       height="40.343929"
       x="136.75562"
       y="308.16345"
       ry="5.0684252" />
    <g
       id="g4394"
       transform="matrix(5.0938006,0,0,-5.0938006,105.00737,308.73575)" />
    <path
       d="m 159.24882,320.98619 a 4.8322411,4.8322411 0 0 0 -4.83233,4.83233 4.8322411,4.8322411 0 0 0 4.83233,4.83202 4.8322411,4.8322411 0 0 0 4.83203,-4.83202 4.8322411,4.8322411 0 0 0 -4.83203,-4.83233 z m -0.31742,0.67085 v 3.84406 h -3.84111 a 4.1743664,4.1743664 0 0 1 3.84111,-3.84406 z m 0.63453,0.003 a 4.1743664,4.1743664 0 0 1 3.84408,3.84112 h -3.84408 z m -4.4786,4.47565 h 3.84407 v 3.84111 a 4.1743664,4.1743664 0 0 1 -3.84407,-3.84111 z m 4.4786,0 h 3.84112 a 4.1743664,4.1743664 0 0 1 -3.84112,3.84406 z m 6.27835,-13.5452 2.14958,-0.0102 c 0.15791,0.0102 0.34129,0.0509 0.48901,0.13244 l 5.05305,2.70481 c 0.41769,0.25978 0.70804,0.72841 0.70804,1.25307 0,0.8252 -0.66729,1.4823 -1.4823,1.4823 h -3.29569 l -4.41632,10.83451 -2.83725,2.83725 v 10.36588 c 0,1.04423 -0.85576,1.89999 -1.91018,1.89999 -1.05441,0 -1.89998,-0.85576 -1.89998,-1.89999 v -11.15542 h -7.65089 l -1.72171,2.61821 4.23295,7.36055 c 0.51447,0.91688 0.18847,2.08336 -0.72841,2.59783 -0.91689,0.51957 -2.07827,0.18847 -2.59784,-0.72332 l -4.33483,-7.44204 v -3.30588 l -2.15977,2.89838 v 7.00907 c 0,1.05441 -0.85576,1.90508 -1.91017,1.90508 -1.04423,0 -1.89999,-0.85067 -1.89999,-1.90508 l -0.0102,-7.43186 1.77774,-2.82196 v -3.36191 l -1.38042,2.15468 c -0.0306,0.0815 -0.11207,0.13243 -0.19866,0.13243 -0.11206,0 -0.20885,-0.0917 -0.20885,-0.20884 v -7.49298 c 0.0713,-1.47211 1.30402,-2.69462 2.78631,-2.69462 h 18.72991 l 2.97478,-4.57933 -2.4654,-2.45521 c -0.0815,-0.0713 -0.12735,-0.1681 -0.12735,-0.28016 0,-0.21903 0.1681,-0.38713 0.37695,-0.38713 l 1.79811,0.0102"
       style="opacity:1;fill:#ffffff;fill-opacity:1;fill-rule:nonzero;stroke:none;stroke-width:0.55584836;stroke-linecap:round;stroke-miterlimit:4;stroke-dasharray:none;stroke-opacity:1"
       id="path7910"
       inkscape:connector-curvature="0" />
  </g>
</svg>
