<?xml version="1.0" encoding="UTF-8" standalone="no"?>
<!-- Created with Inkscape (http://www.inkscape.org/) -->

<svg
   xmlns:dc="http://purl.org/dc/elements/1.1/"
   xmlns:cc="http://creativecommons.org/ns#"
   xmlns:rdf="http://www.w3.org/1999/02/22-rdf-syntax-ns#"
   xmlns:svg="http://www.w3.org/2000/svg"
   xmlns="http://www.w3.org/2000/svg"
   xmlns:xlink="http://www.w3.org/1999/xlink"
   xmlns:sodipodi="http://sodipodi.sourceforge.net/DTD/sodipodi-0.dtd"
   xmlns:inkscape="http://www.inkscape.org/namespaces/inkscape"
   width="105.6618mm"
   height="101.00025mm"
   viewBox="0 0 105.6618 101.00025"
   version="1.1"
   id="svg8"
   inkscape:version="0.92.1 r15371"
   sodipodi:docname="andyBee3D.svg">
  <defs
     id="defs2">
    <linearGradient
       inkscape:collect="always"
       id="Fluegel-3-0">
      <stop
         style="stop-color:#ffeeaa;stop-opacity:0.29568106"
         offset="0"
         id="stop4615" />
      <stop
         style="stop-color:#ffeeaa;stop-opacity:1"
         offset="1"
         id="stop4617" />
    </linearGradient>
    <linearGradient
       inkscape:collect="always"
       id="linearGradient4609">
      <stop
         style="stop-color:#dcb100;stop-opacity:1"
         offset="0"
         id="stop4605" />
      <stop
         style="stop-color:#ffec9e;stop-opacity:1"
         offset="1"
         id="stop4607" />
    </linearGradient>
    <linearGradient
       inkscape:collect="always"
       id="linearGradient4593">
      <stop
         id="stop4698"
         offset="0"
         style="stop-color:#fcfcfb;stop-opacity:1" />
      <stop
         style="stop-color:#ffd5aa;stop-opacity:1"
         offset="1"
         id="stop4591" />
    </linearGradient>
    <linearGradient
       inkscape:collect="always"
       xlink:href="#linearGradient4609"
       id="linearGradient4611"
       x1="-62.999225"
       y1="160.0535"
       x2="-13.530179"
       y2="160.0535"
       gradientUnits="userSpaceOnUse" />
    <radialGradient
       inkscape:collect="always"
       xlink:href="#Fluegel-3-0"
       id="radialGradient4633"
       cx="-28.290545"
       cy="121.53452"
       fx="-28.290545"
       fy="121.53452"
       r="31.564369"
       gradientTransform="matrix(0.70525182,-0.38750115,0.29689453,0.54034774,-27.753755,51.181837)"
       gradientUnits="userSpaceOnUse" />
    <radialGradient
       inkscape:collect="always"
       xlink:href="#Fluegel-3-0"
       id="radialGradient4641"
       cx="-69.363083"
       cy="133.2836"
       fx="-69.363083"
       fy="133.2836"
       r="31.564369"
       gradientTransform="matrix(-0.41795978,-0.66354091,0.42150167,-0.26550095,-150.07687,119.04793)"
       gradientUnits="userSpaceOnUse" />
    <radialGradient
       inkscape:collect="always"
       xlink:href="#Fluegel-3-0"
       id="radialGradient4665"
       cx="-75.946022"
       cy="164.71088"
       fx="-75.946022"
       fy="164.71088"
       r="29.986447"
       gradientTransform="matrix(-0.48555618,0.26003956,-0.28000673,-0.52283967,-51.789662,262.37096)"
       gradientUnits="userSpaceOnUse" />
    <radialGradient
       inkscape:collect="always"
       xlink:href="#Fluegel-3-0"
       id="radialGradient4673"
       cx="-21.642857"
       cy="157.49776"
       fx="-21.642857"
       fy="157.49776"
       r="29.986446"
       gradientTransform="matrix(0.17735106,0.53963264,-0.67150853,0.22069227,87.956611,132.89073)"
       gradientUnits="userSpaceOnUse" />
    <radialGradient
       inkscape:collect="always"
       xlink:href="#linearGradient4593"
       id="radialGradient4696"
       cx="-31.668543"
       cy="129.59445"
       fx="-31.668543"
       fy="129.59445"
       r="23.884523"
       gradientUnits="userSpaceOnUse"
       gradientTransform="matrix(-0.7186977,-0.83722066,0.78097211,-0.67041209,-148.33645,209.26704)" />
  </defs>
  <sodipodi:namedview
     id="base"
     pagecolor="#ffffff"
     bordercolor="#666666"
     borderopacity="1.0"
     inkscape:pageopacity="0.0"
     inkscape:pageshadow="2"
     inkscape:zoom="0.98994949"
     inkscape:cx="-11.998223"
     inkscape:cy="165.0846"
     inkscape:document-units="mm"
     inkscape:current-layer="layer1"
     showgrid="false"
     inkscape:snap-page="true"
     fit-margin-top="0"
     fit-margin-left="0"
     fit-margin-right="0"
     fit-margin-bottom="0"
     inkscape:window-width="1632"
     inkscape:window-height="998"
     inkscape:window-x="48"
     inkscape:window-y="30"
     inkscape:window-maximized="1"
     inkscape:snap-global="false" />
  <metadata
     id="metadata5">
    <rdf:RDF>
      <cc:Work
         rdf:about="">
        <dc:format>image/svg+xml</dc:format>
        <dc:type
           rdf:resource="http://purl.org/dc/dcmitype/StillImage" />
        <dc:title></dc:title>
      </cc:Work>
    </rdf:RDF>
  </metadata>
  <g
     inkscape:label="Ebene 1"
     inkscape:groupmode="layer"
     id="layer1"
     transform="translate(91.095606,-103.66368)">
    <path
       sodipodi:type="inkscape:offset"
       inkscape:radius="2.9193053"
       inkscape:original="M -64.144531 103.16406 L -64.144531 103.16602 C -64.423671 103.16102 -64.702609 103.16097 -64.980469 103.16797 C -65.298019 103.17597 -65.614298 103.19164 -65.929688 103.21484 C -73.499128 103.77309 -80.367278 108.75516 -82.955078 116.39453 C -86.405478 126.58035 -80.943643 137.64142 -70.757812 141.0918 C -69.959942 141.36208 -69.164917 141.48258 -68.373047 141.50195 C -71.487557 147.17942 -71.708145 154.28272 -68.328125 160.35742 C -63.964435 168.19998 -54.981716 171.84603 -46.666016 169.80078 L -32.474609 198.32422 L -20.253906 170.05859 C -12.292936 171.48011 -3.9599037 167.81632 0.19140625 160.35547 C 3.5714363 154.28077 3.349465 147.17942 0.234375 141.50195 C 1.026075 141.48255 1.8214406 141.36202 2.6191406 141.0918 C 12.80496 137.64142 18.268759 126.58035 14.818359 116.39453 C 12.230559 108.75516 5.3624087 103.77309 -2.2070312 103.21484 C -4.7301812 103.02876 -7.3324563 103.33467 -9.8789062 104.19727 C -11.675086 104.80572 -13.029676 105.94447 -14.222656 107.24219 C -15.278036 107.42535 -16.240542 107.75314 -16.982422 108.2168 C -19.287402 109.65736 -20.915949 111.78872 -21.912109 114.20703 C -22.044119 114.19503 -22.176741 114.188 -22.306641 114.1875 C -22.642341 114.1865 -22.948093 114.21973 -23.132812 114.29688 C -23.514163 114.45623 -23.723184 114.84569 -23.683594 115.22266 C -24.385074 115.58292 -25.093811 115.9607 -25.806641 116.35938 C -28.391321 115.44151 -31.171679 114.94141 -34.068359 114.94141 C -36.964729 114.94141 -39.745628 115.44171 -42.330078 116.35938 C -43.046608 115.95862 -43.757851 115.57873 -44.462891 115.2168 C -44.436891 115.01342 -44.473234 114.80101 -44.589844 114.62305 C -44.704774 114.44767 -44.868872 114.32799 -45.101562 114.26172 C -45.334263 114.19542 -45.635332 114.17867 -46.039062 114.20117 C -46.101262 114.20417 -46.161566 114.2149 -46.222656 114.2207 C -47.218336 111.7973 -48.84735 109.65981 -51.15625 108.2168 C -51.8979 107.75328 -52.861036 107.42538 -53.916016 107.24219 C -55.109636 105.94442 -56.463526 104.80574 -58.259766 104.19727 C -60.209396 103.53684 -62.190531 103.20095 -64.144531 103.16406 z "
       style="color:#000000;font-style:normal;font-variant:normal;font-weight:normal;font-stretch:normal;font-size:medium;line-height:normal;font-family:sans-serif;font-variant-ligatures:normal;font-variant-position:normal;font-variant-caps:normal;font-variant-numeric:normal;font-variant-alternates:normal;font-feature-settings:normal;text-indent:0;text-align:start;text-decoration:none;text-decoration-line:none;text-decoration-style:solid;text-decoration-color:#000000;letter-spacing:normal;word-spacing:normal;text-transform:none;writing-mode:lr-tb;direction:ltr;text-orientation:mixed;dominant-baseline:auto;baseline-shift:baseline;text-anchor:start;white-space:normal;shape-padding:0;clip-rule:nonzero;display:inline;overflow:visible;visibility:visible;opacity:1;isolation:auto;mix-blend-mode:normal;color-interpolation:sRGB;color-interpolation-filters:linearRGB;solid-color:#000000;solid-opacity:1;vector-effect:none;fill:#ffffff;fill-opacity:1;fill-rule:nonzero;stroke:none;stroke-width:0.07847711;stroke-linecap:butt;stroke-linejoin:miter;stroke-miterlimit:4;stroke-dasharray:none;stroke-dashoffset:0;stroke-opacity:1;color-rendering:auto;image-rendering:auto;shape-rendering:auto;text-rendering:auto;enable-background:accumulate"
       id="path5730"
       d="m -64.089844,100.24609 a 2.9195973,2.9195973 0 0 0 -0.07813,0.002 c -0.289838,-0.004 -0.585234,-0.006 -0.886719,0.002 -0.364709,0.009 -0.727962,0.0261 -1.089843,0.0527 -8.710836,0.64243 -16.608524,6.39359 -19.576172,15.1543 -3.882669,11.46191 2.145439,23.91604 13.408203,28.11914 -2.023612,5.824 -1.789739,12.40808 1.433594,18.20117 4.595941,8.25997 13.684018,12.42182 22.550781,11.23438 l 13.240234,26.61328 a 2.9195973,2.9195973 0 0 0 5.292969,-0.14258 l 11.378906,-26.31836 c 8.411962,0.59019 16.8034618,-3.56221 21.1582035,-11.38867 3.2231587,-5.79277 3.4554234,-12.37609 1.4316406,-18.19922 11.2627299,-4.20306 17.2929309,-16.65692 13.4101559,-28.11914 -2.967648,-8.76071 -10.8653357,-14.51187 -19.5761715,-15.1543 -2.9040305,-0.21417 -5.9039951,0.1397 -8.8242185,1.12891 -2.138971,0.72457 -3.707534,2.01834 -4.998047,3.32813 -0.931057,0.24589 -1.873372,0.45651 -2.714844,0.98242 -2.318176,1.4488 -3.92596,3.52267 -5.144531,5.76172 -0.213427,0.0509 -0.295833,-0.0207 -0.583984,0.0996 -0.794449,0.33196 -1.417494,0.89985 -1.822266,1.58984 -9.23e-4,0.002 -0.003,0.002 -0.0039,0.004 -0.0344,0.0184 -0.06908,0.0362 -0.103516,0.0547 -2.509746,-0.74995 -5.136754,-1.23047 -7.880859,-1.23047 -2.743987,0 -5.371218,0.48062 -7.88086,1.23047 -0.04524,-0.0243 -0.08958,-0.0501 -0.134765,-0.0742 -0.02975,-0.0504 -0.0318,-0.10447 -0.06445,-0.15429 -0.478971,-0.7309 -1.377444,-1.34693 -2.152343,-1.56836 -0.08051,-0.0229 -0.128061,3.6e-4 -0.205078,-0.0176 -1.216343,-2.21128 -2.808297,-4.26281 -5.103516,-5.69727 v 0.002 c -0.841732,-0.52607 -1.783979,-0.73659 -2.714844,-0.98242 -1.290373,-1.30929 -2.858905,-2.6035 -4.998047,-3.32813 -2.233938,-0.75674 -4.51644,-1.14305 -6.767578,-1.18555 z"
       transform="translate(-4.1962565,3.4210702)" />
    <path
       style="opacity:1;fill:url(#radialGradient4665);fill-opacity:1;fill-rule:nonzero;stroke:#000000;stroke-width:0.40000001;stroke-linecap:round;stroke-miterlimit:4;stroke-dasharray:none;stroke-opacity:1"
       d="m -46.131999,171.15284 c 4.651569,-2.58818 4.797057,-9.26962 9.1659,-11.5612 10.45636,-5.48463 24.014783,-22.86913 21.426594,-27.5207 -2.58819,-4.65156 -22.782504,-1.52545 -34.681532,3.69854 -4.517198,1.98316 -10.004699,-0.89446 -14.656272,1.69373 -9.30313,5.17638 -12.64853,16.91434 -7.47215,26.21747 5.17637,9.30314 16.91433,12.64853 26.21746,7.47216 z"
       id="path4897"
       inkscape:connector-curvature="0"
       sodipodi:nodetypes="sssssss" />
    <path
       sodipodi:nodetypes="sssssss"
       inkscape:connector-curvature="0"
       id="path4984"
       d="m -30.39741,171.15284 c -4.651569,-2.58818 -4.797057,-9.26962 -9.1659,-11.5612 -10.45636,-5.48463 -24.014783,-22.86913 -21.426594,-27.5207 2.58819,-4.65156 22.782504,-1.52545 34.681532,3.69854 4.517198,1.98316 10.004699,-0.89446 14.656269,1.69373 9.303133,5.17638 12.64853,16.91434 7.472156,26.21747 -5.176373,9.30314 -16.914333,12.64853 -26.217463,7.47216 z"
       style="opacity:1;fill:url(#radialGradient4673);fill-opacity:1;fill-rule:nonzero;stroke:#000000;stroke-width:0.40000001;stroke-linecap:round;stroke-miterlimit:4;stroke-dasharray:none;stroke-opacity:1" />
    <path
       style="opacity:1;fill:url(#radialGradient4633);fill-opacity:1;fill-rule:nonzero;stroke:#000000;stroke-width:0.40000001;stroke-linecap:round;stroke-miterlimit:4;stroke-dasharray:none;stroke-opacity:1"
       d="m -1.640616,144.32262 c -5.041729,1.70786 -10.089532,-2.67193 -14.721611,-0.97431 -11.086394,4.06307 -33.072542,2.43185 -34.780401,-2.60988 -1.70786,-5.04173 14.171649,-17.90346 26.033905,-23.21042 4.503236,-2.01467 6.056965,-8.01294 11.098695,-9.7208 10.083449,-3.41572 21.026689,1.98955 24.442407,12.073 3.415719,10.08345 -1.9895471,21.02669 -12.072995,24.44241 z"
       id="path4986"
       inkscape:connector-curvature="0"
       sodipodi:nodetypes="sssssss" />
    <path
       transform="matrix(-1.2741241,0.64603156,0,0.77410357,-138.11837,-64.1403)"
       inkscape:transform-center-y="-0.31061794"
       inkscape:transform-center-x="0.71270609"
       d="m -95.633458,333.6352 5.939648,16.18971 -7.471645,-15.53827 -13.561875,10.65184 12.468907,-11.90755 -14.321347,-9.60651 15.177853,8.179 4.710796,-16.58899 -3.088479,16.96245 17.232782,-0.64604 z"
       inkscape:randomized="0"
       inkscape:rounded="0"
       inkscape:flatsided="false"
       sodipodi:arg2="1.1707452"
       sodipodi:arg1="0.54041945"
       sodipodi:r2="18.368668"
       sodipodi:r1="1.4161195"
       sodipodi:cy="332.90662"
       sodipodi:cx="-96.847771"
       sodipodi:sides="5"
       id="path4990"
       style="opacity:1;fill:#ffffff;fill-opacity:1;fill-rule:nonzero;stroke:none;stroke-width:0.04543401;stroke-linecap:round;stroke-linejoin:miter;stroke-miterlimit:4;stroke-dasharray:none;stroke-opacity:1"
       sodipodi:type="star" />
    <path
       sodipodi:type="star"
       style="opacity:1;fill:#ffffff;fill-opacity:1;fill-rule:nonzero;stroke:none;stroke-width:0.02601552;stroke-linecap:round;stroke-linejoin:miter;stroke-miterlimit:4;stroke-dasharray:none;stroke-opacity:1"
       id="path4992"
       sodipodi:sides="5"
       sodipodi:cx="-96.847771"
       sodipodi:cy="332.90662"
       sodipodi:r1="1.4161195"
       sodipodi:r2="18.368668"
       sodipodi:arg1="0.54041945"
       sodipodi:arg2="1.1707452"
       inkscape:flatsided="false"
       inkscape:rounded="0"
       inkscape:randomized="0"
       d="m -95.633458,333.6352 5.939648,16.18971 -7.471645,-15.53827 -13.561875,10.65184 12.468907,-11.90755 -14.321347,-9.60651 15.177853,8.179 4.710796,-16.58899 -3.088479,16.96245 17.232782,-0.64604 z"
       inkscape:transform-center-x="2.928524"
       inkscape:transform-center-y="8.358493"
       transform="matrix(-0.94765195,-0.88139903,-0.61126251,0.2988744,84.02008,-29.33049)" />
    <path
       sodipodi:nodetypes="sssssss"
       inkscape:connector-curvature="0"
       id="path4899"
       d="m -74.888789,144.32262 c 5.04172,1.70786 10.08953,-2.67193 14.721607,-0.97431 11.086394,4.06307 33.072542,2.43185 34.780401,-2.60988 1.70786,-5.04173 -14.171649,-17.90346 -26.033905,-23.21042 -4.503236,-2.01467 -6.056965,-8.01294 -11.098695,-9.7208 -10.083448,-3.41572 -21.026688,1.98955 -24.442408,12.073 -3.41572,10.08345 1.98955,21.02669 12.073,24.44241 z"
       style="opacity:1;fill:url(#radialGradient4641);fill-opacity:1;fill-rule:nonzero;stroke:#000000;stroke-width:0.40000001;stroke-linecap:round;stroke-miterlimit:4;stroke-dasharray:none;stroke-opacity:1" />
    <path
       sodipodi:type="star"
       style="opacity:1;fill:#ffffff;fill-opacity:1;fill-rule:nonzero;stroke:none;stroke-width:0.04543401;stroke-linecap:round;stroke-linejoin:miter;stroke-miterlimit:4;stroke-dasharray:none;stroke-opacity:1"
       id="path4907"
       sodipodi:sides="5"
       sodipodi:cx="-96.847771"
       sodipodi:cy="332.90662"
       sodipodi:r1="1.4161195"
       sodipodi:r2="18.368668"
       sodipodi:arg1="0.54041945"
       sodipodi:arg2="1.1707452"
       inkscape:flatsided="false"
       inkscape:rounded="0"
       inkscape:randomized="0"
       d="m -95.633458,333.6352 5.939648,16.18971 -7.471645,-15.53827 -13.561875,10.65184 12.468907,-11.90755 -14.321347,-9.60651 15.177853,8.179 4.710796,-16.58899 -3.088479,16.96245 17.232782,-0.64604 z"
       inkscape:transform-center-x="0.71270609"
       inkscape:transform-center-y="-0.31061794"
       transform="matrix(1.2741241,0.64603156,0,0.77410357,61.588961,-64.1403)" />
    <path
       transform="matrix(0.94765195,-0.88139903,0.61126251,0.2988744,-160.54949,-29.33049)"
       inkscape:transform-center-y="8.358493"
       inkscape:transform-center-x="2.928524"
       d="m -95.633458,333.6352 5.939648,16.18971 -7.471645,-15.53827 -13.561875,10.65184 12.468907,-11.90755 -14.321347,-9.60651 15.177853,8.179 4.710796,-16.58899 -3.088479,16.96245 17.232782,-0.64604 z"
       inkscape:randomized="0"
       inkscape:rounded="0"
       inkscape:flatsided="false"
       sodipodi:arg2="1.1707452"
       sodipodi:arg1="0.54041945"
       sodipodi:r2="18.368668"
       sodipodi:r1="1.4161195"
       sodipodi:cy="332.90662"
       sodipodi:cx="-96.847771"
       sodipodi:sides="5"
       id="path4909"
       style="opacity:1;fill:#ffffff;fill-opacity:1;fill-rule:nonzero;stroke:none;stroke-width:0.02601552;stroke-linecap:round;stroke-linejoin:miter;stroke-miterlimit:4;stroke-dasharray:none;stroke-opacity:1"
       sodipodi:type="star" />
    <path
       style="opacity:1;fill:url(#linearGradient4611);fill-opacity:1;fill-rule:nonzero;stroke:#000000;stroke-width:2.5999999;stroke-linecap:round;stroke-miterlimit:4;stroke-dasharray:none;stroke-opacity:1"
       d="m -14.830179,143.09725 c 10e-7,3.23563 -0.655748,6.31811 -1.841599,9.12178 l -20.081019,46.44073 -23.104829,-46.44073 c -1.185851,-2.80367 -1.8416,-5.88614 -1.841599,-9.12178 4e-6,-12.94253 10.491995,-23.43452 23.434523,-23.43452 12.942528,0 23.434519,10.49199 23.434523,23.43452 z"
       id="circle4796"
       inkscape:connector-curvature="0"
       sodipodi:nodetypes="scccsss" />
    <circle
       style="opacity:1;fill:url(#radialGradient4696);fill-opacity:1;fill-rule:nonzero;stroke:#000000;stroke-width:0.89999998;stroke-linecap:round;stroke-miterlimit:4;stroke-dasharray:none;stroke-opacity:1"
       id="path4794"
       cx="-38.264702"
       cy="143.28625"
       r="23.434523" />
    <g
       id="g5032"
       transform="translate(34.021942,-197.13745)">
      <path
         inkscape:connector-curvature="0"
         id="path4810"
         d="m -82.175248,340.53052 c -3.041042,-0.66474 -5.290978,-2.96735 -5.896056,-6.03409 l -0.171487,-0.86916 -1.345052,-0.026 c -1.509051,-0.029 -1.686614,-0.0837 -1.895218,-0.58294 -0.108441,-0.25954 -0.04323,-0.56714 1.65828,-7.822 1.944018,-8.28886 1.937658,-8.26751 2.699135,-9.06211 0.797103,-0.83179 1.741705,-1.27062 2.870754,-1.33366 0.803138,-0.0448 1.193964,0.0665 1.414332,0.4028 0.267435,0.40816 0.106213,1.01826 -0.320445,1.21266 -0.109334,0.0499 -0.438714,0.0905 -0.73196,0.0905 -0.653125,0 -1.132843,0.13737 -1.598459,0.45773 -0.39042,0.26861 -0.803458,0.83383 -0.92444,1.26503 -0.04296,0.15313 -0.767243,3.2272 -1.609518,6.83125 -0.842275,3.60407 -1.546902,6.59698 -1.565838,6.65094 -0.02606,0.0743 0.155988,0.0981 0.747879,0.0981 0.758758,0 0.782329,-0.005 0.78301,-0.17657 3.84e-4,-0.0971 0.119754,-0.52191 0.265263,-0.94397 0.868463,-2.51915 3.032215,-4.41421 5.663954,-4.96062 0.808664,-0.1679 2.164789,-0.16757 2.977234,7.1e-4 2.824918,0.58513 5.156064,2.82849 5.821857,5.60265 l 0.133513,0.55628 h 0.911375 0.911385 l 0.133506,-0.55628 c 0.557109,-2.32129 2.368204,-4.38447 4.604779,-5.2457 2.423008,-0.93305 5.252916,-0.52517 7.293547,1.05118 1.350284,1.04308 2.45096,2.7222 2.76696,4.22107 l 0.09513,0.45125 h 0.766606 c 0.579538,0 0.758103,-0.024 0.731777,-0.0981 -0.01919,-0.0539 -0.743618,-3.11751 -1.609918,-6.8079 -0.866292,-3.69037 -1.646265,-6.85785 -1.733268,-7.03883 -0.40241,-0.83704 -1.14723,-1.29337 -2.185693,-1.33911 -0.782918,-0.0344 -1.045957,-0.1182 -1.223661,-0.38941 -0.285527,-0.43576 -0.09151,-1.03967 0.399991,-1.24503 0.347715,-0.14528 1.21918,-0.14179 1.791108,0.007 1.448135,0.37719 2.709552,1.59871 3.064561,2.96761 0.06918,0.26661 0.885442,3.72402 1.813997,7.68312 1.622135,6.91631 1.683856,7.20894 1.575266,7.46883 -0.208762,0.49963 -0.386133,0.55422 -1.895362,0.58329 l -1.345051,0.026 -0.172706,0.87657 c -0.514289,2.61023 -2.228023,4.68047 -4.689697,5.6653 -2.257003,0.90293 -5.060626,0.55885 -7.057643,-0.86619 -1.72646,-1.23198 -2.937888,-3.24672 -3.159408,-5.25444 l -0.05215,-0.47306 h -0.824012 -0.824004 l -0.05223,0.47306 c -0.273662,2.48035 -1.986494,4.82934 -4.315565,5.91838 -0.990511,0.46315 -1.808699,0.64844 -3.009086,0.68142 -0.78493,0.0215 -1.174035,-0.005 -1.687259,-0.11779 z m 2.682815,-1.69332 c 1.121121,-0.2376 2.097988,-0.75651 2.888015,-1.5341 1.183368,-1.16472 1.749739,-2.51352 1.746526,-4.15927 -0.0017,-1.04933 -0.159687,-1.72207 -0.625205,-2.66823 -0.305534,-0.62099 -0.479076,-0.85698 -1.038797,-1.41259 -0.758328,-0.75276 -1.297073,-1.10013 -2.226614,-1.43567 -0.842512,-0.30412 -2.289403,-0.38501 -3.212584,-0.17963 -1.645783,0.36615 -3.208173,1.60887 -3.935057,3.12995 -0.426435,0.89233 -0.549556,1.4555 -0.55244,2.52692 -0.0031,1.14288 0.09276,1.56747 0.585159,2.59233 1.135683,2.36377 3.811566,3.68273 6.370997,3.14029 z m 16.7632,-0.009 c 1.761623,-0.36005 3.241037,-1.5126 4.018398,-3.13058 0.492393,-1.02486 0.588241,-1.44946 0.585163,-2.59233 -0.0025,-1.07142 -0.126013,-1.6346 -0.552446,-2.52693 -0.726879,-1.52108 -2.289268,-2.7638 -3.935056,-3.12995 -0.8208,-0.1826 -2.361488,-0.1205 -3.081349,0.12424 -1.002227,0.34073 -1.818512,0.8704 -2.536464,1.64588 -2.223434,2.40158 -1.922603,6.41047 0.633509,8.44214 0.594259,0.47234 1.727962,1.01876 2.412528,1.16279 0.732812,0.15418 1.715271,0.15608 2.455717,0.005 z"
         style="fill:#000000;stroke-width:0.07847711" />
      <g
         transform="matrix(0.3870087,0,0,0.3870087,-117.15552,204.44462)"
         id="g4818">
        <circle
           style="opacity:1;fill:#000000;fill-opacity:1;fill-rule:nonzero;stroke:none;stroke-width:0.89999998;stroke-linecap:round;stroke-miterlimit:4;stroke-dasharray:none;stroke-opacity:1"
           id="path4812"
           cx="139.11378"
           cy="331.61139"
           r="8.15172" />
        <circle
           r="3.1907825"
           cy="328.6348"
           cx="140.67293"
           id="circle4814"
           style="opacity:1;fill:#ffffff;fill-opacity:1;fill-rule:nonzero;stroke:none;stroke-width:0.35228199;stroke-linecap:round;stroke-miterlimit:4;stroke-dasharray:none;stroke-opacity:1" />
      </g>
      <g
         id="g4824"
         transform="matrix(0.3870087,0,0,0.3870087,-134.66647,204.44462)">
        <circle
           r="8.15172"
           cy="331.61139"
           cx="139.11378"
           id="circle4820"
           style="opacity:1;fill:#000000;fill-opacity:1;fill-rule:nonzero;stroke:none;stroke-width:0.89999998;stroke-linecap:round;stroke-miterlimit:4;stroke-dasharray:none;stroke-opacity:1" />
        <circle
           style="opacity:1;fill:#ffffff;fill-opacity:1;fill-rule:nonzero;stroke:none;stroke-width:0.35228199;stroke-linecap:round;stroke-miterlimit:4;stroke-dasharray:none;stroke-opacity:1"
           id="circle4822"
           cx="140.67293"
           cy="328.6348"
           r="3.1907825" />
      </g>
    </g>
    <g
       id="g5016"
       transform="translate(34.336845,-197.13745)">
      <g
         transform="matrix(0.70482192,0,0,0.70482192,-24.666445,97.210006)"
         id="g4865">
        <path
           sodipodi:type="spiral"
           style="fill:none;fill-rule:evenodd;stroke:#000000;stroke-width:1.36500001;stroke-linecap:butt;stroke-linejoin:miter;stroke-miterlimit:4;stroke-dasharray:none;stroke-opacity:1"
           id="path4859"
           sodipodi:cx="17.764881"
           sodipodi:cy="366.9256"
           sodipodi:expansion="1"
           sodipodi:revolution="0.40000001"
           sodipodi:radius="26.061178"
           sodipodi:argument="-18.509459"
           sodipodi:t0="0"
           d="m 17.764881,366.9256 c 9.238673,3.26907 0.151392,14.06639 -5.433412,15.35528 -7.4246831,1.71351 -15.0103748,-2.17736 -19.5527695,-7.94747"
           transform="rotate(-135,-57.028482,363.24859)" />
        <circle
           style="opacity:1;fill:#000000;fill-opacity:1;fill-rule:nonzero;stroke:none;stroke-width:1.36500001;stroke-linecap:round;stroke-miterlimit:4;stroke-dasharray:none;stroke-opacity:1"
           id="path4861"
           cx="-104.65216"
           cy="305.74069"
           r="3.9215028" />
      </g>
      <g
         id="g4886"
         transform="matrix(-0.70482192,0,0,0.70482192,-120.53665,97.210006)">
        <path
           transform="rotate(-135,-57.028482,363.24859)"
           d="m 17.764881,366.9256 c 9.238673,3.26907 0.151392,14.06639 -5.433412,15.35528 -7.4246831,1.71351 -15.0103748,-2.17736 -19.5527695,-7.94747"
           sodipodi:t0="0"
           sodipodi:argument="-18.509459"
           sodipodi:radius="26.061178"
           sodipodi:revolution="0.40000001"
           sodipodi:expansion="1"
           sodipodi:cy="366.9256"
           sodipodi:cx="17.764881"
           id="path4882"
           style="fill:none;fill-rule:evenodd;stroke:#000000;stroke-width:1.36500001;stroke-linecap:butt;stroke-linejoin:miter;stroke-miterlimit:4;stroke-dasharray:none;stroke-opacity:1"
           sodipodi:type="spiral" />
        <circle
           r="3.9215028"
           cy="305.74069"
           cx="-104.65216"
           id="circle4884"
           style="opacity:1;fill:#000000;fill-opacity:1;fill-rule:nonzero;stroke:none;stroke-width:1.36500001;stroke-linecap:round;stroke-miterlimit:4;stroke-dasharray:none;stroke-opacity:1" />
      </g>
    </g>
    <path
       style="opacity:1;fill:#1a1a1a;fill-opacity:1;fill-rule:nonzero;stroke:none;stroke-width:0.04981664;stroke-linecap:round;stroke-linejoin:miter;stroke-miterlimit:4;stroke-dasharray:none;stroke-opacity:1"
       d="m -53.250477,149.38328 a 6.7186735,15.205923 83.166976 0 0 -0.133347,0.85786 6.7186735,15.205923 83.166976 0 0 15.119122,5.30341 6.7186735,15.205923 83.166976 0 0 15.119121,-8.21124 6.7186735,15.205923 83.166976 0 0 -0.133346,-0.81619 6.7186735,15.205923 83.166976 0 1 -0.168201,0.51325 6.7186735,15.205923 83.166976 0 1 -0.373694,0.69047 6.7186735,15.205923 83.166976 0 1 -0.518384,0.68429 6.7186735,15.205923 83.166976 0 1 -0.657406,0.67148 6.7186735,15.205923 83.166976 0 1 -0.789537,0.65166 6.7186735,15.205923 83.166976 0 1 -0.914774,0.62576 6.7186735,15.205923 83.166976 0 1 -1.030289,0.59321 6.7186735,15.205923 83.166976 0 1 -1.135261,0.55507 6.7186735,15.205923 83.166976 0 1 -1.229292,0.51097 6.7186735,15.205923 83.166976 0 1 -1.310758,0.46223 6.7186735,15.205923 83.166976 0 1 -1.379662,0.40852 6.7186735,15.205923 83.166976 0 1 -1.433971,0.35095 6.7186735,15.205923 83.166976 0 1 -1.474908,0.28966 6.7186735,15.205923 83.166976 0 1 -1.500035,0.22567 6.7186735,15.205923 83.166976 0 1 -1.069603,0.11985 6.7186735,15.205923 83.166976 0 1 -1.50936,0.11129 6.7186735,15.205923 83.166976 0 1 -1.494362,0.0428 6.7186735,15.205923 83.166976 0 1 -1.464369,-0.0263 6.7186735,15.205923 83.166976 0 1 -1.419382,-0.095 6.7186735,15.205923 83.166976 0 1 -1.361016,-0.16295 6.7186735,15.205923 83.166976 0 1 -1.288466,-0.22912 6.7186735,15.205923 83.166976 0 1 -1.202949,-0.2931 6.7186735,15.205923 83.166976 0 1 -1.105673,-0.35413 6.7186735,15.205923 83.166976 0 1 -0.997457,-0.41146 6.7186735,15.205923 83.166976 0 1 -0.879109,-0.46502 6.7186735,15.205923 83.166976 0 1 -0.751843,-0.51357 6.7186735,15.205923 83.166976 0 1 -0.617686,-0.55704 6.7186735,15.205923 83.166976 0 1 -0.476234,-0.59517 6.7186735,15.205923 83.166976 0 1 -0.331135,-0.62728 6.7186735,15.205923 83.166976 0 1 -0.08674,-0.31083 z"
       id="path4935"
       inkscape:connector-curvature="0" />
    <path
       style="opacity:1;fill:#000000;fill-opacity:1;fill-rule:nonzero;stroke:none;stroke-width:2.5999999;stroke-linecap:round;stroke-miterlimit:4;stroke-dasharray:none;stroke-opacity:1"
       d="m -26.571617,173.35105 a 31.781366,32.532698 0 0 1 -12.077816,2.46806 31.781366,32.532698 0 0 1 -11.308355,-2.16938 l 4.038515,8.11784 a 38.319829,39.225738 0 0 0 7.26984,0.74467 38.319829,39.225738 0 0 0 8.56175,-1.02991 z"
       id="path4950"
       inkscape:connector-curvature="0" />
  </g>
</svg>
