<?xml version="1.0" encoding="UTF-8" standalone="no"?>
<svg
   xmlns:dc="http://purl.org/dc/elements/1.1/"
   xmlns:cc="http://creativecommons.org/ns#"
   xmlns:rdf="http://www.w3.org/1999/02/22-rdf-syntax-ns#"
   xmlns:svg="http://www.w3.org/2000/svg"
   xmlns="http://www.w3.org/2000/svg"
   xmlns:xlink="http://www.w3.org/1999/xlink"
   xmlns:sodipodi="http://sodipodi.sourceforge.net/DTD/sodipodi-0.dtd"
   xmlns:inkscape="http://www.inkscape.org/namespaces/inkscape"
   width="66.711861"
   height="66.711861"
   viewBox="0 0 66.71186 66.71186"
   version="1.1"
   id="svg10"
   sodipodi:docname="reviewer_note.svg"
   inkscape:version="0.92.1 r15371">
  <metadata
     id="metadata14">
    <rdf:RDF>
      <cc:Work
         rdf:about="">
        <dc:format>image/svg+xml</dc:format>
        <dc:type
           rdf:resource="http://purl.org/dc/dcmitype/StillImage" />
        <dc:title></dc:title>
      </cc:Work>
    </rdf:RDF>
  </metadata>
  <sodipodi:namedview
     pagecolor="#ffffff"
     bordercolor="#666666"
     borderopacity="1"
     objecttolerance="10"
     gridtolerance="10"
     guidetolerance="10"
     inkscape:pageopacity="0"
     inkscape:pageshadow="2"
     inkscape:window-width="1632"
     inkscape:window-height="998"
     id="namedview12"
     showgrid="false"
     fit-margin-top="0"
     fit-margin-left="0"
     fit-margin-right="0"
     fit-margin-bottom="0"
     inkscape:zoom="6.9532167"
     inkscape:cx="59.968306"
     inkscape:cy="24.66361"
     inkscape:window-x="48"
     inkscape:window-y="30"
     inkscape:window-maximized="1"
     inkscape:current-layer="svg10" />
  <defs
     id="defs3">
    <linearGradient
       inkscape:collect="always"
       id="linearGradient4492">
      <stop
         style="stop-color:#f0ce42;stop-opacity:1;"
         offset="0"
         id="stop4488" />
      <stop
         style="stop-color:#f0ce42;stop-opacity:0;"
         offset="1"
         id="stop4490" />
    </linearGradient>
    <path
       id="a"
       d="M 0,0 H 48 V 48 H 0 Z"
       inkscape:connector-curvature="0" />
    <linearGradient
       inkscape:collect="always"
       xlink:href="#linearGradient4492"
       id="linearGradient4494"
       x1="12.625154"
       y1="13.163606"
       x2="46.549736"
       y2="47.996311"
       gradientUnits="userSpaceOnUse"
       gradientTransform="matrix(0.8622192,0,0,0.8622192,4.4372705,3.7895249)" />
  </defs>
  <clipPath
     id="b">
    <use
       xlink:href="#a"
       overflow="visible"
       id="use5"
       style="overflow:visible"
       x="0"
       y="0"
       width="100%"
       height="100%" />
  </clipPath>
  <path
     clip-path="url(#b)"
     d="m 46,11 v 29 c 0,4.4 -3.6,8 -8,8 H 23.4 c -2.16,0 -4.2,-0.86 -5.7,-2.38 L 2,29.66 c 0,0 2.52,-2.46 2.6,-2.5 0.44,-0.38 0.98,-0.58 1.58,-0.58 0.44,0 0.84,0.12 1.2,0.32 0.08,0.02 8.62,4.92 8.62,4.92 V 8 c 0,-1.66 1.34,-3 3,-3 1.66,0 3,1.34 3,3 v 14 h 2 V 3 c 0,-1.66 1.34,-3 3,-3 1.66,0 3,1.34 3,3 v 19 h 2 V 5 c 0,-1.66 1.34,-3 3,-3 1.66,0 3,1.34 3,3 v 17 h 2 V 11 c 0,-1.66 1.34,-3 3,-3 1.66,0 3,1.34 3,3 z"
     id="path8"
     inkscape:connector-curvature="0"
     transform="matrix(1.415676,0,0,1.3482672,-0.62032565,0.99751655)"
     style="fill:url(#linearGradient4494);fill-opacity:1;stroke:#000000;stroke-width:2.22099686;stroke-linecap:butt;stroke-linejoin:round;stroke-miterlimit:3.9000001;stroke-dasharray:none;stroke-opacity:1;paint-order:fill markers stroke" />
  <rect
     style="opacity:1;fill:none;fill-opacity:1;fill-rule:nonzero;stroke:none;stroke-width:34.20000076;stroke-linecap:round;stroke-linejoin:bevel;stroke-miterlimit:4;stroke-dasharray:none;stroke-opacity:1;paint-order:markers stroke fill"
     id="rect4486"
     width="66.711861"
     height="66.711861"
     x="0"
     y="0" />
</svg>
