<?xml version="1.0" encoding="UTF-8" standalone="no"?>
<!-- Created with Inkscape (http://www.inkscape.org/) -->

<svg
   xmlns:dc="http://purl.org/dc/elements/1.1/"
   xmlns:cc="http://creativecommons.org/ns#"
   xmlns:rdf="http://www.w3.org/1999/02/22-rdf-syntax-ns#"
   xmlns:svg="http://www.w3.org/2000/svg"
   xmlns="http://www.w3.org/2000/svg"
   xmlns:sodipodi="http://sodipodi.sourceforge.net/DTD/sodipodi-0.dtd"
   xmlns:inkscape="http://www.inkscape.org/namespaces/inkscape"
   width="191.88916mm"
   height="216.14261mm"
   viewBox="0 0 191.88916 216.14261"
   version="1.1"
   id="svg4699"
   inkscape:version="0.92.1 r15371"
   sodipodi:docname="unknown.svg">
  <defs
     id="defs4693" />
  <sodipodi:namedview
     id="base"
     pagecolor="#ffffff"
     bordercolor="#666666"
     borderopacity="1.0"
     inkscape:pageopacity="0.0"
     inkscape:pageshadow="2"
     inkscape:zoom="0.175"
     inkscape:cx="-1563.8092"
     inkscape:cy="50.675323"
     inkscape:document-units="mm"
     inkscape:current-layer="layer1"
     showgrid="false"
     fit-margin-top="0"
     fit-margin-left="0"
     fit-margin-right="0"
     fit-margin-bottom="0"
     inkscape:window-width="1632"
     inkscape:window-height="998"
     inkscape:window-x="48"
     inkscape:window-y="30"
     inkscape:window-maximized="1" />
  <metadata
     id="metadata4696">
    <rdf:RDF>
      <cc:Work
         rdf:about="">
        <dc:format>image/svg+xml</dc:format>
        <dc:type
           rdf:resource="http://purl.org/dc/dcmitype/StillImage" />
        <dc:title />
      </cc:Work>
    </rdf:RDF>
  </metadata>
  <g
     inkscape:label="Ebene 1"
     inkscape:groupmode="layer"
     id="layer1"
     transform="translate(-1.5732771,-82.339409)">
    <path
       sodipodi:type="star"
       style="opacity:1;fill:#000000;fill-opacity:0.50362321;fill-rule:nonzero;stroke:none;stroke-width:9.04874992;stroke-linecap:round;stroke-linejoin:bevel;stroke-miterlimit:4;stroke-dasharray:none;stroke-opacity:1;paint-order:markers stroke fill"
       id="path4551"
       sodipodi:sides="3"
       sodipodi:cx="-155.58121"
       sodipodi:cy="10.365468"
       sodipodi:r1="43.468906"
       sodipodi:r2="21.734453"
       sodipodi:arg1="0.77670273"
       sodipodi:arg2="1.8239003"
       inkscape:flatsided="false"
       inkscape:rounded="0"
       inkscape:randomized="0"
       d="m -124.57794,40.834195 -36.4458,-9.426737 -36.44579,-9.426737 26.38669,-26.8496167 26.38669,-26.8496153 10.05911,36.2763532 z"
       inkscape:transform-center-x="0.98306289"
       inkscape:transform-center-y="22.852448"
       transform="matrix(1.1389842,1.0301228,-1.1389842,1.0301228,286.83291,384.74836)" />
    <rect
       style="opacity:1;fill:#fffffc;fill-opacity:0;fill-rule:nonzero;stroke:none;stroke-width:4.20102358;stroke-linecap:round;stroke-linejoin:bevel;stroke-miterlimit:4;stroke-dasharray:none;stroke-opacity:1;paint-order:markers stroke fill"
       id="rect4665"
       width="191.88916"
       height="216.14261"
       x="1.5732771"
       y="82.339409"
       ry="0.95094585" />
    <g
       transform="matrix(4.4927385,0,0,4.4927385,-456.97913,-205.02842)"
       id="layer1-5"
       inkscape:label="Ebene 1">
      <rect
         ry="1.4174107"
         y="87.43512"
         x="108.35254"
         height="10.958061"
         width="16.303446"
         id="rect4496-6"
         style="opacity:1;fill:#ffffff;fill-opacity:1;fill-rule:nonzero;stroke:#000000;stroke-width:1.10000002;stroke-linecap:round;stroke-miterlimit:4;stroke-dasharray:none;stroke-opacity:1" />
      <rect
         ry="0.51971728"
         transform="matrix(0.85204338,-0.52347118,0,1,0,0)"
         style="opacity:1;fill:#ffffff;fill-opacity:1;fill-rule:nonzero;stroke:#000000;stroke-width:1.19168603;stroke-linecap:round;stroke-miterlimit:4;stroke-dasharray:none;stroke-opacity:1"
         id="rect4574-9"
         width="19.13452"
         height="10.958051"
         x="146.30238"
         y="164.0202" />
      <rect
         ry="1.0086967"
         y="161.98999"
         x="146.49153"
         height="3.7398252"
         width="20.201271"
         id="rect4578-8"
         style="opacity:1;fill:#bdbce5;fill-opacity:1;fill-rule:nonzero;stroke:#000000;stroke-width:2.60898757;stroke-linecap:round;stroke-miterlimit:4;stroke-dasharray:none;stroke-opacity:1;paint-order:markers stroke fill"
         transform="matrix(0.85471907,-0.51909085,0,1,0,0)" />
      <rect
         ry="0.55469829"
         transform="matrix(1,0,-0.86207911,0.50677373,0,0)"
         y="148.43019"
         x="253.25908"
         height="19.144583"
         width="16.504152"
         id="rect4580-7"
         style="opacity:1;fill:#bdbce5;fill-opacity:1;fill-rule:nonzero;stroke:#000000;stroke-width:3.13352442;stroke-linecap:round;stroke-miterlimit:4;stroke-dasharray:none;stroke-opacity:1;paint-order:markers stroke fill" />
      <rect
         ry="0.57387948"
         style="opacity:1;fill:#bdbce5;fill-opacity:1;fill-rule:nonzero;stroke:#000000;stroke-width:2.31908298;stroke-linecap:round;stroke-linejoin:miter;stroke-miterlimit:4;stroke-dasharray:none;stroke-opacity:1;paint-order:markers stroke fill"
         id="rect4576-2"
         width="16.496777"
         height="3.6440821"
         x="107.60847"
         y="86.073723" />
      <rect
         style="opacity:1;fill:#625ec1;fill-opacity:1;fill-rule:nonzero;stroke:#000000;stroke-width:2.1893599;stroke-linecap:round;stroke-miterlimit:4;stroke-dasharray:none;stroke-opacity:0;paint-order:markers stroke fill"
         id="rect5080-8"
         width="11.531275"
         height="13.376115"
         x="255.74551"
         y="151.31442"
         transform="matrix(1,0,-0.86207911,0.50677373,0,0)"
         ry="0.38756177" />
      <g
         aria-label="?"
         style="font-style:normal;font-weight:normal;font-size:29.24151039px;line-height:125%;font-family:Sans;letter-spacing:0px;word-spacing:0px;fill:#0b00e5;fill-opacity:1;stroke:#fcfcfc;stroke-width:1.68024361;stroke-linecap:butt;stroke-linejoin:miter;stroke-miterlimit:4;stroke-dasharray:none;stroke-opacity:1"
         id="g5321"
         transform="matrix(1.7579286,0,0,1.7296222,-96.014308,2.0442439)">
        <path
           d="m 132.58823,42.116064 q 0.0585,0.146207 0.0585,0.409381 0,0.263173 -0.0585,0.438622 -0.0293,0.146208 -0.0293,0.292416 0.0293,0.116966 0,0.263173 -0.0877,0.38014 -0.17544,0.731038 -0.0585,0.321657 -0.2047,0.643313 -0.23393,0.497106 -0.55558,0.994212 -0.32166,0.497105 -0.73104,0.818762 l -0.14621,0.146207 q -0.23393,0.175449 -0.46786,0.38014 -0.20469,0.175449 -0.43863,0.350898 -0.40938,0.292415 -0.81876,0.58483 -0.38014,0.292415 -0.73104,0.643314 -0.58483,0.58483 -0.848,1.403592 -0.11697,0.321657 -0.11697,0.760279 0,0.409381 -0.17544,0.643314 -0.11697,0.116966 -0.26318,0.146207 -0.14621,0.02924 -0.32166,0.08772 h -0.73103 q -0.26318,0 -0.61407,0.02924 -0.3509,0 -0.7018,0 -0.32166,-0.02924 -0.58483,-0.08772 -0.26317,-0.05848 -0.38014,-0.204691 -0.11697,-0.146208 -0.14621,-0.350898 0,-0.233932 0,-0.467864 v -0.233932 q 0.0292,-0.146208 0.0292,-0.292415 0.0292,-0.146208 0.0292,-0.292416 0.11697,-0.380139 0.17545,-0.731037 0.0877,-0.38014 0.23394,-0.701797 0.23393,-0.555588 0.61407,-1.111177 0.38014,-0.555589 0.78952,-0.877245 l 0.26317,-0.263174 q 0.20469,-0.146207 0.3509,-0.263173 0.17545,-0.146208 0.3509,-0.292416 0.46786,-0.321656 0.848,-0.701796 0.38014,-0.380139 0.67256,-0.877245 0.11696,-0.204691 0.20469,-0.526347 0.0877,-0.321657 0.0877,-0.672555 0.0292,-0.350898 -0.0292,-0.701796 -0.0292,-0.350898 -0.14621,-0.614072 -0.0585,-0.175449 -0.17545,-0.350898 -0.0877,-0.175449 -0.20469,-0.321657 -0.17545,-0.233932 -0.46786,-0.380139 -0.29242,-0.175449 -0.61407,-0.292415 -0.11697,-0.02924 -0.20469,-0.02924 -0.0877,0 -0.23394,-0.02924 -0.1462,-0.02924 -0.35089,-0.02924 -0.17545,-0.02924 -0.32166,0 -0.14621,0.05848 -0.29242,0.05848 -0.1462,-0.02924 -0.29241,0.02924 -1.25739,0.438622 -1.78373,1.608283 -0.0877,0.233932 -0.17545,0.497105 -0.0585,0.233932 -0.11697,0.497106 -0.0877,0.321657 -0.1462,0.58483 -0.0293,0.233932 -0.26318,0.38014 -0.17545,0.116966 -0.43862,0.116966 -0.26317,0 -0.52635,0 h -1.72525 q -0.29241,0 -0.55559,0 -0.26317,-0.02924 -0.40938,-0.146208 -0.1462,-0.116966 -0.20469,-0.380139 -0.0585,-0.263174 0,-0.526348 0.0292,-0.175449 0.0585,-0.321656 0.0292,-0.175449 0.0585,-0.350898 0.0877,-0.321657 0.17545,-0.614072 0.0877,-0.321657 0.20469,-0.614072 0.0585,-0.146207 0.11696,-0.292415 0.0585,-0.146207 0.14621,-0.292415 0.29242,-0.497106 0.55559,-0.906487 0.40938,-0.58483 0.96497,-1.023453 0.55559,-0.467864 1.1989,-0.877245 0.20469,-0.146207 0.43862,-0.233932 0.23394,-0.08773 0.46787,-0.175449 0.38014,-0.146208 0.76028,-0.204691 0.40938,-0.05848 0.848,-0.146207 0.17545,-0.02924 0.3509,-0.02924 0.20469,-0.02924 0.40938,-0.02924 1.63753,-0.05848 2.89491,0.292415 1.28663,0.350898 2.22236,1.023453 0.26317,0.20469 0.55558,0.438622 0.29242,0.233932 0.49711,0.497106 0.11697,0.146208 0.23393,0.321657 0.14621,0.146207 0.23393,0.292415 0.0585,0.116966 0.11697,0.20469 0.0585,0.08772 0.11697,0.204691 0.20469,0.321657 0.29241,0.701796 0.11697,0.38014 0.23393,0.789521 0.0585,0.146208 0.0292,0.292415 0,0.116966 0.0293,0.263174 z m -5.05879,14.211374 q 0,0.20469 0.0293,0.409381 0.0292,0.20469 -0.0293,0.38014 v 0.292415 q -0.0585,0.175449 -0.0877,0.321656 -0.0292,0.146208 -0.17545,0.233932 -0.17545,0.116966 -0.43862,0.146208 -0.26318,0 -0.58483,0 h -2.04691 q -0.32165,0 -0.61407,-0.02924 -0.29241,-0.02924 -0.43862,-0.233932 -0.11697,-0.175449 -0.14621,-0.438622 0,-0.292415 0,-0.584831 v -1.900698 q 0,-0.263173 0,-0.526347 0.0292,-0.292415 0.14621,-0.467864 0.14621,-0.175449 0.40938,-0.233932 0.0585,-0.02924 0.11697,0 0.0585,0 0.11696,-0.02924 h 2.33932 q 0.32166,0 0.64332,0 0.32165,0 0.4971,0.146208 0.14621,0.08772 0.17545,0.233932 0.0292,0.146207 0.0877,0.321657 v 0.233932 q 0.0293,0.146207 0,0.292415 0,0.146207 0,0.292415 z"
           style="font-style:normal;font-variant:normal;font-weight:bold;font-stretch:normal;font-size:29.24151039px;font-family:'Alte Haas Grotesk';-inkscape-font-specification:'Alte Haas Grotesk, Bold';font-variant-ligatures:normal;font-variant-caps:normal;font-variant-numeric:normal;font-feature-settings:normal;text-align:start;writing-mode:lr-tb;text-anchor:start;fill:#0b00e5;fill-opacity:1;stroke:#fcfcfc;stroke-width:1.68024361;stroke-miterlimit:4;stroke-dasharray:none;stroke-opacity:1"
           id="path5319"
           inkscape:connector-curvature="0" />
      </g>
      <g
         transform="matrix(1.6854699,0,0,1.6854699,-86.920925,4.1392023)"
         id="text5304"
         style="font-style:normal;font-weight:normal;font-size:29.24151039px;line-height:125%;font-family:Sans;letter-spacing:0px;word-spacing:0px;fill:#0b00e5;fill-opacity:1;stroke:#000000;stroke-width:0.7310378px;stroke-linecap:butt;stroke-linejoin:miter;stroke-opacity:1"
         aria-label="?">
        <path
           inkscape:connector-curvature="0"
           id="path5306"
           style="font-style:normal;font-variant:normal;font-weight:bold;font-stretch:normal;font-size:29.24151039px;font-family:'Alte Haas Grotesk';-inkscape-font-specification:'Alte Haas Grotesk, Bold';font-variant-ligatures:normal;font-variant-caps:normal;font-variant-numeric:normal;font-feature-settings:normal;text-align:start;writing-mode:lr-tb;text-anchor:start;fill:#0b00e5;fill-opacity:1;stroke:#000000;stroke-width:0.7310378px;stroke-opacity:1"
           d="m 132.58823,42.116064 q 0.0585,0.146207 0.0585,0.409381 0,0.263173 -0.0585,0.438622 -0.0293,0.146208 -0.0293,0.292416 0.0293,0.116966 0,0.263173 -0.0877,0.38014 -0.17544,0.731038 -0.0585,0.321657 -0.2047,0.643313 -0.23393,0.497106 -0.55558,0.994212 -0.32166,0.497105 -0.73104,0.818762 l -0.14621,0.146207 q -0.23393,0.175449 -0.46786,0.38014 -0.20469,0.175449 -0.43863,0.350898 -0.40938,0.292415 -0.81876,0.58483 -0.38014,0.292415 -0.73104,0.643314 -0.58483,0.58483 -0.848,1.403592 -0.11697,0.321657 -0.11697,0.760279 0,0.409381 -0.17544,0.643314 -0.11697,0.116966 -0.26318,0.146207 -0.14621,0.02924 -0.32166,0.08772 h -0.73103 q -0.26318,0 -0.61407,0.02924 -0.3509,0 -0.7018,0 -0.32166,-0.02924 -0.58483,-0.08772 -0.26317,-0.05848 -0.38014,-0.204691 -0.11697,-0.146208 -0.14621,-0.350898 0,-0.233932 0,-0.467864 v -0.233932 q 0.0292,-0.146208 0.0292,-0.292415 0.0292,-0.146208 0.0292,-0.292416 0.11697,-0.380139 0.17545,-0.731037 0.0877,-0.38014 0.23394,-0.701797 0.23393,-0.555588 0.61407,-1.111177 0.38014,-0.555589 0.78952,-0.877245 l 0.26317,-0.263174 q 0.20469,-0.146207 0.3509,-0.263173 0.17545,-0.146208 0.3509,-0.292416 0.46786,-0.321656 0.848,-0.701796 0.38014,-0.380139 0.67256,-0.877245 0.11696,-0.204691 0.20469,-0.526347 0.0877,-0.321657 0.0877,-0.672555 0.0292,-0.350898 -0.0292,-0.701796 -0.0292,-0.350898 -0.14621,-0.614072 -0.0585,-0.175449 -0.17545,-0.350898 -0.0877,-0.175449 -0.20469,-0.321657 -0.17545,-0.233932 -0.46786,-0.380139 -0.29242,-0.175449 -0.61407,-0.292415 -0.11697,-0.02924 -0.20469,-0.02924 -0.0877,0 -0.23394,-0.02924 -0.1462,-0.02924 -0.35089,-0.02924 -0.17545,-0.02924 -0.32166,0 -0.14621,0.05848 -0.29242,0.05848 -0.1462,-0.02924 -0.29241,0.02924 -1.25739,0.438622 -1.78373,1.608283 -0.0877,0.233932 -0.17545,0.497105 -0.0585,0.233932 -0.11697,0.497106 -0.0877,0.321657 -0.1462,0.58483 -0.0293,0.233932 -0.26318,0.38014 -0.17545,0.116966 -0.43862,0.116966 -0.26317,0 -0.52635,0 h -1.72525 q -0.29241,0 -0.55559,0 -0.26317,-0.02924 -0.40938,-0.146208 -0.1462,-0.116966 -0.20469,-0.380139 -0.0585,-0.263174 0,-0.526348 0.0292,-0.175449 0.0585,-0.321656 0.0292,-0.175449 0.0585,-0.350898 0.0877,-0.321657 0.17545,-0.614072 0.0877,-0.321657 0.20469,-0.614072 0.0585,-0.146207 0.11696,-0.292415 0.0585,-0.146207 0.14621,-0.292415 0.29242,-0.497106 0.55559,-0.906487 0.40938,-0.58483 0.96497,-1.023453 0.55559,-0.467864 1.1989,-0.877245 0.20469,-0.146207 0.43862,-0.233932 0.23394,-0.08773 0.46787,-0.175449 0.38014,-0.146208 0.76028,-0.204691 0.40938,-0.05848 0.848,-0.146207 0.17545,-0.02924 0.3509,-0.02924 0.20469,-0.02924 0.40938,-0.02924 1.63753,-0.05848 2.89491,0.292415 1.28663,0.350898 2.22236,1.023453 0.26317,0.20469 0.55558,0.438622 0.29242,0.233932 0.49711,0.497106 0.11697,0.146208 0.23393,0.321657 0.14621,0.146207 0.23393,0.292415 0.0585,0.116966 0.11697,0.20469 0.0585,0.08772 0.11697,0.204691 0.20469,0.321657 0.29241,0.701796 0.11697,0.38014 0.23393,0.789521 0.0585,0.146208 0.0292,0.292415 0,0.116966 0.0293,0.263174 z m -5.05879,14.211374 q 0,0.20469 0.0293,0.409381 0.0292,0.20469 -0.0293,0.38014 v 0.292415 q -0.0585,0.175449 -0.0877,0.321656 -0.0292,0.146208 -0.17545,0.233932 -0.17545,0.116966 -0.43862,0.146208 -0.26318,0 -0.58483,0 h -2.04691 q -0.32165,0 -0.61407,-0.02924 -0.29241,-0.02924 -0.43862,-0.233932 -0.11697,-0.175449 -0.14621,-0.438622 0,-0.292415 0,-0.584831 v -1.900698 q 0,-0.263173 0,-0.526347 0.0292,-0.292415 0.14621,-0.467864 0.14621,-0.175449 0.40938,-0.233932 0.0585,-0.02924 0.11697,0 0.0585,0 0.11696,-0.02924 h 2.33932 q 0.32166,0 0.64332,0 0.32165,0 0.4971,0.146208 0.14621,0.08772 0.17545,0.233932 0.0292,0.146207 0.0877,0.321657 v 0.233932 q 0.0293,0.146207 0,0.292415 0,0.146207 0,0.292415 z" />
      </g>
    </g>
  </g>
</svg>
