<?xml version="1.0" encoding="UTF-8" standalone="no"?>
<!-- Created with Inkscape (http://www.inkscape.org/) -->

<svg
   xmlns:dc="http://purl.org/dc/elements/1.1/"
   xmlns:cc="http://creativecommons.org/ns#"
   xmlns:rdf="http://www.w3.org/1999/02/22-rdf-syntax-ns#"
   xmlns:svg="http://www.w3.org/2000/svg"
   xmlns="http://www.w3.org/2000/svg"
   xmlns:sodipodi="http://sodipodi.sourceforge.net/DTD/sodipodi-0.dtd"
   xmlns:inkscape="http://www.inkscape.org/namespaces/inkscape"
   width="191.88916mm"
   height="216.14261mm"
   viewBox="0 0 191.88916 216.14261"
   version="1.1"
   id="svg4699"
   inkscape:version="0.92.1 r15371"
   sodipodi:docname="virtual.svg">
  <defs
     id="defs4693" />
  <sodipodi:namedview
     id="base"
     pagecolor="#ffffff"
     bordercolor="#666666"
     borderopacity="1.0"
     inkscape:pageopacity="0.0"
     inkscape:pageshadow="2"
     inkscape:zoom="0.49497475"
     inkscape:cx="23.185087"
     inkscape:cy="254.69277"
     inkscape:document-units="mm"
     inkscape:current-layer="layer1"
     showgrid="false"
     fit-margin-top="0"
     fit-margin-left="0"
     fit-margin-right="0"
     fit-margin-bottom="0"
     inkscape:window-width="1632"
     inkscape:window-height="998"
     inkscape:window-x="48"
     inkscape:window-y="30"
     inkscape:window-maximized="1" />
  <metadata
     id="metadata4696">
    <rdf:RDF>
      <cc:Work
         rdf:about="">
        <dc:format>image/svg+xml</dc:format>
        <dc:type
           rdf:resource="http://purl.org/dc/dcmitype/StillImage" />
        <dc:title />
      </cc:Work>
    </rdf:RDF>
  </metadata>
  <g
     inkscape:label="Ebene 1"
     inkscape:groupmode="layer"
     id="layer1"
     transform="translate(-1.5732771,-82.339409)">
    <path
       sodipodi:type="star"
       style="opacity:1;fill:#000000;fill-opacity:0.50362321;fill-rule:nonzero;stroke:none;stroke-width:9.04874992;stroke-linecap:round;stroke-linejoin:bevel;stroke-miterlimit:4;stroke-dasharray:none;stroke-opacity:1;paint-order:markers stroke fill"
       id="path4551"
       sodipodi:sides="3"
       sodipodi:cx="-155.58121"
       sodipodi:cy="10.365468"
       sodipodi:r1="43.468906"
       sodipodi:r2="21.734453"
       sodipodi:arg1="0.77670273"
       sodipodi:arg2="1.8239003"
       inkscape:flatsided="false"
       inkscape:rounded="0"
       inkscape:randomized="0"
       d="m -124.57794,40.834195 -36.4458,-9.426737 -36.44579,-9.426737 26.38669,-26.8496167 26.38669,-26.8496153 10.05911,36.2763532 z"
       inkscape:transform-center-x="0.65278597"
       inkscape:transform-center-y="15.174754"
       transform="matrix(0.75632167,0.68403424,-0.75632167,0.68403424,223.22907,355.76561)" />
    <rect
       style="opacity:1;fill:#fffffc;fill-opacity:0;fill-rule:nonzero;stroke:none;stroke-width:4.20102358;stroke-linecap:round;stroke-linejoin:bevel;stroke-miterlimit:4;stroke-dasharray:none;stroke-opacity:1;paint-order:markers stroke fill"
       id="rect4665"
       width="191.88916"
       height="216.14261"
       x="1.5732771"
       y="82.339409"
       ry="0.95094585" />
    <g
       id="g5885"
       transform="matrix(1.039317,0,0,1.039317,591.33813,-10.365529)">
      <path
         style="fill:#fffffe;fill-opacity:1;fill-rule:evenodd;stroke:#020000;stroke-width:7.22444391;stroke-linecap:butt;stroke-linejoin:miter;stroke-miterlimit:4;stroke-dasharray:none;stroke-opacity:1"
         d="m -540.99819,241.21162 c 5.47576,-1.26035 13.19309,-3.03362 20.72493,-11.28489 7.53183,-8.25127 9.82042,-29.49216 7.00185,-40.80785 -2.81856,-11.31569 -9.76305,-16.59982 -12.3797,-29.80965 -2.61666,-13.20982 -2.57612,-26.66711 3.44458,-39.76981 6.02071,-13.10269 16.64312,-23.178752 33.7158,-25.35705 17.07267,-2.178303 28.04274,0.9369 38.11844,7.85147 10.0757,6.91457 18.85658,15.01783 18.16111,27.71467 -0.69548,12.69684 -3.1437,23.74671 -7.12214,34.58431 -3.97845,10.83759 -1.71507,27.63343 7.08384,38.68246 8.7989,11.04902 3.22194,9.94969 28.54474,18.19928 -9.54572,15.39134 -26.13595,22.63071 -40.28475,25.06582 -14.1488,2.43512 -38.08054,1.93017 -46.48337,-8.17952 -8.40282,-10.10969 -6.32921,1.67769 -15.23669,7.31178 -8.90748,5.63409 -20.64521,3.45484 -29.61372,3.77648 -8.96851,0.32164 -9.89579,-7.82047 -5.67492,-7.97736 4.22086,-0.15691 -5.47576,1.26021 0,-1.4e-4 z"
         id="path5187"
         inkscape:connector-curvature="0"
         sodipodi:nodetypes="zzzzzzzzzzczzzzzz" />
      <path
         style="fill:#ffffff;fill-opacity:1;fill-rule:evenodd;stroke:#020000;stroke-width:7.22444391;stroke-linecap:butt;stroke-linejoin:miter;stroke-miterlimit:4;stroke-dasharray:none;stroke-opacity:1"
         d="m -440.17352,173.99517 c 7.23249,-4.32614 15.16911,-7.68698 23.31379,-17.58145 3.72848,-5.4965 7.34337,-10.88566 9.91757,-16.60239 -0.0659,3.01947 -0.37801,6.47998 0.61569,9.62442 5.68042,22.64403 -15.691,36.30642 -30.48623,46.82488"
         id="path5193"
         inkscape:connector-curvature="0"
         sodipodi:nodetypes="ccccc" />
      <path
         style="fill:#ffffff;fill-opacity:1;fill-rule:evenodd;stroke:#020000;stroke-width:7.22444391;stroke-linecap:butt;stroke-linejoin:miter;stroke-miterlimit:4;stroke-dasharray:none;stroke-opacity:1"
         d="m -513.85129,204.93888 c -3.73149,-3.8404 -7.0387,-8.10634 -11.22983,-11.47983 -4.9557,-4.67619 -11.69285,-8.17063 -16.63289,-12.86293 -6.79448,-7.51817 -19.29256,-25.84421 -13.27946,-39.19504 2.27469,1.43908 3.09559,4.56108 4.86969,6.60938 2.50547,3.962 5.52209,7.6726 9.42256,10.332 6.13278,5.23983 12.24722,10.93767 20.01761,13.62303"
         id="path5200"
         inkscape:connector-curvature="0"
         sodipodi:nodetypes="ccccccc" />
      <ellipse
         style="opacity:1;fill:#000000;fill-opacity:1;fill-rule:nonzero;stroke:none;stroke-width:2.40699029;stroke-linecap:round;stroke-miterlimit:4;stroke-dasharray:none;stroke-opacity:1"
         id="path5208"
         cx="-492.53741"
         cy="145.37891"
         rx="7.0551152"
         ry="14.11023" />
      <ellipse
         ry="14.11023"
         rx="7.0551152"
         cy="144.78477"
         cx="-470.25809"
         id="ellipse5210"
         style="opacity:1;fill:#000000;fill-opacity:1;fill-rule:nonzero;stroke:none;stroke-width:2.40699029;stroke-linecap:round;stroke-miterlimit:4;stroke-dasharray:none;stroke-opacity:1" />
      <path
         style="fill:none;fill-rule:evenodd;stroke:#000000;stroke-width:4.44303322;stroke-linecap:round;stroke-linejoin:miter;stroke-miterlimit:4;stroke-dasharray:none;stroke-opacity:1"
         d="m -507.20786,121.82641 c 5.99742,3.32776 15.77994,7.25801 19.24607,11.34385"
         id="path5212"
         inkscape:connector-curvature="0"
         sodipodi:nodetypes="cc" />
      <path
         sodipodi:nodetypes="cc"
         inkscape:connector-curvature="0"
         id="path5222"
         d="m -458.31295,121.68191 c -5.1376,4.12055 -13.51764,8.98713 -16.48684,14.04637"
         style="fill:none;fill-rule:evenodd;stroke:#000000;stroke-width:4.5759244;stroke-linecap:round;stroke-linejoin:miter;stroke-miterlimit:4;stroke-dasharray:none;stroke-opacity:1" />
      <path
         style="opacity:1;fill:#ff0000;fill-opacity:1;fill-rule:nonzero;stroke:#000000;stroke-width:6.85544205;stroke-linecap:round;stroke-linejoin:round;stroke-miterlimit:4;stroke-dasharray:none;stroke-opacity:1"
         inkscape:transform-center-x="39.652192"
         inkscape:transform-center-y="-74.466964"
         d="m -478.67832,204.12004 c -6.8528,-9.36365 -13.70559,-18.7273 -20.5584,-28.09094 17.35558,6.41385 22.5997,6.605 39.67585,-1.6814 -6.37247,9.92411 -12.74497,19.84822 -19.11745,29.77234 z"
         id="path5224"
         inkscape:connector-curvature="0"
         sodipodi:nodetypes="cccc" />
    </g>
  </g>
</svg>
